<svg width="115" height="78" viewBox="0 0 115 78" fill="none" xmlns="http://www.w3.org/2000/svg">
<path d="M73.78 71.2356H114.51L99.77 67.4153L73.78 71.2356Z" fill="#F1F2F3"/>
<path d="M33.9901 77.8382H74.7201L59.9701 74.0178L33.9901 77.8382Z" fill="#F1F2F3"/>
<g opacity="0.7">
<path d="M73.2701 26.0973L55.0801 5.34497L40.7501 26.0973V57.7708H73.2701V26.0973Z" fill="white"/>
<path d="M19.1801 33.7795H27.3701V41.0984H19.1801V33.7795Z" fill="#00716D"/>
<path d="M1.68008 33.7795H9.87006V41.0984H1.68008V33.7795Z" fill="#00716D"/>
<path d="M74.3801 27.3327L55.0801 5.34499L40.7501 26.0973H-46.2499L-29.2199 1.92953L55.0801 0.351562L76.0801 25.3499L74.3801 27.3327Z" fill="#00716D"/>
<path d="M-57.4799 71.2354H78.1801L89.9601 48.6871H-67.6399L-57.4799 71.2354Z" fill="#00716D"/>
</g>
</svg>
