<svg width="29" height="29" viewBox="0 0 29 29" fill="none" xmlns="http://www.w3.org/2000/svg">
<path d="M14.3926 28.0742C22.0215 28.0742 28.3379 21.7441 28.3379 14.1289C28.3379 6.5 22.0078 0.183594 14.3789 0.183594C6.76367 0.183594 0.447266 6.5 0.447266 14.1289C0.447266 21.7441 6.77734 28.0742 14.3926 28.0742ZM7.7207 14.1426C7.7207 13.4316 8.21289 12.9395 8.92383 12.9395H13.2031V8.66016C13.2031 7.94922 13.6816 7.44336 14.3789 7.44336C15.0898 7.44336 15.582 7.94922 15.582 8.66016V12.9395H19.875C20.5723 12.9395 21.0781 13.4316 21.0781 14.1426C21.0781 14.8398 20.5723 15.3047 19.875 15.3047H15.582V19.5977C15.582 20.3086 15.0898 20.8008 14.3789 20.8008C13.6816 20.8008 13.2031 20.2949 13.2031 19.5977V15.3047H8.92383C8.21289 15.3047 7.7207 14.8398 7.7207 14.1426Z" fill="black"/>
</svg>
