<svg width="18" height="18" viewBox="0 0 18 18" fill="none" xmlns="http://www.w3.org/2000/svg">
<path d="M17.2523 3.74528V5.3099H0.747665V3.74528C0.747665 2.50605 1.75151 1.5022 2.99075 1.5022H5.24076V2.74143C5.24076 3.05989 5.55229 3.31605 5.93306 3.31605C6.31384 3.31605 6.62537 3.05989 6.62537 2.74143V1.5022H11.2431V2.74143C11.2431 3.05989 11.5546 3.31605 11.9354 3.31605C12.3162 3.31605 12.6277 3.05989 12.6277 2.74143V1.5022H15.0092C16.2485 1.5022 17.2523 2.50605 17.2523 3.74528Z" fill="#7A1900"/>
<path d="M0.747665 6.69458H17.2523V15.7569C17.2523 16.9961 16.2485 18 15.0092 18H2.99075C1.75151 18 0.747665 16.9961 0.747665 15.7569V6.69458Z" fill="#7A1900"/>
<path d="M6.62537 0.574617V1.50231H5.24075V0.574617C5.24075 0.256155 5.55229 0 5.93306 0C6.31383 0 6.62537 0.256155 6.62537 0.574617Z" fill="#7A1900"/>
<path d="M12.6276 0.574617V1.50231H11.243V0.574617C11.243 0.256155 11.5546 0 11.9353 0C12.3161 0 12.6276 0.256155 12.6276 0.574617Z" fill="#7A1900"/>
</svg>
