<svg width="22" height="22" viewBox="0 0 22 22" fill="none" xmlns="http://www.w3.org/2000/svg">
<path d="M16.67 0.590332H4.57001C2.04607 0.590332 0 2.63638 0 5.16032V17.2603C0 19.7843 2.04607 21.8303 4.57001 21.8303H16.67C19.1939 21.8303 21.24 19.7843 21.24 17.2603V5.16032C21.24 2.63638 19.1939 0.590332 16.67 0.590332Z" fill="black"/>
<path d="M13.2604 12.6902L13.6404 10.2202H11.2704V8.61024C11.2704 7.94024 11.6004 7.27023 12.6704 7.27023H13.7504V5.16023C13.7504 5.16023 12.7705 4.99023 11.8405 4.99023C9.88045 4.99023 8.61041 6.18024 8.61041 8.32024V10.2002H6.44043V12.6702H8.61041V18.6502H11.2805V12.6702H13.2704L13.2604 12.6902Z" fill="#FFB600"/>
</svg>
