<svg width="3751" height="420" viewBox="0 0 3751 420" fill="none" xmlns="http://www.w3.org/2000/svg">
<path d="M3709.08 226.616C3530.52 192.226 3356.83 135.776 3173.28 127.716C2869.53 114.366 2579.43 234.676 2275.37 242.486C1974 250.226 1678.28 146.966 1378.17 169.946C1091.05 191.926 814.24 328.336 532.03 281.256C417.62 262.166 314.9 214.096 205.72 181.116C139.34 161.066 70.2595 146.736 0.0195312 138.166V257.566C107.77 290.006 214.61 333.506 327.86 349.456C628.88 391.866 929.47 235.606 1232.5 268.876C1357.38 282.586 1472.39 327.766 1595.54 348.566C2013.36 419.146 2430.91 202.266 2858.01 224.796C3048.15 234.826 3227.5 291.846 3411.54 329.296C3520.91 351.556 3637.83 366.346 3750.02 360.626V233.986C3736.27 231.696 3722.61 229.236 3709.09 226.626L3709.08 226.616Z" fill="#FF805F"/>
<path d="M3411.53 329.296C3227.49 291.846 3048.15 234.826 2858 224.796C2430.9 202.266 2013.35 419.146 1595.53 348.566C1472.38 327.766 1357.37 282.586 1232.49 268.876C929.46 235.606 628.87 391.866 327.85 349.456C214.6 333.506 107.76 290.006 0.00976562 257.566V419.306H3750.01V360.626C3637.82 366.346 3520.9 351.556 3411.53 329.296Z" fill="#FFA892"/>
<path d="M532.02 281.246C814.23 328.336 1091.03 191.926 1378.16 169.936C1678.28 146.956 1973.99 250.216 2275.36 242.476C2579.43 234.666 2869.52 114.356 3173.27 127.706C3356.81 135.776 3530.51 192.216 3709.07 226.606C3722.59 229.206 3736.25 231.676 3750 233.966V37.586C3541.51 -1.44402 3329.35 -19.224 3127.42 29.836C3006.28 59.266 2895.54 111.646 2773.75 139.376C2322.94 242.006 1849.35 -10.174 1385 43.306C1177.23 67.236 987.2 151.176 780.47 180.136C518.92 216.776 252.76 163.106 0 94.956V138.146C70.24 146.726 139.33 161.046 205.7 181.096C314.88 214.076 417.61 262.146 532.01 281.236L532.02 281.246Z" fill="#FF5124"/>
</svg>
