<svg width="23" height="23" viewBox="0 0 23 23" fill="none" xmlns="http://www.w3.org/2000/svg">
<path d="M22.7203 14.8V7.82996C22.7203 3.61996 19.3003 0.199951 15.0903 0.199951H8.12024C3.91024 0.199951 0.490234 3.61996 0.490234 7.82996V14.8C0.490234 19.01 3.91024 22.4299 8.12024 22.4299H15.0903C19.3003 22.4299 22.7203 19.01 22.7203 14.8Z" fill="black"/>
<path d="M6.7403 8.25006H8.89032V15.16H6.7403V8.25006ZM7.82031 4.81006C8.51031 4.81006 9.07031 5.37006 9.07031 6.06006C9.07031 6.75006 8.51031 7.31006 7.82031 7.31006C7.13031 7.31006 6.57031 6.75006 6.57031 6.06006C6.57031 5.37006 7.13031 4.81006 7.82031 4.81006Z" fill="#FFB600"/>
<path d="M10.2402 8.25008H12.3002V9.20007H12.3303C12.6203 8.65007 13.3202 8.08008 14.3602 8.08008C16.5302 8.08008 16.9302 9.52007 16.9302 11.3701V15.1601H14.7902V11.8001C14.7902 11.0001 14.7702 9.96007 13.6702 9.96007C12.5702 9.96007 12.3802 10.8401 12.3802 11.7401V15.1601H10.2402V8.25008Z" fill="#FFB600"/>
</svg>
