<svg width="137" height="258" viewBox="0 0 137 258" fill="none" xmlns="http://www.w3.org/2000/svg">
<g clip-path="url(#clip0_51_9364)">
<path d="M56.3363 219.548L53.1577 224.451L45.682 240.19C46.8191 240.754 52.7887 231.428 55.7315 225.727C56.6179 224.012 57.4734 220.112 56.3367 219.55L56.3363 219.548Z" fill="url(#paint0_linear_51_9364)"/>
<path d="M51.6143 223.689C48.671 229.389 44.5437 239.629 45.6808 240.192L56.3351 219.55C55.1991 218.985 52.4978 221.975 51.6129 223.69L51.6143 223.689Z" fill="url(#paint1_linear_51_9364)"/>
<path d="M60.874 212.825L57.9612 220.187L51.4318 242.94C52.6506 243.301 58.1137 229.323 60.7212 221.008C61.5052 218.506 62.0918 213.188 60.874 212.825Z" fill="url(#paint2_linear_51_9364)"/>
<path d="M56.3063 219.698C53.6989 228.013 50.214 242.576 51.4336 242.941L60.8759 212.826C59.6563 212.462 57.0922 217.197 56.3078 219.698L56.3063 219.698Z" fill="url(#paint3_linear_51_9364)"/>
<path d="M65.7055 203.858C64.717 206.978 63.785 210.117 62.8929 213.271C61.9341 218.079 61.0694 222.907 60.4234 227.768C59.9363 232.592 58.9895 237.603 60.2977 242.358C60.6408 242.153 60.5319 237.84 61.7869 231.993C62.8767 226.194 64.5596 219.097 65.715 213.854C66.3879 210.699 66.9233 204.161 65.7059 203.859L65.7055 203.858Z" fill="url(#paint4_linear_51_9364)"/>
<path d="M61.1985 212.924C60.0264 218.24 58.8228 225.559 58.5393 231.654C58.055 237.72 59.4245 242.705 60.2958 242.357C58.9109 235.957 60.5789 229.367 61.515 222.985C62.689 216.566 64.1132 210.192 65.7041 203.858C64.4501 203.549 61.8801 209.717 61.1971 212.925L61.1985 212.924Z" fill="url(#paint5_linear_51_9364)"/>
<path d="M70.3672 196.072C69.4274 199.5 68.6277 202.967 67.9077 206.453C66.5893 217.007 65.8373 227.755 67.4286 238.272C68.0687 238.163 67.8567 233.176 68.3868 226.78C68.8293 220.382 69.8917 212.581 70.7668 206.847C71.2306 203.393 71.568 196.336 70.3676 196.074L70.3672 196.072Z" fill="url(#paint6_linear_51_9364)"/>
<path d="M66.193 206.223C65.2958 212.094 64.7247 220.181 65.118 226.782C65.4236 233.396 66.8104 238.387 67.43 238.272C65.6788 224.197 67.6041 209.93 70.3687 196.072C69.0803 195.789 66.6711 202.671 66.1945 206.222L66.193 206.223Z" fill="url(#paint7_linear_51_9364)"/>
<path d="M75.7863 187.508C74.836 191.381 74.0841 195.302 73.4405 199.245C72.3265 211.14 72.202 223.204 74.2926 234.946C74.9365 234.828 74.4964 229.22 74.6781 222.012C74.7957 214.801 75.5494 205.996 76.313 199.536C76.6842 195.646 76.973 187.749 75.7877 187.508L75.7863 187.508Z" fill="url(#paint8_linear_51_9364)"/>
<path d="M71.7172 199.073C70.9343 205.697 70.6841 214.792 71.4104 222.156C72.0749 229.538 73.6824 235.068 74.2924 234.946C71.8506 219.234 72.9833 203.138 75.7861 187.508C74.4703 187.244 72.101 195.067 71.7172 199.073Z" fill="url(#paint9_linear_51_9364)"/>
<path d="M81.8012 178.423C80.6725 183.002 79.777 187.636 79.0021 192.291C77.505 206.346 77.1717 220.566 78.9931 234.548C79.6436 234.46 79.3369 227.802 79.6599 219.251C79.9267 210.698 80.8947 200.262 81.8718 192.611C82.3629 188.001 82.9728 178.672 81.8026 178.423L81.8012 178.423Z" fill="url(#paint10_linear_51_9364)"/>
<path d="M77.2826 192.104C76.285 199.915 75.8179 210.626 76.3911 219.324C76.9088 228.034 78.38 234.637 78.9932 234.548C76.9136 215.87 78.2874 196.895 81.8012 178.423C80.4756 178.146 77.7835 187.385 77.2811 192.104L77.2826 192.104Z" fill="url(#paint11_linear_51_9364)"/>
<path d="M87.2937 170.617C86.5306 175.492 85.9652 180.397 85.5026 185.313C84.9397 200.094 85.3323 214.962 87.8081 229.524C88.4521 229.412 87.8325 222.457 87.7256 213.484C87.5581 204.511 87.923 193.523 88.3882 185.441C88.5836 180.578 88.4963 170.765 87.2937 170.617Z" fill="url(#paint12_linear_51_9364)"/>
<path d="M83.7701 185.24C83.2977 193.452 83.4502 204.647 84.4615 213.707C85.4166 222.783 87.194 229.636 87.8064 229.523C84.8492 210.054 85.237 190.191 87.292 170.616C85.9604 170.456 83.9673 180.29 83.7686 185.241L83.7701 185.24Z" fill="url(#paint13_linear_51_9364)"/>
<path d="M92.1802 163.438C91.1565 168.247 90.6507 173.154 90.2937 178.06C90.0671 192.817 91.7076 207.501 94.4359 221.922C95.4684 221.706 92.1636 194.146 93.1811 178.121C93.1807 173.303 93.267 163.661 92.1806 163.44L92.1802 163.438Z" fill="url(#paint14_linear_51_9364)"/>
<path d="M88.5615 178.028C87.5329 194.618 92.9722 222.261 94.4359 221.922C91.1658 202.678 89.3702 182.9 92.1802 163.438C90.7566 163.171 88.5555 173.061 88.56 178.028L88.5615 178.028Z" fill="url(#paint15_linear_51_9364)"/>
<path d="M96.9504 156.63C96.3365 161.766 95.9142 166.927 95.6024 172.095C95.5346 187.586 96.2469 203.23 99.9998 218.279C100.632 218.113 99.3463 210.925 98.8524 201.534C98.2474 192.157 98.2778 180.622 98.4909 172.132C98.535 167.029 98.1611 156.735 96.9518 156.629L96.9504 156.63Z" fill="url(#paint16_linear_51_9364)"/>
<path d="M93.868 172.077C93.6507 180.695 94.1422 192.431 95.5998 201.899C96.9467 211.392 99.3972 218.455 99.9973 218.281C95.3933 198.119 95.5784 177.192 96.9489 156.63C95.6183 156.518 93.9118 166.883 93.868 172.077Z" fill="url(#paint17_linear_51_9364)"/>
<path d="M101.018 151.267C100.543 156.376 100.262 161.503 100.088 166.638C100.424 182.007 101.592 197.482 105.538 212.352C106.168 212.178 104.804 205.058 104.087 195.756C103.267 186.465 102.99 175.026 102.978 166.602C102.885 161.537 102.232 151.342 101.019 151.268L101.018 151.267Z" fill="url(#paint18_linear_51_9364)"/>
<path d="M98.3555 166.665C98.3681 175.218 99.1709 186.84 100.844 196.191C102.416 205.569 104.941 212.53 105.538 212.35C100.655 192.428 100.183 171.699 101.018 151.265C99.681 151.186 98.26 161.512 98.3551 166.663L98.3555 166.665Z" fill="url(#paint19_linear_51_9364)"/>
<path d="M105.472 145.673C105.14 151.312 104.991 156.961 104.944 162.614C105.641 179.531 107.145 196.497 111.071 212.967C111.704 212.812 110.37 204.93 109.515 194.669C108.572 184.419 108.051 171.808 107.831 162.518C107.619 156.935 106.689 145.711 105.471 145.675L105.472 145.673Z" fill="url(#paint20_linear_51_9364)"/>
<path d="M103.211 162.678C103.433 172.075 104.483 184.826 106.273 195.104C107.978 205.402 110.466 213.124 111.07 212.966C106.2 190.924 105.175 168.21 105.472 145.673C104.138 145.636 102.996 157.021 103.211 162.678Z" fill="url(#paint21_linear_51_9364)"/>
<path d="M110.293 139.409C110.221 144.796 110.306 150.184 110.475 155.572C111.81 171.668 113.841 187.764 117.831 203.41C118.46 203.244 117.119 195.735 116.032 185.969C114.874 176.21 113.938 164.206 113.358 155.358C112.942 150.042 111.521 139.388 110.294 139.409L110.293 139.409Z" fill="url(#paint22_linear_51_9364)"/>
<path d="M108.746 155.707C109.332 164.649 110.799 176.754 112.802 186.495C114.737 196.255 117.224 203.571 117.83 203.41C112.849 182.467 110.991 160.902 110.291 139.41C108.965 139.436 108.325 150.327 108.745 155.707L108.746 155.707Z" fill="url(#paint23_linear_51_9364)"/>
<path d="M113.84 134.203C113.926 140.138 114.14 146.072 114.43 152.004C116.223 169.691 118.155 187.523 123.296 204.584C123.881 204.39 121.971 196.234 120.659 185.481C119.24 174.748 118.097 161.506 117.31 151.749C116.786 145.886 115.076 134.145 113.841 134.203L113.84 134.203Z" fill="url(#paint24_linear_51_9364)"/>
<path d="M112.701 152.16C113.494 161.993 115.166 175.313 117.433 186.041C119.597 196.802 122.669 204.805 123.295 204.585C116.927 181.702 115.295 157.831 113.838 134.203C112.522 134.263 112.171 146.247 112.7 152.161L112.701 152.16Z" fill="url(#paint25_linear_51_9364)"/>
<path d="M118.008 129.926C117.904 135.908 118.081 141.898 118.388 147.878C120.136 165.748 123.207 183.514 128.322 200.703C128.957 200.514 127.066 192.241 125.349 181.466C123.566 170.698 122.062 157.418 121.266 147.618C120.676 141.733 119.195 129.924 118.007 129.927L118.008 129.926Z" fill="url(#paint26_linear_51_9364)"/>
<path d="M116.662 148.04C117.47 157.981 119.515 171.392 122.144 182.119C124.711 192.867 127.734 200.881 128.323 200.701C121.839 177.696 118.643 153.817 118.008 129.926C116.642 129.935 116.063 142.064 116.663 148.042L116.662 148.04Z" fill="url(#paint27_linear_51_9364)"/>
<path d="M122.065 124.9C121.778 131.07 121.827 137.251 122.019 143.43C123.417 161.911 126.371 180.278 131.326 198.101C131.97 197.925 130.146 189.358 128.526 178.211C126.836 167.075 125.502 153.352 124.9 143.226C124.404 137.146 123.237 124.932 122.063 124.898L122.065 124.9Z" fill="url(#paint28_linear_51_9364)"/>
<path d="M120.29 143.559C120.899 153.837 122.776 167.714 125.312 178.821C127.78 189.949 130.74 198.269 131.328 198.102C125.047 174.263 122.012 149.574 122.067 124.9C120.685 124.866 119.787 137.377 120.291 143.559L120.29 143.559Z" fill="url(#paint29_linear_51_9364)"/>
<path d="M126.269 119.606C126.348 125.684 126.659 131.757 127.095 137.826C129.252 155.917 132.446 174.001 138.539 191.189C139.158 190.966 136.756 182.701 134.776 171.802C132.692 160.926 130.977 147.453 129.967 137.507C129.262 131.539 127.472 119.562 126.268 119.604L126.269 119.606Z" fill="url(#paint30_linear_51_9364)"/>
<path d="M125.372 138.021C126.392 148.089 128.65 161.689 131.587 172.534C134.423 183.415 137.96 191.411 138.539 191.189C130.788 168.144 127.674 143.808 126.269 119.605C124.919 119.658 124.656 131.964 125.372 138.021Z" fill="url(#paint31_linear_51_9364)"/>
<path d="M130.279 115.33C130.656 121.384 131.278 127.427 132.033 133.454C135.135 151.381 139.364 169.229 146.45 186.007C147.057 185.75 144.177 177.649 141.572 166.903C138.864 156.183 136.414 142.85 134.887 132.991C133.865 127.08 131.475 115.232 130.28 115.331L130.279 115.33Z" fill="url(#paint32_linear_51_9364)"/>
<path d="M130.319 133.738C131.867 143.728 134.869 157.166 138.427 167.812C141.888 178.498 145.885 186.262 146.449 186.009C137.362 163.49 132.869 139.397 130.278 115.332C128.926 115.447 129.282 127.737 130.32 133.739L130.319 133.738Z" fill="url(#paint33_linear_51_9364)"/>
<path d="M133.636 111.233C133.781 117.411 134.276 123.583 134.943 129.735C137.778 148.061 142.306 166.187 149.486 183.282C150.103 183.027 147.188 174.759 144.461 163.836C141.656 152.93 139.177 139.366 137.804 129.318C136.838 123.296 134.801 111.19 133.636 111.233Z" fill="url(#paint34_linear_51_9364)"/>
<path d="M133.228 129.989C134.624 140.208 137.666 153.925 141.322 164.754C144.903 175.615 148.928 183.523 149.487 183.28C140.267 160.357 135.326 135.848 133.637 111.231C132.246 111.29 132.243 123.849 133.227 129.987L133.228 129.989Z" fill="url(#paint35_linear_51_9364)"/>
<path d="M137.922 106.586C137.504 112.842 137.662 119.127 138.057 125.39C140.079 144.107 144.812 162.504 152.247 179.745C152.879 179.481 149.785 171.144 147.007 160.091C144.112 149.068 141.84 135.298 140.933 125.099C140.16 118.984 139.02 106.66 137.92 106.588L137.922 106.586Z" fill="url(#paint36_linear_51_9364)"/>
<path d="M136.332 125.571C137.262 136.028 140.112 150.04 143.868 161.011C147.512 172.029 151.708 179.983 152.247 179.743C142.651 156.659 137.539 131.628 137.922 106.586C136.464 106.509 135.539 119.288 136.332 125.571Z" fill="url(#paint37_linear_51_9364)"/>
<path d="M142.75 101.104C142.435 107.748 142.743 114.415 143.265 121.05C145.685 140.883 150.583 160.326 157.207 179.102C157.853 178.881 155.183 169.824 152.509 157.995C149.768 146.178 147.266 131.55 146.137 120.717C145.237 114.22 143.824 101.158 142.75 101.104Z" fill="url(#paint38_linear_51_9364)"/>
<path d="M141.544 121.255C142.698 132.318 145.763 147.108 149.348 158.837C152.87 170.588 156.649 179.303 157.209 179.104C148.743 153.999 142.841 127.726 142.75 101.105C141.266 101.053 140.622 114.619 141.544 121.255Z" fill="url(#paint39_linear_51_9364)"/>
<path d="M274.346 0.491276C274.92 0.163974 275.819 0.644701 276.354 1.56634C276.89 2.48798 276.858 3.4999 276.284 3.82864C252.402 17.4902 227.879 29.9485 206.072 46.5028C184.052 62.7427 163.792 81.2813 144.938 101.071C107.435 140.868 74.9174 185.334 48.2496 232.927C74.351 185.024 106.359 140.135 143.508 99.7689C162.192 79.6902 182.323 60.8233 204.313 44.2022C226.146 27.2281 250.727 14.3739 274.346 0.491276Z" fill="#92DE46"/>
<path d="M56.3364 219.548L53.0185 222.138L44.9135 231.616C45.9354 232.555 52.1788 227.599 55.3326 224.267C56.2813 223.264 57.3583 220.488 56.3349 219.549L56.3364 219.548Z" fill="url(#paint40_linear_51_9364)"/>
<path d="M51.6293 220.862C48.4741 224.194 43.8912 230.674 44.9139 231.617L56.3353 219.55C55.313 218.609 52.5759 219.862 51.6278 220.862L51.6293 220.862Z" fill="url(#paint41_linear_51_9364)"/>
<path d="M61.091 211.179L57.5731 213.559L48.7433 222.532C49.6961 223.541 56.3216 218.979 59.7291 215.844C60.7554 214.902 62.0424 212.188 61.0914 211.181L61.091 211.179Z" fill="url(#paint42_linear_51_9364)"/>
<path d="M56.2771 212.189C52.8682 215.325 47.7895 221.52 48.7413 222.531L61.0894 211.179C60.1362 210.169 57.302 211.247 56.2771 212.189Z" fill="url(#paint43_linear_51_9364)"/>
<path d="M65.7058 203.858L61.8245 206.714C58.5561 210.197 54.5067 213.606 51.4258 217.243C52.44 218.128 60.2655 212.545 64.047 208.938C65.1707 207.839 66.6649 204.856 65.7048 203.86L65.7058 203.858Z" fill="url(#paint44_linear_51_9364)"/>
<path d="M60.4902 205.384C56.6526 209.046 50.3437 216.299 51.4261 217.243C55.7465 212.588 61.1006 208.238 65.705 203.86C64.7382 202.856 61.6294 204.268 60.4906 205.385L60.4902 205.384Z" fill="url(#paint45_linear_51_9364)"/>
<path d="M70.6579 195.765L66.4784 198.915C62.9366 202.708 59.3474 206.481 56.1897 210.592C57.1722 211.33 64.5463 205.061 68.704 201.134C69.9247 199.937 71.6208 196.761 70.6589 195.764L70.6579 195.765Z" fill="url(#paint46_linear_51_9364)"/>
<path d="M65.1422 197.585C60.9631 201.525 54.9528 209.64 56.19 210.594C60.6536 205.324 65.6857 200.561 70.6577 195.766C69.6899 194.764 66.3809 196.37 65.1418 197.584L65.1422 197.585Z" fill="url(#paint47_linear_51_9364)"/>
<path d="M75.7866 187.508C74.3127 188.416 72.8753 189.392 71.4592 190.407C67.8156 194.08 64.4227 198.033 61.7924 202.442C62.8485 202.988 69.3778 196.24 73.6187 192.688C74.8133 191.554 76.6247 188.579 75.7862 187.507L75.7866 187.508Z" fill="url(#paint48_linear_51_9364)"/>
<path d="M70.1624 189.039C65.6227 192.838 60.3627 201.654 61.7924 202.442C65.5696 196.739 70.485 191.841 75.7866 187.508C74.9132 186.394 71.4486 187.821 70.1638 189.039L70.1624 189.039Z" fill="url(#paint49_linear_51_9364)"/>
<path d="M81.802 178.423C80.4422 179.322 79.0995 180.249 77.764 181.191C74.3332 184.625 71.0203 188.165 67.8406 191.81C68.8498 192.71 75.9919 186.993 79.9172 183.478C81.0784 182.396 82.7042 179.462 81.8006 178.424L81.802 178.423Z" fill="url(#paint50_linear_51_9364)"/>
<path d="M76.4707 179.82C72.4277 183.441 66.7752 190.859 67.8421 191.809C72.2907 187.147 76.9394 182.666 81.802 178.423C80.8831 177.369 77.6628 178.709 76.4707 179.82Z" fill="url(#paint51_linear_51_9364)"/>
<path d="M87.2943 170.617C86.11 171.35 84.9404 172.113 83.7783 172.887C80.8637 175.825 78.0519 178.848 75.3096 181.924C76.3108 182.862 82.584 178.162 85.923 175.182C86.9138 174.268 88.189 171.662 87.2943 170.617Z" fill="url(#paint52_linear_51_9364)"/>
<path d="M82.4916 171.51C79.0366 174.598 74.2836 180.964 75.3112 181.924C79.1713 178.021 83.1286 174.204 87.2959 170.617C86.3869 169.553 83.5131 170.567 82.493 171.51L82.4916 171.51Z" fill="url(#paint53_linear_51_9364)"/>
<path d="M92.1803 163.438C91.217 164.351 90.2229 165.226 89.2192 166.083C86.8507 169.192 84.2992 172.179 81.5934 175.037C82.5653 176.092 88.8111 171.549 91.6468 168.085C92.5293 167.072 93.323 164.26 92.1818 163.438L92.1803 163.438Z" fill="url(#paint54_linear_51_9364)"/>
<path d="M87.7623 164.881C85.0967 168.143 80.6835 174.048 81.5933 175.037C85.3908 171.42 88.9636 167.566 92.1817 163.438C91.0623 162.633 88.5956 163.925 87.7623 164.881Z" fill="url(#paint55_linear_51_9364)"/>
<path d="M96.951 156.63C96.0537 157.606 95.0711 158.489 94.0792 159.355C91.736 162.471 89.1191 165.419 86.4272 168.293C87.3908 169.313 93.6478 164.872 96.5244 161.337C97.4223 160.318 98.1852 157.368 96.951 156.63Z" fill="url(#paint56_linear_51_9364)"/>
<path d="M92.6123 158.167C90.0057 161.385 85.4802 167.3 86.4276 168.294C90.1902 164.647 93.9349 160.92 96.9514 156.631C95.7849 155.94 93.4447 157.22 92.6123 158.167Z" fill="url(#paint57_linear_51_9364)"/>
<path d="M101.019 151.267C100.198 152.06 99.3392 152.803 98.4746 153.536C96.526 156.242 94.3652 158.823 92.0814 161.303C93.0367 162.337 98.5303 158.552 100.941 155.493C101.693 154.604 102.201 152.039 101.019 151.267Z" fill="url(#paint58_linear_51_9364)"/>
<path d="M96.9942 152.361C94.8039 155.153 91.1515 160.298 92.0814 161.303C95.314 158.192 98.383 154.89 101.019 151.267C99.866 150.513 97.686 151.543 96.9942 152.361Z" fill="url(#paint59_linear_51_9364)"/>
<path d="M107.332 144.555L104.301 147.073L97.1294 156.257C98.1907 157.155 103.886 152.337 106.705 149.106C107.552 148.134 108.395 145.452 107.333 144.554L107.332 144.555Z" fill="url(#paint60_linear_51_9364)"/>
<path d="M102.859 145.856C100.042 149.087 96.068 155.36 97.1283 156.259L107.331 144.557C106.269 143.659 103.705 144.886 102.858 145.858L102.859 145.856Z" fill="url(#paint61_linear_51_9364)"/>
<path d="M110.293 139.409L107.269 143.365L100.398 156.466C101.616 157.147 107.29 149.614 110.023 144.905C110.845 143.486 111.51 140.091 110.291 139.41L110.293 139.409Z" fill="url(#paint62_linear_51_9364)"/>
<path d="M105.615 142.443C102.883 147.153 99.181 155.785 100.398 156.466L110.292 139.41C109.074 138.73 106.436 141.026 105.614 142.444L105.615 142.443Z" fill="url(#paint63_linear_51_9364)"/>
<path d="M114.217 134.668L111.315 138.052L104.76 149.53C105.948 150.259 111.391 143.806 114.003 139.702C114.789 138.468 115.405 135.396 114.217 134.668Z" fill="url(#paint64_linear_51_9364)"/>
<path d="M109.702 137.063C107.09 141.167 103.572 148.801 104.76 149.529L114.216 134.666C113.028 133.937 110.487 135.828 109.702 137.063Z" fill="url(#paint65_linear_51_9364)"/>
<path d="M118.009 129.925L114.854 134.626L108.551 150.91C109.799 151.533 114.817 141.542 117.678 136.037C118.539 134.381 119.256 130.548 118.008 129.924L118.009 129.925Z" fill="url(#paint66_linear_51_9364)"/>
<path d="M113.158 133.78C110.297 139.285 107.302 150.286 108.552 150.91L118.009 129.924C116.761 129.301 114.019 132.124 113.158 133.779L113.158 133.78Z" fill="url(#paint67_linear_51_9364)"/>
<path d="M122.066 124.9L119.506 129.496L114.834 144.732C116.135 145.238 120.277 135.978 122.454 130.646C123.109 129.042 123.369 125.409 122.067 124.901L122.066 124.9Z" fill="url(#paint68_linear_51_9364)"/>
<path d="M117.738 128.808C115.561 134.139 113.532 144.222 114.834 144.732L122.067 124.9C120.765 124.392 118.393 127.205 117.739 128.808L117.738 128.808Z" fill="url(#paint69_linear_51_9364)"/>
<path d="M126.269 119.605L123.782 124.529L119.511 142.388C120.831 142.852 124.677 131.25 126.766 125.577C127.396 123.872 127.59 120.069 126.269 119.605Z" fill="url(#paint70_linear_51_9364)"/>
<path d="M121.988 123.902C119.897 129.573 118.191 141.925 119.511 142.388L126.269 119.605C124.95 119.141 122.617 122.197 121.988 123.902Z" fill="url(#paint71_linear_51_9364)"/>
<path d="M129.885 115.383L128.41 120.273L124.368 137.904C125.753 138.121 130.605 126.278 131.543 120.767C131.826 119.109 131.27 115.601 129.885 115.383Z" fill="url(#paint72_linear_51_9364)"/>
<path d="M126.529 119.98C125.592 125.492 122.983 137.687 124.368 137.905L129.885 115.384C128.5 115.166 126.812 118.323 126.529 119.98Z" fill="url(#paint73_linear_51_9364)"/>
<path d="M133.486 110.935L132.282 116.165L131.196 132.11C132.593 132.245 134.81 122.318 135.443 116.473C135.633 114.712 134.883 111.071 133.487 110.935L133.486 110.935Z" fill="url(#paint74_linear_51_9364)"/>
<path d="M130.385 115.983C129.754 121.83 129.8 131.974 131.196 132.11L133.486 110.935C132.089 110.8 130.575 114.226 130.385 115.983Z" fill="url(#paint75_linear_51_9364)"/>
<path d="M137.737 106.222L136.119 111.58C135.448 117.091 136.065 126.088 136.177 131.646C137.245 131.59 138.083 118.126 139.25 112.087C139.559 110.283 139.111 106.472 137.737 106.222Z" fill="url(#paint76_linear_51_9364)"/>
<path d="M134.24 111.279C133.064 117.283 134.42 131.663 136.177 131.646C136.418 124.256 136.475 113.502 137.737 106.222C136.352 105.972 134.552 109.447 134.24 111.279Z" fill="url(#paint77_linear_51_9364)"/>
<path d="M142.549 100.79C141.864 102.746 141.226 104.723 140.615 106.71C139.737 112.814 139.235 120.713 140.095 126.855C140.91 126.607 142.105 113.924 143.733 107.286C144.107 105.305 143.9 101.108 142.549 100.79Z" fill="url(#paint78_linear_51_9364)"/>
<path d="M138.743 106.366C138.065 109.76 137.554 114.465 137.682 118.372C137.746 122.295 139.388 127.026 140.093 126.855C139.419 118.639 140.841 108.8 142.548 100.79C141.172 100.468 139.13 104.314 138.741 106.366L138.743 106.366Z" fill="url(#paint79_linear_51_9364)"/>
<path d="M143.3 101.766C141.528 110.235 144.03 123.971 145.446 123.771C145.021 118.989 144.789 114.179 145.011 109.373C145.342 104.637 145.672 99.6122 148.206 95.4337C146.802 94.3765 143.531 99.2236 143.3 101.766Z" fill="url(#paint80_linear_51_9364)"/>
</g>
<path d="M115.258 222.983C115.287 225.455 115.44 227.818 115.658 230.119C115.637 237.602 116.14 244.682 118.313 250.164C117.737 250.757 115.98 248.85 114.828 245.261C113.619 241.732 112.98 236.613 112.93 232.485C112.847 230.04 114.014 224.007 115.258 222.983Z" fill="url(#paint81_linear_51_9364)"/>
<path d="M117.05 229.192C117.112 233.387 117.278 239.013 117.745 243.321C118.143 247.69 118.893 250.696 118.225 251.354C114.776 244.102 114.284 234.085 114.75 223.373C116.058 222.325 116.955 226.721 117.05 229.192Z" fill="url(#paint82_linear_51_9364)"/>
<path d="M115.006 215.971C115.106 218.523 115.312 220.978 115.582 223.371C115.915 230.932 116.011 238.916 119.851 243.075C119.288 243.768 116.668 242.536 115.338 238.838C113.87 235.291 113.139 229.938 112.98 225.676C112.841 223.143 113.822 216.975 115.005 215.972L115.006 215.971Z" fill="url(#paint83_linear_51_9364)"/>
<path d="M116.902 222.431C117.075 226.761 117.353 232.602 118.101 236.873C118.703 241.294 120.329 243.531 119.826 244.13C116.781 241.665 116.021 236.801 115.292 232.022C114.675 227.118 114.474 221.834 114.603 216.273C115.801 215.266 116.753 219.87 116.902 222.431Z" fill="url(#paint84_linear_51_9364)"/>
<path d="M115.465 209.979C116.029 212.237 116.622 214.465 117.236 216.673C118.556 223.782 119.395 231.397 122.22 237.03C120.42 238.916 115.954 227.125 114.692 219.08C114.236 216.722 114.329 211.042 115.465 209.979Z" fill="url(#paint85_linear_51_9364)"/>
<path d="M118.655 215.446C119.965 223.615 122.608 237.105 122.211 237.561C118.354 229.951 117.127 219.712 115.269 210.142C116.414 209.071 118.19 213.068 118.655 215.446Z" fill="url(#paint86_linear_51_9364)"/>
<path d="M116.793 204.685C116.879 207.32 117.315 209.64 117.89 211.815C119.024 218.899 121.804 224.487 126.227 228.227C125.77 228.762 123.02 227.707 120.601 225.022C118.114 222.416 116.174 218.005 115.5 214.044C114.951 211.782 115.618 205.652 116.793 204.686L116.793 204.685Z" fill="url(#paint87_linear_51_9364)"/>
<path d="M119.171 210.854C119.838 214.769 121.324 219.552 123.131 222.868C124.866 226.256 126.737 228.357 126.213 228.966C120.047 224.09 116.606 216.008 116.589 204.94C117.562 204.139 118.634 208.631 119.172 210.853L119.171 210.854Z" fill="url(#paint88_linear_51_9364)"/>
<path d="M118.159 198.454C118.368 200.995 118.852 203.285 119.475 205.432C120.769 212.407 123.459 218.164 128.429 221.354C127.985 221.894 124.98 221.102 122.437 218.499C119.837 215.967 117.86 211.551 117.104 207.649C116.533 205.397 117.012 199.42 118.158 198.454L118.159 198.454Z" fill="url(#paint89_linear_51_9364)"/>
<path d="M120.769 204.429C121.516 208.291 123.037 213.058 124.947 216.277C126.793 219.561 128.921 221.383 128.419 221.987C121.586 217.805 118.459 209.347 117.989 198.678C118.971 197.848 120.208 202.218 120.769 204.429Z" fill="url(#paint90_linear_51_9364)"/>
<path d="M119.937 191.814C119.744 194.616 120.064 196.984 120.586 199.144C121.586 206.156 125.047 210.945 130.429 213.415C130.02 213.925 126.8 213.521 123.956 211.379C121.035 209.333 118.823 205.26 118.239 201.283C117.682 199.06 118.736 192.717 119.937 191.814Z" fill="url(#paint91_linear_51_9364)"/>
<path d="M121.83 198.295C122.398 202.18 124.127 206.587 126.371 209.332C128.529 212.169 130.922 213.609 130.419 214.229C122.987 211.073 118.72 203.814 119.736 192.09C120.627 191.425 121.292 196.141 121.831 198.293L121.83 198.295Z" fill="url(#paint92_linear_51_9364)"/>
<path d="M121.802 187.356C121.217 190.493 121.295 193.132 121.732 195.429C122.413 202.884 127.357 206.689 135.432 206.179C135.137 206.624 130.618 207.734 126.663 206.579C122.559 205.612 119.834 201.682 119.446 197.392C118.896 195.046 120.605 188.133 121.801 187.356L121.802 187.356Z" fill="url(#paint93_linear_51_9364)"/>
<path d="M122.957 194.722C123.332 198.836 125.481 202.997 128.858 204.634C132.074 206.452 135.868 206.332 135.428 206.957C124.323 207.983 118.965 200.781 121.64 187.638C122.435 187.131 122.436 192.507 122.957 194.722Z" fill="url(#paint94_linear_51_9364)"/>
<path d="M123.783 182.326C122.696 185.955 122.811 188.753 123.403 191.063C124.722 198.494 131.295 201.041 139.372 201.212C139.042 201.666 134.547 202.395 130.128 201.452C125.609 200.651 121.812 197.421 121.141 193.031C120.872 191.779 120.946 189.467 121.582 187.139C122.164 184.846 123.293 182.595 123.783 182.327L123.783 182.326Z" fill="url(#paint95_linear_51_9364)"/>
<path d="M124.628 190.336C125.245 194.466 128.421 198.007 132.278 199.484C136.021 201.096 139.81 201.328 139.368 201.924C133.817 201.933 129.043 200.824 125.938 197.88C122.925 194.907 121.324 190.148 123.642 182.596C124.099 182.338 123.91 183.916 124.005 185.609C124.049 187.338 124.378 189.156 124.627 190.337L124.628 190.336Z" fill="url(#paint96_linear_51_9364)"/>
<path d="M125.891 177.168C124.899 180.853 124.8 183.925 125.21 186.526C125.76 194.974 132.536 198.018 142.419 196.277C142.181 196.667 136.765 198.434 131.833 197.748C126.738 197.279 123.221 193.309 122.946 188.411C122.32 185.801 124.661 177.883 125.891 177.167L125.891 177.168Z" fill="url(#paint97_linear_51_9364)"/>
<path d="M126.43 185.884C126.696 190.539 129.559 194.707 133.912 195.855C138.094 197.205 142.845 196.391 142.415 197.025C135.741 198.257 130.304 197.526 127.307 194.174C124.331 190.835 123.567 185.128 125.745 177.451C126.444 177.065 125.841 183.448 126.429 185.884L126.43 185.884Z" fill="url(#paint98_linear_51_9364)"/>
<path d="M127.503 173.124C127.186 176.176 127.481 178.764 128.149 181.002C129.498 188.259 135.451 191.812 145.8 189.072C145.59 189.461 140.022 191.642 135.106 191.141C130.058 190.816 126.688 187.08 125.914 182.917C125.135 180.643 126.319 173.927 127.502 173.125L127.503 173.124Z" fill="url(#paint99_linear_51_9364)"/>
<path d="M129.382 180.268C130.128 184.281 132.89 188.214 137.161 189.189C141.283 190.339 146.175 189.099 145.797 189.687C131.676 193.668 125.708 186.06 127.382 173.388C128.179 172.854 128.645 178.108 129.382 180.268Z" fill="url(#paint100_linear_51_9364)"/>
<path d="M129.298 168.955C128.75 172.282 128.993 175.028 129.68 177.354C131.092 184.928 137.871 187.846 147.993 185.828C147.756 186.219 142.27 188.069 137.216 187.547C131.984 187.251 128.238 183.63 127.443 179.274C126.578 176.943 128.071 169.745 129.298 168.955Z" fill="url(#paint101_linear_51_9364)"/>
<path d="M130.908 176.638C131.667 180.806 134.774 184.655 139.271 185.609C143.575 186.786 148.398 185.866 147.991 186.471C134.156 189.591 126.631 183.126 129.174 169.226C129.915 168.765 130.093 174.442 130.909 176.637L130.908 176.638Z" fill="url(#paint102_linear_51_9364)"/>
<path d="M131.19 165.148C130.171 168.94 130.195 172.033 130.806 174.582C131.989 182.883 140.321 184.855 151.462 182.138C151.249 182.501 145.265 184.707 139.518 184.612C133.634 184.707 129.171 181.288 128.573 176.442C128.294 175.074 128.396 172.585 129.034 170.143C129.626 167.73 130.701 165.43 131.189 165.149L131.19 165.148Z" fill="url(#paint103_linear_51_9364)"/>
<path d="M132.033 173.926C132.597 178.509 136.342 182.15 141.49 182.726C146.491 183.478 151.861 182.173 151.46 182.781C143.961 184.655 137.583 184.64 133.833 181.744C130.12 178.853 128.857 173.289 131.072 165.423C131.718 165.084 131.194 171.589 132.034 173.925L132.033 173.926Z" fill="url(#paint104_linear_51_9364)"/>
<path d="M133.013 161.476C131.934 165.154 132.319 167.855 133.312 169.942C135.925 176.664 144.918 177.369 155.169 175.695C154.898 176.095 149.399 177.686 143.667 177.777C137.836 178.022 132.494 175.864 131.127 171.836C130.637 170.706 130.439 168.526 130.952 166.241C131.399 163.999 132.528 161.732 133.013 161.476Z" fill="url(#paint105_linear_51_9364)"/>
<path d="M134.532 169.22C135.782 172.986 140.415 175.484 145.606 175.876C150.673 176.422 155.554 175.697 155.166 176.25C148.174 177.504 141.907 177.621 137.523 175.612C133.253 173.57 130.639 169.356 132.915 161.739C133.362 161.494 133.161 163.111 133.371 164.765C133.519 166.464 134.085 168.158 134.534 169.22L134.532 169.22Z" fill="url(#paint106_linear_51_9364)"/>
<path d="M134.762 157.285C133.847 160.878 134.108 163.674 134.969 165.894C137.041 173.114 145.696 174.284 156.293 172.093C156.048 172.478 150.374 174.347 144.651 174.416C138.811 174.654 133.86 172.032 132.767 167.773C132.35 166.577 132.269 164.308 132.773 162.031C133.239 159.776 134.275 157.56 134.763 157.283L134.762 157.285Z" fill="url(#paint107_linear_51_9364)"/>
<path d="M136.192 165.19C137.206 169.192 141.436 172.105 146.594 172.518C151.616 173.092 156.678 172.099 156.29 172.67C149.127 174.214 142.813 174.361 138.711 172.041C134.645 169.74 132.671 165.002 134.657 157.551C135.117 157.283 134.999 158.859 135.189 160.548C135.346 162.261 135.807 164.063 136.192 165.19Z" fill="url(#paint108_linear_51_9364)"/>
<path d="M136.516 153.879C135.308 157.688 135.704 160.445 136.723 162.56C139.496 169.308 148.751 169.904 159.131 168.291C158.856 168.693 153.295 170.251 147.451 170.356C141.518 170.602 135.986 168.516 134.54 164.454C134.036 163.308 133.825 161.091 134.365 158.753C134.835 156.458 136.032 154.125 136.515 153.881L136.516 153.879Z" fill="url(#paint109_linear_51_9364)"/>
<path d="M137.942 161.835C139.26 165.628 144.086 168.064 149.387 168.453C154.574 168.985 159.516 168.291 159.127 168.841C152.042 170.059 145.648 170.198 141.115 168.223C136.722 166.205 133.9 162.022 136.416 154.14C136.856 153.909 136.591 155.592 136.78 157.293C136.905 159.038 137.48 160.76 137.942 161.835Z" fill="url(#paint110_linear_51_9364)"/>
<path d="M138.043 150.253C136.949 153.882 137.398 156.495 138.457 158.485C141.358 164.842 150.606 165.175 160.952 163.321C160.703 163.689 155.196 165.317 149.378 165.561C143.471 165.949 137.933 164.081 136.413 160.258C135.887 159.182 135.618 157.095 136.083 154.88C136.482 152.707 137.585 150.49 138.042 150.254L138.043 150.253Z" fill="url(#paint111_linear_51_9364)"/>
<path d="M139.603 157.799C140.993 161.38 145.857 163.577 151.17 163.784C156.372 164.131 161.309 163.302 160.949 163.815C153.9 165.184 147.521 165.492 142.966 163.727C138.543 161.921 135.681 157.991 137.955 150.496C138.37 150.273 138.141 151.881 138.357 153.497C138.513 155.16 139.117 156.789 139.602 157.799L139.603 157.799Z" fill="url(#paint112_linear_51_9364)"/>
<defs>
<linearGradient id="paint0_linear_51_9364" x1="53.5108" y1="237.876" x2="48.672" y2="221.829" gradientUnits="userSpaceOnUse">
<stop stop-color="#55AA00"/>
<stop offset="0.06" stop-color="#52A500"/>
<stop offset="0.42" stop-color="#458A00"/>
<stop offset="0.75" stop-color="#3C7900"/>
<stop offset="1" stop-color="#3A7400"/>
</linearGradient>
<linearGradient id="paint1_linear_51_9364" x1="53.3338" y1="237.854" x2="48.4565" y2="221.68" gradientUnits="userSpaceOnUse">
<stop stop-color="#84D92E"/>
<stop offset="1" stop-color="#C8EEA2"/>
</linearGradient>
<linearGradient id="paint2_linear_51_9364" x1="60.0254" y1="240.351" x2="52.4795" y2="215.327" gradientUnits="userSpaceOnUse">
<stop stop-color="#408000"/>
<stop offset="0.34" stop-color="#356B00"/>
<stop offset="0.71" stop-color="#2D5A00"/>
<stop offset="1" stop-color="#2B5500"/>
</linearGradient>
<linearGradient id="paint3_linear_51_9364" x1="59.8293" y1="240.379" x2="52.2673" y2="215.301" gradientUnits="userSpaceOnUse">
<stop stop-color="#55AA00"/>
<stop offset="0.06" stop-color="#52A500"/>
<stop offset="0.42" stop-color="#458A00"/>
<stop offset="0.75" stop-color="#3C7900"/>
<stop offset="1" stop-color="#3A7400"/>
</linearGradient>
<linearGradient id="paint4_linear_51_9364" x1="68.1816" y1="239.95" x2="57.9904" y2="206.153" gradientUnits="userSpaceOnUse">
<stop stop-color="#408000"/>
<stop offset="0.34" stop-color="#356B00"/>
<stop offset="0.71" stop-color="#2D5A00"/>
<stop offset="1" stop-color="#2B5500"/>
</linearGradient>
<linearGradient id="paint5_linear_51_9364" x1="67.7884" y1="240.07" x2="57.5804" y2="206.218" gradientUnits="userSpaceOnUse">
<stop stop-color="#55AA00"/>
<stop offset="0.06" stop-color="#52A500"/>
<stop offset="0.42" stop-color="#458A00"/>
<stop offset="0.75" stop-color="#3C7900"/>
<stop offset="1" stop-color="#3A7400"/>
</linearGradient>
<linearGradient id="paint6_linear_51_9364" x1="74.6933" y1="236.051" x2="63.2732" y2="198.18" gradientUnits="userSpaceOnUse">
<stop stop-color="#408000"/>
<stop offset="0.34" stop-color="#356B00"/>
<stop offset="0.71" stop-color="#2D5A00"/>
<stop offset="1" stop-color="#2B5500"/>
</linearGradient>
<linearGradient id="paint7_linear_51_9364" x1="74.3937" y1="236.14" x2="62.9602" y2="198.224" gradientUnits="userSpaceOnUse">
<stop stop-color="#55AA00"/>
<stop offset="0.06" stop-color="#52A500"/>
<stop offset="0.42" stop-color="#458A00"/>
<stop offset="0.75" stop-color="#3C7900"/>
<stop offset="1" stop-color="#3A7400"/>
</linearGradient>
<linearGradient id="paint8_linear_51_9364" x1="81.6087" y1="232.71" x2="68.6203" y2="189.638" gradientUnits="userSpaceOnUse">
<stop stop-color="#408000"/>
<stop offset="0.34" stop-color="#356B00"/>
<stop offset="0.71" stop-color="#2D5A00"/>
<stop offset="1" stop-color="#2B5500"/>
</linearGradient>
<linearGradient id="paint9_linear_51_9364" x1="81.3094" y1="232.8" x2="68.3089" y2="189.688" gradientUnits="userSpaceOnUse">
<stop stop-color="#55AA00"/>
<stop offset="0.06" stop-color="#52A500"/>
<stop offset="0.42" stop-color="#458A00"/>
<stop offset="0.75" stop-color="#3C7900"/>
<stop offset="1" stop-color="#3A7400"/>
</linearGradient>
<linearGradient id="paint10_linear_51_9364" x1="88.0875" y1="231.776" x2="72.8072" y2="181.103" gradientUnits="userSpaceOnUse">
<stop stop-color="#408000"/>
<stop offset="0.34" stop-color="#356B00"/>
<stop offset="0.71" stop-color="#2D5A00"/>
<stop offset="1" stop-color="#2B5500"/>
</linearGradient>
<linearGradient id="paint11_linear_51_9364" x1="87.8724" y1="231.839" x2="72.5817" y2="181.132" gradientUnits="userSpaceOnUse">
<stop stop-color="#55AA00"/>
<stop offset="0.06" stop-color="#52A500"/>
<stop offset="0.42" stop-color="#458A00"/>
<stop offset="0.75" stop-color="#3C7900"/>
<stop offset="1" stop-color="#3A7400"/>
</linearGradient>
<linearGradient id="paint12_linear_51_9364" x1="95.7888" y1="227.085" x2="79.4628" y2="172.944" gradientUnits="userSpaceOnUse">
<stop stop-color="#408000"/>
<stop offset="0.34" stop-color="#356B00"/>
<stop offset="0.71" stop-color="#2D5A00"/>
<stop offset="1" stop-color="#2B5500"/>
</linearGradient>
<linearGradient id="paint13_linear_51_9364" x1="95.5212" y1="227.166" x2="79.1883" y2="173.002" gradientUnits="userSpaceOnUse">
<stop stop-color="#55AA00"/>
<stop offset="0.06" stop-color="#52A500"/>
<stop offset="0.42" stop-color="#458A00"/>
<stop offset="0.75" stop-color="#3C7900"/>
<stop offset="1" stop-color="#3A7400"/>
</linearGradient>
<linearGradient id="paint14_linear_51_9364" x1="101.532" y1="219.748" x2="85.178" y2="165.516" gradientUnits="userSpaceOnUse">
<stop stop-color="#408000"/>
<stop offset="0.34" stop-color="#356B00"/>
<stop offset="0.71" stop-color="#2D5A00"/>
<stop offset="1" stop-color="#2B5500"/>
</linearGradient>
<linearGradient id="paint15_linear_51_9364" x1="101.244" y1="219.835" x2="84.8799" y2="165.568" gradientUnits="userSpaceOnUse">
<stop stop-color="#55AA00"/>
<stop offset="0.06" stop-color="#52A500"/>
<stop offset="0.42" stop-color="#458A00"/>
<stop offset="0.75" stop-color="#3C7900"/>
<stop offset="1" stop-color="#3A7400"/>
</linearGradient>
<linearGradient id="paint16_linear_51_9364" x1="107.205" y1="216.075" x2="89.9096" y2="158.719" gradientUnits="userSpaceOnUse">
<stop stop-color="#408000"/>
<stop offset="0.34" stop-color="#356B00"/>
<stop offset="0.71" stop-color="#2D5A00"/>
<stop offset="1" stop-color="#2B5500"/>
</linearGradient>
<linearGradient id="paint17_linear_51_9364" x1="106.822" y1="216.188" x2="89.5218" y2="158.816" gradientUnits="userSpaceOnUse">
<stop stop-color="#55AA00"/>
<stop offset="0.06" stop-color="#52A500"/>
<stop offset="0.42" stop-color="#458A00"/>
<stop offset="0.75" stop-color="#3C7900"/>
<stop offset="1" stop-color="#3A7400"/>
</linearGradient>
<linearGradient id="paint18_linear_51_9364" x1="112.007" y1="210.367" x2="94.745" y2="153.124" gradientUnits="userSpaceOnUse">
<stop stop-color="#408000"/>
<stop offset="0.34" stop-color="#356B00"/>
<stop offset="0.71" stop-color="#2D5A00"/>
<stop offset="1" stop-color="#2B5500"/>
</linearGradient>
<linearGradient id="paint19_linear_51_9364" x1="111.572" y1="210.499" x2="94.3051" y2="153.239" gradientUnits="userSpaceOnUse">
<stop stop-color="#55AA00"/>
<stop offset="0.06" stop-color="#52A500"/>
<stop offset="0.42" stop-color="#458A00"/>
<stop offset="0.75" stop-color="#3C7900"/>
<stop offset="1" stop-color="#3A7400"/>
</linearGradient>
<linearGradient id="paint20_linear_51_9364" x1="117.905" y1="210.873" x2="98.8367" y2="147.639" gradientUnits="userSpaceOnUse">
<stop stop-color="#408000"/>
<stop offset="0.34" stop-color="#356B00"/>
<stop offset="0.71" stop-color="#2D5A00"/>
<stop offset="1" stop-color="#2B5500"/>
</linearGradient>
<linearGradient id="paint21_linear_51_9364" x1="117.534" y1="210.983" x2="98.4625" y2="147.739" gradientUnits="userSpaceOnUse">
<stop stop-color="#55AA00"/>
<stop offset="0.06" stop-color="#52A500"/>
<stop offset="0.42" stop-color="#458A00"/>
<stop offset="0.75" stop-color="#3C7900"/>
<stop offset="1" stop-color="#3A7400"/>
</linearGradient>
<linearGradient id="paint22_linear_51_9364" x1="123.361" y1="201.707" x2="105.042" y2="140.957" gradientUnits="userSpaceOnUse">
<stop stop-color="#408000"/>
<stop offset="0.34" stop-color="#356B00"/>
<stop offset="0.71" stop-color="#2D5A00"/>
<stop offset="1" stop-color="#2B5500"/>
</linearGradient>
<linearGradient id="paint23_linear_51_9364" x1="122.899" y1="201.846" x2="104.577" y2="141.087" gradientUnits="userSpaceOnUse">
<stop stop-color="#55AA00"/>
<stop offset="0.06" stop-color="#52A500"/>
<stop offset="0.42" stop-color="#458A00"/>
<stop offset="0.75" stop-color="#3C7900"/>
<stop offset="1" stop-color="#3A7400"/>
</linearGradient>
<linearGradient id="paint24_linear_51_9364" x1="128.832" y1="202.88" x2="108.589" y2="135.75" gradientUnits="userSpaceOnUse">
<stop stop-color="#408000"/>
<stop offset="0.34" stop-color="#356B00"/>
<stop offset="0.71" stop-color="#2D5A00"/>
<stop offset="1" stop-color="#2B5500"/>
</linearGradient>
<linearGradient id="paint25_linear_51_9364" x1="128.252" y1="203.055" x2="108.007" y2="135.919" gradientUnits="userSpaceOnUse">
<stop stop-color="#55AA00"/>
<stop offset="0.06" stop-color="#52A500"/>
<stop offset="0.42" stop-color="#458A00"/>
<stop offset="0.75" stop-color="#3C7900"/>
<stop offset="1" stop-color="#3A7400"/>
</linearGradient>
<linearGradient id="paint26_linear_51_9364" x1="133.489" y1="199.109" x2="113.065" y2="131.38" gradientUnits="userSpaceOnUse">
<stop stop-color="#408000"/>
<stop offset="0.34" stop-color="#356B00"/>
<stop offset="0.71" stop-color="#2D5A00"/>
<stop offset="1" stop-color="#2B5500"/>
</linearGradient>
<linearGradient id="paint27_linear_51_9364" x1="132.926" y1="199.278" x2="112.5" y2="131.539" gradientUnits="userSpaceOnUse">
<stop stop-color="#55AA00"/>
<stop offset="0.06" stop-color="#52A500"/>
<stop offset="0.42" stop-color="#458A00"/>
<stop offset="0.75" stop-color="#3C7900"/>
<stop offset="1" stop-color="#3A7400"/>
</linearGradient>
<linearGradient id="paint28_linear_51_9364" x1="137.285" y1="196.269" x2="116.279" y2="126.609" gradientUnits="userSpaceOnUse">
<stop stop-color="#408000"/>
<stop offset="0.34" stop-color="#356B00"/>
<stop offset="0.71" stop-color="#2D5A00"/>
<stop offset="1" stop-color="#2B5500"/>
</linearGradient>
<linearGradient id="paint29_linear_51_9364" x1="136.827" y1="196.407" x2="115.817" y2="126.735" gradientUnits="userSpaceOnUse">
<stop stop-color="#55AA00"/>
<stop offset="0.06" stop-color="#52A500"/>
<stop offset="0.42" stop-color="#458A00"/>
<stop offset="0.75" stop-color="#3C7900"/>
<stop offset="1" stop-color="#3A7400"/>
</linearGradient>
<linearGradient id="paint30_linear_51_9364" x1="142.848" y1="189.853" x2="122.039" y2="120.843" gradientUnits="userSpaceOnUse">
<stop stop-color="#408000"/>
<stop offset="0.34" stop-color="#356B00"/>
<stop offset="0.71" stop-color="#2D5A00"/>
<stop offset="1" stop-color="#2B5500"/>
</linearGradient>
<linearGradient id="paint31_linear_51_9364" x1="142.1" y1="190.078" x2="121.288" y2="121.063" gradientUnits="userSpaceOnUse">
<stop stop-color="#55AA00"/>
<stop offset="0.06" stop-color="#52A500"/>
<stop offset="0.42" stop-color="#458A00"/>
<stop offset="0.75" stop-color="#3C7900"/>
<stop offset="1" stop-color="#3A7400"/>
</linearGradient>
<linearGradient id="paint32_linear_51_9364" x1="148.515" y1="185.347" x2="127.631" y2="116.091" gradientUnits="userSpaceOnUse">
<stop stop-color="#408000"/>
<stop offset="0.34" stop-color="#356B00"/>
<stop offset="0.71" stop-color="#2D5A00"/>
<stop offset="1" stop-color="#2B5500"/>
</linearGradient>
<linearGradient id="paint33_linear_51_9364" x1="147.559" y1="185.637" x2="126.673" y2="116.375" gradientUnits="userSpaceOnUse">
<stop stop-color="#55AA00"/>
<stop offset="0.06" stop-color="#52A500"/>
<stop offset="0.42" stop-color="#458A00"/>
<stop offset="0.75" stop-color="#3C7900"/>
<stop offset="1" stop-color="#3A7400"/>
</linearGradient>
<linearGradient id="paint34_linear_51_9364" x1="151.816" y1="182.541" x2="130.58" y2="112.116" gradientUnits="userSpaceOnUse">
<stop stop-color="#408000"/>
<stop offset="0.34" stop-color="#356B00"/>
<stop offset="0.71" stop-color="#2D5A00"/>
<stop offset="1" stop-color="#2B5500"/>
</linearGradient>
<linearGradient id="paint35_linear_51_9364" x1="150.907" y1="182.815" x2="129.669" y2="112.384" gradientUnits="userSpaceOnUse">
<stop stop-color="#55AA00"/>
<stop offset="0.06" stop-color="#52A500"/>
<stop offset="0.42" stop-color="#458A00"/>
<stop offset="0.75" stop-color="#3C7900"/>
<stop offset="1" stop-color="#3A7400"/>
</linearGradient>
<linearGradient id="paint36_linear_51_9364" x1="155.286" y1="178.789" x2="133.87" y2="107.77" gradientUnits="userSpaceOnUse">
<stop stop-color="#408000"/>
<stop offset="0.34" stop-color="#356B00"/>
<stop offset="0.71" stop-color="#2D5A00"/>
<stop offset="1" stop-color="#2B5500"/>
</linearGradient>
<linearGradient id="paint37_linear_51_9364" x1="154.446" y1="179.043" x2="133.026" y2="108.008" gradientUnits="userSpaceOnUse">
<stop stop-color="#55AA00"/>
<stop offset="0.06" stop-color="#52A500"/>
<stop offset="0.42" stop-color="#458A00"/>
<stop offset="0.75" stop-color="#3C7900"/>
<stop offset="1" stop-color="#3A7400"/>
</linearGradient>
<linearGradient id="paint38_linear_51_9364" x1="161.264" y1="177.842" x2="138.499" y2="102.348" gradientUnits="userSpaceOnUse">
<stop stop-color="#408000"/>
<stop offset="0.34" stop-color="#356B00"/>
<stop offset="0.71" stop-color="#2D5A00"/>
<stop offset="1" stop-color="#2B5500"/>
</linearGradient>
<linearGradient id="paint39_linear_51_9364" x1="160.504" y1="178.071" x2="137.735" y2="102.564" gradientUnits="userSpaceOnUse">
<stop stop-color="#55AA00"/>
<stop offset="0.06" stop-color="#52A500"/>
<stop offset="0.42" stop-color="#458A00"/>
<stop offset="0.75" stop-color="#3C7900"/>
<stop offset="1" stop-color="#3A7400"/>
</linearGradient>
<linearGradient id="paint40_linear_51_9364" x1="51.9293" y1="229.759" x2="49.466" y2="221.59" gradientUnits="userSpaceOnUse">
<stop stop-color="#55AA00"/>
<stop offset="0.06" stop-color="#52A500"/>
<stop offset="0.42" stop-color="#458A00"/>
<stop offset="0.75" stop-color="#3C7900"/>
<stop offset="1" stop-color="#3A7400"/>
</linearGradient>
<linearGradient id="paint41_linear_51_9364" x1="51.7481" y1="229.525" x2="49.1449" y2="220.893" gradientUnits="userSpaceOnUse">
<stop stop-color="#92DE46"/>
<stop offset="0.16" stop-color="#A2E262"/>
<stop offset="0.41" stop-color="#B8E987"/>
<stop offset="0.64" stop-color="#C8EEA2"/>
<stop offset="0.84" stop-color="#D2F0B3"/>
<stop offset="1" stop-color="#D6F2B9"/>
</linearGradient>
<linearGradient id="paint42_linear_51_9364" x1="56.0801" y1="220.639" x2="53.8748" y2="213.326" gradientUnits="userSpaceOnUse">
<stop stop-color="#55AA00"/>
<stop offset="0.06" stop-color="#52A500"/>
<stop offset="0.42" stop-color="#458A00"/>
<stop offset="0.75" stop-color="#3C7900"/>
<stop offset="1" stop-color="#3A7400"/>
</linearGradient>
<linearGradient id="paint43_linear_51_9364" x1="55.9076" y1="220.341" x2="53.5369" y2="212.48" gradientUnits="userSpaceOnUse">
<stop stop-color="#92DE46"/>
<stop offset="0.16" stop-color="#A2E262"/>
<stop offset="0.41" stop-color="#B8E987"/>
<stop offset="0.64" stop-color="#C8EEA2"/>
<stop offset="0.84" stop-color="#D2F0B3"/>
<stop offset="1" stop-color="#D6F2B9"/>
</linearGradient>
<linearGradient id="paint44_linear_51_9364" x1="59.8988" y1="214.913" x2="57.3185" y2="206.356" gradientUnits="userSpaceOnUse">
<stop stop-color="#55AA00"/>
<stop offset="0.06" stop-color="#52A500"/>
<stop offset="0.42" stop-color="#458A00"/>
<stop offset="0.75" stop-color="#3C7900"/>
<stop offset="1" stop-color="#3A7400"/>
</linearGradient>
<linearGradient id="paint45_linear_51_9364" x1="59.7526" y1="214.702" x2="57.0199" y2="205.64" gradientUnits="userSpaceOnUse">
<stop stop-color="#92DE46"/>
<stop offset="0.16" stop-color="#A2E262"/>
<stop offset="0.41" stop-color="#B8E987"/>
<stop offset="0.64" stop-color="#C8EEA2"/>
<stop offset="0.84" stop-color="#D2F0B3"/>
<stop offset="1" stop-color="#D6F2B9"/>
</linearGradient>
<linearGradient id="paint46_linear_51_9364" x1="64.9193" y1="208.097" x2="61.9805" y2="198.351" gradientUnits="userSpaceOnUse">
<stop stop-color="#55AA00"/>
<stop offset="0.06" stop-color="#52A500"/>
<stop offset="0.42" stop-color="#458A00"/>
<stop offset="0.75" stop-color="#3C7900"/>
<stop offset="1" stop-color="#3A7400"/>
</linearGradient>
<linearGradient id="paint47_linear_51_9364" x1="64.7916" y1="207.969" x2="61.6922" y2="197.691" gradientUnits="userSpaceOnUse">
<stop stop-color="#92DE46"/>
<stop offset="0.16" stop-color="#A2E262"/>
<stop offset="0.41" stop-color="#B8E987"/>
<stop offset="0.64" stop-color="#C8EEA2"/>
<stop offset="0.84" stop-color="#D2F0B3"/>
<stop offset="1" stop-color="#D6F2B9"/>
</linearGradient>
<linearGradient id="paint48_linear_51_9364" x1="70.2827" y1="199.955" x2="67.2924" y2="190.038" gradientUnits="userSpaceOnUse">
<stop stop-color="#55AA00"/>
<stop offset="0.06" stop-color="#52A500"/>
<stop offset="0.42" stop-color="#458A00"/>
<stop offset="0.75" stop-color="#3C7900"/>
<stop offset="1" stop-color="#3A7400"/>
</linearGradient>
<linearGradient id="paint49_linear_51_9364" x1="70.1697" y1="199.885" x2="66.956" y2="189.228" gradientUnits="userSpaceOnUse">
<stop stop-color="#92DE46"/>
<stop offset="0.16" stop-color="#A2E262"/>
<stop offset="0.41" stop-color="#B8E987"/>
<stop offset="0.64" stop-color="#C8EEA2"/>
<stop offset="0.84" stop-color="#D2F0B3"/>
<stop offset="1" stop-color="#D6F2B9"/>
</linearGradient>
<linearGradient id="paint50_linear_51_9364" x1="76.1529" y1="189.514" x2="73.5493" y2="180.88" gradientUnits="userSpaceOnUse">
<stop stop-color="#55AA00"/>
<stop offset="0.06" stop-color="#52A500"/>
<stop offset="0.42" stop-color="#458A00"/>
<stop offset="0.75" stop-color="#3C7900"/>
<stop offset="1" stop-color="#3A7400"/>
</linearGradient>
<linearGradient id="paint51_linear_51_9364" x1="76.02" y1="189.311" x2="73.2379" y2="180.085" gradientUnits="userSpaceOnUse">
<stop stop-color="#92DE46"/>
<stop offset="0.16" stop-color="#A2E262"/>
<stop offset="0.41" stop-color="#B8E987"/>
<stop offset="0.64" stop-color="#C8EEA2"/>
<stop offset="0.84" stop-color="#D2F0B3"/>
<stop offset="1" stop-color="#D6F2B9"/>
</linearGradient>
<linearGradient id="paint52_linear_51_9364" x1="82.4494" y1="180.044" x2="80.2381" y2="172.711" gradientUnits="userSpaceOnUse">
<stop stop-color="#55AA00"/>
<stop offset="0.06" stop-color="#52A500"/>
<stop offset="0.42" stop-color="#458A00"/>
<stop offset="0.75" stop-color="#3C7900"/>
<stop offset="1" stop-color="#3A7400"/>
</linearGradient>
<linearGradient id="paint53_linear_51_9364" x1="82.2936" y1="179.786" x2="79.8835" y2="171.793" gradientUnits="userSpaceOnUse">
<stop stop-color="#92DE46"/>
<stop offset="0.16" stop-color="#A2E262"/>
<stop offset="0.41" stop-color="#B8E987"/>
<stop offset="0.64" stop-color="#C8EEA2"/>
<stop offset="0.84" stop-color="#D2F0B3"/>
<stop offset="1" stop-color="#D6F2B9"/>
</linearGradient>
<linearGradient id="paint54_linear_51_9364" x1="88.2193" y1="173.368" x2="85.7953" y2="165.33" gradientUnits="userSpaceOnUse">
<stop stop-color="#55AA00"/>
<stop offset="0.06" stop-color="#52A500"/>
<stop offset="0.42" stop-color="#458A00"/>
<stop offset="0.75" stop-color="#3C7900"/>
<stop offset="1" stop-color="#3A7400"/>
</linearGradient>
<linearGradient id="paint55_linear_51_9364" x1="87.9828" y1="173.076" x2="85.4774" y2="164.768" gradientUnits="userSpaceOnUse">
<stop stop-color="#92DE46"/>
<stop offset="0.16" stop-color="#A2E262"/>
<stop offset="0.41" stop-color="#B8E987"/>
<stop offset="0.64" stop-color="#C8EEA2"/>
<stop offset="0.84" stop-color="#D2F0B3"/>
<stop offset="1" stop-color="#D6F2B9"/>
</linearGradient>
<linearGradient id="paint56_linear_51_9364" x1="93.0569" y1="166.615" x2="90.6122" y2="158.507" gradientUnits="userSpaceOnUse">
<stop stop-color="#51A200"/>
<stop offset="1" stop-color="#69D100"/>
</linearGradient>
<linearGradient id="paint57_linear_51_9364" x1="92.7931" y1="166.34" x2="90.2882" y2="158.033" gradientUnits="userSpaceOnUse">
<stop stop-color="#92DE46"/>
<stop offset="0.16" stop-color="#A2E262"/>
<stop offset="0.41" stop-color="#B8E987"/>
<stop offset="0.64" stop-color="#C8EEA2"/>
<stop offset="0.84" stop-color="#D2F0B3"/>
<stop offset="1" stop-color="#D6F2B9"/>
</linearGradient>
<linearGradient id="paint58_linear_51_9364" x1="97.7811" y1="159.956" x2="95.6395" y2="152.854" gradientUnits="userSpaceOnUse">
<stop stop-color="#51A200"/>
<stop offset="1" stop-color="#69D100"/>
</linearGradient>
<linearGradient id="paint59_linear_51_9364" x1="97.493" y1="159.638" x2="95.2687" y2="152.261" gradientUnits="userSpaceOnUse">
<stop stop-color="#92DE46"/>
<stop offset="0.16" stop-color="#A2E262"/>
<stop offset="0.41" stop-color="#B8E987"/>
<stop offset="0.64" stop-color="#C8EEA2"/>
<stop offset="0.84" stop-color="#D2F0B3"/>
<stop offset="1" stop-color="#D6F2B9"/>
</linearGradient>
<linearGradient id="paint60_linear_51_9364" x1="103.544" y1="154.564" x2="101.083" y2="146.404" gradientUnits="userSpaceOnUse">
<stop stop-color="#51A200"/>
<stop offset="1" stop-color="#69D100"/>
</linearGradient>
<linearGradient id="paint61_linear_51_9364" x1="103.341" y1="154.351" x2="100.747" y2="145.748" gradientUnits="userSpaceOnUse">
<stop stop-color="#92DE46"/>
<stop offset="0.16" stop-color="#A2E262"/>
<stop offset="0.41" stop-color="#B8E987"/>
<stop offset="0.64" stop-color="#C8EEA2"/>
<stop offset="0.84" stop-color="#D2F0B3"/>
<stop offset="1" stop-color="#D6F2B9"/>
</linearGradient>
<linearGradient id="paint62_linear_51_9364" x1="107.417" y1="154.438" x2="103.493" y2="141.424" gradientUnits="userSpaceOnUse">
<stop stop-color="#51A200"/>
<stop offset="1" stop-color="#69D100"/>
</linearGradient>
<linearGradient id="paint63_linear_51_9364" x1="107.193" y1="154.382" x2="103.205" y2="141.158" gradientUnits="userSpaceOnUse">
<stop stop-color="#92DE46"/>
<stop offset="0.16" stop-color="#A2E262"/>
<stop offset="0.41" stop-color="#B8E987"/>
<stop offset="0.64" stop-color="#C8EEA2"/>
<stop offset="0.84" stop-color="#D2F0B3"/>
<stop offset="1" stop-color="#D6F2B9"/>
</linearGradient>
<linearGradient id="paint64_linear_51_9364" x1="111.282" y1="147.685" x2="107.919" y2="136.53" gradientUnits="userSpaceOnUse">
<stop stop-color="#51A200"/>
<stop offset="1" stop-color="#69D100"/>
</linearGradient>
<linearGradient id="paint65_linear_51_9364" x1="111.05" y1="147.598" x2="107.607" y2="136.179" gradientUnits="userSpaceOnUse">
<stop stop-color="#92DE46"/>
<stop offset="0.16" stop-color="#A2E262"/>
<stop offset="0.41" stop-color="#B8E987"/>
<stop offset="0.64" stop-color="#C8EEA2"/>
<stop offset="0.84" stop-color="#D2F0B3"/>
<stop offset="1" stop-color="#D6F2B9"/>
</linearGradient>
<linearGradient id="paint66_linear_51_9364" x1="115.902" y1="148.74" x2="110.867" y2="132.043" gradientUnits="userSpaceOnUse">
<stop stop-color="#51A200"/>
<stop offset="1" stop-color="#69D100"/>
</linearGradient>
<linearGradient id="paint67_linear_51_9364" x1="115.682" y1="148.725" x2="110.595" y2="131.855" gradientUnits="userSpaceOnUse">
<stop stop-color="#92DE46"/>
<stop offset="0.16" stop-color="#A2E262"/>
<stop offset="0.41" stop-color="#B8E987"/>
<stop offset="0.64" stop-color="#C8EEA2"/>
<stop offset="0.84" stop-color="#D2F0B3"/>
<stop offset="1" stop-color="#D6F2B9"/>
</linearGradient>
<linearGradient id="paint68_linear_51_9364" x1="121.058" y1="142.888" x2="116.16" y2="126.645" gradientUnits="userSpaceOnUse">
<stop stop-color="#51A200"/>
<stop offset="1" stop-color="#69D100"/>
</linearGradient>
<linearGradient id="paint69_linear_51_9364" x1="120.763" y1="142.907" x2="115.824" y2="126.529" gradientUnits="userSpaceOnUse">
<stop stop-color="#92DE46"/>
<stop offset="0.16" stop-color="#A2E262"/>
<stop offset="0.41" stop-color="#B8E987"/>
<stop offset="0.64" stop-color="#C8EEA2"/>
<stop offset="0.84" stop-color="#D2F0B3"/>
<stop offset="1" stop-color="#D6F2B9"/>
</linearGradient>
<linearGradient id="paint70_linear_51_9364" x1="125.931" y1="140.465" x2="120.182" y2="121.403" gradientUnits="userSpaceOnUse">
<stop stop-color="#51A200"/>
<stop offset="1" stop-color="#69D100"/>
</linearGradient>
<linearGradient id="paint71_linear_51_9364" x1="125.63" y1="140.505" x2="119.845" y2="121.321" gradientUnits="userSpaceOnUse">
<stop stop-color="#92DE46"/>
<stop offset="0.16" stop-color="#A2E262"/>
<stop offset="0.41" stop-color="#B8E987"/>
<stop offset="0.64" stop-color="#C8EEA2"/>
<stop offset="0.84" stop-color="#D2F0B3"/>
<stop offset="1" stop-color="#D6F2B9"/>
</linearGradient>
<linearGradient id="paint72_linear_51_9364" x1="130.34" y1="136.095" x2="124.567" y2="116.95" gradientUnits="userSpaceOnUse">
<stop stop-color="#51A200"/>
<stop offset="1" stop-color="#69D100"/>
</linearGradient>
<linearGradient id="paint73_linear_51_9364" x1="129.876" y1="136.207" x2="124.083" y2="116.998" gradientUnits="userSpaceOnUse">
<stop stop-color="#92DE46"/>
<stop offset="0.16" stop-color="#A2E262"/>
<stop offset="0.41" stop-color="#B8E987"/>
<stop offset="0.64" stop-color="#C8EEA2"/>
<stop offset="0.84" stop-color="#D2F0B3"/>
<stop offset="1" stop-color="#D6F2B9"/>
</linearGradient>
<linearGradient id="paint74_linear_51_9364" x1="135.55" y1="130.783" x2="129.881" y2="111.984" gradientUnits="userSpaceOnUse">
<stop stop-color="#51A200"/>
<stop offset="1" stop-color="#69D100"/>
</linearGradient>
<linearGradient id="paint75_linear_51_9364" x1="134.967" y1="130.935" x2="129.285" y2="112.094" gradientUnits="userSpaceOnUse">
<stop stop-color="#92DE46"/>
<stop offset="0.16" stop-color="#A2E262"/>
<stop offset="0.41" stop-color="#B8E987"/>
<stop offset="0.64" stop-color="#C8EEA2"/>
<stop offset="0.84" stop-color="#D2F0B3"/>
<stop offset="1" stop-color="#D6F2B9"/>
</linearGradient>
<linearGradient id="paint76_linear_51_9364" x1="140.685" y1="130.253" x2="133.786" y2="107.375" gradientUnits="userSpaceOnUse">
<stop stop-color="#51A200"/>
<stop offset="1" stop-color="#69D100"/>
</linearGradient>
<linearGradient id="paint77_linear_51_9364" x1="140.112" y1="130.421" x2="133.188" y2="107.459" gradientUnits="userSpaceOnUse">
<stop stop-color="#92DE46"/>
<stop offset="0.16" stop-color="#A2E262"/>
<stop offset="0.41" stop-color="#B8E987"/>
<stop offset="0.64" stop-color="#C8EEA2"/>
<stop offset="0.84" stop-color="#D2F0B3"/>
<stop offset="1" stop-color="#D6F2B9"/>
</linearGradient>
<linearGradient id="paint78_linear_51_9364" x1="145.032" y1="125.328" x2="138.032" y2="102.113" gradientUnits="userSpaceOnUse">
<stop stop-color="#51A200"/>
<stop offset="1" stop-color="#69D100"/>
</linearGradient>
<linearGradient id="paint79_linear_51_9364" x1="144.48" y1="125.495" x2="137.449" y2="102.181" gradientUnits="userSpaceOnUse">
<stop stop-color="#92DE46"/>
<stop offset="0.16" stop-color="#A2E262"/>
<stop offset="0.41" stop-color="#B8E987"/>
<stop offset="0.64" stop-color="#C8EEA2"/>
<stop offset="0.84" stop-color="#D2F0B3"/>
<stop offset="1" stop-color="#D6F2B9"/>
</linearGradient>
<linearGradient id="paint80_linear_51_9364" x1="150.331" y1="122.261" x2="142.637" y2="96.7455" gradientUnits="userSpaceOnUse">
<stop stop-color="#92DE46"/>
<stop offset="0.16" stop-color="#A2E262"/>
<stop offset="0.41" stop-color="#B8E987"/>
<stop offset="0.64" stop-color="#C8EEA2"/>
<stop offset="0.84" stop-color="#D2F0B3"/>
<stop offset="1" stop-color="#D6F2B9"/>
</linearGradient>
<linearGradient id="paint81_linear_51_9364" x1="126.927" y1="238.207" x2="111.981" y2="227.401" gradientUnits="userSpaceOnUse">
<stop stop-color="#77D517"/>
<stop offset="0.02" stop-color="#79D51B"/>
<stop offset="0.25" stop-color="#95DE4A"/>
<stop offset="0.48" stop-color="#ABE570"/>
<stop offset="0.68" stop-color="#BBEA8B"/>
<stop offset="0.86" stop-color="#C4EC9C"/>
<stop offset="1" stop-color="#C8EEA2"/>
</linearGradient>
<linearGradient id="paint82_linear_51_9364" x1="127.997" y1="238.431" x2="112.315" y2="226.541" gradientUnits="userSpaceOnUse">
<stop stop-color="#51A200"/>
<stop offset="1" stop-color="#69D100"/>
</linearGradient>
<linearGradient id="paint83_linear_51_9364" x1="128.254" y1="231.249" x2="112.202" y2="219.802" gradientUnits="userSpaceOnUse">
<stop stop-color="#77D517"/>
<stop offset="0.02" stop-color="#79D51B"/>
<stop offset="0.25" stop-color="#95DE4A"/>
<stop offset="0.48" stop-color="#ABE570"/>
<stop offset="0.68" stop-color="#BBEA8B"/>
<stop offset="0.86" stop-color="#C4EC9C"/>
<stop offset="1" stop-color="#C8EEA2"/>
</linearGradient>
<linearGradient id="paint84_linear_51_9364" x1="128.957" y1="231.522" x2="112.291" y2="219.413" gradientUnits="userSpaceOnUse">
<stop stop-color="#51A200"/>
<stop offset="1" stop-color="#69D100"/>
</linearGradient>
<linearGradient id="paint85_linear_51_9364" x1="130.574" y1="225.246" x2="113.295" y2="212.954" gradientUnits="userSpaceOnUse">
<stop stop-color="#77D517"/>
<stop offset="0.02" stop-color="#79D51B"/>
<stop offset="0.25" stop-color="#95DE4A"/>
<stop offset="0.48" stop-color="#ABE570"/>
<stop offset="0.68" stop-color="#BBEA8B"/>
<stop offset="0.86" stop-color="#C4EC9C"/>
<stop offset="1" stop-color="#C8EEA2"/>
</linearGradient>
<linearGradient id="paint86_linear_51_9364" x1="130.919" y1="225.319" x2="113.355" y2="212.782" gradientUnits="userSpaceOnUse">
<stop stop-color="#51A200"/>
<stop offset="1" stop-color="#69D100"/>
</linearGradient>
<linearGradient id="paint87_linear_51_9364" x1="133.379" y1="218.229" x2="115.974" y2="205.729" gradientUnits="userSpaceOnUse">
<stop stop-color="#77D517"/>
<stop offset="0.02" stop-color="#79D51B"/>
<stop offset="0.25" stop-color="#95DE4A"/>
<stop offset="0.48" stop-color="#ABE570"/>
<stop offset="0.68" stop-color="#BBEA8B"/>
<stop offset="0.86" stop-color="#C4EC9C"/>
<stop offset="1" stop-color="#C8EEA2"/>
</linearGradient>
<linearGradient id="paint88_linear_51_9364" x1="133.59" y1="218.581" x2="115.852" y2="205.936" gradientUnits="userSpaceOnUse">
<stop stop-color="#51A200"/>
<stop offset="1" stop-color="#69D100"/>
</linearGradient>
<linearGradient id="paint89_linear_51_9364" x1="135.378" y1="211.683" x2="117.734" y2="198.957" gradientUnits="userSpaceOnUse">
<stop stop-color="#77D517"/>
<stop offset="0.02" stop-color="#79D51B"/>
<stop offset="0.25" stop-color="#95DE4A"/>
<stop offset="0.48" stop-color="#ABE570"/>
<stop offset="0.68" stop-color="#BBEA8B"/>
<stop offset="0.86" stop-color="#C4EC9C"/>
<stop offset="1" stop-color="#C8EEA2"/>
</linearGradient>
<linearGradient id="paint90_linear_51_9364" x1="135.569" y1="211.96" x2="117.642" y2="199.127" gradientUnits="userSpaceOnUse">
<stop stop-color="#51A200"/>
<stop offset="1" stop-color="#69D100"/>
</linearGradient>
<linearGradient id="paint91_linear_51_9364" x1="136.964" y1="204.401" x2="119.793" y2="191.901" gradientUnits="userSpaceOnUse">
<stop stop-color="#77D517"/>
<stop offset="0.02" stop-color="#79D51B"/>
<stop offset="0.25" stop-color="#95DE4A"/>
<stop offset="0.48" stop-color="#ABE570"/>
<stop offset="0.68" stop-color="#BBEA8B"/>
<stop offset="0.86" stop-color="#C4EC9C"/>
<stop offset="1" stop-color="#C8EEA2"/>
</linearGradient>
<linearGradient id="paint92_linear_51_9364" x1="137.171" y1="204.803" x2="119.636" y2="192.193" gradientUnits="userSpaceOnUse">
<stop stop-color="#51A200"/>
<stop offset="1" stop-color="#69D100"/>
</linearGradient>
<linearGradient id="paint93_linear_51_9364" x1="140.88" y1="198.932" x2="123.104" y2="185.506" gradientUnits="userSpaceOnUse">
<stop stop-color="#77D517"/>
<stop offset="0.02" stop-color="#79D51B"/>
<stop offset="0.25" stop-color="#95DE4A"/>
<stop offset="0.48" stop-color="#ABE570"/>
<stop offset="0.68" stop-color="#BBEA8B"/>
<stop offset="0.86" stop-color="#C4EC9C"/>
<stop offset="1" stop-color="#C8EEA2"/>
</linearGradient>
<linearGradient id="paint94_linear_51_9364" x1="141.281" y1="199.038" x2="123.147" y2="185.574" gradientUnits="userSpaceOnUse">
<stop stop-color="#51A200"/>
<stop offset="1" stop-color="#69D100"/>
</linearGradient>
<linearGradient id="paint95_linear_51_9364" x1="145" y1="193.831" x2="126.014" y2="179.29" gradientUnits="userSpaceOnUse">
<stop stop-color="#77D517"/>
<stop offset="0.02" stop-color="#79D51B"/>
<stop offset="0.25" stop-color="#95DE4A"/>
<stop offset="0.48" stop-color="#ABE570"/>
<stop offset="0.68" stop-color="#BBEA8B"/>
<stop offset="0.86" stop-color="#C4EC9C"/>
<stop offset="1" stop-color="#C8EEA2"/>
</linearGradient>
<linearGradient id="paint96_linear_51_9364" x1="145.358" y1="193.944" x2="126.04" y2="179.382" gradientUnits="userSpaceOnUse">
<stop stop-color="#51A200"/>
<stop offset="1" stop-color="#69D100"/>
</linearGradient>
<linearGradient id="paint97_linear_51_9364" x1="147.788" y1="189.277" x2="128.128" y2="174.128" gradientUnits="userSpaceOnUse">
<stop stop-color="#77D517"/>
<stop offset="0.02" stop-color="#79D51B"/>
<stop offset="0.25" stop-color="#95DE4A"/>
<stop offset="0.48" stop-color="#ABE570"/>
<stop offset="0.68" stop-color="#BBEA8B"/>
<stop offset="0.86" stop-color="#C4EC9C"/>
<stop offset="1" stop-color="#C8EEA2"/>
</linearGradient>
<linearGradient id="paint98_linear_51_9364" x1="148.274" y1="189.26" x2="128.262" y2="174.098" gradientUnits="userSpaceOnUse">
<stop stop-color="#51A200"/>
<stop offset="1" stop-color="#69D100"/>
</linearGradient>
<linearGradient id="paint99_linear_51_9364" x1="149.847" y1="183.888" x2="130.751" y2="168.893" gradientUnits="userSpaceOnUse">
<stop stop-color="#77D517"/>
<stop offset="0.02" stop-color="#79D51B"/>
<stop offset="0.25" stop-color="#95DE4A"/>
<stop offset="0.48" stop-color="#ABE570"/>
<stop offset="0.68" stop-color="#BBEA8B"/>
<stop offset="0.86" stop-color="#C4EC9C"/>
<stop offset="1" stop-color="#C8EEA2"/>
</linearGradient>
<linearGradient id="paint100_linear_51_9364" x1="150.334" y1="183.783" x2="130.919" y2="168.779" gradientUnits="userSpaceOnUse">
<stop stop-color="#51A200"/>
<stop offset="1" stop-color="#69D100"/>
</linearGradient>
<linearGradient id="paint101_linear_51_9364" x1="152.522" y1="180.02" x2="132.712" y2="164.493" gradientUnits="userSpaceOnUse">
<stop stop-color="#77D517"/>
<stop offset="0.02" stop-color="#79D51B"/>
<stop offset="0.25" stop-color="#95DE4A"/>
<stop offset="0.48" stop-color="#ABE570"/>
<stop offset="0.68" stop-color="#BBEA8B"/>
<stop offset="0.86" stop-color="#C4EC9C"/>
<stop offset="1" stop-color="#C8EEA2"/>
</linearGradient>
<linearGradient id="paint102_linear_51_9364" x1="152.991" y1="179.957" x2="132.855" y2="164.423" gradientUnits="userSpaceOnUse">
<stop stop-color="#51A200"/>
<stop offset="1" stop-color="#69D100"/>
</linearGradient>
<linearGradient id="paint103_linear_51_9364" x1="155.807" y1="176.637" x2="135.066" y2="160.169" gradientUnits="userSpaceOnUse">
<stop stop-color="#77D517"/>
<stop offset="0.02" stop-color="#79D51B"/>
<stop offset="0.25" stop-color="#95DE4A"/>
<stop offset="0.48" stop-color="#ABE570"/>
<stop offset="0.68" stop-color="#BBEA8B"/>
<stop offset="0.86" stop-color="#C4EC9C"/>
<stop offset="1" stop-color="#C8EEA2"/>
</linearGradient>
<linearGradient id="paint104_linear_51_9364" x1="156.335" y1="176.513" x2="135.255" y2="160.039" gradientUnits="userSpaceOnUse">
<stop stop-color="#51A200"/>
<stop offset="1" stop-color="#69D100"/>
</linearGradient>
<linearGradient id="paint105_linear_51_9364" x1="158.673" y1="171.369" x2="138.365" y2="154.811" gradientUnits="userSpaceOnUse">
<stop stop-color="#77D517"/>
<stop offset="0.02" stop-color="#79D51B"/>
<stop offset="0.25" stop-color="#95DE4A"/>
<stop offset="0.48" stop-color="#ABE570"/>
<stop offset="0.68" stop-color="#BBEA8B"/>
<stop offset="0.86" stop-color="#C4EC9C"/>
<stop offset="1" stop-color="#C8EEA2"/>
</linearGradient>
<linearGradient id="paint106_linear_51_9364" x1="159.21" y1="171.183" x2="138.598" y2="154.632" gradientUnits="userSpaceOnUse">
<stop stop-color="#51A200"/>
<stop offset="1" stop-color="#69D100"/>
</linearGradient>
<linearGradient id="paint107_linear_51_9364" x1="159.917" y1="167.585" x2="139.628" y2="151.175" gradientUnits="userSpaceOnUse">
<stop stop-color="#77D517"/>
<stop offset="0.02" stop-color="#79D51B"/>
<stop offset="0.25" stop-color="#95DE4A"/>
<stop offset="0.48" stop-color="#ABE570"/>
<stop offset="0.68" stop-color="#BBEA8B"/>
<stop offset="0.86" stop-color="#C4EC9C"/>
<stop offset="1" stop-color="#C8EEA2"/>
</linearGradient>
<linearGradient id="paint108_linear_51_9364" x1="160.458" y1="167.407" x2="139.852" y2="150.997" gradientUnits="userSpaceOnUse">
<stop stop-color="#51A200"/>
<stop offset="1" stop-color="#69D100"/>
</linearGradient>
<linearGradient id="paint109_linear_51_9364" x1="162.73" y1="163.854" x2="142.063" y2="146.981" gradientUnits="userSpaceOnUse">
<stop stop-color="#77D517"/>
<stop offset="0.02" stop-color="#79D51B"/>
<stop offset="0.25" stop-color="#95DE4A"/>
<stop offset="0.48" stop-color="#ABE570"/>
<stop offset="0.68" stop-color="#BBEA8B"/>
<stop offset="0.86" stop-color="#C4EC9C"/>
<stop offset="1" stop-color="#C8EEA2"/>
</linearGradient>
<linearGradient id="paint110_linear_51_9364" x1="163.267" y1="163.666" x2="142.298" y2="146.8" gradientUnits="userSpaceOnUse">
<stop stop-color="#51A200"/>
<stop offset="1" stop-color="#69D100"/>
</linearGradient>
<linearGradient id="paint111_linear_51_9364" x1="163.969" y1="159.638" x2="143.892" y2="143.072" gradientUnits="userSpaceOnUse">
<stop stop-color="#77D517"/>
<stop offset="0.02" stop-color="#79D51B"/>
<stop offset="0.25" stop-color="#95DE4A"/>
<stop offset="0.48" stop-color="#ABE570"/>
<stop offset="0.68" stop-color="#BBEA8B"/>
<stop offset="0.86" stop-color="#C4EC9C"/>
<stop offset="1" stop-color="#C8EEA2"/>
</linearGradient>
<linearGradient id="paint112_linear_51_9364" x1="164.49" y1="159.433" x2="144.132" y2="142.875" gradientUnits="userSpaceOnUse">
<stop stop-color="#51A200"/>
<stop offset="1" stop-color="#69D100"/>
</linearGradient>
<clipPath id="clip0_51_9364">
<rect width="286.613" height="175.291" fill="white" transform="translate(0 77.2053) rotate(-15.6269)"/>
</clipPath>
</defs>
</svg>
