<svg width="23" height="23" viewBox="0 0 23 23" fill="none" xmlns="http://www.w3.org/2000/svg">
<path d="M22.7203 14.8V7.82996C22.7203 3.61996 19.3003 0.199951 15.0903 0.199951H8.12024C3.91024 0.199951 0.490234 3.61996 0.490234 7.82996V14.8C0.490234 19.01 3.91024 22.4299 8.12024 22.4299H15.0903C19.3003 22.4299 22.7203 19.01 22.7203 14.8Z" fill="#00716D"/>
<path d="M6.74023 8.24994H8.89026V15.1599H6.74023V8.24994ZM7.82025 4.80994C8.51025 4.80994 9.07025 5.36994 9.07025 6.05994C9.07025 6.74994 8.51025 7.30994 7.82025 7.30994C7.13025 7.30994 6.57025 6.74994 6.57025 6.05994C6.57025 5.36994 7.13025 4.80994 7.82025 4.80994Z" fill="#80F0F0"/>
<path d="M10.2402 8.24995H12.3002V9.19995H12.3303C12.6203 8.64995 13.3202 8.07996 14.3602 8.07996C16.5302 8.07996 16.9302 9.51995 16.9302 11.3699V15.1599H14.7902V11.8C14.7902 11 14.7702 9.95995 13.6702 9.95995C12.5702 9.95995 12.3802 10.8399 12.3802 11.7399V15.1599H10.2402V8.24995Z" fill="#80F0F0"/>
</svg>
