<svg width="1366" height="133" viewBox="0 0 1366 133" fill="none" xmlns="http://www.w3.org/2000/svg">
<path fill-rule="evenodd" clip-rule="evenodd" d="M-30.0365 68.0367C77.1925 40.9684 100.055 43.8242 119.012 38.5449C137.224 33.4718 173.396 13.3768 250.197 29.1459C278.828 35.0106 386.522 52.2875 397.462 52.5491C408.384 52.8086 484.722 32.5649 499.892 29.6625C515.074 26.7624 574.477 12.7936 574.477 12.7936L602.277 2.3636L630.078 0.383586L652.641 0L718.368 27.6914L760.271 31.4341L794.5 23C794.5 23 1005.37 45.4658 1003.5 54C1001.63 62.532 1232.5 0.383586 1232.5 0.383586L1361.5 38.5L1368 110.089L339.28 132.045L-40 110.089L-30.0365 68.0367Z" fill="#FABF01"/>
<path fill-rule="evenodd" clip-rule="evenodd" d="M613.629 9.94814C611.208 12.4127 607.803 13.877 605.149 16.1002C604.343 16.0051 603.789 15.6361 603.045 15.4783C606.158 13.3038 609.025 10.2057 613.629 9.94814ZM29.5185 48.1603C37.0013 47.3504 75.1157 43.1964 88.8934 41.2076C101.047 39.4578 130.091 34.9394 141.562 33.1502C145.5 31.8135 149.511 30.5186 153.605 29.1911C157.911 27.7848 162.241 26.2346 166.802 25.1648C175.249 23.1806 185.197 22.9439 195.687 23.2781C200.114 23.422 204.546 23.2595 208.75 23.6424C217.154 24.4291 225.315 25.1648 233.165 26.172C244.935 27.6711 255.974 30.4188 267.776 31.955C271.601 32.4517 275.383 33.3428 279.229 33.9694C294.339 36.4131 309.998 39.4949 325.044 42.0036C328.856 42.6464 332.922 43.3496 336.984 43.5213C345.356 43.874 352 46.385 358.152 49.3044C361.27 50.7803 363.485 53.1915 366.253 54.7092C368.468 55.9392 371.282 56.4938 374.462 56.8489C377.373 57.1691 380.378 57.9976 383.178 58.3666C385.317 58.6404 387.543 58.6544 389.648 58.7356C391.941 58.8331 394.107 58.3202 396.246 58.478C398.413 58.6567 400.184 59.4225 401.859 60.2556C403.474 61.0539 405.135 62.2653 406.83 62.6343C409.045 63.1333 411.48 62.8408 413.679 63.0172C415.735 63.1797 417.84 63.4001 419.657 64.152C421.922 65.0803 423.691 66.6607 425.89 67.5425C432.663 70.2763 441.25 71.0096 448.798 73.1957C447.612 74.1054 445.301 73.7898 443.309 73.5786C436.095 72.8128 429.389 70.3993 422.52 69.0602C420.705 68.6913 418.818 68.5961 416.921 68.2898C415.069 68.002 413.125 67.7491 411.195 67.6678C409.185 67.5913 407.095 67.9417 405.087 67.5425C401.608 66.8394 399.423 63.6531 396.134 62.8896C393.526 62.2862 390.408 62.2676 387.546 62.0124C381.821 61.4879 376.426 60.62 371.602 58.9932C369.26 58.1949 367.122 57.0113 364.877 56.3546C363.028 55.7999 361.114 55.7651 359.28 55.3497C354.456 54.2335 350.199 51.1656 345.344 49.8057C341.671 48.8008 337.926 48.7196 334.002 48.1789C332.196 47.9375 330.409 47.427 328.527 47.167C319.066 45.9209 310.221 43.9413 301.018 42.1358C293.533 40.6808 285.894 39.8987 278.365 38.8753C270.976 37.8565 263.668 36.1949 256.33 34.8489C252.562 34.1597 248.643 34.0506 244.873 33.3312C241.172 32.6489 237.597 31.8622 233.91 31.3354C226.459 30.2331 218.627 29.6065 211.006 28.3139C207.271 27.6711 203.4 27.2278 199.549 26.7962C195.563 26.3646 191.515 25.6939 187.717 25.6614C182.323 25.6475 176.883 26.8171 171.787 27.8034C162.79 29.5694 154.055 32.1221 145.293 34.5148C131.433 38.3021 123.291 38.8962 108.369 41.4837C98.8941 43.1268 35.4895 50.423 35.4895 50.423L22.8858 52.9641C19.1387 54.2312 15.0838 55.2082 11.4768 56.2293C4.78438 58.1183 -1.69898 60.4506 -8.71074 61.7617C-12.4601 62.4626 -16.2233 62.9731 -19.8303 63.5138C-27.1867 64.651 -34.1502 66.2824 -41.5801 67.5448C-45.2054 68.1668 -49.0031 69.2552 -52.8145 68.2921C-51.5969 67.1434 -49.8371 66.8069 -48.2886 66.4101C-36.5533 63.4025 -24.1679 61.1328 -11.872 58.7402C-1.34057 56.6957 8.10646 53.5326 18.4541 51.0704C21.9002 50.2373 25.4452 49.5388 28.2274 48.3042C28.5651 48.1533 29.1234 47.9723 29.5208 48.1649L29.5185 48.1603ZM636.776 9.82514C635.037 11.2268 632.836 11.7861 630.922 12.972C629.07 14.0928 627.425 15.527 625.704 16.7431C625.164 16.6131 624.795 16.2929 624.321 16.1002C627.901 13.4338 631.193 10.461 636.778 9.82514H636.776ZM586.48 16.1002C585.807 17.3789 584.282 17.9869 583.11 18.8665C579.668 21.4865 576.043 24.508 573.289 27.9264C572.781 27.7198 572.374 27.4135 571.915 27.1745C575.758 22.5424 580.342 18.6762 586.228 16.1002H586.48ZM646.866 16.4855C644.052 18.1656 641.074 19.6973 638.637 21.7603C638.292 21.4888 638.196 20.962 638.021 20.5118C640.856 19.138 643.087 16.4855 646.866 16.4855ZM603.047 17.7479C600.511 19.9711 597.965 22.1711 595.815 24.7819C595.089 24.6055 594.728 24.0462 594.08 23.7724C595.783 21.1825 598.066 19.1728 600.421 17.2374C601.29 17.4161 602.114 17.6388 603.047 17.7502V17.7479ZM623.83 18.1169C622.529 19.5859 620.65 20.7068 619.465 22.3985C619.086 22.9578 618.991 23.5798 618.47 24.0253C617.314 25.0348 615.782 25.3504 614.736 26.5386C614.247 26.3274 613.788 26.0884 613.252 25.912C614.55 24.4941 616.427 23.8884 617.599 22.3985C619.007 20.6279 620.149 18.8224 622.097 17.618C622.837 17.604 623.216 17.9869 623.832 18.1169H623.83ZM668.901 22.6376C668.379 23.5333 667.492 23.5798 666.778 24.0276C665.294 24.9559 664.03 26.2996 662.792 27.5458C661.593 28.7618 660.66 30.5998 658.677 30.9502C658.188 29.0287 660.465 27.6409 661.923 26.2996C663.837 24.5243 665.801 22.0968 668.901 22.6376ZM685.571 29.0612C682.444 31.1683 678.708 32.6698 675.988 35.2133C675.582 35.023 675.168 34.7979 674.994 34.3337C678.283 32.3356 681.036 29.7806 685.571 29.0635V29.0612ZM697.407 33.7118C697.568 33.7605 697.658 33.8743 697.658 34.0947C694.577 36.6359 691.22 38.9055 688.075 41.3816C687.9 41.0938 687.554 40.9825 687.335 40.7574C690.356 38.0584 693.754 35.7586 697.407 33.7118ZM673.76 36.8609C671.683 38.7291 669.645 40.4719 667.782 42.6441C667.242 43.266 666.776 44.3196 665.781 44.4008C665.866 42.3888 667.444 40.7086 668.777 39.3696C669.914 38.2209 671.412 37.3204 672.503 36.2181C672.914 36.4432 673.333 36.6498 673.76 36.8609ZM712.228 37.8658C710.698 39.6713 708.782 41.0939 706.994 42.6441C705.242 44.1618 703.512 45.7561 701.777 47.2947C701.161 47.2947 701.01 46.8004 700.52 46.6727C704.221 43.5422 707.677 40.1494 712.228 37.8658ZM686.207 43.266C683.453 45.951 680.59 48.5084 678.111 51.4487C677.723 51.2839 677.463 51.0194 677.116 50.8082C679.421 47.7867 682.426 45.4405 685.084 42.774C685.422 42.9805 685.876 43.0618 686.207 43.266ZM698.402 50.4438C695.682 53.3029 692.9 56.1132 690.065 58.8609C689.543 58.7495 689.212 58.4618 688.691 58.3666C691.059 55.1873 694.241 52.8225 696.918 49.931C697.345 50.17 697.791 50.3905 698.402 50.4438ZM720.441 50.8082C720.66 52.0845 719.394 52.8086 718.698 53.5884C717.939 54.4215 717.324 55.366 716.455 55.9693C715.84 55.9693 715.582 55.598 714.962 55.5841C716.055 53.8761 718.208 52.1658 720.062 50.8082H720.441ZM676.494 53.2054C675.32 54.9158 673.868 56.4033 672.632 58.1113C671.4 59.8217 670.64 61.8662 669.149 63.3839C669.831 58.4942 673.027 56.1596 675.244 52.8225C675.798 52.8086 676.02 53.1428 676.496 53.2054H676.494ZM712.228 58.3666C712.625 58.7031 713.168 58.9259 713.717 59.1185C711.996 61.0679 710.408 63.1588 708.731 65.1546C708.242 65.0594 707.884 64.8389 707.5 64.644C708.892 62.379 710.666 60.4738 712.23 58.3666H712.228ZM687.567 61.4995C686.556 63.5301 684.923 65.4168 683.581 67.5402C682.249 69.6474 681.24 72.047 679.609 73.8362C680.496 69.0231 683.581 65.3472 685.828 61.4995H687.567ZM726.672 64.2634C726.311 65.3681 725.358 66.0735 724.675 66.9183C723.984 67.7607 723.352 68.675 722.684 69.5522C721.342 71.2765 720.152 73.2282 718.447 74.5881C719.803 71.3902 722.941 66.0527 725.553 64.1497C725.833 63.9292 726.32 63.6856 726.672 64.2611V64.2634ZM706.739 67.7955C706.078 69.0255 705.124 70.0976 704.385 71.309C703.64 72.5111 703.296 74.0102 702.138 74.8434C702.039 71.8079 704.095 69.8539 705.253 67.6678C705.623 67.8303 706.206 67.7978 706.742 67.7978L706.739 67.7955ZM636.647 23.4034C635.253 23.6122 632.661 28.2768 630.812 28.0563C630.304 27.989 629.968 27.4622 629.817 26.9215C632.247 25.8169 633.451 23.4707 635.666 22.1433C636.031 22.5122 636.443 22.8603 636.647 23.4034ZM554.739 26.7916C554.957 26.7567 554.985 26.9192 554.859 26.9192C553.441 28.7061 550.735 30.4675 548.754 32.4493C547.952 33.2755 547.128 34.8095 546.025 33.8394C548.428 30.9804 551.546 28.8361 554.741 26.7916H554.739ZM593.083 27.1745C590.96 29.0473 587.974 31.1869 585.362 33.3266C584.19 34.3059 582.981 36.1694 581.12 34.8443C584.139 32.6095 587.475 28.9637 590.832 26.9192C591.321 26.6338 592.49 27.3508 593.083 27.1745ZM201.541 30.6903C200.595 31.4143 199.182 31.3331 197.679 31.6998C195.513 32.2266 193.808 33.4844 192.319 31.955C194.646 30.9827 198.584 29.3977 201.543 30.6903H201.541ZM171.656 33.2175C168.447 34.9093 165.124 36.492 161.816 38.1188C160.964 37.9749 160.488 37.4504 159.696 37.223C162.165 35.6635 165.754 33.7721 168.665 32.5747C169.333 32.3055 170.755 33.3892 171.656 33.2175ZM191.573 33.5865C189.25 34.8304 186.415 35.5823 184.106 36.8609C183.41 36.6846 182.998 36.2042 182.367 35.9814C184.423 34.6261 186.998 33.7745 189.452 32.8346C190.21 33.0411 190.562 33.6491 191.57 33.5865H191.573ZM217.975 34.4637C216.41 36.1253 213.102 36.0139 211.126 37.2253C210.462 37.1162 210.416 36.3504 209.752 36.2204C212.013 35.2295 214.875 34.2108 217.975 34.4637ZM237.891 35.9814C236.99 36.6985 235.359 36.5871 233.905 36.8609C232.671 37.0814 230.962 38.0584 230.298 36.8609C232.437 36.2181 235.237 35.6797 237.891 35.9814ZM209.384 37.7382C207.691 38.4413 205.162 39.6713 203.152 40.6297C201.539 41.4002 200.606 41.7994 199.421 40.5044C201.729 39.0633 204.592 38.1884 207.138 36.9863C207.962 37.1626 208.53 37.5943 209.384 37.7382ZM228.177 38.2348C225.349 38.9542 222.546 39.6713 220.205 40.8873C219.59 40.7109 219.197 40.3118 218.974 39.7525C221.377 38.5365 224.511 38.0398 227.435 37.3529C227.739 37.5177 228.308 38.0584 228.18 38.2325L228.177 38.2348ZM181.117 38.2348C177.701 40.0264 174.537 42.0709 171.656 44.4031C170.898 44.3683 170.693 43.7812 170.043 43.6512C172.621 41.1913 175.897 39.4346 178.996 37.4852C179.768 37.6755 180.451 37.9447 181.115 38.2348H181.117ZM159.778 39.3696C156.091 41.9084 151.854 43.874 148.28 46.5405C147.82 46.2852 147.423 45.9997 146.933 45.7886C149.92 43.1221 153.64 41.2215 157.058 39.0006C158.053 39.0145 158.873 39.2396 159.778 39.3696ZM244.976 40.1169C241.673 41.2215 238.445 42.405 235.649 44.0179C234.918 43.5886 234.047 43.2799 233.652 42.5141C236.781 41.1403 241.213 37.7544 244.976 40.1145V40.1169ZM143.09 40.0078C141.838 41.688 139.66 42.3725 138.01 43.6512C137.475 43.5236 137.123 43.2196 136.668 43.0154C138.516 41.7228 140.418 40.458 143.09 40.0078ZM217.343 42.2612C214.223 44.2221 211.082 46.1576 208.011 48.1742C207.422 48.0443 207.218 47.5453 206.637 47.4223C209.325 45.278 212.47 43.5886 215.349 41.6392C216.187 41.6694 216.775 41.9548 217.345 42.2612H217.343ZM198.299 42.774C194.171 45.2502 190.137 47.854 186.355 50.6968C186.022 50.4717 185.815 50.1375 185.482 49.931C188.744 47.0209 192.425 44.5447 196.179 42.1312C196.905 42.3238 197.587 42.5628 198.297 42.774H198.299ZM135.855 45.0251C134.311 46.4662 132.457 47.6149 130.794 48.9238C127.633 48.4968 133.268 44.4031 135.855 45.0251ZM232.908 45.5356C231.088 47.5035 227.927 49.7871 225.06 51.4487C223.387 52.4048 221.632 53.8483 220.334 51.813C224.823 50.4926 227.578 47.3875 230.792 44.7837C231.582 44.9415 232.118 45.3569 232.91 45.5356H232.908ZM169.173 45.5356C165.458 47.5662 161.593 49.4529 158.209 51.813C157.518 51.5578 157.01 51.1122 156.341 50.8082C159.114 48.8774 163.305 46.2875 166.675 44.8928C167.245 44.6723 168.463 45.5217 169.173 45.5356ZM146.251 47.7867C143.152 49.9171 140.099 52.0706 137.123 54.3426C136.478 54.3704 136.188 54.0339 135.655 53.9573C137.948 51.8525 141.318 49.4529 144.025 47.5476C144.466 47.232 145.67 47.8563 146.253 47.789L146.251 47.7867ZM126.224 52.4535C125.278 53.2194 124.453 54.4493 123.058 54.7092C122.443 53.5257 123.883 52.7599 124.614 52.0706C127.139 49.7198 132.751 47.1067 126.224 52.4535ZM205.148 49.931C202.584 52.0846 199.356 54.389 196.179 56.3499C195.402 56.8349 193.771 58.3944 193.075 56.8489C196.824 54.7696 199.8 51.9105 203.28 49.562C204.084 49.4993 204.452 49.8822 205.148 49.931ZM183.113 51.6877C179.203 53.1915 175.311 54.7116 171.913 56.7213C171.36 56.4335 170.723 56.2409 170.535 55.5864C173.937 53.7067 177.937 52.4234 181.864 51.0681C182.385 51.1795 182.734 51.451 183.116 51.69L183.113 51.6877ZM244.976 53.0778C242.828 53.9109 239.662 54.7255 237.259 55.7164C235.426 56.4822 234.364 57.1042 232.908 55.5864C235.819 53.6255 240.676 53.6394 243.871 51.943C244.264 52.2957 244.71 52.5997 244.976 53.0778ZM155.962 53.2054C153.293 55.5516 150.237 57.5033 147.577 59.8704C146.993 59.7892 146.6 59.5177 146.093 59.3738C148.227 56.8976 150.837 54.9018 153.476 52.9525C154.207 53.1265 155.156 53.0917 155.96 53.2078L155.962 53.2054ZM219.082 54.2126C214.967 56.0854 210.935 58.0487 207.266 60.3809C206.71 59.8402 205.92 59.5525 205.527 58.8632C208.452 57.0438 212.424 54.7881 215.983 53.5907C216.741 53.3191 218.087 54.1848 219.082 54.2126ZM134.718 56.097C133.153 57.4871 131.414 58.8307 129.765 60.2533C128.168 61.6272 126.652 63.2539 124.816 64.0198C125.181 62.2491 127.028 61.1143 128.409 59.8681C129.912 58.5105 131.522 57.2156 132.979 55.967C133.661 55.9183 134.008 56.1921 134.718 56.0947V56.097ZM231.169 58.478C227.217 60.5225 223.686 63.0033 220.205 65.5259C219.479 65.4284 219.176 64.89 218.466 64.774C221.248 62.0588 224.637 59.933 228.051 57.856C229.099 58.0672 230.061 58.3341 231.169 58.478ZM168.306 58.9909C165.173 61.1491 162.101 63.3862 159.34 65.9111C158.784 65.751 158.31 65.5282 157.832 65.2729C160.334 62.5531 163.434 60.4459 166.425 58.239C167.07 58.4641 167.576 58.833 168.306 58.9909ZM190.449 59.2438C187.41 61.163 184.391 63.0961 181.733 65.3959C181.278 65.1569 180.88 64.8552 180.628 64.3911C182.38 63.2075 184.676 61.293 186.971 59.9957C188.108 59.3599 189.339 58.2575 190.449 59.2461V59.2438ZM205.527 61.4995C202.508 64.6649 198.724 67.0436 195.816 70.3041C195.134 69.9351 194.532 69.5058 193.95 69.0602C196.638 66.0248 199.866 63.5463 202.903 60.8799C203.774 61.105 204.705 61.2489 205.529 61.5018L205.527 61.4995ZM145.412 61.6271C145.622 62.0913 144.923 62.3605 144.654 62.632C142.109 65.1406 139.343 68.1622 137.346 71.3067C136.494 70.4596 137.475 69.1531 137.916 68.4151C139.499 65.7301 141.934 63.3839 143.947 61.2582C144.406 61.416 144.99 61.4508 145.415 61.6271H145.412ZM179.249 67.1527C174.804 70.5084 171.325 74.841 167.181 78.4845C167.783 75.9434 170.073 74.2052 171.782 72.3162C173.664 70.2531 175.566 68.3664 177.636 66.6584C178.408 66.5957 178.679 67.0273 179.247 67.1503L179.249 67.1527ZM217.471 67.6655C215.287 70.0024 212.897 72.2048 210.745 74.7134C209.674 75.9619 208.783 77.5562 207.266 78.3569C207.74 76.0594 209.532 74.3166 211.002 72.5737C212.58 70.7056 214.163 68.8491 215.856 67.155C215.969 67.1411 215.969 67.2223 215.985 67.2849C216.555 67.3499 216.932 67.5913 217.474 67.6678L217.471 67.6655ZM156.47 68.1621C155.239 69.5221 153.764 70.6244 152.516 71.9495C151.299 73.2282 150.363 74.9176 148.686 75.7229C148.436 74.0613 150.014 72.7153 151.027 71.5689C152.135 70.3041 153.32 69.0254 154.478 68.0531C154.506 67.9046 154.731 67.9579 154.731 67.7955C155.395 67.8442 155.746 68.197 156.47 68.1645V68.1621ZM193.312 72.5714C191.099 75.2239 188.694 77.6235 186.481 80.3712C185.799 81.1997 185.183 82.3206 184.106 82.7522C183.741 80.6891 185.689 78.5495 186.842 77.0921C188.283 75.3075 189.879 73.6413 191.207 71.9495C192.046 72.0122 192.459 72.5111 193.312 72.5714ZM183.979 27.4297C183.079 28.6643 181.131 29.1424 179.249 29.943C178.539 30.2424 177.639 30.688 176.766 31.0755C174.978 31.8553 173.809 32.3681 172.035 31.3308C175.615 29.7017 179.187 27.3996 183.979 27.4297ZM611.127 28.9335C611.378 29.1911 610.544 29.8432 610.132 30.196C606.856 32.9785 603.236 36.2878 600.182 39.3696C599.548 39.2559 599.121 38.9333 598.422 38.8707C601.685 35.1181 605.508 31.9388 609.262 28.6783C609.831 28.8221 610.479 28.8709 611.125 28.9335H611.127ZM626.821 30.6903C623.469 33.0551 620.62 35.9188 617.597 38.62C616.953 38.4413 616.572 37.9981 615.991 37.7382C618.739 34.4823 622.219 31.955 625.576 29.3164C626.017 29.7342 626.571 30.0544 626.821 30.6903ZM571.17 30.565C567.91 33.1502 564.829 35.8979 561.709 38.6177C561.188 38.5504 560.983 38.1675 560.462 38.1188C563.083 35.0694 566.534 32.8485 569.424 30.066C570.141 30.0846 570.476 30.5162 571.168 30.565H571.17ZM529.964 33.9694C529.552 35.4686 527.542 36.1926 526.102 37.1162C524.631 38.0398 523.239 39.1607 521.863 40.0078C521.435 39.6388 520.815 39.481 520.245 39.242C523 36.9863 525.989 34.9743 529.961 33.9694H529.964ZM545.145 36.1091C541.462 39.3348 537.743 42.5489 534.186 45.9046C533.745 45.8698 533.508 45.6006 533.077 45.5356C534.326 43.7928 536.162 42.1799 537.933 40.6297C539.815 38.9542 541.887 37.4017 543.659 35.7261C544.194 35.8027 544.688 35.9327 545.143 36.1091H545.145ZM504.938 36.9863C503.991 39.0795 501.758 39.8964 500.079 41.2563C499.348 41.2076 498.955 40.8061 498.211 40.7574C500.221 39.3348 502.468 37.5177 504.938 36.9863ZM253.821 37.9958C253.334 38.7128 252.48 38.4738 251.467 38.6177C248.903 38.9658 246.798 40.4232 245.484 38.4877C247.749 37.8171 251.526 36.731 253.821 37.9958ZM579.381 38.2348C575.68 42.0848 571.882 45.8396 568.053 49.5643C567.706 49.2765 567.294 49.0653 566.801 48.9215C569.778 45.7746 573.465 41.3816 576.898 38.4877C577.242 38.2023 578.609 38.2023 579.381 38.2325V38.2348ZM634.664 40.1169C634.446 41.319 633.398 42.3099 632.546 43.1384C630.92 44.7234 629.132 46.3502 627.692 48.0443C627.218 48.0095 627.17 47.5801 626.697 47.5453C628.971 44.6886 631.538 42.1126 634.664 40.1169ZM520.868 40.7574C517.484 43.5747 514.095 46.3989 510.791 49.3044C509.953 49.2278 509.588 48.6685 508.924 48.4272C511.929 45.5983 515.028 42.8483 518.384 40.3744C519.46 40.2607 520.057 40.6135 520.868 40.7574ZM484.764 40.7574C482.806 42.6301 479.909 43.5746 477.665 45.1527C477.095 45.1202 476.858 44.7211 476.433 44.5308C478.885 43.0131 481.745 41.2702 484.766 40.7574H484.764ZM614.985 41.1263C612.559 44.4635 609.027 47.8052 606.53 51.574C605.747 51.5926 605.292 51.3048 604.534 51.3187C606.909 47.3411 609.942 44.0318 612.995 40.7574C613.645 40.9012 614.323 41.0126 614.985 41.1263ZM558.592 41.6392C556.157 44.4983 553.393 47.0394 550.753 49.6919C550.227 49.6246 549.834 49.4343 549.388 49.3044C551.796 46.4639 554.436 43.8415 557.11 41.2563C557.682 41.2981 558.061 41.5557 558.592 41.6392ZM498.59 42.2612C495.063 44.8325 491.456 47.2947 488.01 49.931C487.234 49.7384 486.774 49.2417 486.014 49.0491C488.672 46.7656 492.768 43.7441 496.09 41.8922C496.66 41.5696 497.91 42.2263 498.587 42.2612H498.59ZM597.317 42.1312C595.392 44.721 592.984 46.8282 591.089 49.4343C590.441 49.2905 590.055 48.8797 589.474 48.6825C591.089 46.2875 593.095 44.2917 595.077 42.2612C595.693 42.0848 596.532 42.1451 597.32 42.1312H597.317ZM263.788 43.266C261.479 45.1388 258.299 45.951 255.45 47.1624C252.539 48.4109 249.658 49.562 247.221 51.1911C246.794 50.9033 246.497 50.5065 246.352 49.931C248.613 48.6662 251.097 47.0394 253.817 45.9023C256.856 44.6375 260.447 43.0107 263.785 43.2637L263.788 43.266ZM462.24 44.0179C459.311 46.3478 455.642 47.9329 452.65 50.1839C452.271 49.9449 451.798 49.7871 451.403 49.562C454.456 47.2297 457.996 44.7535 462.237 44.0179H462.24ZM283.578 44.2709C282.454 45.4405 280.559 45.5078 278.976 46.0346C277.393 46.5753 275.877 47.232 274.496 47.7867C273.867 47.4711 273.407 46.9582 272.743 46.6704C275.904 45.5495 279.449 43.5723 283.578 44.2709ZM476.047 46.0346C473.725 47.6892 471.174 49.1651 468.838 50.8082C468.137 50.6829 467.666 50.3139 467.094 50.0609C469.422 48.3483 472.156 47.0417 474.566 45.408C475.163 45.524 475.452 45.9325 476.05 46.0346H476.047ZM302.134 47.1647C300.694 48.209 298.589 48.209 296.535 48.7985C295.662 49.0514 294.697 49.3879 293.781 49.6943C291.752 50.3324 290.298 51.0217 288.559 49.5666C290.351 48.766 292.639 47.9862 294.904 47.4246C297.119 46.8654 299.947 46.1599 302.132 47.1647H302.134ZM532.208 47.9166C530.166 50.2999 527.999 52.5696 525.847 54.8346C525.311 54.8346 525.116 54.4864 524.594 54.4702C526.476 52.0381 528.58 49.8497 530.699 47.6753C531.22 47.7426 531.684 47.854 532.206 47.9166H532.208ZM23.6831 55.475C22.9249 56.8628 21.0088 57.4383 19.5086 58.3666C18.0061 59.2926 16.584 60.3972 15.2055 61.2582C14.6082 61.1491 14.4152 60.6362 13.8638 60.4924C16.8689 58.5383 19.4144 56.1109 23.6854 55.475H23.6831ZM34.1111 56.9789C33.7136 58.4153 32.2111 58.7031 31.3105 59.6105C30.681 59.4527 30.2974 59.0698 29.9642 58.6056C31.2002 57.9976 32.4822 56.7537 34.1111 56.9789ZM29.144 61.2605C26.9109 63.2423 24.6181 65.1569 22.4057 67.155C21.6475 66.967 21.2018 66.4704 20.4437 66.2801C22.4539 64.4259 24.6526 62.7457 26.7846 61.0075C27.7036 60.9588 28.5283 61.0215 29.144 61.2628V61.2605ZM13.8156 62.14C11.7111 64.0731 9.17936 65.5862 6.96694 67.4103C6.36501 67.2664 6.04796 66.851 5.49198 66.6584C7.25182 65.317 9.79507 63.0474 11.8398 61.7548C12.2947 61.4624 13.2274 62.0704 13.8156 62.1377V62.14ZM-3.0154 63.3862C-3.08203 64.2333 -4.02857 64.8227 -4.67874 65.2729C-6.74873 66.7233 -9.20009 68.2735 -11.1483 69.9351C-11.6698 69.71 -12.0351 69.3271 -12.2396 68.8003C-9.29658 66.851 -6.83144 64.4236 -3.0154 63.3862ZM-22.1599 67.0436C-22.1944 68.1459 -23.3316 68.6425 -24.0898 69.2993C-26.3229 71.2788 -28.788 73.5508 -31.0808 75.5953C-31.777 75.4514 -32.2364 75.0963 -32.8062 74.841C-29.4221 72.0586 -26.4929 68.8189 -22.1599 67.0436ZM20.8825 68.5474C18.9251 70.3854 17.6592 72.9427 14.9046 73.9476C14.6197 71.4714 16.9608 69.5847 18.4035 68.0531C19.1134 68.3223 20.1105 68.3223 20.8825 68.5474ZM5.19332 68.675C2.29626 71.3554 -0.802979 73.8037 -3.35313 76.8391C-3.90221 76.7765 -4.17331 76.4423 -4.83496 76.4702C-2.46631 73.2584 0.619137 70.7822 3.57823 68.1621C4.26057 68.197 4.57301 68.5915 5.19561 68.675H5.19332ZM-12.2878 70.6847C-14.1212 72.4763 -16.1659 74.0613 -18.013 75.8482C-18.6012 75.6417 -18.8861 75.1311 -19.3593 74.841C-17.6661 73.0982 -15.7707 71.5967 -13.8846 70.0512C-13.0919 70.0164 -12.8898 70.5432 -12.2878 70.6847ZM-37.5826 71.309C-39.4986 73.7573 -42.0901 75.4815 -44.4473 77.4773C-44.7161 77.2592 -44.9389 76.9853 -45.3042 76.8391C-42.8023 74.9199 -40.6841 72.6062 -37.5826 71.309ZM-19.1686 76.9691C-21.1927 78.9649 -22.9318 81.1881 -24.7997 83.5204C-25.3396 84.1957 -25.8427 85.3722 -26.9524 85.2771C-26.9845 83.3417 -25.4016 81.8773 -24.3585 80.4988C-23.1225 78.9045 -21.983 77.3682 -20.639 75.9642C-20.1359 76.2984 -19.658 76.6349 -19.1686 76.9691ZM-32.7258 76.8391C-32.5696 77.2383 -33.137 77.591 -33.376 77.8486C-34.9244 79.6193 -36.5556 81.6638 -38.0122 83.7571C-38.5337 84.5415 -39.0254 85.8828 -40.1649 85.7714C-40.3533 83.8522 -38.9266 82.2393 -37.9318 80.8655C-36.8267 79.3153 -35.5149 77.8904 -34.3432 76.4702C-34.2283 76.4423 -34.2283 76.5166 -34.2145 76.6001C-33.6126 76.5653 -33.2174 76.7579 -32.7258 76.8391ZM-44.8264 77.8486C-46.3335 79.6193 -47.9784 81.1533 -49.435 83.0121C-50.8433 84.8176 -51.9944 86.9572 -53.8001 88.4286C-54.4641 87.3077 -53.3085 86.268 -52.7387 85.4071C-50.9858 82.7545 -48.7205 79.7817 -46.4438 77.7372C-45.7614 77.6421 -45.4972 77.9275 -44.8264 77.8533V77.8486ZM-4.75456 78.2315C-5.74016 79.6959 -6.97388 81.0071 -8.09502 82.3832C-9.1863 83.7083 -10.1328 85.2608 -11.5412 86.2843C-11.81 84.7619 -10.4637 83.3718 -9.57917 82.128C-8.55452 80.7216 -7.36444 79.3779 -6.36966 78.1016C-5.69191 78.0064 -5.35649 78.2594 -4.75456 78.2315ZM271.746 48.6825C269.102 50.3139 265.986 51.4974 263.28 53.0778C262.536 53.0012 262.143 52.551 261.541 52.3259C263.517 50.9242 266.82 49.0514 269.262 48.0466C269.846 47.8076 271.029 48.6198 271.746 48.6825ZM625.822 50.0609C623.974 52.9664 621.679 55.4426 619.717 58.239C619.187 58.0812 618.945 57.6031 618.598 57.2318C620.305 54.4702 622.651 52.3445 624.574 49.8033C625.206 49.678 625.291 50.0911 625.822 50.0609ZM486.381 50.9381C484.088 52.9339 481.462 54.6141 479.167 56.5936C478.469 56.3871 477.95 55.9879 477.175 55.8394C479.119 53.6232 481.825 52.1542 484.148 50.3139C484.941 50.4577 485.655 50.7107 486.381 50.9358V50.9381ZM508.666 50.9381C508.747 51.5322 507.672 52.1983 507.054 52.8248C505.172 54.7255 502.939 56.9324 500.949 58.7356C500.329 58.6079 499.711 58.478 499.206 58.239C498.969 57.8073 499.637 57.5544 499.826 57.3617C501.912 55.1548 504.68 52.6113 506.799 50.3139C507.387 50.5738 508.023 50.7455 508.666 50.9358V50.9381ZM287.564 51.813C284.952 53.159 281.839 53.9852 279.226 55.3451C278.452 54.9483 277.756 54.4702 277.235 53.8274C280.382 52.7065 283.989 49.5481 287.561 51.813H287.564ZM312.718 51.1911C311.737 52.1518 310.074 52.0567 308.732 52.4535C307.34 52.8527 306.134 53.4746 304.997 53.9573C304.333 53.781 303.954 53.3354 303.366 53.0778C305.822 51.9569 309.362 50.1723 312.716 51.1934L312.718 51.1911ZM451.148 51.3187C448.588 53.3632 446.006 55.4263 443.304 57.3617C442.939 57.0554 442.418 56.9116 441.944 56.7189C444.205 54.5654 446.939 52.8852 449.282 50.8058C450.093 50.7896 450.548 51.1261 451.15 51.3164L451.148 51.3187ZM434.717 51.574C433.83 53.1103 432.104 53.781 430.726 54.8346C430.285 54.758 429.825 54.6628 429.237 54.7116C430.806 53.4143 432.566 52.2957 434.717 51.574ZM466.97 52.0706C464.487 53.9225 461.907 55.6816 459.487 57.6008C458.716 57.552 458.254 57.1854 457.512 57.1018C459.251 55.2987 462.447 53.0616 464.726 51.5717C465.137 51.3025 466.352 51.9546 466.973 52.0683L466.97 52.0706ZM588.603 52.4535C586.751 55.0434 584.897 57.6472 583.243 60.4924C582.722 61.416 582.324 62.4417 581.5 63.1449C579.997 62.5995 581.058 61.0029 581.371 60.2533C582.575 57.4221 584.923 54.4841 586.48 52.196C587.073 52.4535 587.873 52.6926 588.603 52.4535ZM548.263 52.4535C545.793 55.6514 543.057 58.5917 540.674 61.8801C539.992 61.9776 539.654 61.7223 539.038 61.7548C541.223 58.3318 543.879 55.4078 546.523 52.4512H548.263V52.4535ZM329.517 53.2054C328.791 53.9852 327.622 54.1337 326.655 54.4702C323.744 55.4402 320.835 56.8164 318.317 58.3666C317.734 58.1554 317.465 57.6147 316.943 57.3617C320.373 55.3451 324.456 52.7413 329.517 53.2054ZM563.198 52.9525C563.701 53.159 564.198 53.3632 564.937 53.3354C563.136 55.5725 561.174 57.6495 559.336 59.8704C558.801 59.7892 558.312 59.6615 557.852 59.4828C559.479 57.1529 561.406 55.1246 563.198 52.9525ZM260.546 54.7116C258.09 56.5936 255.227 58.355 252.7 60.3809C251.997 60.9263 251.113 62.0936 250.083 61.6295C250.212 59.8054 252.193 58.6428 253.566 57.6031C255.177 56.4056 256.902 55.4286 258.311 54.2126C259.243 54.1848 259.671 54.6767 260.544 54.7116H260.546ZM302.134 55.0921C300.145 56.3848 297.721 57.3618 295.536 58.6056C294.92 58.9537 294.208 59.9307 293.418 59.3714C293.811 56.5774 297.971 55.858 300.266 54.3403C301.057 54.4006 301.39 54.9483 302.134 55.0921ZM346.442 54.8346C345.514 56.3523 343.12 56.4195 341.604 57.3641C341.02 57.2666 341.002 56.6122 340.609 56.3523C342.233 55.54 344.007 54.8346 346.442 54.8346ZM603.918 54.9645C604.008 54.9506 604.026 55.0109 604.042 55.0921C604.06 55.2012 603.975 55.2012 603.918 55.2151C602.774 57.0879 601.623 58.9537 600.419 61.2582C600.164 61.7362 599.633 63.0776 599.059 63.0149C597.542 62.8385 599.39 59.5339 599.674 58.9885C600.465 57.5033 601.159 56.5124 601.797 55.2151C602.565 55.2012 603.314 55.1525 603.916 54.9645H603.918ZM429.858 55.475C427.723 56.7352 426.283 58.7356 423.638 59.4828C423.071 58.2575 424.571 57.6634 425.382 57.1041C426.345 56.4358 427.374 55.8115 428.116 55.2174C428.686 55.3149 429.079 55.5864 429.855 55.4774L429.858 55.475ZM276.49 56.5913C273.878 58.1415 271.192 59.5618 268.518 61.1282C267.693 61.6063 266.873 62.5716 265.777 62.263C266.014 60.4738 267.833 59.4805 269.134 58.6056C270.623 57.6008 272.247 56.7189 273.628 55.7141C274.719 55.858 275.59 56.2385 276.49 56.5913ZM416.79 56.3523C415.843 57.1042 414.828 59.0094 413.433 58.478C413.959 57.2318 415.381 56.3035 416.79 56.3523ZM524.11 56.9789C521.72 60.2185 518.885 63.3653 516.643 66.9183C515.929 68.0345 515.393 69.3944 514.396 70.1742C513.571 69.71 514.329 68.7377 514.52 68.2875C516.45 64.043 520.103 60.4459 522.621 56.7213C523.156 56.7561 523.522 56.9812 524.11 56.9812V56.9789ZM339.483 58.239C336.92 59.8843 334.089 61.2582 331.89 63.2748C331.369 62.9847 331.017 62.5392 330.512 62.2653C332.488 60.0096 335.484 58.8145 338.105 57.2318C338.725 57.4105 338.916 58.0139 339.483 58.239ZM476.92 58.1137C477.111 58.5592 476.475 58.8609 476.176 59.1208C474.276 60.7824 472.176 62.574 470.072 64.2634C469.314 64.89 468.475 66.1965 467.333 65.5259C467.239 64.8552 467.637 64.3145 467.967 63.8968C469.863 61.4647 472.698 59.9957 474.69 57.7307C474.724 57.6031 474.926 57.6495 474.926 57.4871C475.041 57.4592 475.055 57.5335 475.055 57.6031C475.753 57.7122 476.293 57.9721 476.923 58.1137H476.92ZM442.305 58.239C441.423 59.0512 440.469 59.9655 439.569 60.8776C438.765 61.6921 437.938 63.0172 436.706 63.0172C436.692 60.3531 439.38 59.339 440.692 57.6031C441.184 57.8746 441.687 58.1136 442.303 58.239H442.305ZM316.576 59.3738C314.343 61.2744 312.162 63.2099 309.978 65.1569C308.712 63.8155 310.674 62.5531 311.593 61.6271C312.792 60.4111 313.996 59.3575 315.071 58.478C315.606 58.7356 316.004 59.1533 316.573 59.3738H316.576ZM457.509 59.2438C456.641 60.063 455.642 60.9843 454.647 61.8824C453.76 62.6668 452.733 64.0894 451.405 63.6392C451.628 61.3881 454.174 60.4134 455.391 58.7379C455.94 59.0535 456.827 59.0535 457.509 59.2461V59.2438ZM357.153 59.6128C356.138 60.4738 354.575 60.5898 353.167 61.0052C351.772 61.416 350.35 61.8012 349.195 62.3814C348.705 62.2027 348.037 61.5343 348.071 61.2605C350.716 60.4761 353.877 58.9282 357.153 59.6128ZM618.105 60.2533C617.475 61.6411 616.427 62.7759 615.603 64.1497C614.835 65.4609 614.465 67.1527 613.252 68.1621C613.218 64.644 615.433 62.3326 616.731 59.7404C617.333 59.7729 617.659 60.0607 618.105 60.2533ZM498.466 61.1305C497.404 62.7156 496.076 64.043 494.859 65.5259C493.703 66.9183 492.835 68.8189 491.109 69.6799C490.445 68.1018 492.09 66.229 492.977 65.0316C494.034 63.6044 495.394 62.3303 496.219 61.0029C497.039 60.9681 497.579 61.2234 498.466 61.1282V61.1305ZM366.373 61.4995C366.425 62.5531 365.079 62.9058 364.254 63.3862C362.534 64.3911 360.808 65.5259 359.021 66.6607C358.29 67.1387 357.25 68.1645 356.533 67.2826C359.508 65.1406 362.722 62.5531 366.373 61.4995ZM346.697 63.3862C344.308 64.4236 342.137 65.6558 340.099 67.0436C339.47 66.8858 339.118 66.4356 338.61 66.1687C340.572 64.6185 342.771 63.3235 345.209 62.2653C345.654 62.6807 346.38 62.8409 346.697 63.3862ZM556.979 62.8873C555.95 64.3284 554.856 65.7974 553.859 67.2826C552.851 68.8003 552.058 70.4457 550.872 71.8219C549.891 71.2765 550.588 69.9212 550.872 69.297C551.867 67.09 553.845 64.8877 555.114 63.0149C555.791 63.0335 556.437 63.0335 556.977 62.8849L556.979 62.8873ZM380.061 64.0221C379.507 65.382 377.023 65.8949 375.709 66.9183C375.107 66.8022 374.809 66.3868 374.202 66.2778C375.9 65.3472 377.782 63.9316 380.061 64.0221ZM329.768 64.9016C327.744 66.4193 326.418 68.6402 324.171 69.9351C323.427 68.7702 324.853 67.7143 325.531 66.9183C326.404 65.8949 327.066 64.8552 328.033 64.152C328.555 64.4584 329.184 64.6463 329.768 64.9039V64.9016ZM539.038 64.152C537.414 66.6816 535.716 69.2041 534.186 72.0609C533.754 72.894 533.428 74.2075 532.318 74.4604C532.001 72.5273 533.281 70.7845 534.186 69.1693C535.153 67.51 536.116 65.751 537.177 64.3911C537.159 64.2936 537.221 64.2797 537.302 64.2634C537.685 64.0221 538.466 64.2008 539.041 64.152H539.038ZM573.413 65.7835C573.649 66.6468 573.21 67.4938 572.783 68.0531C570.555 68.067 571.517 64.0894 573.413 65.7835ZM566.44 66.2778C567.448 65.8461 568.388 66.598 568.303 67.5402C568.099 69.9073 564.349 67.1875 566.44 66.2778ZM389.772 66.6607C388.033 67.9579 385.754 68.7052 384.171 70.1742C383.615 70.0024 383.128 69.7286 382.558 69.5522C384.555 68.2596 386.482 66.229 389.772 66.6607ZM622.327 77.605C621.284 75.7043 623.416 73.5299 624.825 71.8219C626.332 70.0024 627.802 67.828 629.555 67.1527C629.925 67.0273 630.474 67.4451 630.55 67.6655C630.839 68.5799 628.7 69.9212 628.431 70.1742C626.081 72.525 624.165 74.9524 622.327 77.605ZM373.966 67.9254C372.325 69.1554 370.425 70.1278 368.861 71.4389C368.259 71.2927 368.116 70.6708 367.609 70.4318C369.49 69.3271 371.31 66.7071 373.966 67.9231V67.9254ZM338.105 68.4174C337.156 69.2297 336.035 69.8725 334.992 70.6847C334.057 71.418 333.253 72.655 332.021 72.7014C331.608 71.5805 332.766 70.6221 333.506 69.9328C334.358 69.1368 335.422 68.4963 336.118 67.7932C337.037 67.7444 337.397 68.2712 338.11 68.4151L338.105 68.4174ZM355.667 68.675C353.339 70.6545 351.207 72.7965 348.944 74.841C350.272 72.0586 352.613 70.3366 354.794 68.4174C355.239 68.3548 355.395 68.5613 355.667 68.675ZM383.176 70.9446C382.039 71.8706 380.867 72.8267 379.698 73.8362C378.655 74.732 377.593 76.2149 375.962 76.0872C375.33 74.8109 376.801 73.9197 377.701 73.1957C378.763 72.3487 379.921 71.5016 380.821 70.687C381.708 70.6569 382.512 70.7358 383.176 70.947V70.9446ZM367.117 72.4438C366.391 73.4695 365.235 74.2214 364.254 75.0824C363.368 75.8691 362.534 77.2569 361.139 77.0921C361.693 74.4256 364.112 73.6413 365.504 71.8219C366.216 71.8567 366.471 72.3463 367.117 72.4438ZM421.141 73.4486C420.665 74.7737 419.416 75.6277 418.529 76.6001C417.674 77.5237 416.98 79.1087 415.414 79.2387C414.338 78.1039 415.935 76.8391 416.916 75.8482C418.15 74.602 419.177 72.9892 421.141 73.4486ZM434.717 76.0872C433.419 77.8022 431.123 78.4868 429.621 79.9883C429.35 79.6982 428.971 79.5381 428.626 79.3617C430.191 77.8161 431.787 76.2775 434.717 76.0849V76.0872ZM447.419 79.2364C446.247 81.0419 443.84 81.5826 442.434 83.1328C441.804 82.845 441.391 82.3531 441.2 81.629C443.095 80.8005 444.901 78.5936 447.419 79.2364ZM428.497 81.1231C427.689 82.0606 426.901 83.0237 426.122 84.0147C425.426 84.9244 424.828 86.2657 423.514 86.5233C422.912 83.7756 425.809 82.4157 426.993 80.6242C427.528 80.7541 427.928 81.0233 428.495 81.1231H428.497ZM440.95 84.2699C439.318 85.2609 438.082 86.6695 436.706 87.9134C436.042 87.7834 435.596 87.4492 434.967 87.2915C436.247 85.5625 437.892 84.1933 439.442 82.7522C440.111 83.1026 440.598 83.6132 440.95 84.2699ZM346.077 85.2748C345.983 86.4281 345.225 86.941 344.83 87.7834C343.483 87.4817 341.473 87.8321 340.099 87.5305C340.478 86.7321 341.018 86.1218 341.473 85.4047C343.104 85.4535 344.402 85.1796 346.075 85.2771L346.077 85.2748ZM322.54 86.9085C321.956 88.4077 321.037 89.575 320.435 91.0602C319.124 90.9488 317.782 90.9024 316.328 90.9349C316.688 89.5889 317.527 88.7117 318.067 87.5305C319.427 87.18 320.978 87.0315 322.542 86.9085H322.54ZM301.266 88.5353C300.976 89.7374 299.805 91.1113 299.143 92.3087C297.783 92.3435 296.708 92.1022 295.285 92.1927C295.853 91.1716 296.613 90.3385 297.153 89.2988C298.637 89.1549 299.89 88.7883 301.268 88.533L301.266 88.5353ZM310.343 88.9182C310.531 89.7514 309.49 90.6611 308.983 91.5568C308.399 92.5617 307.972 93.6478 307.352 94.4484H304C304.994 92.6591 306.056 90.9163 307.113 89.1782C308.112 89.445 309.346 89.0505 310.341 88.9182H310.343ZM331.89 89.3011C331.289 90.7376 330.402 91.9072 329.768 93.3136C328.582 93.121 327.146 93.2045 325.782 93.2045C326.404 91.9746 327.098 90.8398 327.778 89.6701C329.248 89.6562 330.436 89.3359 331.893 89.3011H331.89ZM343.58 89.4172C342.916 90.6773 342.123 91.7959 341.351 92.9469H336.366C337.048 91.7959 337.744 90.6494 338.489 89.5425C340.085 89.8302 341.779 89.322 343.58 89.4195V89.4172ZM434.838 89.9231C433.701 91.3781 432.546 92.7868 431.36 94.2094C430.223 95.5693 429.145 97.1009 427.753 98.2218C426.928 96.6368 428.449 94.9288 429.364 93.6965C430.473 92.1927 431.643 90.8189 432.72 89.5402C433.451 89.6678 434.115 89.8279 434.838 89.9231ZM289.053 90.422C288.308 91.891 287.313 93.107 286.569 94.5783H283.327C284.148 93.1372 285.161 91.891 286.077 90.552C286.836 90.2781 288.088 90.5033 289.053 90.422ZM319.567 92.0697C319.772 92.021 319.79 92.1649 319.804 92.3087C318.857 93.8729 318.046 95.5693 317.191 97.21H312.84C313.509 95.4718 314.517 94.0631 315.324 92.4317C316.778 92.3714 318.267 92.3203 319.565 92.0674L319.567 92.0697ZM298.398 93.4412C297.606 95.0077 296.584 96.3003 295.773 97.8505H291.548C292.326 96.4163 293.367 95.2467 294.16 93.8241C295.743 93.8728 296.848 93.4412 298.396 93.4412H298.398ZM339.971 94.8313C340.065 95.4857 339.247 96.3978 338.739 97.21C338.218 98.057 337.65 98.9714 337.237 99.7372C335.449 99.8463 333.662 99.9762 331.89 100.106C332.635 98.3169 333.834 96.9547 334.753 95.3279C336.669 95.3419 338.234 95.0077 339.971 94.8313ZM328.644 95.2142C327.858 96.7505 326.951 98.187 326.165 99.7395C324.725 99.7534 323.365 99.8486 322.051 99.9948C322.68 98.3935 323.567 97.0893 324.405 95.7131C325.88 95.5994 327.112 95.249 328.642 95.2165L328.644 95.2142ZM306.357 96.0961C305.55 97.8667 304.51 99.403 303.623 101.111C302.527 100.921 301.105 101.062 300.016 100.867C300.884 99.4309 301.79 98.0431 302.623 96.5857C304.002 96.5393 305.045 96.1703 306.359 96.0937L306.357 96.0961ZM285.188 96.588C284.099 98.9528 282.468 100.791 281.221 102.998C279.955 103.026 278.942 102.787 277.595 102.882C278.987 100.837 280.35 98.7741 281.71 96.7134C282.785 96.9872 284.019 96.6043 285.188 96.5857V96.588ZM738.998 33.2175C733.916 32.4169 729.167 30.804 724.294 29.8131C719.237 28.7873 714.174 28.1306 709.234 26.9192C704.598 25.7867 700.238 24.0091 695.916 22.2709C689.238 19.5859 682.72 17.5692 675.497 15.6059C673.236 14.984 671.256 13.9907 669.027 13.0764C666.776 12.1853 664.283 11.9277 661.795 11.3196C654.755 9.62324 647.608 7.64603 639.755 6.41607C634.481 5.59688 628.735 5.53654 622.961 5.53654C617.188 5.53654 611.734 5.98676 606.647 7.29329C601.733 8.56966 596.934 9.37029 592.206 10.8253C587.51 12.2618 583.034 13.4918 578.639 15.2207C574.297 16.931 569.856 18.2213 565.443 19.9943C561.172 21.7093 556.673 23.4962 551.996 24.6473C542.285 27.0608 533.155 29.1378 521.982 30.5626C518.504 31.0082 514.219 31.7601 510.171 32.2057C507.83 32.4494 505.565 32.1082 505.062 33.8371C504.949 33.5145 505.294 32.7487 504.807 32.8299C495.238 34.4451 485.917 35.2574 477.044 36.9816C468.186 38.6896 459.91 41.2818 451.653 43.3913C443.445 45.4846 435.661 49.1071 426.993 50.6921C422.595 51.4928 418.228 52.3862 413.799 53.4561C409.608 54.4656 405.291 56.0459 400.735 55.7117C400.972 54.4331 402.585 54.3379 403.469 54.0826C411.111 51.9082 419.177 49.497 427.245 47.4177C431.753 46.2504 436.166 44.8742 440.568 43.2614C444.853 41.6949 449.204 40.2886 453.523 38.866C457.875 37.4318 462.24 35.7981 466.715 34.5867C471.335 33.3359 476.176 32.7348 481.035 31.5675C490.604 29.2979 500.635 27.7477 511.152 26.9169C521.723 26.0861 532.544 25.2367 542.032 23.0158C546.815 21.9019 551.654 21.0526 556.223 19.7553C560.717 18.4627 564.891 16.5156 569.3 15.476C574.003 14.3597 578.467 12.9673 582.377 11.0644C591.909 6.43 601.593 0.918403 614.865 0.134016C617.629 -0.0377134 621.002 0.0388693 623.832 0.00405922C635.317 -0.139822 645.028 3.57094 654.588 6.41376C659.523 7.88275 664.235 8.71123 668.779 10.823C673.188 12.8675 678.727 13.0741 683.581 14.5964C692.725 17.4393 700.336 22.9973 710.114 25.2831C718.907 27.3462 728.225 28.4973 736.245 31.5652C737.192 31.9342 738.412 32.3008 739 33.2129L738.998 33.2175Z" fill="#995F16"/>
<path fill-rule="evenodd" clip-rule="evenodd" d="M1222.66 9.82439C1220.24 12.2583 1216.83 13.7044 1214.18 15.9C1213.37 15.806 1212.82 15.4416 1212.08 15.2858C1215.19 13.1383 1218.06 10.0788 1222.66 9.82439ZM1245.8 9.70292C1244.06 11.0872 1241.86 11.6395 1239.94 12.8106C1238.09 13.9175 1236.45 15.3339 1234.73 16.5348C1234.19 16.4064 1233.82 16.0902 1233.34 15.9C1236.92 13.2667 1240.21 10.3309 1245.8 9.70292H1245.8ZM1195.51 15.9C1194.84 17.1627 1193.31 17.7632 1192.15 18.6318C1188.7 21.2192 1185.08 24.2032 1182.33 27.579C1181.82 27.375 1181.41 27.0725 1180.95 26.8364C1184.8 22.262 1189.38 18.4439 1195.26 15.9H1195.51ZM1255.89 16.2804C1253.07 17.9397 1250.1 19.4522 1247.66 21.4897C1247.31 21.2215 1247.22 20.7013 1247.04 20.2567C1249.88 18.8999 1252.11 16.2804 1255.89 16.2804ZM1212.08 17.5271C1209.54 19.7227 1206.99 21.8953 1204.84 24.4736C1204.12 24.2994 1203.76 23.7471 1203.11 23.4767C1204.81 20.919 1207.1 18.9343 1209.45 17.0229C1210.32 17.1994 1211.14 17.4194 1212.08 17.5294V17.5271ZM1232.85 17.8915C1231.56 19.3423 1229.68 20.4492 1228.49 22.1199C1228.11 22.6722 1228.02 23.2864 1227.5 23.7265C1226.34 24.7234 1224.81 25.0351 1223.76 26.2085C1223.27 25.9999 1222.81 25.7639 1222.28 25.5897C1223.58 24.1894 1225.45 23.5912 1226.62 22.1199C1228.03 20.3713 1229.17 18.5882 1231.12 17.3988C1231.86 17.385 1232.24 17.7632 1232.85 17.8915ZM1277.92 22.356C1277.39 23.2406 1276.51 23.2864 1275.79 23.7288C1274.31 24.6455 1273.04 25.9724 1271.81 27.2031C1270.61 28.404 1269.67 30.2191 1267.7 30.5652C1267.2 28.6676 1269.48 27.2971 1270.94 25.9724C1272.85 24.2192 1274.81 21.822 1277.92 22.356ZM1294.58 28.6997C1291.45 30.7806 1287.72 32.2634 1285 34.7752C1284.59 34.5873 1284.18 34.365 1284 33.9067C1287.29 31.9334 1290.05 29.4101 1294.58 28.702V28.6997ZM1306.41 33.2925C1306.58 33.3406 1306.67 33.4529 1306.67 33.6706C1303.59 36.1801 1300.23 38.4215 1297.08 40.8669C1296.91 40.5827 1296.56 40.4727 1296.34 40.2504C1299.36 37.585 1302.76 35.3138 1306.41 33.2925ZM1282.77 36.4024C1280.7 38.2473 1278.66 39.9685 1276.8 42.1136C1276.26 42.7278 1275.79 43.7683 1274.8 43.8485C1274.88 41.8615 1276.46 40.2022 1277.79 38.8799C1278.93 37.7454 1280.43 36.8562 1281.52 35.7676C1281.93 35.9899 1282.35 36.1939 1282.77 36.4024ZM1321.23 37.3948C1319.7 39.1778 1317.78 40.5827 1316 42.1136C1314.24 43.6124 1312.52 45.1869 1310.78 46.7064C1310.16 46.7064 1310.01 46.2182 1309.52 46.0922C1313.23 43.0005 1316.68 39.6499 1321.23 37.3948ZM1295.22 42.7278C1292.46 45.3794 1289.6 47.905 1287.12 50.8087C1286.74 50.646 1286.47 50.3847 1286.13 50.1762C1288.43 47.1922 1291.43 44.8752 1294.09 42.2419C1294.43 42.4459 1294.88 42.5261 1295.22 42.7278ZM1307.41 49.8164C1304.69 52.6399 1301.91 55.4152 1299.07 58.1287C1298.55 58.0187 1298.22 57.7345 1297.7 57.6406C1300.07 54.5008 1303.25 52.1655 1305.93 49.3099C1306.36 49.5459 1306.8 49.7636 1307.41 49.8164H1307.41ZM1329.44 50.1762C1329.66 51.4366 1328.4 52.1517 1327.7 52.9218C1326.94 53.7445 1326.33 54.6773 1325.46 55.2731C1324.84 55.2731 1324.59 54.9065 1323.97 54.8927C1325.06 53.2059 1327.21 51.5169 1329.06 50.1762H1329.44H1329.44ZM1285.51 52.5436C1284.33 54.2327 1282.88 55.7017 1281.65 57.3885C1280.41 59.0775 1279.65 61.0966 1278.17 62.5955C1278.84 57.7666 1282.04 55.4611 1284.26 52.1655C1284.81 52.1517 1285.03 52.4817 1285.51 52.5436ZM1321.23 57.6406C1321.63 57.9729 1322.17 58.1929 1322.72 58.3831C1321 60.3082 1319.41 62.3731 1317.73 64.3441C1317.24 64.2501 1316.88 64.0324 1316.5 63.8399C1317.89 61.6031 1319.67 59.7215 1321.23 57.6406ZM1296.58 60.7345C1295.56 62.7398 1293.93 64.6031 1292.59 66.7001C1291.26 68.781 1290.25 71.1508 1288.62 72.9177C1289.51 68.1645 1292.59 64.5343 1294.84 60.7345H1296.58ZM1335.67 63.4641C1335.31 64.555 1334.36 65.2516 1333.68 66.0859C1332.99 66.9178 1332.36 67.8207 1331.69 68.687C1330.34 70.3899 1329.15 72.3173 1327.45 73.6603C1328.81 70.5022 1331.94 65.231 1334.55 63.3517C1334.83 63.134 1335.33 62.8934 1335.67 63.4618L1335.67 63.4641ZM1315.74 66.9522C1315.08 68.1668 1314.13 69.2256 1313.39 70.422C1312.65 71.6091 1312.3 73.0896 1311.14 73.9124C1311.04 70.9147 1313.1 68.985 1314.25 66.8261C1314.62 66.9865 1315.21 66.9545 1315.74 66.9545V66.9522ZM1245.67 23.1123C1244.28 23.3185 1241.68 27.9251 1239.84 27.7073C1239.33 27.6409 1238.99 27.1206 1238.84 26.5866C1241.28 25.4957 1242.48 23.1787 1244.69 21.8678C1245.06 22.2322 1245.47 22.576 1245.67 23.1123H1245.67ZM1057.86 72.2852C1056.67 73.1836 1054.36 72.8719 1052.37 72.6633C1045.16 71.907 1038.46 69.5236 1031.59 68.2012C1029.77 67.8368 1027.89 67.7428 1025.99 67.4403C1024.14 67.1561 1022.2 66.9063 1020.27 66.8261C1018.26 66.7505 1016.17 67.0965 1014.16 66.7023C1010.68 66.0079 1008.5 62.8613 1005.21 62.1073C1002.6 61.5114 999.485 61.4931 996.623 61.241C990.899 60.723 985.506 59.8659 980.682 58.2593C978.342 57.471 976.204 56.3022 973.957 55.6536C972.108 55.1058 970.195 55.0715 968.362 54.6612C963.536 53.5589 959.282 50.5291 954.431 49.1861C950.763 48.1938 947.015 48.1135 943.092 47.5796C941.286 47.3412 939.502 46.837 937.618 46.5803C933.325 46.0234 929.161 45.313 925.027 44.5429L927.278 40.326C929.577 40.7225 931.864 41.1098 934.141 41.4834C937.951 42.1182 942.017 42.8126 946.078 42.9822C954.445 43.3305 961.09 45.8103 967.239 48.6934C970.358 50.151 972.57 52.5321 975.338 54.031C977.552 55.2456 980.365 55.7934 983.544 56.144C986.454 56.4603 989.459 57.2785 992.259 57.6429C994.395 57.9133 996.623 57.927 998.727 58.0073C1001.02 58.1035 1003.19 57.597 1005.32 57.7529C1007.49 57.9293 1009.26 58.6856 1010.93 59.5084C1012.55 60.2968 1014.21 61.4931 1015.9 61.8575C1018.11 62.3502 1020.55 62.0614 1022.75 62.2356C1024.81 62.396 1026.91 62.6138 1028.73 63.3563C1030.99 64.273 1032.76 65.8338 1034.96 66.7046C1041.73 69.4044 1050.32 70.1286 1057.86 72.2875V72.2852ZM924.733 44.9486C920.341 44.4375 824.492 28.6905 820.123 27.9571C816.389 27.3223 812.518 26.8846 808.676 26.4583C804.691 26.032 800.639 25.3697 796.844 25.3376C791.451 25.3238 786.01 26.4789 780.918 27.453C766.243 30.2948 752.257 35.2222 737.725 38.1396C738.929 36.5743 741.398 36.0403 743.453 35.2817C749.68 32.9945 756.1 30.9548 762.745 28.828C767.047 27.4392 771.379 25.9083 775.938 24.8517C784.382 22.8922 794.329 22.6585 804.817 22.9885C809.243 23.1306 813.674 22.9702 817.882 23.3483C824.014 23.9167 921.425 39.6866 927.278 40.326L924.737 44.9486H924.733ZM1163.78 26.4583C1164 26.4239 1164.03 26.5843 1163.9 26.5843C1162.48 28.349 1159.77 30.0885 1157.79 32.0457C1156.99 32.8616 1156.17 34.3765 1155.06 33.4185C1157.47 30.595 1160.58 28.4774 1163.78 26.4583ZM1202.12 26.8364C1199.99 28.6859 1197.01 30.799 1194.4 32.912C1193.22 33.8792 1192.02 35.7195 1190.16 34.4109C1193.18 32.2039 1196.51 28.6034 1199.86 26.5843C1200.35 26.3025 1201.52 27.0106 1202.12 26.8364ZM810.665 30.3085C809.719 31.0236 808.311 30.9434 806.804 31.3055C804.638 31.8257 802.931 33.0678 801.445 31.5575C803.772 30.5973 807.709 29.032 810.665 30.3085ZM780.789 32.8043C777.581 34.475 774.259 36.038 770.952 37.6446C770.1 37.5025 769.624 36.9846 768.834 36.76C771.303 35.2199 774.889 33.352 777.799 32.1695C778.467 31.9036 779.889 32.9739 780.789 32.8043ZM800.701 33.1687C798.379 34.3971 795.544 35.1396 793.238 36.4024C792.542 36.2282 792.129 35.7538 791.5 35.5338C793.555 34.1954 796.135 33.3543 798.583 32.4262C799.341 32.6301 799.693 33.2306 800.701 33.1687ZM827.094 34.035C825.53 35.6759 822.223 35.5659 820.247 36.7623C819.584 36.6545 819.535 35.8982 818.872 35.7699C821.132 34.7913 823.994 33.7852 827.094 34.035ZM818.509 37.2687C816.816 37.9632 814.287 39.1778 812.277 40.1243C810.665 40.8852 809.732 41.2794 808.547 40.0006C810.855 38.5774 813.717 37.7133 816.262 36.5262C817.087 36.7004 817.654 37.1266 818.509 37.2687ZM790.248 37.7592C786.837 39.5285 783.67 41.5475 780.789 43.8508C780.031 43.8164 779.827 43.2366 779.179 43.1082C781.756 40.6789 785.032 38.944 788.13 37.0189C788.906 37.2069 789.584 37.4727 790.248 37.7592ZM768.914 38.8799C765.228 41.3871 760.99 43.3282 757.416 45.9615C756.957 45.7094 756.559 45.4275 756.07 45.219C759.056 42.5857 762.777 40.7087 766.193 38.5155C767.187 38.5292 768.012 38.7515 768.914 38.8799ZM752.228 39.5101C750.976 41.1694 748.796 41.8455 747.154 43.1082C746.614 42.9822 746.267 42.682 745.808 42.4803C747.661 41.2038 749.556 39.9547 752.228 39.5101ZM826.465 41.7355C823.346 43.672 820.206 45.5834 817.135 47.575C816.552 47.4466 816.343 46.9539 815.762 46.8324C818.449 44.7148 821.593 43.0464 824.476 41.1212C825.31 41.151 825.898 41.4329 826.467 41.7355H826.465ZM807.424 42.2419C803.296 44.6873 799.263 47.2587 795.482 50.0662C795.149 49.8438 794.947 49.5138 794.61 49.3099C797.871 46.436 801.551 43.9906 805.304 41.6071C806.03 41.7973 806.712 42.0334 807.422 42.2419H807.424ZM734.326 43.4703C733.453 44.4971 732.141 44.8592 731.032 45.5834C729.989 46.2801 729.151 47.3045 728 47.8248C728.028 46.6101 729.44 45.8194 730.416 45.219C731.558 44.5246 732.904 44.0685 733.947 43.4703H734.326ZM745.002 44.465C743.451 45.8882 741.6 47.0226 739.937 48.3152C739.353 48.2396 739.179 47.7652 738.582 47.701C740.415 46.3764 741.933 43.7431 745.004 44.465H745.002ZM778.306 44.9692C774.59 46.9745 770.734 48.8378 767.346 51.1685C766.654 50.9164 766.147 50.4764 765.478 50.1762C768.251 48.2694 772.44 45.7117 775.81 44.3344C776.377 44.1166 777.597 44.9554 778.306 44.9692ZM755.39 47.1923C752.292 49.2961 749.239 51.4229 746.269 53.6666C745.619 53.6941 745.33 53.3618 744.795 53.2861C747.089 51.2075 750.457 48.8378 753.165 46.9562C753.606 46.6445 754.809 47.261 755.393 47.1945L755.39 47.1923ZM738.407 49.4382C737.521 50.3847 736.384 50.9852 735.368 51.8034C734.422 52.5597 733.595 53.7743 732.203 54.031C731.588 52.8622 733.028 52.1059 733.758 51.4252C734.721 50.5406 735.667 49.7178 736.554 48.9478C737.282 48.9936 737.838 49.2296 738.407 49.4382ZM814.273 49.3099C811.71 51.4367 808.483 53.7124 805.309 55.649C804.532 56.128 802.901 57.6681 802.203 56.1417C805.952 54.0883 808.928 51.2648 812.406 48.9455C813.21 48.8836 813.575 49.2617 814.271 49.3099H814.273ZM792.242 51.0448C788.332 52.5298 784.441 54.031 781.044 56.0157C780.491 55.7315 779.854 55.5413 779.666 54.895C783.068 53.0386 787.069 51.7712 790.992 50.4328C791.513 50.5428 791.865 50.811 792.244 51.0471L792.242 51.0448ZM765.099 52.5436C762.43 54.8606 759.375 56.788 756.723 59.1257C756.135 59.0454 755.742 58.7773 755.234 58.6352C757.368 56.1899 759.977 54.2189 762.616 52.2938C763.347 52.4657 764.293 52.4313 765.099 52.5459V52.5436ZM827.393 53.9003C823.564 55.6421 819.816 57.4755 816.389 59.6275C815.835 59.0936 815.043 58.8094 814.65 58.1287C817.574 56.332 821.545 54.1043 825.103 52.9218C825.666 52.7224 826.552 53.144 827.382 53.3847L827.391 53.898L827.393 53.9003ZM743.86 55.3992C742.296 56.772 740.557 58.0989 738.908 59.5038C737.312 60.8606 735.796 62.4671 733.96 63.2234C734.326 61.4748 736.172 60.3541 737.553 59.1234C739.055 57.7827 740.665 56.5038 742.121 55.2709C742.803 55.2227 743.15 55.4931 743.86 55.3969V55.3992ZM777.438 58.2571C774.305 60.3884 771.234 62.5977 768.473 65.0912C767.918 64.9331 767.444 64.7131 766.967 64.461C769.468 61.775 772.569 59.694 775.557 57.5145C776.2 57.7368 776.708 58.1012 777.438 58.2571ZM799.578 58.5069C796.539 60.4022 793.521 62.3113 790.863 64.5824C790.409 64.3464 790.011 64.0484 789.759 63.5901C791.511 62.4213 793.806 60.5305 796.098 59.2494C797.235 58.6215 798.468 57.5328 799.576 58.5091L799.578 58.5069ZM814.652 60.7345C811.634 63.8605 807.851 66.2096 804.943 69.4296C804.261 69.0652 803.659 68.6412 803.076 68.2012C805.763 65.2035 808.99 62.7559 812.027 60.1226C812.9 60.3449 813.828 60.487 814.652 60.7368V60.7345ZM754.55 60.8605C754.759 61.3189 754.06 61.5848 753.792 61.8529C751.247 64.3303 748.479 67.3143 746.485 70.4197C745.633 69.5832 746.614 68.2929 747.055 67.5641C748.637 64.9125 751.072 62.5954 753.082 60.4962C753.541 60.652 754.125 60.6864 754.552 60.8605H754.55ZM788.38 66.3173C783.936 69.6313 780.459 73.9101 776.315 77.5082C776.917 74.9987 779.204 73.2821 780.916 71.4166C782.797 69.3792 784.696 67.5159 786.768 65.8292C787.54 65.7673 787.811 66.1936 788.378 66.315L788.38 66.3173ZM826.594 66.8238C824.409 69.1317 822.021 71.3066 819.868 73.784C818.798 75.017 817.907 76.5915 816.391 77.3822C816.864 75.1133 818.656 73.3921 820.126 71.671C821.704 69.8261 823.286 67.9926 824.979 66.3196C825.094 66.3059 825.094 66.3861 825.108 66.448C825.675 66.5121 826.054 66.7505 826.596 66.8261L826.594 66.8238ZM765.607 67.3143C764.373 68.6573 762.901 69.7459 761.656 71.0545C760.439 72.3173 759.504 73.9857 757.827 74.781C757.575 73.14 759.155 71.8108 760.168 70.6786C761.277 69.4296 762.462 68.1668 763.618 67.2066C763.645 67.0599 763.868 67.1126 763.868 66.9522C764.532 67.0003 764.881 67.3486 765.607 67.3166V67.3143ZM802.44 71.6687C800.228 74.2882 797.825 76.6579 795.611 79.3714C794.929 80.1896 794.313 81.2965 793.238 81.7228C792.873 79.6854 794.821 77.5724 795.974 76.1331C797.414 74.3707 799.01 72.7252 800.343 71.0545C801.176 71.1164 801.59 71.6091 802.442 71.6687H802.44ZM793.11 27.0885C792.209 28.3078 790.262 28.7799 788.38 29.5706C787.671 29.8662 786.77 30.3062 785.898 30.689C784.111 31.459 782.941 31.9655 781.173 30.9411C784.747 29.3322 788.318 27.0587 793.11 27.0885ZM1220.16 28.5736C1220.41 28.828 1219.57 29.472 1219.16 29.8204C1215.89 32.5682 1212.27 35.8364 1209.22 38.8799C1208.58 38.7676 1208.15 38.449 1207.46 38.3871C1210.72 34.6813 1214.54 31.5415 1218.29 28.3215C1218.86 28.4636 1219.51 28.5117 1220.16 28.5736H1220.16ZM1235.85 30.3085C1232.5 32.6439 1229.65 35.472 1226.62 38.1396C1225.98 37.9632 1225.6 37.5254 1225.02 37.2687C1227.76 34.0533 1231.24 31.5576 1234.6 28.9518C1235.04 29.3643 1235.59 29.6806 1235.84 30.3085H1235.85ZM1180.21 30.1848C1176.95 32.7378 1173.87 35.4513 1170.75 38.1373C1170.23 38.0709 1170.03 37.6927 1169.5 37.6446C1172.12 34.6332 1175.57 32.4399 1178.47 29.692C1179.18 29.7104 1179.51 30.1366 1180.21 30.1848H1180.21ZM1139.01 33.5468C1138.6 35.0274 1136.59 35.7424 1135.15 36.6545C1133.68 37.5667 1132.29 38.6736 1130.91 39.5101C1130.49 39.1457 1129.87 38.9899 1129.3 38.7538C1132.05 36.5262 1135.04 34.5392 1139.01 33.5468H1139.01ZM1154.19 35.6599C1150.51 38.8455 1146.79 42.0196 1143.23 45.3336C1142.79 45.2992 1142.56 45.0334 1142.12 44.9692C1143.38 43.248 1145.21 41.6552 1146.98 40.1243C1148.86 38.4696 1150.93 36.9364 1152.71 35.2817C1153.24 35.3574 1153.73 35.4857 1154.19 35.6599ZM1113.99 36.5262C1113.04 38.5934 1110.81 39.4001 1109.13 40.7431C1108.4 40.695 1108.01 40.2985 1107.27 40.2504C1109.28 38.8455 1111.52 37.051 1113.99 36.5262ZM1188.41 37.7592C1184.71 41.5613 1180.92 45.2694 1177.09 48.9478C1176.74 48.6636 1176.33 48.455 1175.84 48.3129C1178.81 45.2052 1182.5 40.8669 1185.93 38.009C1186.28 37.7271 1187.64 37.7271 1188.41 37.7569L1188.41 37.7592ZM1243.69 39.6178C1243.47 40.805 1242.42 41.7836 1241.57 42.6018C1239.94 44.1671 1238.16 45.7736 1236.72 47.4466C1236.24 47.4123 1236.19 46.9883 1235.72 46.9539C1238 44.1327 1240.56 41.5888 1243.69 39.6178ZM1129.92 40.2504C1126.53 43.0326 1123.14 45.8217 1119.84 48.6911C1119 48.6154 1118.64 48.0631 1117.97 47.8248C1120.98 45.0311 1124.08 42.3153 1127.43 39.8722C1128.51 39.7599 1129.1 40.1083 1129.92 40.2504ZM1093.82 40.2504C1091.87 42.0999 1088.97 43.0326 1086.72 44.591C1086.15 44.5589 1085.92 44.1648 1085.49 43.9768C1087.94 42.478 1090.8 40.7569 1093.82 40.2504ZM1224.01 40.6148C1221.59 43.9104 1218.06 47.2106 1215.56 50.9325C1214.78 50.9508 1214.32 50.6666 1213.56 50.6804C1215.94 46.7522 1218.97 43.4841 1222.02 40.2504C1222.67 40.3925 1223.35 40.5025 1224.01 40.6148H1224.01ZM1167.63 41.1212C1165.2 43.9447 1162.43 46.4543 1159.8 49.0738C1159.27 49.0074 1158.88 48.8194 1158.43 48.6911C1160.84 45.8859 1163.48 43.2962 1166.15 40.7431C1166.73 40.7844 1167.1 41.0387 1167.63 41.1212H1167.63ZM1107.64 41.7355C1104.12 44.2748 1100.51 46.7064 1097.07 49.3099C1096.29 49.1197 1095.83 48.6292 1095.07 48.439C1097.73 46.1838 1101.82 43.1999 1105.15 41.3711C1105.72 41.0525 1106.97 41.7011 1107.64 41.7355H1107.64ZM1206.35 41.6071C1204.42 44.1648 1202.02 46.2457 1200.12 48.8194C1199.47 48.6773 1199.09 48.2717 1198.51 48.0769C1200.12 45.7117 1202.13 43.7408 1204.1 41.7355C1204.72 41.5613 1205.56 41.6209 1206.35 41.6071ZM1071.3 43.4703C1068.38 45.7713 1064.71 47.3366 1061.72 49.5597C1061.34 49.3236 1060.86 49.1678 1060.47 48.9455C1063.52 46.6422 1067.06 44.1968 1071.3 43.4703ZM1085.11 45.4619C1082.79 47.096 1080.24 48.5536 1077.9 50.1762C1077.2 50.0524 1076.73 49.688 1076.16 49.4382C1078.48 47.7469 1081.22 46.4566 1083.62 44.8432C1084.23 44.9577 1084.51 45.3611 1085.11 45.4619ZM1141.26 47.3206C1139.21 49.6743 1137.05 51.9157 1134.9 54.1525C1134.36 54.1525 1134.17 53.8087 1133.65 53.7926C1135.53 51.3908 1137.63 49.2296 1139.75 47.0822C1140.27 47.1487 1140.73 47.2587 1141.26 47.3206ZM1234.85 49.4382C1233 52.3075 1230.71 54.7529 1228.74 57.5145C1228.21 57.3587 1227.98 56.8866 1227.62 56.5199C1229.33 53.7926 1231.68 51.6933 1233.6 49.1838C1234.23 49.0601 1234.32 49.468 1234.85 49.4382H1234.85ZM1095.44 50.3045C1093.14 52.2755 1090.52 53.9347 1088.22 55.8896C1087.53 55.6857 1087.01 55.2915 1086.23 55.1448C1088.18 52.9561 1090.88 51.5054 1093.2 49.688C1094 49.8301 1094.71 50.0799 1095.44 50.3022V50.3045ZM1117.72 50.3045C1117.8 50.8912 1116.72 51.549 1116.11 52.1677C1114.23 54.0447 1111.99 56.2242 1110 58.005C1109.39 57.8789 1108.77 57.7506 1108.27 57.5145C1108.02 57.0882 1108.69 56.8384 1108.88 56.6482C1110.97 54.4687 1113.73 51.9569 1115.86 49.688C1116.44 49.9447 1117.07 50.1143 1117.72 50.3022V50.3045ZM1060.21 50.6804C1057.66 52.6994 1055.08 54.7368 1052.37 56.6482C1052.01 56.3457 1051.49 56.2036 1051.01 56.0134C1053.27 53.8866 1056.01 52.2273 1058.35 50.1739C1059.16 50.1578 1059.61 50.4902 1060.22 50.6781L1060.21 50.6804ZM1043.79 50.9325C1042.9 52.4496 1041.18 53.112 1039.8 54.1525C1039.36 54.0768 1038.9 53.9829 1038.31 54.031C1039.88 52.7499 1041.63 51.6452 1043.79 50.9325ZM1076.03 51.4229C1073.55 53.2518 1070.97 54.9889 1068.55 56.8843C1067.78 56.8361 1067.32 56.474 1066.57 56.3915C1068.31 54.6108 1071.51 52.4015 1073.79 50.9302C1074.2 50.6643 1075.41 51.3083 1076.03 51.4206V51.4229ZM1197.64 51.8011C1195.78 54.3587 1193.94 56.9301 1192.28 59.7399C1191.75 60.652 1191.36 61.665 1190.53 62.3594C1189.03 61.8208 1190.09 60.2441 1190.4 59.5038C1191.61 56.7078 1193.95 53.8064 1195.51 51.5467C1196.1 51.8011 1196.9 52.0371 1197.63 51.8011H1197.64ZM1157.31 51.8011C1154.84 54.9592 1152.1 57.8629 1149.72 61.1104C1149.04 61.2066 1148.7 60.9545 1148.08 60.9866C1150.27 57.6062 1152.92 54.7185 1155.57 51.7988H1157.31V51.8011ZM938.61 52.5436C937.885 53.3137 936.715 53.4603 935.748 53.7926C932.838 54.7506 929.93 56.1096 927.413 57.6406C927.317 57.6062 927.227 57.5649 927.147 57.5191L926.345 56.4695C929.715 54.5077 933.7 52.1013 938.61 52.5436ZM1172.24 52.2938C1172.74 52.4977 1173.24 52.6994 1173.98 52.6719C1172.18 54.8812 1170.21 56.9324 1168.38 59.1257C1167.84 59.0454 1167.35 58.9194 1166.89 58.7429C1168.52 56.4419 1170.45 54.4389 1172.24 52.2938ZM955.534 54.1525C954.604 55.6513 952.213 55.7177 950.694 56.6505C950.111 56.5542 950.093 55.908 949.7 55.6513C951.326 54.8491 953.097 54.1525 955.534 54.1525ZM1212.95 54.2808C1213.04 54.267 1213.06 54.3266 1213.07 54.4068C1213.09 54.5146 1213.01 54.5145 1212.95 54.5283C1211.81 56.3778 1210.66 58.2204 1209.45 60.4962C1209.19 60.9683 1208.66 62.2929 1208.09 62.2311C1206.57 62.0569 1208.42 58.7933 1208.71 58.2548C1209.5 56.788 1210.19 55.8094 1210.83 54.5283C1211.6 54.5145 1212.34 54.4664 1212.95 54.2808H1212.95ZM1038.93 54.785C1036.8 56.0294 1035.36 58.005 1032.72 58.7429C1032.14 57.5328 1033.64 56.9461 1034.45 56.3938C1035.42 55.7338 1036.44 55.1173 1037.19 54.5306C1037.76 54.6268 1038.15 54.895 1038.93 54.7873L1038.93 54.785ZM1025.86 55.6513C1024.92 56.3938 1023.9 58.2754 1022.51 57.7506C1023.03 56.5199 1024.46 55.6031 1025.86 55.6513ZM948.577 57.5145C946.013 59.1394 943.186 60.4962 940.985 62.4877C940.464 62.2013 940.113 61.7612 939.605 61.4908C941.58 59.2632 944.575 58.0829 947.196 56.5199C947.816 56.6964 948.007 57.2922 948.574 57.5145H948.577ZM1085.98 57.3908C1086.17 57.8308 1085.53 58.1287 1085.23 58.3854C1083.34 60.0263 1081.24 61.7956 1079.13 63.4641C1078.37 64.0828 1077.54 65.3731 1076.39 64.7108C1076.3 64.0485 1076.7 63.5145 1077.03 63.1019C1078.92 60.7001 1081.76 59.2494 1083.75 57.0126C1083.78 56.8866 1083.99 56.9324 1083.99 56.772C1084.1 56.7445 1084.11 56.8178 1084.11 56.8866C1084.81 56.9943 1085.35 57.251 1085.98 57.3908H1085.98ZM1051.37 57.5145C1050.49 58.3166 1049.54 59.2196 1048.64 60.1203C1047.83 60.9247 1047.01 62.2333 1045.78 62.2333C1045.76 59.6023 1048.45 58.6008 1049.76 56.8866C1050.25 57.1547 1050.76 57.3908 1051.37 57.5145ZM1066.57 58.5069C1065.71 59.3159 1064.71 60.2257 1063.71 61.1127C1062.83 61.8873 1061.8 63.2922 1060.47 62.8475C1060.69 60.6245 1063.24 59.6619 1064.46 58.0073C1065.01 58.3189 1065.89 58.3189 1066.57 58.5091V58.5069ZM966.242 58.8713C965.234 59.7215 963.665 59.8361 962.257 60.2464C960.865 60.652 959.443 61.0324 958.286 61.6054C957.796 61.4289 957.13 60.7689 957.162 60.4984C959.806 59.7238 962.967 58.1952 966.242 58.8713ZM1227.13 59.5038C1226.5 60.8743 1225.45 61.995 1224.63 63.3517C1223.86 64.6466 1223.49 66.3173 1222.28 67.3143C1222.25 63.8399 1224.46 61.5572 1225.76 58.9973C1226.36 59.0294 1226.69 59.3136 1227.13 59.5038ZM1107.52 60.3701C1106.46 61.9354 1105.13 63.2463 1103.91 64.7108C1102.76 66.0859 1101.89 67.9629 1100.17 68.8131C1099.5 67.2547 1101.15 65.4052 1102.03 64.2226C1103.09 62.8132 1104.45 61.555 1105.27 60.2441C1106.09 60.2097 1106.63 60.4618 1107.52 60.3678V60.3701ZM975.459 60.7345C975.51 61.775 974.166 62.1233 973.346 62.5977C971.621 63.5901 969.896 64.7108 968.109 65.8315C967.379 66.3036 966.338 67.3165 965.622 66.4457C968.599 64.3303 971.81 61.775 975.459 60.7345ZM955.789 62.5977C953.4 63.6222 951.23 64.8391 949.192 66.2096C948.563 66.0538 948.211 65.6092 947.704 65.3456C949.665 63.8147 951.863 62.5359 954.3 61.4908C954.746 61.901 955.472 62.0592 955.789 62.5977ZM989.144 63.2257C988.591 64.5687 986.105 65.0752 984.794 66.0859C984.192 65.9713 983.894 65.561 983.292 65.4533C984.985 64.5343 986.866 63.1363 989.144 63.2257ZM938.868 64.0943C937.423 65.1623 936.332 66.5878 935.011 67.7795L934.125 66.6153C934.304 66.4319 934.485 66.2509 934.628 66.0859C935.498 65.0752 936.162 64.0484 937.129 63.354C937.65 63.6565 938.28 63.8422 938.868 64.0966V64.0943ZM998.853 65.8315C997.114 67.1126 994.836 67.8506 993.253 69.3013C992.7 69.1317 992.21 68.8612 991.641 68.687C993.637 67.4105 995.566 65.4052 998.853 65.8315ZM1231.35 76.6396C1230.31 74.7626 1232.44 72.6152 1233.85 70.9284C1235.36 69.1317 1236.83 66.9843 1238.58 66.3173C1238.95 66.1936 1239.5 66.6061 1239.58 66.8238C1239.87 67.7268 1237.73 69.0515 1237.46 69.3013C1235.11 71.6229 1233.19 74.0201 1231.35 76.6396ZM983.051 67.0805C981.411 68.2952 979.511 69.2554 977.947 70.5503C977.345 70.4059 977.203 69.7917 976.695 69.5557C978.576 68.4648 980.395 65.8773 983.051 67.0782V67.0805ZM947.198 67.5664C946.25 68.3685 945.129 69.0033 944.086 69.8055C943.151 70.5297 942.347 71.7512 941.114 71.7971C940.701 70.6901 941.858 69.7436 942.598 69.0629C943.45 68.2768 944.511 67.6443 945.209 66.9499C946.128 66.9017 946.489 67.422 947.201 67.5641L947.198 67.5664ZM964.754 67.8207C962.431 69.7757 960.295 71.891 958.035 73.9101C959.363 71.1622 961.703 69.4617 963.888 67.5664C964.329 67.5045 964.485 67.7085 964.754 67.8207ZM992.256 70.0621C991.119 70.9766 989.95 71.9208 988.779 72.9177C987.736 73.8024 986.675 75.2668 985.044 75.1408C984.413 73.8803 985.883 73.0002 986.783 72.2852C987.844 71.4487 989.002 70.6122 989.902 69.8078C990.789 69.778 991.595 69.8559 992.256 70.0644V70.0621ZM976.203 71.5427C975.478 72.5556 974.322 73.2982 973.346 74.1484C972.46 74.9254 971.621 76.2958 970.227 76.1331C970.781 73.4998 973.199 72.7252 974.591 70.9284C975.301 70.9628 975.558 71.4464 976.203 71.5427ZM1030.21 72.535C1029.74 73.8436 1028.49 74.687 1027.6 75.6473C1026.75 76.5594 1026.05 78.1247 1024.49 78.253C1023.41 77.1323 1025.01 75.8833 1025.99 74.9047C1027.22 73.674 1028.25 72.0812 1030.21 72.535H1030.21ZM1043.79 75.1408C1042.49 76.8344 1040.19 77.5105 1038.69 78.9933C1038.42 78.7068 1038.04 78.5487 1037.7 78.3745C1039.26 76.8482 1040.86 75.3287 1043.79 75.1385V75.1408ZM1056.49 78.2507C1055.32 80.0338 1052.91 80.5678 1051.5 82.0987C1050.87 81.8145 1050.46 81.3287 1050.27 80.6136C1052.17 79.7954 1053.97 77.6159 1056.49 78.2507H1056.49ZM1037.57 80.114C1036.76 81.0399 1035.97 81.991 1035.19 82.9696C1034.5 83.868 1033.9 85.1926 1032.59 85.447C1031.99 82.7335 1034.88 81.3905 1036.06 79.6213C1036.6 79.7496 1037 80.0154 1037.57 80.114H1037.57ZM1050.02 83.2217C1048.39 84.2003 1047.15 85.5914 1045.78 86.8198C1045.11 86.6915 1044.67 86.3615 1044.04 86.2056C1045.32 84.4982 1046.97 83.146 1048.51 81.7228C1049.18 82.0689 1049.66 82.5731 1050.02 83.2217H1050.02ZM1043.91 88.8045C1042.77 90.2415 1041.62 91.6326 1040.43 93.0375C1039.29 94.3805 1038.22 95.8931 1036.83 97C1036 95.4347 1037.52 93.7479 1038.44 92.531C1039.54 91.0459 1040.71 89.6891 1041.79 88.4264C1042.52 88.5524 1043.19 88.7105 1043.91 88.8045ZM1348 32.8043C1342.91 32.0136 1338.17 30.4208 1333.3 29.4422C1328.24 28.4292 1323.18 27.7807 1318.24 26.5843C1313.61 25.466 1309.25 23.7104 1304.92 21.9939C1298.25 19.3422 1291.74 17.3507 1284.51 15.4118C1282.25 14.7976 1280.27 13.8167 1278.04 12.9137C1275.79 12.0337 1273.3 11.7793 1270.81 11.1788C1263.78 9.50353 1256.63 7.55092 1248.78 6.33626C1243.5 5.52726 1237.76 5.46767 1231.99 5.46767C1226.22 5.46767 1220.76 5.91228 1215.68 7.20257C1210.76 8.46306 1205.97 9.25373 1201.24 10.6907C1196.54 12.1093 1192.07 13.324 1187.68 15.0314C1183.33 16.7204 1178.89 17.9947 1174.48 19.7456C1170.21 21.4392 1165.72 23.2039 1161.04 24.3407C1151.33 26.7241 1142.2 28.7753 1131.04 30.1825C1127.56 30.6225 1123.28 31.3651 1119.23 31.8051C1116.89 32.0457 1114.62 31.7088 1114.12 33.4162C1114.01 33.0976 1114.35 32.3414 1113.86 32.4216C1104.3 34.0167 1094.98 34.8188 1086.11 36.5216C1077.25 38.2084 1068.98 40.7683 1060.72 42.8516C1052.52 44.9188 1044.74 48.4963 1036.07 50.0616C1031.67 50.8522 1027.31 51.7346 1022.88 52.7911C1018.69 53.788 1014.37 55.3488 1009.82 55.0187C1010.05 53.756 1011.67 53.662 1012.55 53.4099C1020.19 51.2625 1028.26 48.8813 1036.32 46.8278C1040.83 45.6751 1045.24 44.316 1049.64 42.7232C1053.92 41.1763 1058.27 39.7874 1062.59 38.3825C1066.94 36.9662 1071.31 35.3528 1075.78 34.1565C1080.4 32.9212 1085.24 32.3276 1090.1 31.1748C1099.66 28.9335 1109.69 27.4025 1120.21 26.5821C1130.77 25.7616 1141.59 24.9228 1151.08 22.7295C1155.86 21.6295 1160.7 20.7907 1165.27 19.5096C1169.76 18.233 1173.94 16.3102 1178.34 15.2835C1183.04 14.1811 1187.51 12.806 1191.41 10.9267C1200.94 6.35002 1210.63 0.906979 1223.89 0.132349C1226.66 -0.0372443 1230.03 0.0383858 1232.86 0.00400872C1244.34 -0.138083 1254.05 3.52652 1263.61 6.33398C1268.54 7.78469 1273.25 8.60287 1277.8 10.6884C1282.2 12.7075 1287.74 12.9114 1292.59 14.4149C1301.74 17.2223 1309.35 22.7112 1319.12 24.9686C1327.91 27.006 1337.23 28.1428 1345.25 31.1725C1346.19 31.5369 1347.41 31.899 1348 32.7997L1348 32.8043Z" fill="#995F16"/>
<path fill-rule="evenodd" clip-rule="evenodd" d="M885.022 40.4573C884.165 41.2779 882.758 41.3603 881.305 41.8943C879.215 42.6615 877.664 44.0942 876.015 42.7626C878.213 41.5389 881.94 39.5277 885.022 40.4573ZM855.655 46.3834C852.663 48.4157 849.547 50.3537 846.449 52.3335C845.587 52.2903 845.055 51.8297 844.245 51.6972C846.518 49.8802 849.861 47.6084 852.613 46.0963C853.246 45.7547 854.781 46.6559 855.655 46.3834ZM875.462 44.4516C873.299 45.9415 870.571 47.007 868.428 48.5294C867.717 48.4362 867.252 48.0118 866.602 47.8654C868.488 46.2966 870.951 45.1625 873.274 43.9567C874.05 44.0723 874.468 44.6293 875.462 44.4516ZM901.761 42.2723C900.398 44.0855 897.102 44.3571 895.279 45.7752C894.608 45.7445 894.473 44.9974 893.799 44.9462C895.93 43.712 898.654 42.3811 901.761 42.2723ZM893.612 46.4795C892.012 47.3656 889.642 48.8657 887.756 50.0391C886.244 50.9821 885.364 51.4818 884.039 50.3458C886.166 48.6636 888.907 47.4741 891.297 45.9995C892.135 46.0778 892.748 46.4366 893.612 46.4795ZM865.616 50.2241C862.435 52.3777 859.524 54.7518 856.931 57.3757C856.175 57.4288 855.905 56.8754 855.247 56.8223C857.525 54.108 860.575 52.0042 863.429 49.7315C864.221 49.829 864.924 50.0155 865.616 50.2241ZM844.57 53.7975C841.2 56.7172 837.218 59.1371 833.974 62.1693C833.489 61.9714 833.062 61.7367 832.552 61.5855C835.212 58.6211 838.689 56.3246 841.826 53.7485C842.815 53.6476 843.659 53.7738 844.57 53.7975ZM902.026 50.0075C899.153 52.294 896.257 54.5578 893.439 56.8935C892.845 56.833 892.581 56.3668 891.99 56.3128C894.413 53.8959 897.341 51.8734 899.98 49.6255C900.811 49.5591 901.428 49.7719 902.028 50.0073L902.026 50.0075ZM883.184 52.7056C879.369 55.6146 875.662 58.6381 872.234 61.8675C871.878 61.6846 871.639 61.3795 871.28 61.2155C874.186 57.9798 877.556 55.1224 881.006 52.3182C881.748 52.4238 882.453 52.5801 883.181 52.7059L883.184 52.7056ZM854.596 58.7747C851.138 61.1984 847.526 63.4969 844.432 66.2066C843.717 66.0354 843.162 65.656 842.464 65.4343C844.995 63.2174 848.859 60.1896 852.044 58.4307C852.582 58.1486 853.89 58.8428 854.596 58.7747ZM832.105 63.6275C829.273 66.0781 826.488 68.5462 823.8 71.121C823.158 71.2233 822.832 70.926 822.292 70.9124C824.33 68.5795 827.398 65.8334 829.869 63.649C830.271 63.288 831.537 63.7628 832.108 63.6294L832.105 63.6275ZM890.799 58.9496C888.5 61.3614 885.56 63.9978 882.632 66.2907C881.917 66.8568 880.476 68.5772 879.607 67.1388C883.091 64.6635 885.719 61.5108 888.903 58.8022C889.694 58.648 890.1 58.9822 890.797 58.9499L890.799 58.9496ZM869.13 63.2147C865.421 65.143 861.732 67.0851 858.589 69.4515C858.007 69.2325 857.354 69.1166 857.092 68.4951C860.254 66.2559 864.079 64.5337 867.819 62.7498C868.349 62.7992 868.729 63.0255 869.132 63.2167L869.13 63.2147ZM842.361 67.8338C839.979 70.447 837.17 72.717 834.806 75.3488C834.213 75.3368 833.793 75.1152 833.272 75.0323C835.108 72.353 837.47 70.0911 839.867 67.8713C840.612 67.9582 841.548 67.815 842.361 67.8361L842.361 67.8338ZM904.352 62.0058C900.753 64.1802 897.244 66.4366 894.09 68.973C893.479 68.5054 892.66 68.3139 892.191 67.6818C894.886 65.557 898.571 62.8826 901.966 61.2959C902.502 61.0327 903.43 61.3501 904.281 61.494L904.35 62.0038L904.352 62.0058ZM821.608 73.1228C820.214 74.6691 818.641 76.1899 817.167 77.7779C815.739 79.3119 814.42 81.0853 812.685 82.0493C812.846 80.2672 814.55 78.9392 815.778 77.5555C817.114 76.0482 818.564 74.5902 819.867 73.1954C820.539 73.0689 820.915 73.2981 821.608 73.1205L821.608 73.1228ZM855.269 72.0974C852.405 74.5794 849.612 77.1317 847.16 79.9311C846.59 79.8378 846.095 79.6734 845.591 79.4775C847.764 76.5165 850.601 74.0884 853.316 71.5753C853.98 71.7224 854.526 72.0265 855.269 72.0974ZM877.274 69.7949C874.477 72.0311 871.701 74.2785 869.326 76.8448C868.847 76.6623 868.418 76.4116 868.115 75.9846C869.719 74.6196 871.778 72.4737 873.906 70.9348C874.962 70.1789 876.06 68.9535 877.272 69.7974L877.274 69.7949ZM892.495 70.2746C889.86 73.733 886.376 76.5065 883.862 80.0458C883.143 79.7618 882.496 79.4092 881.866 79.0386C884.188 75.7459 887.108 72.9384 889.818 69.9682C890.71 70.0888 891.648 70.1233 892.495 70.2769L892.495 70.2746ZM832.85 77.3256C833.11 77.7576 832.448 78.1026 832.212 78.4004C829.972 81.1589 827.57 84.4472 825.949 87.7671C825.007 87.0328 825.831 85.6359 826.185 84.8598C827.449 82.0389 829.598 79.4527 831.351 77.1321C831.825 77.2342 832.408 77.2012 832.852 77.3253L832.85 77.3256ZM867.062 78.8573C863.033 82.6671 860.075 87.3256 856.378 91.3836C856.685 88.817 858.758 86.8453 860.241 84.7917C861.873 82.5475 863.543 80.4746 865.405 78.5573C866.164 78.4068 866.482 78.7998 867.059 78.8553L867.062 78.8573ZM905.052 74.958C903.15 77.5062 901.03 79.9457 899.18 82.659C898.26 84.0093 897.557 85.6787 896.144 86.6402C896.351 84.3279 897.931 82.4088 899.191 80.5267C900.544 78.509 901.903 76.5022 903.391 74.6424C903.503 74.6154 903.512 74.6952 903.533 74.7552C904.104 74.7537 904.507 74.9472 905.054 74.96L905.052 74.958ZM844.571 82.4735C843.502 83.9521 842.166 85.205 841.082 86.6506C840.019 88.0475 839.284 89.8154 837.711 90.8C837.271 89.1962 838.686 87.6915 839.561 86.4481C840.518 85.0774 841.548 83.6842 842.584 82.5955C842.595 82.4464 842.822 82.4732 842.803 82.3136C843.468 82.285 843.855 82.5914 844.571 82.4758L844.571 82.4735ZM881.635 82.5624C879.742 85.4239 877.631 88.0589 875.747 91.0142C875.164 91.907 874.681 93.0794 873.663 93.6274C873.065 91.6421 874.755 89.315 875.733 87.7499C876.959 85.8302 878.353 84.0089 879.483 82.1928C880.318 82.1583 880.785 82.601 881.638 82.5621L881.635 82.5624ZM867.224 39.276C866.472 40.593 864.593 41.2872 862.817 42.2908C862.146 42.6668 861.304 43.2084 860.481 43.6898C858.796 44.662 857.694 45.3007 855.821 44.4851C859.182 42.4723 862.465 39.7984 867.224 39.276Z" fill="#995F16"/>
</svg>
