<svg width="382" height="437" viewBox="0 0 382 437" fill="none" xmlns="http://www.w3.org/2000/svg">
<g style="mix-blend-mode:multiply" opacity="0.15">
<path d="M158.293 436.598C245.291 436.598 315.816 428.399 315.816 418.285C315.816 408.17 245.291 399.971 158.293 399.971C71.2959 399.971 0.770508 408.17 0.770508 418.285C0.770508 428.399 71.2959 436.598 158.293 436.598Z" fill="black"/>
</g>
<path d="M201.468 114.829L221.535 113.913C221.535 113.913 259.989 129.944 254.962 164.918C249.936 199.899 221.535 272.553 221.535 272.553C221.535 272.553 243.422 333.576 147.265 356.4C147.265 356.4 120.098 359.386 117.724 342.562C116.196 331.731 122.806 319.69 122.806 319.69C122.806 319.69 85.4285 356.701 64.721 344.25C44.0136 331.799 60.2808 301.568 60.2808 301.568L94.8956 254.437C94.8956 254.437 82.1751 177.369 101.703 142.094C121.23 106.82 201.468 114.822 201.468 114.822V114.829Z" fill="black"/>
<path d="M119.143 328.82C119.143 328.82 110.952 348.965 128.426 365.154C145.662 381.117 166.397 398.331 166.397 398.331C166.397 398.331 182.909 412.859 196.421 406.032C205.329 401.529 198.883 386.721 198.883 386.721L189.785 364.976C183.544 350.052 172.644 337.471 158.566 329.538C143.561 321.085 127.144 309.249 119.136 328.82H119.143Z" fill="black"/>
<path d="M101.662 332.039C101.662 332.039 70.8053 287.163 60.2811 301.575C43.8229 324.112 61.1337 378.664 65.1237 391.757C69.1206 404.85 98.9882 399.144 99.1656 386.693C99.4179 369.48 101.655 332.046 101.655 332.046L101.662 332.039Z" fill="black"/>
<path d="M66.5425 391.183C66.5425 391.183 70.6485 392.693 78.6696 393.834C86.6906 394.975 98.9473 388.279 98.9473 388.279C98.9473 388.279 105.331 397.928 103.674 404.351L104.683 404.747L104.001 410.132C104.001 410.132 51.4074 426.082 33.9943 410.214C33.9943 410.214 32.0504 407.925 34.3626 404.419C34.3626 404.419 37.5274 392.966 55.9363 393.554C55.9363 393.554 63.7596 391.894 64.4349 389.837L64.6463 391.142L66.5425 391.176V391.183Z" fill="#936233" stroke="#6C3506" stroke-width="1.01" stroke-linecap="round" stroke-linejoin="round"/>
<path d="M34.3628 404.419C34.3628 404.419 34.3969 409.182 44.2937 411.465C71.0306 417.642 103.674 404.344 103.674 404.344" stroke="#6C3506" stroke-width="1.01" stroke-miterlimit="10"/>
<path d="M64.6463 391.142C64.6463 391.142 61.386 394.169 55.8545 394.914" stroke="#6C3506" stroke-width="1.01" stroke-miterlimit="10"/>
<path d="M62.6953 391.347C62.6953 391.347 65.2531 391.586 66.8082 394.347" stroke="#6C3506" stroke-width="1.01" stroke-miterlimit="10"/>
<path d="M59.6875 392.796C59.6875 392.796 62.2452 393.035 63.8003 395.796" stroke="#6C3506" stroke-width="1.01" stroke-miterlimit="10"/>
<path d="M55.9365 393.554C55.9365 393.554 58.4943 393.793 60.0494 396.554" stroke="#6C3506" stroke-width="1.01" stroke-miterlimit="10"/>
<path d="M86.4314 88.3963C86.4314 88.3963 84.7535 85.5194 87.9933 81.9182C91.2332 78.3169 94.6435 74.3603 98.2584 73.4036C101.873 72.4469 109.69 70.4105 112.029 74.5858L123.488 94.9565C123.488 94.9565 124.989 100.97 118.372 105.015C111.756 109.061 101.505 114.48 97.6991 110.229C93.9 105.979 86.4246 88.3963 86.4246 88.3963H86.4314Z" fill="#949494"/>
<path d="M95.653 81.2279C97.2831 79.5947 99.3429 78.5423 101.621 78.1733L106.368 77.408L105.216 75.3921L101.28 76.0276C98.5517 76.465 96.0758 77.736 94.1251 79.6904L91.1309 82.6834L92.2495 84.6378L95.6598 81.2279H95.653Z" fill="#666666"/>
<path d="M86.1518 87.6718C86.2746 88.1365 86.4247 88.3962 86.4247 88.3962C86.4247 88.3962 86.6566 88.936 87.0522 89.8449L90.8513 86.0386L89.7327 84.0842L86.145 87.6787L86.1518 87.6718Z" fill="#666666"/>
<path d="M107.221 75.071L108.373 77.0869L113.011 76.3352L112.029 74.5858C111.975 74.4902 111.92 74.4082 111.859 74.3193L107.214 75.071H107.221Z" fill="#666666"/>
<path d="M96.6214 84.269L93.709 87.1869L94.8276 89.1413L98.1561 85.8065C99.7862 84.1733 101.846 83.1141 104.124 82.7519L108.98 81.9661L107.828 79.9502L103.783 80.6062C101.055 81.0436 98.5857 82.3146 96.6282 84.269H96.6214Z" fill="#666666"/>
<path d="M115.576 80.9002L114.444 78.8774L109.826 79.6291L110.979 81.645L115.576 80.9002Z" fill="#666666"/>
<path d="M88.2866 92.6197C88.5799 93.2757 88.9073 93.9864 89.2483 94.7312L93.4362 90.5354L92.3176 88.5811L88.2866 92.6197Z" fill="#666666"/>
<path d="M99.1177 88.8473L96.2803 91.6901L97.3988 93.6445L100.652 90.3849C102.282 88.7517 104.342 87.6993 106.62 87.3303L111.586 86.5308L110.433 84.5149L106.273 85.1846C103.544 85.6288 101.068 86.893 99.1177 88.8473Z" fill="#666666"/>
<path d="M118.147 85.4651L117.008 83.4492L112.432 84.1872L113.584 86.2031L118.147 85.4651Z" fill="#666666"/>
<path d="M90.5171 97.4574C90.8445 98.1408 91.1719 98.8378 91.5129 99.5348L96.0009 95.0384L94.8823 93.084L90.5103 97.4574H90.5171Z" fill="#666666"/>
<path d="M92.8428 102.207C93.1974 102.897 93.5453 103.574 93.9 104.223L98.5789 99.5418L97.4603 97.5874L92.8496 102.207H92.8428Z" fill="#666666"/>
<path d="M101.614 93.4257L98.8521 96.1933L99.9706 98.1477L103.149 94.9632C104.779 93.33 106.839 92.2777 109.117 91.9087L114.192 91.0886L113.039 89.0728L108.769 89.7629C106.041 90.2071 103.572 91.4713 101.614 93.4257Z" fill="#666666"/>
<path d="M120.712 90.0296L119.58 88.0137L115.037 88.7449L116.19 90.7607L120.712 90.0296Z" fill="#666666"/>
<path d="M95.3394 106.785C95.7486 107.476 96.1442 108.111 96.5261 108.671L101.157 104.038L100.039 102.084L95.3462 106.785H95.3394Z" fill="#666666"/>
<path d="M123.283 94.5945L122.144 92.5786L117.649 93.303L118.802 95.3188L123.283 94.5945Z" fill="#666666"/>
<path d="M111.266 94.3347C108.537 94.7789 106.061 96.0431 104.111 97.9975L101.423 100.69L102.542 102.644L105.645 99.535C107.275 97.9018 109.335 96.8494 111.613 96.4804L116.797 95.6399L115.644 93.624L111.266 94.3279V94.3347Z" fill="#666666"/>
<path d="M85.7219 151.039C85.7219 151.039 104.39 129.965 153.826 136.026C203.262 142.087 252.166 186.867 252.166 186.867C252.166 186.867 229.481 268.815 222.906 278.566C222.906 278.566 189.328 287.764 167.501 294.878C145.675 301.991 112.022 303.836 91.2467 282.495C70.471 261.154 75.4705 221.903 82.0456 205.044C88.6207 188.186 85.7288 151.039 85.7288 151.039H85.7219Z" fill="white"/>
<path d="M120.944 57.3726V144.807C120.944 144.807 120.944 152.311 125.855 152.311C131.318 152.311 130.602 143.277 130.602 143.277" stroke="black" stroke-width="2" stroke-miterlimit="10"/>
<g style="mix-blend-mode:multiply">
<path d="M222.176 164.139C222.176 164.139 223.076 253.74 157.366 278.655C91.6559 303.57 79.7197 262.508 79.7197 262.508C79.7197 262.508 88.9753 306.215 151.521 298.958C169.957 296.819 222.912 278.56 222.912 278.56C222.912 278.56 227.278 269.635 232.134 254.451C238.136 235.679 254.451 178.831 254.451 178.831L222.183 164.139H222.176Z" fill="#D5D5D5"/>
</g>
<path d="M145.694 165.918C145.972 164.488 145.226 163.14 144.028 162.906C142.829 162.673 141.633 163.643 141.356 165.073C141.078 166.503 141.825 167.851 143.023 168.085C144.221 168.318 145.417 167.348 145.694 165.918Z" fill="black"/>
<path d="M137.837 193.083C138.114 191.653 137.368 190.305 136.17 190.072C134.972 189.838 133.775 190.808 133.498 192.238C133.221 193.668 133.967 195.017 135.165 195.25C136.363 195.483 137.559 194.513 137.837 193.083Z" fill="black"/>
<path d="M130.42 216.063C130.697 214.633 129.951 213.284 128.753 213.051C127.555 212.817 126.358 213.788 126.081 215.218C125.804 216.648 126.55 217.996 127.748 218.229C128.946 218.463 130.142 217.493 130.42 216.063Z" fill="black"/>
<path d="M123.85 246.23C125.07 246.23 126.059 245.049 126.059 243.592C126.059 242.136 125.07 240.955 123.85 240.955C122.629 240.955 121.64 242.136 121.64 243.592C121.64 245.049 122.629 246.23 123.85 246.23Z" fill="black"/>
<path d="M125.016 274.74C125.016 276.195 124.027 277.377 122.806 277.377C121.585 277.377 120.596 276.195 120.596 274.74C120.596 273.284 121.585 272.102 122.806 272.102C124.027 272.102 125.016 273.284 125.016 274.74Z" fill="black"/>
<path d="M243.197 245.69C243.197 245.69 227.51 253.357 228.526 260.307C229.535 267.264 243.197 266.252 243.197 266.252C243.197 266.252 250.427 251.936 243.197 245.69Z" fill="black"/>
<path d="M114.853 103.314L322.705 371.202" stroke="#949494" stroke-width="14.87" stroke-miterlimit="10"/>
<path d="M219.236 109.724C219.236 109.724 257.745 121.034 272.335 142.197C290.86 169.08 290.723 199.551 290.723 199.551C292.688 246.23 273.058 248.164 269.811 283.63C269.811 283.63 263.659 282.974 248.394 278.457C236.308 274.876 244.295 236.055 248.142 220.038C249.192 215.671 248.701 211.072 246.716 207.047C238.9 191.2 203.746 126.924 219.236 109.724Z" fill="black"/>
<path d="M291.003 202.749L293.601 211.413L291.003 210.347L294.208 221.185L290.778 217.488L294.208 228.668L289.768 225.326L291.992 232.406L288.67 230.397V237.258L278.514 213.552L291.003 202.749Z" fill="black"/>
<path d="M243.197 245.691C241.656 255.148 233.355 257.964 228.478 265.761C224.979 271.351 226.821 274.781 231.793 276.92C231.793 276.92 230.108 284.949 239.139 286.658C239.139 286.658 237.679 292.808 245.775 293.546C245.775 293.546 250.277 302.566 259.048 297.345C267.82 292.124 274.927 285.475 264.975 269.567C255.024 253.659 243.204 245.698 243.204 245.698L243.197 245.691Z" fill="black"/>
<path d="M243.197 245.69C242.617 253.604 235.312 257.97 230.476 263.321C229.767 264.1 229.126 264.927 228.478 265.76C228.99 264.831 229.563 263.943 230.183 263.075C234.583 257.287 241.669 253.282 243.197 245.684V245.69Z" fill="#AFAFAF"/>
<path d="M240.701 272.56C239.616 275.58 236.124 277.036 233.109 277.029C232.666 277.008 232.23 276.981 231.8 276.92C232.23 276.803 232.652 276.728 233.075 276.646C235.94 276.031 238.818 274.924 240.708 272.56H240.701Z" fill="#AFAFAF"/>
<path d="M251.191 282.297C248.469 285.823 243.518 287.819 239.139 286.657C243.558 286.664 247.712 284.983 251.191 282.297Z" fill="#AFAFAF"/>
<path d="M257.609 290.136C255.113 293.846 249.861 295.336 245.775 293.539C250.038 294.174 254.349 292.978 257.609 290.136Z" fill="#AFAFAF"/>
<path d="M146.814 33.1954C146.814 33.1954 138.787 40.8421 134.912 52.7802L131.884 50.9147C126.68 47.7098 124.907 40.9651 127.86 35.6076C131.025 29.8606 138.35 27.9404 143.922 31.3982L146.821 33.1954H146.814Z" fill="black"/>
<path d="M127.669 67.288L133.733 45.1679C133.733 45.1679 138.398 28.9383 159.59 23.1777L181.886 18.1277C193.939 15.3943 206.489 20.2734 213.405 30.5374C218.943 38.7513 223.145 61.5889 225.402 74.798C225.402 74.798 228.233 88.0141 221.828 97.5878C216.774 105.139 220.778 109.813 224.938 111.528C224.938 111.528 207.566 127.437 157.653 124.977C157.653 124.977 150.559 120.241 149.591 116.79C149.591 116.79 147.019 116.264 145.948 116.031C137.73 114.275 132.805 110.517 134.428 102.262C134.483 101.989 134.538 101.722 134.606 101.456C134.606 101.456 138.166 94.2736 136.57 93.0982C131.489 89.3603 123.352 86.9685 123.352 86.9685C121.831 86.7909 119.416 84.5631 119.634 80.6885C119.491 77.9141 121.503 70.4519 127.683 67.2948L127.669 67.288Z" fill="white"/>
<path d="M224.018 75.8435L228.922 83.7772H225.375L229.515 90.4604L225.511 89.6609L228.922 96.2621L225.191 94.3692L226.487 99.9931L223.431 97.3622L223.124 101.838L220.525 96.7746L224.018 75.8435Z" fill="white"/>
<path d="M167.209 73.233C202.894 74.6476 189.28 33.4278 167.072 38.4231C153.411 41.4982 141.556 43.7806 133.719 45.2088L127.669 67.2879C154.468 51.8783 167.209 73.233 167.209 73.233Z" fill="black"/>
<path d="M195.923 23.232C195.923 23.232 207.703 30.1133 215.717 43.3157L218.82 40.2201C224.147 34.8968 224.365 26.3276 219.318 20.7377C213.903 14.7516 204.586 14.5261 198.89 20.2526L195.93 23.232H195.923Z" fill="black"/>
<path d="M158.096 24.8312C158.096 24.8312 162.563 21.1684 158.764 15.6128C158.764 15.6128 162.788 15.2643 165.216 20.9156C165.216 20.9156 166.13 15.4146 163.293 12.1345C163.293 12.1345 175.243 16.0365 172.474 22.9315" fill="white"/>
<path d="M123.338 86.9616C125.173 87.891 127.212 87.0436 129.92 84.8228C129.92 84.8228 137.791 92.5788 166.922 86.9138C166.922 86.9138 165.878 99.1321 153.328 106.553C143.05 112.635 134.367 111.59 134.558 99.9043C134.558 99.9043 136.938 95.0662 123.338 86.9616Z" fill="black"/>
<path d="M149.584 116.783C154.802 116.4 159.672 114.145 164.207 111.678C166.424 110.469 168.709 108.965 170.783 107.537C172.904 106.047 174.95 104.448 176.962 102.802C178.04 101.9 179.247 101.025 180.516 100.437C189.253 96.6787 198.979 98.1274 207.935 95.312C205.677 96.7334 203.112 97.6491 200.548 98.3666C195.507 99.7948 190.18 100.341 185.201 101.722C183.414 102.234 181.709 102.843 180.188 103.847C178.592 104.968 177.112 106.273 175.502 107.38C172.249 109.676 168.757 111.829 165.115 113.475C160.279 115.608 154.925 117.418 149.584 116.769V116.783Z" fill="#D5D5D5"/>
<path d="M129.344 73.0899C132.046 72.3305 133.789 70.1153 133.237 68.1422C132.684 66.169 130.046 65.1851 127.344 65.9445C124.642 66.7039 122.899 68.9191 123.452 70.8923C124.004 72.8654 126.642 73.8493 129.344 73.0899Z" fill="black"/>
<path d="M147.135 99.1528C147.135 99.1528 148.145 96.4604 151.514 95.9889C148.063 95.3192 145.662 95.3875 142.852 97.5332C136.509 102.378 138.084 112.348 145.137 107.681C152.189 103.014 158.294 99.5081 158.294 99.5081C157.967 98.4694 152.114 93.9525 147.135 99.1459V99.1528Z" fill="#FF647D"/>
<path d="M155.047 54.2902C159.017 51.1741 164.678 50.1901 169.391 52.0625C170.06 52.3085 170.687 52.6775 171.321 53.0055C166.029 50.853 159.979 51.5022 155.041 54.2971L155.047 54.2902Z" fill="white"/>
<path d="M129.551 60.4268C131.086 56.1969 135.922 54.96 139.775 56.7777C140.287 57.0511 140.799 57.3039 141.29 57.5909C140.737 57.4269 140.212 57.2356 139.673 57.0579C135.765 55.821 131.802 56.7436 129.551 60.4268Z" fill="white"/>
<path d="M89.1184 126.719C92.8629 123.541 93.9065 118.143 95.5843 113.53C97.269 108.904 99.554 101.743 105.086 97.5673C114.641 90.3511 122.362 92.2644 122.601 97.1846C122.601 97.1846 128.296 98.7016 128.514 105.542C128.514 105.542 134.053 106.109 134.176 113.619C134.176 113.619 139.462 117.002 137.258 122.298C137.258 122.298 132.743 119.981 128.167 125.455C127.628 126.097 127.225 126.746 126.918 127.355C126.229 128.742 126.025 130.307 126.134 131.858C126.236 133.266 125.909 136.532 121.612 140.174C115.883 145.033 109.362 236.588 65.8668 229.358C41.7695 225.354 39.8529 168.458 89.1184 126.719Z" fill="black"/>
<path d="M63.2953 228.176L60.8399 228.914L61.0104 227.848L56.7475 228.99L58.2276 226.796L52.1367 225.306L56.0995 224.848L52.2799 222.252L54.8718 222.662L52.5937 220.29L60.4579 220.01L63.2953 228.176Z" fill="black"/>
<path d="M128.515 105.542C132.525 105.945 134.483 109.929 134.469 113.612L134.333 113.373C136.42 114.836 138.091 117.234 137.92 119.865C137.886 120.726 137.6 121.539 137.259 122.298C137.477 121.491 137.702 120.685 137.641 119.858C137.627 117.343 135.895 115.136 133.896 113.776L133.889 113.619C133.896 110.093 132.239 106.376 128.521 105.542H128.515Z" fill="#AFAFAF"/>
<path d="M137.258 122.291C132.9 120.712 128.364 124.327 126.85 128.277C126.482 129.302 126.352 130.402 126.386 131.502C126.727 135.028 124.245 138.172 121.619 140.167C123.979 137.926 126.209 134.953 125.854 131.523C125.309 125.954 131.781 119.742 137.258 122.284V122.291Z" fill="#AFAFAF"/>
<path d="M123.338 112.881C126.646 111.091 131.229 111.064 134.176 113.612C130.827 111.836 126.926 111.897 123.338 112.881Z" fill="#AFAFAF"/>
<path d="M117.684 104.811C120.992 103.02 125.575 102.993 128.522 105.542C125.173 103.765 121.271 103.827 117.684 104.811Z" fill="#AFAFAF"/>
<path d="M111.845 98.688C114.716 96.2552 119.197 95.2917 122.601 97.1846C118.959 96.1322 115.153 96.9932 111.845 98.688Z" fill="#AFAFAF"/>
<path d="M321.47 378.711C326.816 378.711 331.149 374.37 331.149 369.015C331.149 363.659 326.816 359.318 321.47 359.318C316.125 359.318 311.792 363.659 311.792 369.015C311.792 374.37 316.125 378.711 321.47 378.711Z" fill="#949494"/>
<path d="M320.434 367.689C320.434 367.689 327.077 373.101 341.775 364.956C356.474 356.81 361.242 361.354 361.242 361.354L332.738 383.55L320.427 367.682L320.434 367.689Z" fill="#949494"/>
<path d="M332.742 383.543L367.588 356.404C371.999 352.969 378.363 353.768 381.792 358.187L338.96 391.546L332.748 383.539L332.742 383.543Z" fill="#949494"/>
<path d="M320.434 367.689C320.434 367.689 324.028 375.472 312.522 387.739C301.015 400.005 304.242 405.752 304.242 405.752L332.745 383.556L320.434 367.689Z" fill="#949494"/>
<path d="M338.954 391.56L296.122 424.919C292.693 420.5 293.491 414.123 297.901 410.689L332.747 383.549L338.959 391.556L338.954 391.56Z" fill="#949494"/>
<path d="M140.955 33.5577C140.955 33.5577 179.342 25.3438 220.634 29.1159C220.634 29.1159 231.445 31.2753 226.057 20.9909C222.605 14.3965 210.192 12.613 210.192 12.613C210.192 12.613 160.415 -7.34773 140.355 11.3078C140.355 11.3078 118.093 13.2212 140.955 33.5509V33.5577Z" fill="#9B5F26"/>
<g style="mix-blend-mode:multiply" opacity="0.15">
<path d="M226.056 20.9977C222.605 14.4034 210.192 12.6198 210.192 12.6198C210.192 12.6198 202.587 9.57207 192.117 6.96851C195.63 9.3739 204.496 15.8589 205.288 20.656C205.288 20.656 197.989 26.321 186.974 28.3437C197.417 27.9474 208.909 28.0499 220.627 29.1228C220.627 29.1228 231.438 31.2822 226.05 20.9977H226.056Z" fill="#231F20"/>
</g>
<path d="M177.958 4.55629C177.958 4.55629 176.157 -0.534674 179.533 0.0461752C184.635 0.927699 180.229 5.07564 180.229 5.07564L177.958 4.55629Z" fill="#9B5F26"/>
<path d="M130.868 17.1025C133.5 20.9566 148.929 19.9589 153.792 20.205C177.5 20.7106 201.577 17.492 224.938 22.9452L224.918 23.0409C205.308 20.287 185.44 20.3621 165.68 20.574C159.405 20.6696 133.419 22.8085 130.868 17.1025Z" fill="black"/>
<path d="M80.6131 73.6019C74.4404 71.7979 65.519 69.0098 59.2918 67.0554C53.9376 65.47 48.6107 63.83 43.5429 61.4587C41.8446 60.6934 40.1531 59.887 38.5093 58.9577L38.5843 58.739C45.9711 59.9485 53.0032 62.4701 59.9057 65.2855C66.0238 67.6294 74.6928 70.9573 80.6881 73.3832L80.6131 73.6019Z" fill="#9B5F26"/>
<path d="M69.4546 84.2007C64.8643 83.9547 58.2142 83.4285 53.5625 83.0458C49.5792 82.8135 45.6028 82.5196 41.7355 81.4604C40.4396 81.1324 39.1505 80.7634 37.875 80.2646L37.9023 80.0322C43.2497 79.4104 48.5629 80.1347 53.7944 81.1871C58.412 81.9661 64.9461 83.0731 69.4819 83.9683L69.4546 84.2007Z" fill="#9B5F26"/>
<path d="M78.4443 96.0912C69.8025 96.9249 57.2253 97.9704 48.4334 98.688C40.9307 99.3918 33.428 100.041 25.8844 99.9112C23.3676 99.8975 20.8508 99.836 18.3271 99.6515L18.3135 99.4192C28.2171 97.5468 38.2707 97.0274 48.3243 96.8224C57.1707 96.5012 69.7002 96.0502 78.4306 95.8589L78.4443 96.0912Z" fill="#9B5F26"/>
<path d="M59.1008 112.867C54.8447 114.76 48.597 117.343 44.225 119.147C40.5214 120.767 36.7973 122.339 32.8209 123.172C31.5045 123.48 30.1676 123.739 28.7899 123.883L28.708 123.664C33.2574 120.651 38.3797 118.86 43.5838 117.384C48.1059 115.956 54.5173 113.94 59.019 112.649L59.1008 112.867Z" fill="#9B5F26"/>
<path d="M89.4529 117.521C84.2078 120.63 76.5073 124.997 71.1122 128.045C66.5492 130.723 61.9657 133.354 57.0208 135.288C55.3838 135.958 53.7264 136.593 52.0144 137.113L51.9053 136.908C57.505 132.534 63.8141 129.309 70.246 126.384C75.8389 123.685 83.7645 119.865 89.3438 117.316L89.4529 117.521Z" fill="#9B5F26"/>
<path d="M161.97 331.062C167.16 334.526 171.989 338.551 176.273 343.109C180.495 347.749 183.707 353.168 186.776 358.601L184.144 354.74C181.511 350.899 178.933 347.004 175.768 343.581C171.566 339.009 166.826 334.95 161.977 331.062H161.97Z" fill="#AFAFAF"/>
<path d="M128.255 305.135C125.677 313.165 122.615 321.139 119.136 328.82C121.708 320.791 124.784 312.816 128.255 305.135Z" fill="#AFAFAF"/>
<path d="M167.529 398.249C169.432 397.668 171.423 397.429 173.408 397.586C175.611 397.757 178.66 397.839 180.693 397.272C188.495 395.099 198.883 386.721 198.883 386.721C198.883 386.721 207.511 394.422 207.546 401.057L208.623 401.187L209.333 406.572C209.333 406.572 162.529 435.416 141.658 424.524C141.658 424.524 139.196 422.808 140.546 418.825C140.546 418.825 140.696 406.948 158.641 402.807C158.641 402.807 164.61 399.493 165.319 397.921L167.522 398.256L167.529 398.249Z" fill="#936233" stroke="#6C3506" stroke-width="1.01" stroke-linecap="round" stroke-linejoin="round"/>
<path d="M140.546 418.818C140.546 418.818 141.788 423.417 151.937 423.096C179.363 422.242 207.546 401.051 207.546 401.051" stroke="#6C3506" stroke-width="1.01" stroke-miterlimit="10"/>
<path d="M167.529 398.249C167.529 398.249 164.33 402.745 159.167 404.878" stroke="#6C3506" stroke-width="1.01" stroke-miterlimit="10"/>
<path d="M163.743 399.533C163.743 399.533 166.922 399.745 169.322 401.809" stroke="#6C3506" stroke-width="1.01" stroke-miterlimit="10"/>
<path d="M161.151 401.31C161.151 401.31 164.705 400.333 167.529 403.695" stroke="#6C3506" stroke-width="1.01" stroke-miterlimit="10"/>
<path d="M158.641 402.8C158.641 402.8 161.806 402.178 165.291 405.13" stroke="#6C3506" stroke-width="1.01" stroke-miterlimit="10"/>
<mask id="mask0_1012_133" style="mask-type:luminance" maskUnits="userSpaceOnUse" x="119" y="38" width="26" height="31">
<path d="M144.515 61.6637C144.515 61.6637 135.28 61.8141 123.535 68.0872L119.613 57.6388L126.625 38.6963L144.065 43.8283L144.522 61.6569L144.515 61.6637Z" fill="white"/>
</mask>
<g mask="url(#mask0_1012_133)">
<path d="M131.836 46.2687C136.515 46.2687 140.321 51.2503 140.321 57.3732C140.321 63.496 136.515 68.4776 131.836 68.4776C127.157 68.4776 123.351 63.496 123.351 57.3732C123.351 51.2503 127.157 46.2687 131.836 46.2687ZM131.836 44.6697C126.27 44.6697 121.755 50.3552 121.755 57.3732C121.755 64.3912 126.27 70.0767 131.836 70.0767C137.401 70.0767 141.917 64.3912 141.917 57.3732C141.917 50.3552 137.401 44.6697 131.836 44.6697Z" fill="black"/>
<path d="M132.061 44.6689C135.13 44.4844 138.042 46.2953 139.816 48.7417C143.444 53.7028 143.444 61.0489 139.816 66.01C138.042 68.4496 135.13 70.2673 132.061 70.0759C135.082 69.9119 137.715 68.0601 139.318 65.6478C144.188 58.705 141.616 45.612 132.061 44.6689Z" fill="white"/>
</g>
<g style="mix-blend-mode:multiply">
<path d="M177.48 22.9997C177.48 22.9997 189.402 24.4005 194.982 40.6575C200.561 56.9144 201.918 70.1577 186.981 99.8835C186.981 99.8835 186.415 119.017 191.674 123.773C191.674 123.773 209.619 120.992 221.535 113.92C221.535 113.92 213.07 107.626 218.786 98.1478C227.23 84.1391 222.96 68.7364 216.972 42.072C212.504 22.1933 177.487 22.9997 177.487 22.9997H177.48Z" fill="#D5D5D5"/>
</g>
</svg>
