<svg width="41" height="40" viewBox="0 0 41 40" fill="none" xmlns="http://www.w3.org/2000/svg">
<path d="M37.1667 28.2V33.2C37.1686 33.6642 37.0735 34.1236 36.8875 34.5489C36.7016 34.9742 36.4288 35.356 36.0868 35.6698C35.7448 35.9836 35.341 36.2225 34.9012 36.3712C34.4615 36.5199 33.9956 36.5751 33.5333 36.5334C28.4047 35.9761 23.4783 34.2236 19.15 31.4167C15.123 28.8578 11.7089 25.4436 9.15 21.4167C6.3333 17.0687 4.58041 12.1183 4.03333 6.96669C3.99168 6.5058 4.04646 6.04129 4.19417 5.60273C4.34188 5.16417 4.57929 4.76117 4.89128 4.41939C5.20327 4.07761 5.58301 3.80453 6.00632 3.61756C6.42963 3.43058 6.88723 3.33379 7.35 3.33335H12.35C13.1588 3.32539 13.943 3.61182 14.5563 4.13924C15.1696 4.66666 15.5701 5.3991 15.6833 6.20002C15.8944 7.80013 16.2858 9.37123 16.85 10.8834C17.0742 11.4799 17.1228 12.1282 16.9898 12.7515C16.8569 13.3748 16.5481 13.9469 16.1 14.4L13.9833 16.5167C16.3559 20.6893 19.8108 24.1441 23.9833 26.5167L26.1 24.4C26.5531 23.9519 27.1253 23.6431 27.7485 23.5102C28.3718 23.3772 29.0201 23.4258 29.6167 23.65C31.1288 24.2143 32.6999 24.6056 34.3 24.8167C35.1096 24.9309 35.849 25.3387 36.3776 25.9625C36.9061 26.5863 37.1869 27.3826 37.1667 28.2Z" stroke="#995F16" stroke-width="3" stroke-linecap="round" stroke-linejoin="round"/>
</svg>
