<svg width="342" height="227" viewBox="0 0 342 227" fill="none" xmlns="http://www.w3.org/2000/svg">
<g clip-path="url(#clip0_522_640)">
<path d="M312.796 -113.582C311.741 -99.6428 312.2 -85.6211 313.199 -71.6715C318.028 -29.9605 329.053 10.79 344.331 49.7164C345.691 49.2013 339.372 30.4058 333.24 5.70427C326.941 -18.9574 321.461 -49.6067 319.265 -72.3329C317.403 -85.9589 314.989 -113.39 312.796 -113.582Z" fill="url(#paint0_linear_522_640)"/>
<path d="M309.563 -71.2593C311.817 -47.9611 318.513 -16.8663 326.601 7.61045C334.537 32.1627 343.178 50.1737 344.331 49.7164C324.755 -2.32877 311.571 -57.6379 312.792 -113.581C309.598 -113.792 307.643 -85.2439 309.56 -71.2584L309.563 -71.2593Z" fill="url(#paint1_linear_522_640)"/>
<path d="M118.901 148.369L112.192 158.716L96.4143 191.936C98.8142 193.125 111.413 173.442 117.624 161.41C119.495 157.791 121.301 149.558 118.902 148.372L118.901 148.369Z" fill="url(#paint2_linear_522_640)"/>
<path d="M108.935 157.109C102.723 169.138 94.0119 190.751 96.4118 191.94L118.898 148.373C116.501 147.18 110.799 153.492 108.932 157.11L108.935 157.109Z" fill="url(#paint3_linear_522_640)"/>
<path d="M128.478 134.179L122.33 149.717L108.55 197.738C111.122 198.501 122.652 169 128.155 151.45C129.81 146.169 131.048 134.946 128.478 134.179Z" fill="url(#paint4_linear_522_640)"/>
<path d="M118.838 148.686C113.335 166.235 105.98 196.971 108.554 197.74L128.482 134.181C125.908 133.412 120.496 143.406 118.841 148.685L118.838 148.686Z" fill="url(#paint5_linear_522_640)"/>
<path d="M138.675 115.254C136.589 121.84 134.622 128.464 132.739 135.121C130.715 145.268 128.89 155.459 127.527 165.717C126.499 175.899 124.5 186.476 127.262 196.511C127.986 196.078 127.756 186.976 130.405 174.635C132.705 162.396 136.257 147.416 138.695 136.351C140.115 129.692 141.245 115.893 138.676 115.257L138.675 115.254Z" fill="url(#paint6_linear_522_640)"/>
<path d="M129.163 134.389C126.689 145.609 124.149 161.055 123.55 173.919C122.528 186.722 125.419 197.243 127.258 196.509C124.335 183.002 127.855 169.093 129.831 155.623C132.309 142.075 135.315 128.622 138.672 115.255C136.026 114.602 130.601 127.62 129.16 134.39L129.163 134.389Z" fill="url(#paint7_linear_522_640)"/>
<path d="M148.514 98.822C146.531 106.056 144.843 113.375 143.323 120.732C140.54 143.006 138.953 165.69 142.312 187.887C143.663 187.657 143.215 177.132 144.334 163.632C145.268 150.128 147.51 133.665 149.357 121.562C150.336 114.274 151.048 99.3786 148.515 98.825L148.514 98.822Z" fill="url(#paint8_linear_522_640)"/>
<path d="M139.704 120.245C137.81 132.637 136.605 149.705 137.435 163.636C138.08 177.596 141.007 188.13 142.315 187.886C138.619 158.181 142.682 128.07 148.517 98.8212C145.798 98.2243 140.713 112.748 139.707 120.244L139.704 120.245Z" fill="url(#paint9_linear_522_640)"/>
<path d="M159.951 80.7465C157.945 88.92 156.359 97.1966 155 105.518C152.649 130.623 152.386 156.085 156.799 180.867C158.158 180.618 157.229 168.782 157.612 153.568C157.86 138.349 159.451 119.767 161.063 106.133C161.846 97.923 162.456 81.2555 159.954 80.7456L159.951 80.7465Z" fill="url(#paint10_linear_522_640)"/>
<path d="M151.363 105.154C149.711 119.136 149.183 138.331 150.716 153.873C152.118 169.452 155.511 181.125 156.798 180.867C151.645 147.707 154.035 113.735 159.951 80.7464C157.174 80.1887 152.173 96.7006 151.363 105.154Z" fill="url(#paint11_linear_522_640)"/>
<path d="M172.646 61.5727C170.264 71.2353 168.374 81.0166 166.738 90.8418C163.579 120.506 162.875 150.518 166.72 180.028C168.092 179.841 167.445 165.79 168.127 147.741C168.69 129.69 170.733 107.664 172.795 91.5175C173.832 81.7876 175.119 62.0972 172.649 61.5719L172.646 61.5727Z" fill="url(#paint12_linear_522_640)"/>
<path d="M163.109 90.4468C161.004 106.931 160.018 129.538 161.228 147.896C162.32 166.28 165.426 180.215 166.72 180.028C162.331 140.606 165.23 100.559 172.646 61.5727C169.848 60.9879 164.167 80.4875 163.106 90.4476L163.109 90.4468Z" fill="url(#paint13_linear_522_640)"/>
<path d="M184.238 45.0968C182.628 55.3851 181.434 65.7373 180.458 76.1144C179.27 107.311 180.099 138.689 185.324 169.423C186.683 169.187 185.375 154.509 185.15 135.571C184.796 116.632 185.566 93.4407 186.548 76.383C186.961 66.121 186.776 45.4091 184.238 45.0968Z" fill="url(#paint14_linear_522_640)"/>
<path d="M176.802 75.9606C175.804 93.292 176.126 116.92 178.261 136.042C180.277 155.196 184.028 169.661 185.32 169.421C179.079 128.332 179.897 86.4082 184.235 45.0947C181.424 44.7567 177.218 65.5134 176.798 75.9615L176.802 75.9606Z" fill="url(#paint15_linear_522_640)"/>
<path d="M194.552 29.9458C192.391 40.0954 191.323 50.4519 190.57 60.8061C190.092 91.9518 193.554 122.942 199.312 153.379C201.491 152.924 194.516 94.7571 196.664 60.9356C196.663 50.7661 196.845 30.4152 194.552 29.9489L194.552 29.9458Z" fill="url(#paint16_linear_522_640)"/>
<path d="M186.914 60.7374C184.743 95.7521 196.223 154.095 199.312 153.379C192.411 112.763 188.621 71.0214 194.552 29.9459C191.547 29.3828 186.901 50.2558 186.911 60.7383L186.914 60.7374Z" fill="url(#paint17_linear_522_640)"/>
<path d="M204.619 15.5761C203.324 26.4172 202.432 37.3095 201.774 48.2155C201.631 80.911 203.134 113.928 211.055 145.69C212.389 145.339 209.676 130.17 208.633 110.349C207.357 90.5573 207.421 66.2129 207.871 48.2951C207.964 37.5241 207.175 15.7981 204.622 15.5752L204.619 15.5761Z" fill="url(#paint18_linear_522_640)"/>
<path d="M198.114 48.1776C197.655 66.3675 198.692 91.1367 201.769 111.119C204.611 131.156 209.783 146.062 211.05 145.694C201.333 103.142 201.724 58.9745 204.616 15.5769C201.808 15.3402 198.206 37.2162 198.114 48.1776Z" fill="url(#paint19_linear_522_640)"/>
<path d="M213.205 4.25719C212.201 15.0397 211.608 25.8618 211.242 36.6993C211.951 69.1368 214.415 101.796 222.745 133.18C224.074 132.815 221.195 117.787 219.68 98.1543C217.95 78.5453 217.366 54.402 217.341 36.6236C217.145 25.9334 215.765 4.41534 213.206 4.26025L213.205 4.25719Z" fill="url(#paint20_linear_522_640)"/>
<path d="M207.585 36.7558C207.611 54.8066 209.306 79.3362 212.838 99.0723C216.156 118.865 221.484 133.556 222.744 133.177C212.438 91.1311 211.442 47.3817 213.204 4.25411C210.382 4.0869 207.383 25.8799 207.584 36.7527L207.585 36.7558Z" fill="url(#paint21_linear_522_640)"/>
<path d="M222.605 -7.54897C221.904 4.35181 221.589 16.2759 221.489 28.2058C222.961 63.9106 226.136 99.7177 234.421 134.48C235.758 134.152 232.943 117.516 231.138 95.86C229.146 74.2272 228.048 47.6114 227.582 28.0036C227.137 16.2198 225.173 -7.46858 222.603 -7.54507L222.605 -7.54897Z" fill="url(#paint22_linear_522_640)"/>
<path d="M217.832 28.3413C218.301 48.1747 220.518 75.0859 224.295 96.7781C227.895 118.513 233.144 134.811 234.42 134.477C224.141 87.9565 221.979 40.0167 222.605 -7.54905C219.789 -7.62581 217.378 16.4019 217.832 28.3413Z" fill="url(#paint23_linear_522_640)"/>
<path d="M232.779 -20.7685C232.627 -9.3993 232.807 1.97244 233.164 13.344C235.982 47.3148 240.268 81.2858 248.689 114.307C250.017 113.959 247.186 98.1094 244.893 77.4975C242.448 56.902 240.472 31.5668 239.249 12.891C238.371 1.67169 235.371 -20.8131 232.782 -20.7693L232.779 -20.7685Z" fill="url(#paint24_linear_522_640)"/>
<path d="M229.515 13.6283C230.751 32.5012 233.847 58.0487 238.075 78.6091C242.159 99.2064 247.409 114.649 248.686 114.308C238.174 70.1078 234.253 24.5929 232.776 -20.7677C229.978 -20.7113 228.626 2.27418 229.512 13.6292L229.515 13.6283Z" fill="url(#paint25_linear_522_640)"/>
<path d="M240.265 -31.7565C240.446 -19.2314 240.899 -6.70685 241.512 5.81268C245.296 43.1421 249.372 80.7776 260.224 116.787C261.459 116.376 257.427 99.1631 254.657 76.4693C251.662 53.8154 249.251 25.8675 247.59 5.27613C246.484 -7.09877 242.875 -31.8784 240.268 -31.7573L240.265 -31.7565Z" fill="url(#paint26_linear_522_640)"/>
<path d="M237.863 6.143C239.536 26.8953 243.065 55.0073 247.848 77.6505C252.415 100.361 258.9 117.253 260.221 116.788C246.781 68.4926 243.337 18.1112 240.262 -31.7557C237.483 -31.6293 236.744 -6.33675 237.86 6.14385L237.863 6.143Z" fill="url(#paint27_linear_522_640)"/>
<path d="M249.062 -40.7848C248.843 -28.1576 249.217 -15.5157 249.865 -2.89419C253.553 34.8202 260.034 72.3156 270.83 108.594C272.171 108.196 268.181 90.7346 264.556 67.994C260.794 45.2687 257.619 17.2385 255.939 -3.44292C254.693 -15.8639 251.567 -40.7887 249.06 -40.7809L249.062 -40.7848Z" fill="url(#paint28_linear_522_640)"/>
<path d="M246.222 -2.55247C247.926 18.4278 252.243 46.7335 257.793 69.3729C263.21 92.0559 269.589 108.971 270.833 108.59C257.147 60.0379 250.402 9.63959 249.062 -40.7848C246.178 -40.7638 244.958 -15.1657 246.223 -2.54941L246.222 -2.55247Z" fill="url(#paint29_linear_522_640)"/>
<path d="M257.626 -51.3905C257.019 -38.3689 257.123 -25.3227 257.527 -12.2815C260.479 26.7235 266.713 65.488 277.172 103.103C278.529 102.733 274.68 84.6505 271.262 61.1258C267.695 37.6227 264.878 8.65759 263.608 -12.7137C262.562 -25.5456 260.099 -51.3229 257.621 -51.3957L257.626 -51.3905Z" fill="url(#paint30_linear_522_640)"/>
<path d="M253.878 -12.0103C255.165 9.68151 259.125 38.9713 264.479 62.4115C269.686 85.8995 275.934 103.459 277.175 103.105C263.918 52.7931 257.514 0.685585 257.629 -51.3914C254.712 -51.4631 252.816 -25.0583 253.881 -12.0111L253.878 -12.0103Z" fill="url(#paint31_linear_522_640)"/>
<path d="M266.497 -62.5659C266.665 -49.738 267.322 -36.9186 268.241 -24.1102C272.794 14.0722 279.535 52.2378 292.395 88.5144C293.701 88.0437 288.632 70.6012 284.452 47.5985C280.053 24.6439 276.434 -3.79126 274.304 -24.7838C272.815 -37.3803 269.037 -62.6583 266.497 -62.569L266.497 -62.5659Z" fill="url(#paint32_linear_522_640)"/>
<path d="M264.605 -23.6979C266.758 -2.44877 271.523 26.2541 277.722 49.1425C283.707 72.1072 291.173 88.9843 292.395 88.5144C276.035 39.8785 269.462 -11.485 266.497 -62.5658C263.648 -62.4559 263.093 -36.4819 264.605 -23.6979Z" fill="url(#paint33_linear_522_640)"/>
<path d="M274.962 -71.5895C275.757 -58.8123 277.071 -46.0583 278.663 -33.3364C285.21 4.49888 294.135 42.1686 309.091 77.5792C310.371 77.0371 304.295 59.9389 298.796 37.259C293.08 14.6332 287.909 -13.5058 284.687 -34.3145C282.531 -46.7901 277.486 -71.7959 274.962 -71.5864L274.962 -71.5895Z" fill="url(#paint34_linear_522_640)"/>
<path d="M275.046 -32.739C278.313 -11.6535 284.648 16.7091 292.158 39.1781C299.462 61.731 307.898 78.1166 309.089 77.583C289.911 30.0544 280.428 -20.7944 274.959 -71.5857C272.105 -71.3427 272.857 -45.4025 275.047 -32.7359L275.046 -32.739Z" fill="url(#paint35_linear_522_640)"/>
<path d="M282.047 -80.2372C282.353 -67.198 283.398 -54.1719 284.805 -41.1878C290.789 -2.50799 300.346 35.7474 315.499 71.8261C316.8 71.2881 310.648 53.8395 304.894 30.784C298.974 7.76838 293.741 -20.8597 290.843 -42.068C288.805 -54.7771 284.505 -80.3267 282.047 -80.2372Z" fill="url(#paint36_linear_522_640)"/>
<path d="M281.184 -40.6516C284.131 -19.0822 290.551 9.86781 298.268 32.7229C305.826 55.6451 314.321 72.3363 315.501 71.8222C296.042 23.442 285.613 -28.2858 282.049 -80.2412C279.113 -80.1166 279.106 -53.6091 281.183 -40.6546L281.184 -40.6516Z" fill="url(#paint37_linear_522_640)"/>
<path d="M291.091 -90.0444C290.211 -76.8411 290.543 -63.5761 291.377 -50.3561C295.645 -10.8545 305.634 27.9736 321.326 64.3618C322.661 63.8044 316.13 46.2087 310.267 22.8813C304.156 -0.383408 299.362 -29.4464 297.446 -50.9723C295.816 -63.8774 293.409 -89.8874 291.089 -90.0405L291.091 -90.0444Z" fill="url(#paint38_linear_522_640)"/>
<path d="M287.736 -49.9753C289.7 -27.904 295.714 1.66896 303.642 24.8231C311.333 48.0766 320.189 64.864 321.325 64.3587C301.073 15.6382 290.283 -37.1916 291.092 -90.0444C288.016 -90.2063 286.062 -63.2363 287.736 -49.9753Z" fill="url(#paint39_linear_522_640)"/>
<path d="M301.282 -101.615C300.617 -87.5912 301.267 -73.5208 302.369 -59.518C307.476 -17.6578 317.814 23.3769 331.795 63.0048C333.158 62.538 327.523 43.423 321.88 18.4564C316.093 -6.48323 310.813 -37.356 308.431 -60.2207C306.532 -73.9318 303.548 -101.499 301.282 -101.615Z" fill="url(#paint40_linear_522_640)"/>
<path d="M298.736 -59.0835C301.172 -35.7342 307.642 -4.52033 315.208 20.2338C322.64 45.0354 330.616 63.4298 331.799 63.0101C313.931 10.0235 301.475 -45.4266 301.282 -101.612C298.149 -101.721 296.79 -73.0904 298.736 -59.0835Z" fill="url(#paint41_linear_522_640)"/>
<path d="M356.021 -156.129C356.41 -141.808 357.483 -127.501 358.887 -113.228C364.862 -70.6538 374.075 -28.4269 388.653 12.0003C389.976 11.5285 384.127 -7.94082 378.614 -33.496C372.944 -59.024 367.841 -90.6463 364.935 -114.035C362.915 -128.064 358.498 -156.233 356.021 -156.129Z" fill="url(#paint42_linear_522_640)"/>
<path d="M355.26 -112.736C358.204 -89.0455 364.464 -57.168 371.926 -31.7898C379.236 -6.35607 387.445 12.4498 388.655 11.9964C369.976 -42.147 359.892 -99.0334 356.024 -156.13C353.11 -155.995 353.21 -126.963 355.26 -112.736Z" fill="url(#paint43_linear_522_640)"/>
<path d="M344.723 -145.396C344.819 -131.207 345.828 -117.033 347.232 -102.901C353.209 -60.7417 363.467 -19.1389 379.228 20.3657C380.554 19.8469 374.08 0.78919 367.978 -24.3386C361.679 -49.4241 356.17 -80.6109 353.282 -103.715C351.184 -117.565 347.141 -145.431 344.724 -145.392L344.723 -145.396Z" fill="url(#paint44_linear_522_640)"/>
<path d="M343.608 -102.4C346.543 -78.9042 353.24 -47.3825 361.331 -22.4628C369.241 2.53702 378.052 20.8491 379.23 20.365C358.936 -32.5477 347.601 -88.8013 344.725 -145.396C341.744 -145.325 341.471 -116.504 343.611 -102.401L343.608 -102.4Z" fill="url(#paint45_linear_522_640)"/>
<path d="M334.515 -135.467C333.976 -121.008 334.527 -106.516 335.535 -92.0693C340.338 -48.9048 350.264 -6.28561 366.14 34.0644C367.484 33.5505 360.902 14.1056 354.967 -11.5749C348.804 -37.2017 343.825 -69.0954 341.604 -92.7085C339.831 -106.869 336.88 -135.389 334.516 -135.464L334.515 -135.467Z" fill="url(#paint46_linear_522_640)"/>
<path d="M331.898 -91.6731C334.16 -67.6081 340.33 -35.2881 348.299 -9.77236C356.046 15.8254 364.976 34.5381 366.14 34.0613C345.683 -19.9565 334.995 -77.6696 334.516 -135.467C331.481 -135.539 330.085 -106.128 331.898 -91.6731Z" fill="url(#paint47_linear_522_640)"/>
<path d="M323.464 -124.353C323.065 -110.084 323.477 -95.7963 324.285 -81.5367C328.517 -38.9288 336.688 3.43832 351.253 43.6786C352.586 43.2003 346.693 23.8389 341.636 -1.6664C336.387 -27.1412 332.283 -58.7407 330.362 -82.0993C328.88 -96.1141 325.903 -124.315 323.464 -124.353Z" fill="url(#paint48_linear_522_640)"/>
<path d="M320.646 -81.1828C322.594 -57.4571 327.865 -25.4677 334.919 -0.0638728C341.79 25.414 350.06 44.1337 351.256 43.6806C332.629 -10.2307 324.291 -67.3784 323.468 -124.351C320.511 -124.381 319.139 -95.4474 320.646 -81.1798L320.646 -81.1828Z" fill="url(#paint49_linear_522_640)"/>
<path d="M579.023 -313.963C580.235 -314.654 582.131 -313.639 583.261 -311.694C584.392 -309.749 584.324 -307.613 583.113 -306.92C532.71 -278.086 480.951 -251.792 434.926 -216.853C388.453 -182.578 345.693 -143.451 305.899 -101.683C226.747 -17.6907 158.117 76.1582 101.833 176.605C156.922 75.5033 224.477 -19.238 302.883 -104.432C342.316 -146.809 384.804 -186.629 431.215 -221.709C477.294 -257.534 529.173 -284.663 579.023 -313.963Z" fill="#92DE46"/>
<path d="M118.901 148.369L111.899 153.835L94.7925 173.838C96.9494 175.822 110.126 165.362 116.783 158.33C118.785 156.211 121.058 150.353 118.898 148.37L118.901 148.369Z" fill="url(#paint50_linear_522_640)"/>
<path d="M108.966 151.141C102.307 158.174 92.6347 171.852 94.7933 173.841L118.899 148.373C116.741 146.387 110.964 149.031 108.963 151.142L108.966 151.141Z" fill="url(#paint51_linear_522_640)"/>
<path d="M128.936 130.706L121.511 135.727L102.876 154.666C104.887 156.796 118.87 147.168 126.062 140.552C128.228 138.562 130.944 132.836 128.937 130.709L128.936 130.706Z" fill="url(#paint52_linear_522_640)"/>
<path d="M118.776 132.837C111.581 139.455 100.863 152.531 102.871 154.664L128.933 130.706C126.921 128.574 120.939 130.849 118.776 132.837Z" fill="url(#paint53_linear_522_640)"/>
<path d="M138.676 115.254L130.484 121.283C123.586 128.632 115.039 135.828 108.537 143.504C110.678 145.371 127.194 133.589 135.175 125.976C137.547 123.656 140.7 117.36 138.674 115.258L138.676 115.254Z" fill="url(#paint54_linear_522_640)"/>
<path d="M127.668 118.475C119.568 126.203 106.253 141.51 108.538 143.504C117.656 133.68 128.956 124.498 138.674 115.258C136.634 113.14 130.072 116.119 127.669 118.478L127.668 118.475Z" fill="url(#paint55_linear_522_640)"/>
<path d="M149.127 98.1742L140.306 104.822C132.831 112.827 125.256 120.79 118.592 129.467C120.665 131.024 136.229 117.793 145.003 109.504C147.58 106.979 151.16 100.275 149.13 98.1703L149.127 98.1742Z" fill="url(#paint56_linear_522_640)"/>
<path d="M137.486 102.015C128.666 110.33 115.981 127.456 118.592 129.471C128.013 118.349 138.633 108.295 149.127 98.1743C147.084 96.0603 140.101 99.4501 137.485 102.012L137.486 102.015Z" fill="url(#paint57_linear_522_640)"/>
<path d="M159.952 80.7464C156.841 82.6617 153.807 84.7232 150.819 86.8641C143.129 94.6159 135.968 102.959 130.416 112.266C132.645 113.417 146.426 99.1763 155.376 91.6799C157.898 89.2852 161.721 83.006 159.951 80.7434L159.952 80.7464Z" fill="url(#paint58_linear_522_640)"/>
<path d="M148.082 83.9779C138.5 91.9959 127.399 110.602 130.416 112.266C138.388 100.228 148.763 89.8912 159.952 80.7464C158.108 78.3959 150.796 81.4075 148.085 83.9771L148.082 83.9779Z" fill="url(#paint59_linear_522_640)"/>
<path d="M172.648 61.5728C169.778 63.4701 166.944 65.4264 164.125 67.4144C156.884 74.6628 149.892 82.1339 143.181 89.8256C145.311 91.7246 160.385 79.6591 168.67 72.2406C171.121 69.9576 174.552 63.7651 172.645 61.5736L172.648 61.5728Z" fill="url(#paint60_linear_522_640)"/>
<path d="M161.396 64.5196C152.863 72.1622 140.933 87.8184 143.184 89.8247C152.574 79.9837 162.385 70.5275 172.648 61.5728C170.708 59.3477 163.912 62.1757 161.396 64.5196Z" fill="url(#paint61_linear_522_640)"/>
<path d="M184.24 45.097C181.74 46.6441 179.271 48.2549 176.819 49.8876C170.667 56.0883 164.733 62.4682 158.945 68.9617C161.058 70.941 174.298 61.0221 181.345 54.7319C183.436 52.8026 186.128 47.3035 184.24 45.097Z" fill="url(#paint62_linear_522_640)"/>
<path d="M174.103 46.9824C166.811 53.4988 156.78 66.9346 158.948 68.9608C167.095 60.7228 175.448 52.6675 184.243 45.0961C182.324 42.852 176.259 44.9923 174.106 46.9816L174.103 46.9824Z" fill="url(#paint63_linear_522_640)"/>
<path d="M194.552 29.9459C192.519 31.872 190.421 33.7178 188.302 35.5265C183.303 42.0884 177.918 48.3936 172.207 54.425C174.259 56.6517 187.441 47.0646 193.426 39.7534C195.288 37.6153 196.963 31.6806 194.555 29.945L194.552 29.9459Z" fill="url(#paint64_linear_522_640)"/>
<path d="M185.227 32.9911C179.601 39.8764 170.287 52.3392 172.207 54.425C180.222 46.7926 187.763 38.6586 194.555 29.945C192.192 28.2458 186.986 30.9741 185.227 32.9911Z" fill="url(#paint65_linear_522_640)"/>
<path d="M204.62 15.576C202.727 17.6374 200.653 19.4994 198.559 21.3274C193.614 27.904 188.091 34.1261 182.409 40.1921C184.443 42.3447 197.649 32.9712 203.72 25.5111C205.615 23.3606 207.225 17.135 204.62 15.576Z" fill="url(#paint66_linear_522_640)"/>
<path d="M195.463 18.8211C189.962 25.6124 180.411 38.0954 182.41 40.1952C190.351 32.498 198.255 24.6306 204.621 15.5792C202.159 14.1214 197.22 16.821 195.463 18.8211Z" fill="url(#paint67_linear_522_640)"/>
<path d="M213.206 4.25709C211.473 5.93175 209.661 7.50028 207.836 9.04611C203.723 14.7587 199.163 20.2054 194.343 25.4388C196.359 27.6226 207.954 19.6332 213.041 13.1779C214.629 11.3006 215.7 5.88672 213.206 4.25709Z" fill="url(#paint68_linear_522_640)"/>
<path d="M204.712 6.56747C200.089 12.4589 192.38 23.3188 194.343 25.4389C201.166 18.873 207.643 11.904 213.206 4.25719C210.773 2.66664 206.172 4.84106 204.712 6.56747Z" fill="url(#paint69_linear_522_640)"/>
<path d="M226.53 -9.90882L220.134 -4.59298L204.997 14.7903C207.237 16.6848 219.257 6.5155 225.206 -0.302489C226.995 -2.35412 228.773 -8.01519 226.533 -9.90967L226.53 -9.90882Z" fill="url(#paint70_linear_522_640)"/>
<path d="M217.089 -7.16292C211.143 -0.342729 202.757 12.8959 204.995 14.7942L226.527 -9.90488C224.287 -11.7994 218.875 -9.21065 217.087 -7.15902L217.089 -7.16292Z" fill="url(#paint71_linear_522_640)"/>
<path d="M232.779 -20.7685L226.397 -12.4192L211.895 15.2306C214.465 16.6678 226.442 0.76833 232.21 -9.17071C233.944 -12.1638 235.347 -19.3305 232.776 -20.7676L232.779 -20.7685Z" fill="url(#paint72_linear_522_640)"/>
<path d="M222.907 -14.3651C217.14 -4.42606 209.327 13.7927 211.895 15.2307L232.777 -20.7676C230.207 -22.2016 224.639 -17.3574 222.904 -14.3642L222.907 -14.3651Z" fill="url(#paint73_linear_522_640)"/>
<path d="M241.061 -30.776L234.937 -23.6331L221.102 0.592519C223.609 2.12964 235.097 -11.4899 240.609 -20.1512C242.269 -22.7553 243.568 -29.2388 241.061 -30.776Z" fill="url(#paint74_linear_522_640)"/>
<path d="M231.532 -25.7212C226.02 -17.0598 218.594 -0.947735 221.101 0.589391L241.06 -30.7791C238.552 -32.3193 233.188 -28.3274 231.532 -25.7212Z" fill="url(#paint75_linear_522_640)"/>
<path d="M249.064 -40.7847L242.407 -30.8631L229.103 3.50537C231.737 4.81944 242.329 -16.2671 248.367 -27.8858C250.184 -31.3818 251.696 -39.4698 249.063 -40.7878L249.064 -40.7847Z" fill="url(#paint76_linear_522_640)"/>
<path d="M238.827 -32.6493C232.789 -21.0306 226.467 2.18817 229.105 3.50444L249.066 -40.7887C246.431 -42.1027 240.644 -36.1453 238.826 -32.6524L238.827 -32.6493Z" fill="url(#paint77_linear_522_640)"/>
</g>
<path d="M243.237 155.04C243.303 160.349 243.628 165.453 244.09 170.437C244.06 186.487 245.127 201.785 249.706 214.019C248.495 215.165 244.798 210.692 242.37 202.743C239.821 194.909 238.469 183.787 238.358 174.919C238.179 169.656 240.623 156.966 243.237 155.04Z" fill="url(#paint78_linear_522_640)"/>
<path d="M247.021 168.635C247.159 177.605 247.516 189.652 248.504 198.953C249.346 208.368 250.926 214.949 249.524 216.209C242.272 199.975 241.224 178.48 242.185 155.711C244.928 153.758 246.819 163.339 247.021 168.635Z" fill="url(#paint79_linear_522_640)"/>
<path d="M242.712 139.927C242.927 145.44 243.363 150.768 243.936 155.976C244.65 172.32 244.865 189.522 252.952 199.295C251.769 200.668 246.253 197.455 243.448 189.21C240.354 181.262 238.806 169.586 238.465 160.38C238.167 154.899 240.221 141.833 242.71 139.928L242.712 139.927Z" fill="url(#paint80_linear_522_640)"/>
<path d="M246.719 154.132C247.089 163.447 247.683 176.022 249.262 185.333C250.536 194.935 253.957 200.076 252.901 201.254C246.495 195.318 244.89 184.732 243.351 174.337C242.044 163.696 241.613 152.331 241.876 140.445C244.391 138.543 246.401 148.614 246.719 154.132Z" fill="url(#paint81_linear_522_640)"/>
<path d="M243.689 126.946C244.878 131.933 246.132 136.861 247.428 141.749C250.217 157.349 251.997 173.94 257.952 186.681C254.166 190.361 244.746 164 242.076 146.395C241.113 141.216 241.298 128.995 243.689 126.946Z" fill="url(#paint82_linear_522_640)"/>
<path d="M250.415 139.354C253.185 157.201 258.768 186.774 257.933 187.669C249.804 170.481 247.206 148.202 243.281 127.226C245.689 125.168 249.433 134.142 250.415 139.354Z" fill="url(#paint83_linear_522_640)"/>
<path d="M246.492 115.428C246.676 121.168 247.599 126.296 248.816 131.138C251.217 146.757 257.083 159.468 266.409 168.506C265.447 169.572 259.652 166.711 254.549 160.38C249.304 154.205 245.21 144.222 243.783 135.481C242.621 130.457 244.018 117.284 246.492 115.43L246.492 115.428Z" fill="url(#paint84_linear_522_640)"/>
<path d="M251.516 129.217C252.929 137.83 256.066 148.495 259.878 156.049C263.538 163.746 267.482 168.682 266.38 169.892C253.384 158.052 246.122 139.839 246.068 115.876C248.116 114.345 250.382 124.291 251.518 129.215L251.516 129.217Z" fill="url(#paint85_linear_522_640)"/>
<path d="M249.376 102.162C249.821 107.731 250.843 112.811 252.16 117.608C254.899 133.041 260.578 146.116 271.058 154.078C270.121 155.162 263.788 152.818 258.425 146.633C252.942 140.589 248.768 130.578 247.168 121.937C245.961 116.924 246.96 104.025 249.374 102.163L249.376 102.162Z" fill="url(#paint86_linear_522_640)"/>
<path d="M254.89 115.606C256.469 124.134 259.683 134.789 263.712 142.166C267.607 149.67 272.092 154.063 271.036 155.267C256.633 144.783 250.03 125.791 249.023 102.556C251.089 100.96 253.704 110.694 254.89 115.606Z" fill="url(#paint87_linear_522_640)"/>
<path d="M253.127 88.157C252.725 94.2244 253.402 99.4516 254.507 104.267C256.627 119.758 263.929 130.907 275.277 137.397C274.416 138.426 267.628 136.884 261.63 131.631C255.469 126.571 250.801 117.238 249.564 108.448C248.385 103.488 250.598 89.8789 253.127 88.157Z" fill="url(#paint88_linear_522_640)"/>
<path d="M257.132 102.552C258.334 111.107 261.985 121.035 266.719 127.46C271.272 134.066 276.316 137.688 275.258 138.931C259.59 130.544 250.586 113.898 252.709 88.6434C254.586 87.3818 255.995 97.763 257.134 102.549L257.132 102.552Z" fill="url(#paint89_linear_522_640)"/>
<path d="M257.061 78.4182C255.834 85.1931 256.003 91.0057 256.927 96.1401C258.377 112.656 268.81 122.012 285.838 122.52C285.217 123.438 275.688 124.966 267.345 121.631C258.689 118.68 252.936 109.495 252.109 99.9926C250.946 94.7281 254.539 79.8854 257.059 78.4179L257.061 78.4182Z" fill="url(#paint90_linear_522_640)"/>
<path d="M259.515 94.6906C260.313 103.773 264.851 113.314 271.974 117.581C278.756 122.212 286.755 122.717 285.828 123.997C262.416 123.995 251.107 107.145 256.725 78.9165C258.401 77.9676 258.413 89.7368 259.515 94.6906Z" fill="url(#paint91_linear_522_640)"/>
<path d="M261.24 67.5762C258.953 75.3529 259.201 81.538 260.453 86.7447C263.248 103.379 277.12 110.306 294.157 112.301C293.463 113.234 283.98 113.941 274.657 110.978C265.124 108.308 257.107 100.431 255.684 90.6274C255.115 87.8154 255.267 82.737 256.604 77.7365C257.829 72.8028 260.207 68.0695 261.24 67.5777L261.24 67.5762Z" fill="url(#paint92_linear_522_640)"/>
<path d="M263.04 85.2471C264.348 94.4395 271.054 102.852 279.189 106.871C287.086 111.164 295.077 112.435 294.147 113.656C282.441 112.559 272.369 109.164 265.815 102.075C259.456 94.9402 256.072 84.1692 260.948 68.0553C261.911 67.5794 261.514 71.007 261.718 74.7425C261.814 78.549 262.511 82.6056 263.038 85.2484L263.04 85.2471Z" fill="url(#paint93_linear_522_640)"/>
<path d="M265.687 56.5822C263.601 64.5106 263.398 71.2659 264.267 77.082C265.442 95.8218 279.743 103.889 300.589 102.025C300.089 102.837 288.665 105.652 278.259 103.154C267.509 101.1 260.083 91.6436 259.493 80.7873C258.169 74.9072 263.095 57.9126 265.687 56.5807L265.687 56.5822Z" fill="url(#paint94_linear_522_640)"/>
<path d="M266.844 75.7556C267.412 86.0387 273.459 95.7738 282.643 99.1714C291.465 102.978 301.486 102.141 300.579 103.45C286.504 104.818 275.035 102.12 268.709 94.1506C262.425 86.215 260.803 73.5186 265.385 57.0821C266.86 56.3752 265.597 70.2833 266.842 75.7553L266.844 75.7556Z" fill="url(#paint95_linear_522_640)"/>
<path d="M269.092 47.884C268.428 54.574 269.053 60.3585 270.468 65.442C273.326 81.7662 285.894 90.8082 307.727 86.8001C307.285 87.6184 295.54 91.3391 285.165 89.2564C274.513 87.5346 267.396 78.5998 265.755 69.2371C264.107 64.0491 266.595 49.424 269.089 47.8851L269.092 47.884Z" fill="url(#paint96_linear_522_640)"/>
<path d="M273.071 63.9276C274.651 72.9283 280.486 82.1549 289.498 85.1555C298.198 88.5137 308.516 86.7518 307.721 87.9734C277.934 93.9435 265.33 75.972 268.839 48.3504C270.521 47.3319 271.511 59.0163 273.071 63.9276Z" fill="url(#paint97_linear_522_640)"/>
<path d="M272.88 39.0229C271.729 46.2735 272.246 52.3939 273.698 57.6758C276.693 74.7098 291.002 82.5106 312.356 80.0541C311.857 80.8736 300.284 83.8768 289.618 81.7176C278.577 80.0244 270.666 71.2719 268.983 61.4795C267.154 56.1503 270.292 40.5256 272.88 39.0229Z" fill="url(#paint98_linear_522_640)"/>
<path d="M276.291 56.1928C277.899 65.5358 284.462 74.6436 293.951 77.6448C303.034 81.0976 313.208 80.0298 312.351 81.2818C283.167 85.4075 267.279 69.6507 272.62 39.5027C274.184 38.6334 274.569 51.1884 276.294 56.1916L276.291 56.1928Z" fill="url(#paint99_linear_522_640)"/>
<path d="M276.87 30.8321C274.727 39.0388 274.782 45.8995 276.075 51.6715C278.586 70.3062 296.172 76.3239 319.68 72.5011C319.231 73.265 306.605 76.9737 294.478 75.6263C282.061 74.6758 272.638 66.2135 271.368 55.3534C270.776 52.2666 270.987 46.7671 272.328 41.4801C273.573 36.2472 275.838 31.3609 276.868 30.8348L276.87 30.8321Z" fill="url(#paint100_linear_522_640)"/>
<path d="M278.665 50.3052C279.863 60.5485 287.773 69.3398 298.637 71.6335C309.191 74.2874 320.52 72.4677 319.676 73.7324C303.855 76.3868 290.395 75.0895 282.478 67.9437C274.638 60.8179 271.963 48.2691 276.623 31.3211C277.986 30.6989 276.893 44.9742 278.667 50.3041L278.665 50.3052Z" fill="url(#paint101_linear_522_640)"/>
<path d="M280.718 22.9608C278.446 30.9395 279.265 37.0303 281.364 41.8722C286.89 57.3515 305.872 60.6809 327.504 58.9585C326.932 59.7963 315.329 62.2631 303.232 61.3441C290.927 60.75 279.648 54.8978 276.755 45.661C275.72 43.0487 275.297 38.1561 276.377 33.167C277.316 28.2623 279.696 23.4351 280.718 22.9608Z" fill="url(#paint102_linear_522_640)"/>
<path d="M283.938 40.36C286.584 48.9682 296.365 55.426 307.321 57.3162C318.016 59.5238 328.315 58.8726 327.498 60.0232C312.744 61.4367 299.518 60.4656 290.261 55.143C281.246 49.769 275.722 39.897 280.513 23.4282C281.456 22.9727 281.034 26.5243 281.48 30.2387C281.796 34.0406 282.992 37.9141 283.942 40.3592L283.938 40.36Z" fill="url(#paint103_linear_522_640)"/>
<path d="M284.41 14.1572C282.485 21.9683 283.04 28.2382 284.862 33.3432C289.248 49.8061 307.515 54.1062 329.877 51.3145C329.361 52.1217 317.387 55.165 305.31 54.1954C292.985 53.5784 282.532 46.776 280.217 37.0906C279.336 34.3494 279.16 29.288 280.22 24.3233C281.2 19.3991 283.383 14.6734 284.412 14.1546L284.41 14.1572Z" fill="url(#paint104_linear_522_640)"/>
<path d="M287.443 31.8749C289.59 40.9492 298.52 48.2417 309.407 50.1735C320.007 52.4368 330.687 51.2316 329.87 52.4214C314.755 54.4335 301.43 53.5166 292.769 47.5641C284.184 41.6605 280.011 30.7645 284.19 14.6309C285.16 14.1268 284.914 17.5996 285.317 21.3817C285.651 25.2126 286.628 29.2978 287.443 31.8749Z" fill="url(#paint105_linear_522_640)"/>
<path d="M288.111 6.87475C285.568 15.1226 286.409 21.3392 288.564 26.2494C294.428 41.822 313.962 44.9599 335.865 43.3979C335.285 44.2389 323.552 46.6217 311.219 45.7112C298.698 45.1008 287.018 39.371 283.959 30.0424C282.894 27.3909 282.445 22.4118 283.579 17.3094C284.568 12.2906 287.089 7.32823 288.109 6.8773L288.111 6.87475Z" fill="url(#paint106_linear_522_640)"/>
<path d="M291.135 24.7314C293.923 33.4161 304.113 39.7749 315.3 41.6798C326.248 43.8785 336.678 43.3074 335.859 44.4525C320.908 45.7682 307.412 44.8212 297.842 39.5455C288.568 34.1988 282.605 24.3532 287.902 7.33874C288.83 6.911 288.274 10.598 288.674 14.4125C288.942 18.314 290.159 22.252 291.135 24.7314Z" fill="url(#paint107_linear_522_640)"/>
<path d="M291.334 -0.766089C289.033 7.11742 289.984 13.0359 292.222 17.6828C298.357 32.4305 317.876 34.9752 339.709 32.8556C339.185 33.628 327.564 36.1875 315.285 35.599C302.818 35.3128 291.126 30.0663 287.912 21.2394C286.8 18.7372 286.23 14.029 287.207 9.17633C288.044 4.40545 290.369 -0.326529 291.332 -0.763573L291.334 -0.766089Z" fill="url(#paint108_linear_522_640)"/>
<path d="M294.641 16.2435C297.581 24.4843 307.851 30.3253 319.064 31.8235C330.043 33.6137 340.462 32.7333 339.704 33.8049C324.827 35.4731 311.365 34.9119 301.75 30.0941C292.412 25.2097 286.364 15.9035 291.151 -0.334178C292.026 -0.748537 291.545 2.78423 292.004 6.42495C292.336 10.155 293.612 13.9004 294.639 16.2418L294.641 16.2435Z" fill="url(#paint109_linear_522_640)"/>
<path d="M295.37 -7.46602C293.618 -0.0197836 296.066 4.66042 299.237 8.37899C308.49 20.1105 327.594 22.4224 347.766 22.5101C347.131 23.3472 336.379 24.7185 324.46 23.8489C312.493 23.0872 300.016 19.1827 294.965 12.1553C293.349 10.1556 291.852 6.2561 292.131 1.90084C292.236 -2.34199 294.345 -6.99749 295.37 -7.46602Z" fill="url(#paint110_linear_522_640)"/>
<path d="M301.668 6.70727C306.335 13.3281 317.615 17.9394 328.393 19.9039C339.09 21.9801 348.543 22.2999 347.761 23.3205C333.997 23.5294 321.074 22.5227 310.854 18.5117C301.12 14.2977 291.983 8.0231 295.217 -7.06342C296.092 -7.48052 295.908 -4.26908 297.057 -1.25709C298.049 1.86019 300.164 4.82127 301.668 6.70866L301.668 6.70727Z" fill="url(#paint111_linear_522_640)"/>
<path d="M299.672 -15.0588C297.891 -7.13838 299.135 -1.12112 301.695 3.62726C308.507 18.9057 329.358 21.4646 353.164 18.374C352.639 19.1708 340.011 22.3018 326.74 21.9532C313.238 21.9571 300.772 16.4641 297.144 7.39758C295.875 4.84435 295.099 0.042698 295.872 -4.88295C296.506 -9.72473 298.638 -14.5415 299.674 -15.0586L299.672 -15.0588Z" fill="url(#paint112_linear_522_640)"/>
<path d="M304.263 2.06436C307.614 10.5667 318.556 16.6581 330.699 17.9323C342.563 19.5509 353.944 18.1811 353.158 19.3132C336.977 21.6346 322.429 21.3377 312.11 16.3901C301.995 11.4105 295.691 1.69116 299.492 -14.6137C300.451 -15.1107 300.258 -11.5909 300.978 -7.92026C301.57 -4.16007 303.088 -0.333664 304.265 2.06325L304.263 2.06436Z" fill="url(#paint113_linear_522_640)"/>
<path d="M303.361 -22.8008C302.318 -15.2348 303.553 -9.19045 305.885 -4.16671C311.744 12.0424 331.008 16.6163 355.626 12.4891C355.17 13.2423 342.106 16.9821 329.044 16.2688C315.74 15.8919 304.487 9.03854 301.298 -0.393671C300.171 -3.07826 299.502 -7.96233 300.1 -12.8009C300.607 -17.5802 302.316 -22.2057 303.363 -22.8019L303.361 -22.8008Z" fill="url(#paint114_linear_522_640)"/>
<path d="M308.473 -5.75688C311.48 3.18708 321.245 10.5085 333.074 12.1793C344.631 14.166 356.423 12.231 355.619 13.4213C339.058 16.3086 324.719 15.6043 315.211 9.73855C305.825 3.84446 300.776 -6.79331 303.175 -22.3695C304.168 -22.9488 304.372 -19.638 305.217 -15.992C305.976 -12.2809 307.416 -8.30791 308.473 -5.75831L308.473 -5.75688Z" fill="url(#paint115_linear_522_640)"/>
<path d="M307.269 -31.5978C304.024 -22.9673 305.109 -16.797 307.593 -12.1377C314.759 2.52981 335.55 4.4458 357.479 3.28181C356.918 4.07095 345.235 6.16408 332.561 5.48822C319.815 4.98635 307.031 0.334422 303.342 -8.58592C302.071 -11.0877 301.358 -15.9266 302.512 -21.0768C303.506 -26.1397 306.332 -31.2555 307.269 -31.5992L307.269 -31.5978Z" fill="url(#paint116_linear_522_640)"/>
<path d="M309.975 -13.564C313.319 -5.25277 324.751 0.0791021 336.315 1.76391C347.751 3.63201 358.227 3.19778 357.474 4.23508C342.474 5.30645 328.52 4.73056 318.208 0.066464C308.282 -4.63857 300.653 -13.453 307.086 -31.1623C307.898 -31.4812 306.949 -27.5744 307.253 -23.694C307.415 -19.7251 308.808 -15.9013 309.975 -13.564Z" fill="url(#paint117_linear_522_640)"/>
<path d="M313.652 -41.3378C311.288 -32.6936 311.532 -25.5759 313.333 -19.8006C317.388 -1.04412 340.071 1.78112 367.727 -5.3414C367.369 -4.65844 352.842 0.579445 338.089 1.03352C323.04 1.91594 310.768 -5.22775 308.709 -16.2168C307.836 -19.2978 307.773 -24.8972 309.069 -30.3597C310.249 -35.7574 312.633 -40.8431 313.654 -41.3389L313.652 -41.3378Z" fill="url(#paint118_linear_522_640)"/>
<path d="M315.919 -21.1431C317.848 -10.8359 328.373 -3.29781 341.886 -2.84333C355.075 -1.99972 368.477 -5.48792 367.722 -4.28378C349.161 0.530572 332.595 1.48385 322.358 -4.48425C312.215 -10.422 308.363 -23.062 313.452 -40.8528C314.412 -41.3336 313.936 -37.4002 314.14 -33.0816C314.231 -28.6837 315.112 -24.0412 315.921 -21.1442L315.919 -21.1431Z" fill="url(#paint119_linear_522_640)"/>
<path d="M319.087 -51.2776C317.098 -42.5982 317.555 -35.4419 319.38 -29.4936C323.502 -10.2951 344.256 -5.22123 371.106 -10.7036C370.71 -9.99242 356.488 -5.46163 342.503 -6.15953C328.213 -6.43451 316.874 -14.6397 314.73 -25.8107C313.854 -28.9697 313.699 -34.6395 314.836 -40.1514C315.86 -45.5974 318.053 -50.7352 319.089 -51.2788L319.087 -51.2776Z" fill="url(#paint120_linear_522_640)"/>
<path d="M321.968 -30.908C323.997 -20.3276 333.761 -11.7442 346.512 -10.1422C358.928 -8.14356 371.918 -10.8516 371.1 -9.60293C353.072 -5.85602 337.487 -6.33426 327.909 -13.2305C318.42 -20.1082 314.555 -32.9528 318.87 -50.7978C319.849 -51.3257 319.573 -47.4085 319.928 -43.0605C320.181 -38.6397 321.148 -33.9032 321.968 -30.908Z" fill="url(#paint121_linear_522_640)"/>
<path d="M323.566 -59.5771C321.293 -51.0793 321.218 -43.8496 322.702 -37.905C324.329 -28.5154 330.22 -22.3076 339.786 -20.2224C349.281 -18.0297 362.192 -19.8966 376.318 -24.0952C376.083 -23.5334 361.122 -17.2941 346.289 -16.5849C338.937 -16.2424 331.889 -17.4847 326.981 -20.7689C322.077 -24.047 319.204 -29.1358 318.231 -34.5242C317.529 -37.6826 317.685 -43.339 319.037 -48.7556C320.291 -54.119 322.586 -59.095 323.566 -59.5771Z" fill="url(#paint122_linear_522_640)"/>
<path d="M325.191 -39.1239C326.103 -34.0226 328.581 -29.0786 332.841 -25.6513C337.11 -22.2256 343.301 -20.54 349.881 -20.2647C363.103 -19.7054 377.038 -24.2653 376.312 -23.048C357.276 -17.0562 340.424 -15.6586 330.766 -22.0346C321.059 -28.2712 318.461 -41.646 323.366 -59.1008C324.297 -59.5733 323.829 -55.6783 323.908 -51.3116C323.889 -46.8791 324.538 -42.1067 325.191 -39.1254L325.191 -39.1239Z" fill="url(#paint123_linear_522_640)"/>
<path d="M329.931 -70.2644C328.342 -61.8746 328.988 -54.9197 330.909 -49.0961C335.242 -30.2601 355.199 -24.5658 381.879 -30.0019C381.496 -29.3036 367.323 -24.7437 353.615 -25.6623C339.524 -26.0735 328.601 -34.5011 326.261 -45.3823C325.342 -48.4728 325.074 -54.0073 326.036 -59.3712C326.896 -64.6747 328.884 -69.687 329.931 -70.2644Z" fill="url(#paint124_linear_522_640)"/>
<path d="M333.501 -50.5521C335.721 -40.2025 345.125 -31.4101 357.66 -29.6789C369.787 -27.4648 382.702 -30.1889 381.876 -28.9268C363.98 -25.2058 348.737 -25.9701 339.391 -32.9677C330.093 -39.9279 326.198 -52.5383 329.718 -69.7926C331.085 -70.482 331.096 -55.9212 333.503 -50.5532L333.501 -50.5521Z" fill="url(#paint125_linear_522_640)"/>
<defs>
<linearGradient id="paint0_linear_522_640" x1="351.679" y1="47.4202" x2="303.912" y2="-110.984" gradientUnits="userSpaceOnUse">
<stop stop-color="#408000"/>
<stop offset="0.34" stop-color="#356B00"/>
<stop offset="0.71" stop-color="#2D5A00"/>
<stop offset="1" stop-color="#2B5500"/>
</linearGradient>
<linearGradient id="paint1_linear_522_640" x1="349.969" y1="47.9358" x2="302.192" y2="-110.502" gradientUnits="userSpaceOnUse">
<stop stop-color="#55AA00"/>
<stop offset="0.06" stop-color="#52A500"/>
<stop offset="0.42" stop-color="#458A00"/>
<stop offset="0.75" stop-color="#3C7900"/>
<stop offset="1" stop-color="#3A7400"/>
</linearGradient>
<linearGradient id="paint2_linear_522_640" x1="112.937" y1="187.051" x2="102.725" y2="153.184" gradientUnits="userSpaceOnUse">
<stop stop-color="#55AA00"/>
<stop offset="0.06" stop-color="#52A500"/>
<stop offset="0.42" stop-color="#458A00"/>
<stop offset="0.75" stop-color="#3C7900"/>
<stop offset="1" stop-color="#3A7400"/>
</linearGradient>
<linearGradient id="paint3_linear_522_640" x1="112.564" y1="187.005" x2="102.27" y2="152.868" gradientUnits="userSpaceOnUse">
<stop stop-color="#84D92E"/>
<stop offset="1" stop-color="#C8EEA2"/>
</linearGradient>
<linearGradient id="paint4_linear_522_640" x1="126.687" y1="192.274" x2="110.761" y2="139.459" gradientUnits="userSpaceOnUse">
<stop stop-color="#408000"/>
<stop offset="0.34" stop-color="#356B00"/>
<stop offset="0.71" stop-color="#2D5A00"/>
<stop offset="1" stop-color="#2B5500"/>
</linearGradient>
<linearGradient id="paint5_linear_522_640" x1="126.273" y1="192.333" x2="110.313" y2="139.406" gradientUnits="userSpaceOnUse">
<stop stop-color="#55AA00"/>
<stop offset="0.06" stop-color="#52A500"/>
<stop offset="0.42" stop-color="#458A00"/>
<stop offset="0.75" stop-color="#3C7900"/>
<stop offset="1" stop-color="#3A7400"/>
</linearGradient>
<linearGradient id="paint6_linear_522_640" x1="143.901" y1="191.428" x2="122.392" y2="120.099" gradientUnits="userSpaceOnUse">
<stop stop-color="#408000"/>
<stop offset="0.34" stop-color="#356B00"/>
<stop offset="0.71" stop-color="#2D5A00"/>
<stop offset="1" stop-color="#2B5500"/>
</linearGradient>
<linearGradient id="paint7_linear_522_640" x1="143.071" y1="191.681" x2="121.527" y2="120.234" gradientUnits="userSpaceOnUse">
<stop stop-color="#55AA00"/>
<stop offset="0.06" stop-color="#52A500"/>
<stop offset="0.42" stop-color="#458A00"/>
<stop offset="0.75" stop-color="#3C7900"/>
<stop offset="1" stop-color="#3A7400"/>
</linearGradient>
<linearGradient id="paint8_linear_522_640" x1="157.644" y1="183.2" x2="133.542" y2="103.271" gradientUnits="userSpaceOnUse">
<stop stop-color="#408000"/>
<stop offset="0.34" stop-color="#356B00"/>
<stop offset="0.71" stop-color="#2D5A00"/>
<stop offset="1" stop-color="#2B5500"/>
</linearGradient>
<linearGradient id="paint9_linear_522_640" x1="157.012" y1="183.388" x2="132.881" y2="103.364" gradientUnits="userSpaceOnUse">
<stop stop-color="#55AA00"/>
<stop offset="0.06" stop-color="#52A500"/>
<stop offset="0.42" stop-color="#458A00"/>
<stop offset="0.75" stop-color="#3C7900"/>
<stop offset="1" stop-color="#3A7400"/>
</linearGradient>
<linearGradient id="paint10_linear_522_640" x1="172.24" y1="176.148" x2="144.827" y2="85.2411" gradientUnits="userSpaceOnUse">
<stop stop-color="#408000"/>
<stop offset="0.34" stop-color="#356B00"/>
<stop offset="0.71" stop-color="#2D5A00"/>
<stop offset="1" stop-color="#2B5500"/>
</linearGradient>
<linearGradient id="paint11_linear_522_640" x1="171.608" y1="176.338" x2="144.17" y2="85.3465" gradientUnits="userSpaceOnUse">
<stop stop-color="#55AA00"/>
<stop offset="0.06" stop-color="#52A500"/>
<stop offset="0.42" stop-color="#458A00"/>
<stop offset="0.75" stop-color="#3C7900"/>
<stop offset="1" stop-color="#3A7400"/>
</linearGradient>
<linearGradient id="paint12_linear_522_640" x1="185.914" y1="174.176" x2="153.664" y2="67.2288" gradientUnits="userSpaceOnUse">
<stop stop-color="#408000"/>
<stop offset="0.34" stop-color="#356B00"/>
<stop offset="0.71" stop-color="#2D5A00"/>
<stop offset="1" stop-color="#2B5500"/>
</linearGradient>
<linearGradient id="paint13_linear_522_640" x1="185.46" y1="174.31" x2="153.188" y2="67.2896" gradientUnits="userSpaceOnUse">
<stop stop-color="#55AA00"/>
<stop offset="0.06" stop-color="#52A500"/>
<stop offset="0.42" stop-color="#458A00"/>
<stop offset="0.75" stop-color="#3C7900"/>
<stop offset="1" stop-color="#3A7400"/>
</linearGradient>
<linearGradient id="paint14_linear_522_640" x1="202.168" y1="164.276" x2="167.711" y2="50.0092" gradientUnits="userSpaceOnUse">
<stop stop-color="#408000"/>
<stop offset="0.34" stop-color="#356B00"/>
<stop offset="0.71" stop-color="#2D5A00"/>
<stop offset="1" stop-color="#2B5500"/>
</linearGradient>
<linearGradient id="paint15_linear_522_640" x1="201.603" y1="164.446" x2="167.131" y2="50.1312" gradientUnits="userSpaceOnUse">
<stop stop-color="#55AA00"/>
<stop offset="0.06" stop-color="#52A500"/>
<stop offset="0.42" stop-color="#458A00"/>
<stop offset="0.75" stop-color="#3C7900"/>
<stop offset="1" stop-color="#3A7400"/>
</linearGradient>
<linearGradient id="paint16_linear_522_640" x1="214.288" y1="148.792" x2="179.773" y2="34.3312" gradientUnits="userSpaceOnUse">
<stop stop-color="#408000"/>
<stop offset="0.34" stop-color="#356B00"/>
<stop offset="0.71" stop-color="#2D5A00"/>
<stop offset="1" stop-color="#2B5500"/>
</linearGradient>
<linearGradient id="paint17_linear_522_640" x1="213.681" y1="148.975" x2="179.144" y2="34.4416" gradientUnits="userSpaceOnUse">
<stop stop-color="#55AA00"/>
<stop offset="0.06" stop-color="#52A500"/>
<stop offset="0.42" stop-color="#458A00"/>
<stop offset="0.75" stop-color="#3C7900"/>
<stop offset="1" stop-color="#3A7400"/>
</linearGradient>
<linearGradient id="paint18_linear_522_640" x1="226.262" y1="141.038" x2="189.759" y2="19.986" gradientUnits="userSpaceOnUse">
<stop stop-color="#408000"/>
<stop offset="0.34" stop-color="#356B00"/>
<stop offset="0.71" stop-color="#2D5A00"/>
<stop offset="1" stop-color="#2B5500"/>
</linearGradient>
<linearGradient id="paint19_linear_522_640" x1="225.455" y1="141.278" x2="188.941" y2="20.1897" gradientUnits="userSpaceOnUse">
<stop stop-color="#55AA00"/>
<stop offset="0.06" stop-color="#52A500"/>
<stop offset="0.42" stop-color="#458A00"/>
<stop offset="0.75" stop-color="#3C7900"/>
<stop offset="1" stop-color="#3A7400"/>
</linearGradient>
<linearGradient id="paint20_linear_522_640" x1="236.396" y1="128.993" x2="199.965" y2="8.17694" gradientUnits="userSpaceOnUse">
<stop stop-color="#408000"/>
<stop offset="0.34" stop-color="#356B00"/>
<stop offset="0.71" stop-color="#2D5A00"/>
<stop offset="1" stop-color="#2B5500"/>
</linearGradient>
<linearGradient id="paint21_linear_522_640" x1="235.478" y1="129.269" x2="199.036" y2="8.42049" gradientUnits="userSpaceOnUse">
<stop stop-color="#55AA00"/>
<stop offset="0.06" stop-color="#52A500"/>
<stop offset="0.42" stop-color="#458A00"/>
<stop offset="0.75" stop-color="#3C7900"/>
<stop offset="1" stop-color="#3A7400"/>
</linearGradient>
<linearGradient id="paint22_linear_522_640" x1="248.845" y1="130.059" x2="208.6" y2="-3.40007" gradientUnits="userSpaceOnUse">
<stop stop-color="#408000"/>
<stop offset="0.34" stop-color="#356B00"/>
<stop offset="0.71" stop-color="#2D5A00"/>
<stop offset="1" stop-color="#2B5500"/>
</linearGradient>
<linearGradient id="paint23_linear_522_640" x1="248.061" y1="130.292" x2="207.811" y2="-3.18846" gradientUnits="userSpaceOnUse">
<stop stop-color="#55AA00"/>
<stop offset="0.06" stop-color="#52A500"/>
<stop offset="0.42" stop-color="#458A00"/>
<stop offset="0.75" stop-color="#3C7900"/>
<stop offset="1" stop-color="#3A7400"/>
</linearGradient>
<linearGradient id="paint24_linear_522_640" x1="260.361" y1="110.713" x2="221.698" y2="-17.503" gradientUnits="userSpaceOnUse">
<stop stop-color="#408000"/>
<stop offset="0.34" stop-color="#356B00"/>
<stop offset="0.71" stop-color="#2D5A00"/>
<stop offset="1" stop-color="#2B5500"/>
</linearGradient>
<linearGradient id="paint25_linear_522_640" x1="259.385" y1="111.008" x2="220.716" y2="-17.227" gradientUnits="userSpaceOnUse">
<stop stop-color="#55AA00"/>
<stop offset="0.06" stop-color="#52A500"/>
<stop offset="0.42" stop-color="#458A00"/>
<stop offset="0.75" stop-color="#3C7900"/>
<stop offset="1" stop-color="#3A7400"/>
</linearGradient>
<linearGradient id="paint26_linear_522_640" x1="271.906" y1="113.19" x2="229.182" y2="-28.4914" gradientUnits="userSpaceOnUse">
<stop stop-color="#408000"/>
<stop offset="0.34" stop-color="#356B00"/>
<stop offset="0.71" stop-color="#2D5A00"/>
<stop offset="1" stop-color="#2B5500"/>
</linearGradient>
<linearGradient id="paint27_linear_522_640" x1="270.683" y1="113.559" x2="227.955" y2="-28.1348" gradientUnits="userSpaceOnUse">
<stop stop-color="#55AA00"/>
<stop offset="0.06" stop-color="#52A500"/>
<stop offset="0.42" stop-color="#458A00"/>
<stop offset="0.75" stop-color="#3C7900"/>
<stop offset="1" stop-color="#3A7400"/>
</linearGradient>
<linearGradient id="paint28_linear_522_640" x1="281.736" y1="105.23" x2="238.631" y2="-37.7154" gradientUnits="userSpaceOnUse">
<stop stop-color="#408000"/>
<stop offset="0.34" stop-color="#356B00"/>
<stop offset="0.71" stop-color="#2D5A00"/>
<stop offset="1" stop-color="#2B5500"/>
</linearGradient>
<linearGradient id="paint29_linear_522_640" x1="280.549" y1="105.588" x2="237.437" y2="-37.3787" gradientUnits="userSpaceOnUse">
<stop stop-color="#55AA00"/>
<stop offset="0.06" stop-color="#52A500"/>
<stop offset="0.42" stop-color="#458A00"/>
<stop offset="0.75" stop-color="#3C7900"/>
<stop offset="1" stop-color="#3A7400"/>
</linearGradient>
<linearGradient id="paint30_linear_522_640" x1="289.747" y1="99.2371" x2="245.413" y2="-47.7844" gradientUnits="userSpaceOnUse">
<stop stop-color="#408000"/>
<stop offset="0.34" stop-color="#356B00"/>
<stop offset="0.71" stop-color="#2D5A00"/>
<stop offset="1" stop-color="#2B5500"/>
</linearGradient>
<linearGradient id="paint31_linear_522_640" x1="288.78" y1="99.5285" x2="244.439" y2="-47.5172" gradientUnits="userSpaceOnUse">
<stop stop-color="#55AA00"/>
<stop offset="0.06" stop-color="#52A500"/>
<stop offset="0.42" stop-color="#458A00"/>
<stop offset="0.75" stop-color="#3C7900"/>
<stop offset="1" stop-color="#3A7400"/>
</linearGradient>
<linearGradient id="paint32_linear_522_640" x1="301.49" y1="85.6948" x2="257.57" y2="-59.9538" gradientUnits="userSpaceOnUse">
<stop stop-color="#408000"/>
<stop offset="0.34" stop-color="#356B00"/>
<stop offset="0.71" stop-color="#2D5A00"/>
<stop offset="1" stop-color="#2B5500"/>
</linearGradient>
<linearGradient id="paint33_linear_522_640" x1="299.91" y1="86.1713" x2="255.986" y2="-59.4894" gradientUnits="userSpaceOnUse">
<stop stop-color="#55AA00"/>
<stop offset="0.06" stop-color="#52A500"/>
<stop offset="0.42" stop-color="#458A00"/>
<stop offset="0.75" stop-color="#3C7900"/>
<stop offset="1" stop-color="#3A7400"/>
</linearGradient>
<linearGradient id="paint34_linear_522_640" x1="313.449" y1="76.1868" x2="269.372" y2="-69.9831" gradientUnits="userSpaceOnUse">
<stop stop-color="#408000"/>
<stop offset="0.34" stop-color="#356B00"/>
<stop offset="0.71" stop-color="#2D5A00"/>
<stop offset="1" stop-color="#2B5500"/>
</linearGradient>
<linearGradient id="paint35_linear_522_640" x1="311.432" y1="76.7982" x2="267.352" y2="-69.3837" gradientUnits="userSpaceOnUse">
<stop stop-color="#55AA00"/>
<stop offset="0.06" stop-color="#52A500"/>
<stop offset="0.42" stop-color="#458A00"/>
<stop offset="0.75" stop-color="#3C7900"/>
<stop offset="1" stop-color="#3A7400"/>
</linearGradient>
<linearGradient id="paint36_linear_522_640" x1="320.417" y1="70.2638" x2="275.596" y2="-78.3729" gradientUnits="userSpaceOnUse">
<stop stop-color="#408000"/>
<stop offset="0.34" stop-color="#356B00"/>
<stop offset="0.71" stop-color="#2D5A00"/>
<stop offset="1" stop-color="#2B5500"/>
</linearGradient>
<linearGradient id="paint37_linear_522_640" x1="318.499" y1="70.8422" x2="273.674" y2="-77.8067" gradientUnits="userSpaceOnUse">
<stop stop-color="#55AA00"/>
<stop offset="0.06" stop-color="#52A500"/>
<stop offset="0.42" stop-color="#458A00"/>
<stop offset="0.75" stop-color="#3C7900"/>
<stop offset="1" stop-color="#3A7400"/>
</linearGradient>
<linearGradient id="paint38_linear_522_640" x1="327.741" y1="62.3453" x2="282.541" y2="-87.5462" gradientUnits="userSpaceOnUse">
<stop stop-color="#408000"/>
<stop offset="0.34" stop-color="#356B00"/>
<stop offset="0.71" stop-color="#2D5A00"/>
<stop offset="1" stop-color="#2B5500"/>
</linearGradient>
<linearGradient id="paint39_linear_522_640" x1="325.968" y1="62.8799" x2="280.759" y2="-87.0418" gradientUnits="userSpaceOnUse">
<stop stop-color="#55AA00"/>
<stop offset="0.06" stop-color="#52A500"/>
<stop offset="0.42" stop-color="#458A00"/>
<stop offset="0.75" stop-color="#3C7900"/>
<stop offset="1" stop-color="#3A7400"/>
</linearGradient>
<linearGradient id="paint40_linear_522_640" x1="340.357" y1="60.3462" x2="292.309" y2="-98.9886" gradientUnits="userSpaceOnUse">
<stop stop-color="#408000"/>
<stop offset="0.34" stop-color="#356B00"/>
<stop offset="0.71" stop-color="#2D5A00"/>
<stop offset="1" stop-color="#2B5500"/>
</linearGradient>
<linearGradient id="paint41_linear_522_640" x1="338.752" y1="60.83" x2="290.697" y2="-98.5321" gradientUnits="userSpaceOnUse">
<stop stop-color="#55AA00"/>
<stop offset="0.06" stop-color="#52A500"/>
<stop offset="0.42" stop-color="#458A00"/>
<stop offset="0.75" stop-color="#3C7900"/>
<stop offset="1" stop-color="#3A7400"/>
</linearGradient>
<linearGradient id="paint42_linear_522_640" x1="396.834" y1="9.44392" x2="347.642" y2="-153.688" gradientUnits="userSpaceOnUse">
<stop stop-color="#408000"/>
<stop offset="0.34" stop-color="#356B00"/>
<stop offset="0.71" stop-color="#2D5A00"/>
<stop offset="1" stop-color="#2B5500"/>
</linearGradient>
<linearGradient id="paint43_linear_522_640" x1="395.181" y1="9.94212" x2="345.985" y2="-153.202" gradientUnits="userSpaceOnUse">
<stop stop-color="#55AA00"/>
<stop offset="0.06" stop-color="#52A500"/>
<stop offset="0.42" stop-color="#458A00"/>
<stop offset="0.75" stop-color="#3C7900"/>
<stop offset="1" stop-color="#3A7400"/>
</linearGradient>
<linearGradient id="paint44_linear_522_640" x1="385.677" y1="18.3362" x2="336.983" y2="-143.144" gradientUnits="userSpaceOnUse">
<stop stop-color="#408000"/>
<stop offset="0.34" stop-color="#356B00"/>
<stop offset="0.71" stop-color="#2D5A00"/>
<stop offset="1" stop-color="#2B5500"/>
</linearGradient>
<linearGradient id="paint45_linear_522_640" x1="383.882" y1="18.8774" x2="335.182" y2="-142.621" gradientUnits="userSpaceOnUse">
<stop stop-color="#55AA00"/>
<stop offset="0.06" stop-color="#52A500"/>
<stop offset="0.42" stop-color="#458A00"/>
<stop offset="0.75" stop-color="#3C7900"/>
<stop offset="1" stop-color="#3A7400"/>
</linearGradient>
<linearGradient id="paint46_linear_522_640" x1="374.483" y1="31.4613" x2="324.987" y2="-132.68" gradientUnits="userSpaceOnUse">
<stop stop-color="#408000"/>
<stop offset="0.34" stop-color="#356B00"/>
<stop offset="0.71" stop-color="#2D5A00"/>
<stop offset="1" stop-color="#2B5500"/>
</linearGradient>
<linearGradient id="paint47_linear_522_640" x1="372.831" y1="31.9596" x2="323.328" y2="-132.203" gradientUnits="userSpaceOnUse">
<stop stop-color="#55AA00"/>
<stop offset="0.06" stop-color="#52A500"/>
<stop offset="0.42" stop-color="#458A00"/>
<stop offset="0.75" stop-color="#3C7900"/>
<stop offset="1" stop-color="#3A7400"/>
</linearGradient>
<linearGradient id="paint48_linear_522_640" x1="361.604" y1="40.4765" x2="312.841" y2="-121.231" gradientUnits="userSpaceOnUse">
<stop stop-color="#408000"/>
<stop offset="0.34" stop-color="#356B00"/>
<stop offset="0.71" stop-color="#2D5A00"/>
<stop offset="1" stop-color="#2B5500"/>
</linearGradient>
<linearGradient id="paint49_linear_522_640" x1="360.112" y1="40.9264" x2="311.342" y2="-120.803" gradientUnits="userSpaceOnUse">
<stop stop-color="#55AA00"/>
<stop offset="0.06" stop-color="#52A500"/>
<stop offset="0.42" stop-color="#458A00"/>
<stop offset="0.75" stop-color="#3C7900"/>
<stop offset="1" stop-color="#3A7400"/>
</linearGradient>
<linearGradient id="paint50_linear_522_640" x1="109.6" y1="169.92" x2="104.401" y2="152.678" gradientUnits="userSpaceOnUse">
<stop stop-color="#55AA00"/>
<stop offset="0.06" stop-color="#52A500"/>
<stop offset="0.42" stop-color="#458A00"/>
<stop offset="0.75" stop-color="#3C7900"/>
<stop offset="1" stop-color="#3A7400"/>
</linearGradient>
<linearGradient id="paint51_linear_522_640" x1="109.217" y1="169.427" x2="103.723" y2="151.206" gradientUnits="userSpaceOnUse">
<stop stop-color="#92DE46"/>
<stop offset="0.16" stop-color="#A2E262"/>
<stop offset="0.41" stop-color="#B8E987"/>
<stop offset="0.64" stop-color="#C8EEA2"/>
<stop offset="0.84" stop-color="#D2F0B3"/>
<stop offset="1" stop-color="#D6F2B9"/>
</linearGradient>
<linearGradient id="paint52_linear_522_640" x1="118.36" y1="150.671" x2="113.706" y2="135.236" gradientUnits="userSpaceOnUse">
<stop stop-color="#55AA00"/>
<stop offset="0.06" stop-color="#52A500"/>
<stop offset="0.42" stop-color="#458A00"/>
<stop offset="0.75" stop-color="#3C7900"/>
<stop offset="1" stop-color="#3A7400"/>
</linearGradient>
<linearGradient id="paint53_linear_522_640" x1="117.996" y1="150.043" x2="112.993" y2="133.451" gradientUnits="userSpaceOnUse">
<stop stop-color="#92DE46"/>
<stop offset="0.16" stop-color="#A2E262"/>
<stop offset="0.41" stop-color="#B8E987"/>
<stop offset="0.64" stop-color="#C8EEA2"/>
<stop offset="0.84" stop-color="#D2F0B3"/>
<stop offset="1" stop-color="#D6F2B9"/>
</linearGradient>
<linearGradient id="paint54_linear_522_640" x1="126.42" y1="138.586" x2="120.974" y2="120.527" gradientUnits="userSpaceOnUse">
<stop stop-color="#55AA00"/>
<stop offset="0.06" stop-color="#52A500"/>
<stop offset="0.42" stop-color="#458A00"/>
<stop offset="0.75" stop-color="#3C7900"/>
<stop offset="1" stop-color="#3A7400"/>
</linearGradient>
<linearGradient id="paint55_linear_522_640" x1="126.111" y1="138.141" x2="120.344" y2="119.014" gradientUnits="userSpaceOnUse">
<stop stop-color="#92DE46"/>
<stop offset="0.16" stop-color="#A2E262"/>
<stop offset="0.41" stop-color="#B8E987"/>
<stop offset="0.64" stop-color="#C8EEA2"/>
<stop offset="0.84" stop-color="#D2F0B3"/>
<stop offset="1" stop-color="#D6F2B9"/>
</linearGradient>
<linearGradient id="paint56_linear_522_640" x1="137.016" y1="124.2" x2="130.813" y2="103.631" gradientUnits="userSpaceOnUse">
<stop stop-color="#55AA00"/>
<stop offset="0.06" stop-color="#52A500"/>
<stop offset="0.42" stop-color="#458A00"/>
<stop offset="0.75" stop-color="#3C7900"/>
<stop offset="1" stop-color="#3A7400"/>
</linearGradient>
<linearGradient id="paint57_linear_522_640" x1="136.746" y1="123.931" x2="130.205" y2="102.237" gradientUnits="userSpaceOnUse">
<stop stop-color="#92DE46"/>
<stop offset="0.16" stop-color="#A2E262"/>
<stop offset="0.41" stop-color="#B8E987"/>
<stop offset="0.64" stop-color="#C8EEA2"/>
<stop offset="0.84" stop-color="#D2F0B3"/>
<stop offset="1" stop-color="#D6F2B9"/>
</linearGradient>
<linearGradient id="paint58_linear_522_640" x1="148.336" y1="107.016" x2="142.024" y2="86.0863" gradientUnits="userSpaceOnUse">
<stop stop-color="#55AA00"/>
<stop offset="0.06" stop-color="#52A500"/>
<stop offset="0.42" stop-color="#458A00"/>
<stop offset="0.75" stop-color="#3C7900"/>
<stop offset="1" stop-color="#3A7400"/>
</linearGradient>
<linearGradient id="paint59_linear_522_640" x1="148.097" y1="106.87" x2="141.314" y2="84.3763" gradientUnits="userSpaceOnUse">
<stop stop-color="#92DE46"/>
<stop offset="0.16" stop-color="#A2E262"/>
<stop offset="0.41" stop-color="#B8E987"/>
<stop offset="0.64" stop-color="#C8EEA2"/>
<stop offset="0.84" stop-color="#D2F0B3"/>
<stop offset="1" stop-color="#D6F2B9"/>
</linearGradient>
<linearGradient id="paint60_linear_522_640" x1="160.725" y1="84.9803" x2="155.23" y2="66.7572" gradientUnits="userSpaceOnUse">
<stop stop-color="#55AA00"/>
<stop offset="0.06" stop-color="#52A500"/>
<stop offset="0.42" stop-color="#458A00"/>
<stop offset="0.75" stop-color="#3C7900"/>
<stop offset="1" stop-color="#3A7400"/>
</linearGradient>
<linearGradient id="paint61_linear_522_640" x1="160.444" y1="84.5524" x2="154.573" y2="65.0807" gradientUnits="userSpaceOnUse">
<stop stop-color="#92DE46"/>
<stop offset="0.16" stop-color="#A2E262"/>
<stop offset="0.41" stop-color="#B8E987"/>
<stop offset="0.64" stop-color="#C8EEA2"/>
<stop offset="0.84" stop-color="#D2F0B3"/>
<stop offset="1" stop-color="#D6F2B9"/>
</linearGradient>
<linearGradient id="paint62_linear_522_640" x1="174.014" y1="64.9937" x2="169.347" y2="49.5163" gradientUnits="userSpaceOnUse">
<stop stop-color="#55AA00"/>
<stop offset="0.06" stop-color="#52A500"/>
<stop offset="0.42" stop-color="#458A00"/>
<stop offset="0.75" stop-color="#3C7900"/>
<stop offset="1" stop-color="#3A7400"/>
</linearGradient>
<linearGradient id="paint63_linear_522_640" x1="173.685" y1="64.4483" x2="168.599" y2="47.5798" gradientUnits="userSpaceOnUse">
<stop stop-color="#92DE46"/>
<stop offset="0.16" stop-color="#A2E262"/>
<stop offset="0.41" stop-color="#B8E987"/>
<stop offset="0.64" stop-color="#C8EEA2"/>
<stop offset="0.84" stop-color="#D2F0B3"/>
<stop offset="1" stop-color="#D6F2B9"/>
</linearGradient>
<linearGradient id="paint64_linear_522_640" x1="186.192" y1="50.9038" x2="181.076" y2="33.9384" gradientUnits="userSpaceOnUse">
<stop stop-color="#55AA00"/>
<stop offset="0.06" stop-color="#52A500"/>
<stop offset="0.42" stop-color="#458A00"/>
<stop offset="0.75" stop-color="#3C7900"/>
<stop offset="1" stop-color="#3A7400"/>
</linearGradient>
<linearGradient id="paint65_linear_522_640" x1="185.693" y1="50.2872" x2="180.405" y2="32.7521" gradientUnits="userSpaceOnUse">
<stop stop-color="#92DE46"/>
<stop offset="0.16" stop-color="#A2E262"/>
<stop offset="0.41" stop-color="#B8E987"/>
<stop offset="0.64" stop-color="#C8EEA2"/>
<stop offset="0.84" stop-color="#D2F0B3"/>
<stop offset="1" stop-color="#D6F2B9"/>
</linearGradient>
<linearGradient id="paint66_linear_522_640" x1="196.402" y1="36.65" x2="191.242" y2="19.5391" gradientUnits="userSpaceOnUse">
<stop stop-color="#51A200"/>
<stop offset="1" stop-color="#69D100"/>
</linearGradient>
<linearGradient id="paint67_linear_522_640" x1="195.845" y1="36.0708" x2="190.558" y2="18.5387" gradientUnits="userSpaceOnUse">
<stop stop-color="#92DE46"/>
<stop offset="0.16" stop-color="#A2E262"/>
<stop offset="0.41" stop-color="#B8E987"/>
<stop offset="0.64" stop-color="#C8EEA2"/>
<stop offset="0.84" stop-color="#D2F0B3"/>
<stop offset="1" stop-color="#D6F2B9"/>
</linearGradient>
<linearGradient id="paint68_linear_522_640" x1="206.373" y1="22.5974" x2="201.853" y2="7.60791" gradientUnits="userSpaceOnUse">
<stop stop-color="#51A200"/>
<stop offset="1" stop-color="#69D100"/>
</linearGradient>
<linearGradient id="paint69_linear_522_640" x1="205.764" y1="21.9245" x2="201.07" y2="6.35625" gradientUnits="userSpaceOnUse">
<stop stop-color="#92DE46"/>
<stop offset="0.16" stop-color="#A2E262"/>
<stop offset="0.41" stop-color="#B8E987"/>
<stop offset="0.64" stop-color="#C8EEA2"/>
<stop offset="0.84" stop-color="#D2F0B3"/>
<stop offset="1" stop-color="#D6F2B9"/>
</linearGradient>
<linearGradient id="paint70_linear_522_640" x1="218.536" y1="11.2161" x2="213.342" y2="-6.00688" gradientUnits="userSpaceOnUse">
<stop stop-color="#51A200"/>
<stop offset="1" stop-color="#69D100"/>
</linearGradient>
<linearGradient id="paint71_linear_522_640" x1="218.107" y1="10.7669" x2="212.632" y2="-7.38958" gradientUnits="userSpaceOnUse">
<stop stop-color="#92DE46"/>
<stop offset="0.16" stop-color="#A2E262"/>
<stop offset="0.41" stop-color="#B8E987"/>
<stop offset="0.64" stop-color="#C8EEA2"/>
<stop offset="0.84" stop-color="#D2F0B3"/>
<stop offset="1" stop-color="#D6F2B9"/>
</linearGradient>
<linearGradient id="paint72_linear_522_640" x1="226.71" y1="10.9498" x2="218.427" y2="-16.5167" gradientUnits="userSpaceOnUse">
<stop stop-color="#51A200"/>
<stop offset="1" stop-color="#69D100"/>
</linearGradient>
<linearGradient id="paint73_linear_522_640" x1="226.236" y1="10.8315" x2="217.82" y2="-17.0774" gradientUnits="userSpaceOnUse">
<stop stop-color="#92DE46"/>
<stop offset="0.16" stop-color="#A2E262"/>
<stop offset="0.41" stop-color="#B8E987"/>
<stop offset="0.64" stop-color="#C8EEA2"/>
<stop offset="0.84" stop-color="#D2F0B3"/>
<stop offset="1" stop-color="#D6F2B9"/>
</linearGradient>
<linearGradient id="paint74_linear_522_640" x1="234.867" y1="-3.30307" x2="227.768" y2="-26.8449" gradientUnits="userSpaceOnUse">
<stop stop-color="#51A200"/>
<stop offset="1" stop-color="#69D100"/>
</linearGradient>
<linearGradient id="paint75_linear_522_640" x1="234.377" y1="-3.48598" x2="227.11" y2="-27.5855" gradientUnits="userSpaceOnUse">
<stop stop-color="#92DE46"/>
<stop offset="0.16" stop-color="#A2E262"/>
<stop offset="0.41" stop-color="#B8E987"/>
<stop offset="0.64" stop-color="#C8EEA2"/>
<stop offset="0.84" stop-color="#D2F0B3"/>
<stop offset="1" stop-color="#D6F2B9"/>
</linearGradient>
<linearGradient id="paint76_linear_522_640" x1="244.618" y1="-1.07577" x2="233.992" y2="-36.3158" gradientUnits="userSpaceOnUse">
<stop stop-color="#51A200"/>
<stop offset="1" stop-color="#69D100"/>
</linearGradient>
<linearGradient id="paint77_linear_522_640" x1="244.153" y1="-1.10773" x2="233.417" y2="-36.7114" gradientUnits="userSpaceOnUse">
<stop stop-color="#92DE46"/>
<stop offset="0.16" stop-color="#A2E262"/>
<stop offset="0.41" stop-color="#B8E987"/>
<stop offset="0.64" stop-color="#C8EEA2"/>
<stop offset="0.84" stop-color="#D2F0B3"/>
<stop offset="1" stop-color="#D6F2B9"/>
</linearGradient>
<linearGradient id="paint78_linear_522_640" x1="267.801" y1="190.234" x2="235.19" y2="165.329" gradientUnits="userSpaceOnUse">
<stop stop-color="#77D517"/>
<stop offset="0.02" stop-color="#79D51B"/>
<stop offset="0.25" stop-color="#95DE4A"/>
<stop offset="0.48" stop-color="#ABE570"/>
<stop offset="0.68" stop-color="#BBEA8B"/>
<stop offset="0.86" stop-color="#C4EC9C"/>
<stop offset="1" stop-color="#C8EEA2"/>
</linearGradient>
<linearGradient id="paint79_linear_522_640" x1="270.015" y1="190.742" x2="235.996" y2="163.286" gradientUnits="userSpaceOnUse">
<stop stop-color="#51A200"/>
<stop offset="1" stop-color="#69D100"/>
</linearGradient>
<linearGradient id="paint80_linear_522_640" x1="270.616" y1="175.644" x2="235.506" y2="149.32" gradientUnits="userSpaceOnUse">
<stop stop-color="#77D517"/>
<stop offset="0.02" stop-color="#79D51B"/>
<stop offset="0.25" stop-color="#95DE4A"/>
<stop offset="0.48" stop-color="#ABE570"/>
<stop offset="0.68" stop-color="#BBEA8B"/>
<stop offset="0.86" stop-color="#C4EC9C"/>
<stop offset="1" stop-color="#C8EEA2"/>
</linearGradient>
<linearGradient id="paint81_linear_522_640" x1="272.075" y1="176.201" x2="235.764" y2="148.311" gradientUnits="userSpaceOnUse">
<stop stop-color="#51A200"/>
<stop offset="1" stop-color="#69D100"/>
</linearGradient>
<linearGradient id="paint82_linear_522_640" x1="275.517" y1="163.064" x2="237.688" y2="134.822" gradientUnits="userSpaceOnUse">
<stop stop-color="#77D517"/>
<stop offset="0.02" stop-color="#79D51B"/>
<stop offset="0.25" stop-color="#95DE4A"/>
<stop offset="0.48" stop-color="#ABE570"/>
<stop offset="0.68" stop-color="#BBEA8B"/>
<stop offset="0.86" stop-color="#C4EC9C"/>
<stop offset="1" stop-color="#C8EEA2"/>
</linearGradient>
<linearGradient id="paint83_linear_522_640" x1="276.235" y1="163.2" x2="237.846" y2="134.376" gradientUnits="userSpaceOnUse">
<stop stop-color="#51A200"/>
<stop offset="1" stop-color="#69D100"/>
</linearGradient>
<linearGradient id="paint84_linear_522_640" x1="281.463" y1="148.279" x2="243.172" y2="119.66" gradientUnits="userSpaceOnUse">
<stop stop-color="#77D517"/>
<stop offset="0.02" stop-color="#79D51B"/>
<stop offset="0.25" stop-color="#95DE4A"/>
<stop offset="0.48" stop-color="#ABE570"/>
<stop offset="0.68" stop-color="#BBEA8B"/>
<stop offset="0.86" stop-color="#C4EC9C"/>
<stop offset="1" stop-color="#C8EEA2"/>
</linearGradient>
<linearGradient id="paint85_linear_522_640" x1="281.903" y1="148.945" x2="242.956" y2="119.975" gradientUnits="userSpaceOnUse">
<stop stop-color="#51A200"/>
<stop offset="1" stop-color="#69D100"/>
</linearGradient>
<linearGradient id="paint86_linear_522_640" x1="285.684" y1="134.487" x2="246.836" y2="105.361" gradientUnits="userSpaceOnUse">
<stop stop-color="#77D517"/>
<stop offset="0.02" stop-color="#79D51B"/>
<stop offset="0.25" stop-color="#95DE4A"/>
<stop offset="0.48" stop-color="#ABE570"/>
<stop offset="0.68" stop-color="#BBEA8B"/>
<stop offset="0.86" stop-color="#C4EC9C"/>
<stop offset="1" stop-color="#C8EEA2"/>
</linearGradient>
<linearGradient id="paint87_linear_522_640" x1="286.084" y1="135.003" x2="246.679" y2="105.622" gradientUnits="userSpaceOnUse">
<stop stop-color="#51A200"/>
<stop offset="1" stop-color="#69D100"/>
</linearGradient>
<linearGradient id="paint88_linear_522_640" x1="289.037" y1="119.092" x2="251.171" y2="90.5039" gradientUnits="userSpaceOnUse">
<stop stop-color="#77D517"/>
<stop offset="0.02" stop-color="#79D51B"/>
<stop offset="0.25" stop-color="#95DE4A"/>
<stop offset="0.48" stop-color="#ABE570"/>
<stop offset="0.68" stop-color="#BBEA8B"/>
<stop offset="0.86" stop-color="#C4EC9C"/>
<stop offset="1" stop-color="#C8EEA2"/>
</linearGradient>
<linearGradient id="paint89_linear_522_640" x1="289.47" y1="119.849" x2="250.891" y2="90.9952" gradientUnits="userSpaceOnUse">
<stop stop-color="#51A200"/>
<stop offset="1" stop-color="#69D100"/>
</linearGradient>
<linearGradient id="paint90_linear_522_640" x1="297.317" y1="107.696" x2="257.921" y2="77.0386" gradientUnits="userSpaceOnUse">
<stop stop-color="#77D517"/>
<stop offset="0.02" stop-color="#79D51B"/>
<stop offset="0.25" stop-color="#95DE4A"/>
<stop offset="0.48" stop-color="#ABE570"/>
<stop offset="0.68" stop-color="#BBEA8B"/>
<stop offset="0.86" stop-color="#C4EC9C"/>
<stop offset="1" stop-color="#C8EEA2"/>
</linearGradient>
<linearGradient id="paint91_linear_522_640" x1="298.156" y1="107.846" x2="258.065" y2="77.0962" gradientUnits="userSpaceOnUse">
<stop stop-color="#51A200"/>
<stop offset="1" stop-color="#69D100"/>
</linearGradient>
<linearGradient id="paint92_linear_522_640" x1="306.017" y1="97.1694" x2="263.864" y2="63.9716" gradientUnits="userSpaceOnUse">
<stop stop-color="#77D517"/>
<stop offset="0.02" stop-color="#79D51B"/>
<stop offset="0.25" stop-color="#95DE4A"/>
<stop offset="0.48" stop-color="#ABE570"/>
<stop offset="0.68" stop-color="#BBEA8B"/>
<stop offset="0.86" stop-color="#C4EC9C"/>
<stop offset="1" stop-color="#C8EEA2"/>
</linearGradient>
<linearGradient id="paint93_linear_522_640" x1="306.767" y1="97.3368" x2="263.971" y2="64.0913" gradientUnits="userSpaceOnUse">
<stop stop-color="#51A200"/>
<stop offset="1" stop-color="#69D100"/>
</linearGradient>
<linearGradient id="paint94_linear_522_640" x1="311.906" y1="87.6606" x2="268.224" y2="53.0785" gradientUnits="userSpaceOnUse">
<stop stop-color="#77D517"/>
<stop offset="0.02" stop-color="#79D51B"/>
<stop offset="0.25" stop-color="#95DE4A"/>
<stop offset="0.48" stop-color="#ABE570"/>
<stop offset="0.68" stop-color="#BBEA8B"/>
<stop offset="0.86" stop-color="#C4EC9C"/>
<stop offset="1" stop-color="#C8EEA2"/>
</linearGradient>
<linearGradient id="paint95_linear_522_640" x1="312.924" y1="87.5575" x2="268.562" y2="52.9416" gradientUnits="userSpaceOnUse">
<stop stop-color="#51A200"/>
<stop offset="1" stop-color="#69D100"/>
</linearGradient>
<linearGradient id="paint96_linear_522_640" x1="316.26" y1="76.1313" x2="273.73" y2="41.9081" gradientUnits="userSpaceOnUse">
<stop stop-color="#77D517"/>
<stop offset="0.02" stop-color="#79D51B"/>
<stop offset="0.25" stop-color="#95DE4A"/>
<stop offset="0.48" stop-color="#ABE570"/>
<stop offset="0.68" stop-color="#BBEA8B"/>
<stop offset="0.86" stop-color="#C4EC9C"/>
<stop offset="1" stop-color="#C8EEA2"/>
</linearGradient>
<linearGradient id="paint97_linear_522_640" x1="317.284" y1="75.8531" x2="274.137" y2="41.6065" gradientUnits="userSpaceOnUse">
<stop stop-color="#51A200"/>
<stop offset="1" stop-color="#69D100"/>
</linearGradient>
<linearGradient id="paint98_linear_522_640" x1="321.903" y1="68.1072" x2="277.795" y2="32.6682" gradientUnits="userSpaceOnUse">
<stop stop-color="#77D517"/>
<stop offset="0.02" stop-color="#79D51B"/>
<stop offset="0.25" stop-color="#95DE4A"/>
<stop offset="0.48" stop-color="#ABE570"/>
<stop offset="0.68" stop-color="#BBEA8B"/>
<stop offset="0.86" stop-color="#C4EC9C"/>
<stop offset="1" stop-color="#C8EEA2"/>
</linearGradient>
<linearGradient id="paint99_linear_522_640" x1="322.889" y1="67.9138" x2="278.15" y2="32.4565" gradientUnits="userSpaceOnUse">
<stop stop-color="#51A200"/>
<stop offset="1" stop-color="#69D100"/>
</linearGradient>
<linearGradient id="paint100_linear_522_640" x1="328.838" y1="61.1648" x2="282.586" y2="23.5839" gradientUnits="userSpaceOnUse">
<stop stop-color="#77D517"/>
<stop offset="0.02" stop-color="#79D51B"/>
<stop offset="0.25" stop-color="#95DE4A"/>
<stop offset="0.48" stop-color="#ABE570"/>
<stop offset="0.68" stop-color="#BBEA8B"/>
<stop offset="0.86" stop-color="#C4EC9C"/>
<stop offset="1" stop-color="#C8EEA2"/>
</linearGradient>
<linearGradient id="paint101_linear_522_640" x1="329.951" y1="60.843" x2="283.039" y2="23.2469" gradientUnits="userSpaceOnUse">
<stop stop-color="#51A200"/>
<stop offset="1" stop-color="#69D100"/>
</linearGradient>
<linearGradient id="paint102_linear_522_640" x1="334.892" y1="50.0102" x2="289.456" y2="12.2296" gradientUnits="userSpaceOnUse">
<stop stop-color="#77D517"/>
<stop offset="0.02" stop-color="#79D51B"/>
<stop offset="0.25" stop-color="#95DE4A"/>
<stop offset="0.48" stop-color="#ABE570"/>
<stop offset="0.68" stop-color="#BBEA8B"/>
<stop offset="0.86" stop-color="#C4EC9C"/>
<stop offset="1" stop-color="#C8EEA2"/>
</linearGradient>
<linearGradient id="paint103_linear_522_640" x1="336.024" y1="49.5653" x2="290" y2="11.8002" gradientUnits="userSpaceOnUse">
<stop stop-color="#51A200"/>
<stop offset="1" stop-color="#69D100"/>
</linearGradient>
<linearGradient id="paint104_linear_522_640" x1="337.516" y1="41.9998" x2="292.168" y2="4.55347" gradientUnits="userSpaceOnUse">
<stop stop-color="#77D517"/>
<stop offset="0.02" stop-color="#79D51B"/>
<stop offset="0.25" stop-color="#95DE4A"/>
<stop offset="0.48" stop-color="#ABE570"/>
<stop offset="0.68" stop-color="#BBEA8B"/>
<stop offset="0.86" stop-color="#C4EC9C"/>
<stop offset="1" stop-color="#C8EEA2"/>
</linearGradient>
<linearGradient id="paint105_linear_522_640" x1="338.656" y1="41.5694" x2="292.695" y2="4.12545" gradientUnits="userSpaceOnUse">
<stop stop-color="#51A200"/>
<stop offset="1" stop-color="#69D100"/>
</linearGradient>
<linearGradient id="paint106_linear_522_640" x1="343.454" y1="34.2169" x2="297.208" y2="-4.28381" gradientUnits="userSpaceOnUse">
<stop stop-color="#77D517"/>
<stop offset="0.02" stop-color="#79D51B"/>
<stop offset="0.25" stop-color="#95DE4A"/>
<stop offset="0.48" stop-color="#ABE570"/>
<stop offset="0.68" stop-color="#BBEA8B"/>
<stop offset="0.86" stop-color="#C4EC9C"/>
<stop offset="1" stop-color="#C8EEA2"/>
</linearGradient>
<linearGradient id="paint107_linear_522_640" x1="344.586" y1="33.7683" x2="297.756" y2="-4.71357" gradientUnits="userSpaceOnUse">
<stop stop-color="#51A200"/>
<stop offset="1" stop-color="#69D100"/>
</linearGradient>
<linearGradient id="paint108_linear_522_640" x1="346.069" y1="25.2246" x2="301.084" y2="-12.5739" gradientUnits="userSpaceOnUse">
<stop stop-color="#77D517"/>
<stop offset="0.02" stop-color="#79D51B"/>
<stop offset="0.25" stop-color="#95DE4A"/>
<stop offset="0.48" stop-color="#ABE570"/>
<stop offset="0.68" stop-color="#BBEA8B"/>
<stop offset="0.86" stop-color="#C4EC9C"/>
<stop offset="1" stop-color="#C8EEA2"/>
</linearGradient>
<linearGradient id="paint109_linear_522_640" x1="347.169" y1="24.7449" x2="301.641" y2="-13.0352" gradientUnits="userSpaceOnUse">
<stop stop-color="#51A200"/>
<stop offset="1" stop-color="#69D100"/>
</linearGradient>
<linearGradient id="paint110_linear_522_640" x1="353.323" y1="15.9486" x2="308.172" y2="-22.6415" gradientUnits="userSpaceOnUse">
<stop stop-color="#77D517"/>
<stop offset="0.02" stop-color="#79D51B"/>
<stop offset="0.25" stop-color="#95DE4A"/>
<stop offset="0.48" stop-color="#ABE570"/>
<stop offset="0.68" stop-color="#BBEA8B"/>
<stop offset="0.86" stop-color="#C4EC9C"/>
<stop offset="1" stop-color="#C8EEA2"/>
</linearGradient>
<linearGradient id="paint111_linear_522_640" x1="354.399" y1="15.4029" x2="308.77" y2="-23.1612" gradientUnits="userSpaceOnUse">
<stop stop-color="#51A200"/>
<stop offset="1" stop-color="#69D100"/>
</linearGradient>
<linearGradient id="paint112_linear_522_640" x1="358.855" y1="11.6018" x2="311.188" y2="-28.8224" gradientUnits="userSpaceOnUse">
<stop stop-color="#77D517"/>
<stop offset="0.02" stop-color="#79D51B"/>
<stop offset="0.25" stop-color="#95DE4A"/>
<stop offset="0.48" stop-color="#ABE570"/>
<stop offset="0.68" stop-color="#BBEA8B"/>
<stop offset="0.86" stop-color="#C4EC9C"/>
<stop offset="1" stop-color="#C8EEA2"/>
</linearGradient>
<linearGradient id="paint113_linear_522_640" x1="360.055" y1="11.0185" x2="311.823" y2="-29.3924" gradientUnits="userSpaceOnUse">
<stop stop-color="#51A200"/>
<stop offset="1" stop-color="#69D100"/>
</linearGradient>
<linearGradient id="paint114_linear_522_640" x1="361.992" y1="4.83657" x2="313.876" y2="-35.5036" gradientUnits="userSpaceOnUse">
<stop stop-color="#77D517"/>
<stop offset="0.02" stop-color="#79D51B"/>
<stop offset="0.25" stop-color="#95DE4A"/>
<stop offset="0.48" stop-color="#ABE570"/>
<stop offset="0.68" stop-color="#BBEA8B"/>
<stop offset="0.86" stop-color="#C4EC9C"/>
<stop offset="1" stop-color="#C8EEA2"/>
</linearGradient>
<linearGradient id="paint115_linear_522_640" x1="363.169" y1="4.25041" x2="314.497" y2="-36.089" gradientUnits="userSpaceOnUse">
<stop stop-color="#51A200"/>
<stop offset="1" stop-color="#69D100"/>
</linearGradient>
<linearGradient id="paint116_linear_522_640" x1="364.5" y1="-5.11654" x2="317.849" y2="-44.3992" gradientUnits="userSpaceOnUse">
<stop stop-color="#77D517"/>
<stop offset="0.02" stop-color="#79D51B"/>
<stop offset="0.25" stop-color="#95DE4A"/>
<stop offset="0.48" stop-color="#ABE570"/>
<stop offset="0.68" stop-color="#BBEA8B"/>
<stop offset="0.86" stop-color="#C4EC9C"/>
<stop offset="1" stop-color="#C8EEA2"/>
</linearGradient>
<linearGradient id="paint117_linear_522_640" x1="365.577" y1="-5.56609" x2="318.396" y2="-44.8169" gradientUnits="userSpaceOnUse">
<stop stop-color="#51A200"/>
<stop offset="1" stop-color="#69D100"/>
</linearGradient>
<linearGradient id="paint118_linear_522_640" x1="373.065" y1="-11.7053" x2="323.731" y2="-53.4394" gradientUnits="userSpaceOnUse">
<stop stop-color="#77D517"/>
<stop offset="0.02" stop-color="#79D51B"/>
<stop offset="0.25" stop-color="#95DE4A"/>
<stop offset="0.48" stop-color="#ABE570"/>
<stop offset="0.68" stop-color="#BBEA8B"/>
<stop offset="0.86" stop-color="#C4EC9C"/>
<stop offset="1" stop-color="#C8EEA2"/>
</linearGradient>
<linearGradient id="paint119_linear_522_640" x1="374.302" y1="-12.2242" x2="324.337" y2="-53.9481" gradientUnits="userSpaceOnUse">
<stop stop-color="#51A200"/>
<stop offset="1" stop-color="#69D100"/>
</linearGradient>
<linearGradient id="paint120_linear_522_640" x1="379.044" y1="-20.3393" x2="328.213" y2="-62.467" gradientUnits="userSpaceOnUse">
<stop stop-color="#77D517"/>
<stop offset="0.02" stop-color="#79D51B"/>
<stop offset="0.25" stop-color="#95DE4A"/>
<stop offset="0.48" stop-color="#ABE570"/>
<stop offset="0.68" stop-color="#BBEA8B"/>
<stop offset="0.86" stop-color="#C4EC9C"/>
<stop offset="1" stop-color="#C8EEA2"/>
</linearGradient>
<linearGradient id="paint121_linear_522_640" x1="380.231" y1="-20.8198" x2="328.77" y2="-62.9513" gradientUnits="userSpaceOnUse">
<stop stop-color="#51A200"/>
<stop offset="1" stop-color="#69D100"/>
</linearGradient>
<linearGradient id="paint122_linear_522_640" x1="381.09" y1="-29.7942" x2="332.784" y2="-70.6518" gradientUnits="userSpaceOnUse">
<stop stop-color="#77D517"/>
<stop offset="0.02" stop-color="#79D51B"/>
<stop offset="0.25" stop-color="#95DE4A"/>
<stop offset="0.48" stop-color="#ABE570"/>
<stop offset="0.68" stop-color="#BBEA8B"/>
<stop offset="0.86" stop-color="#C4EC9C"/>
<stop offset="1" stop-color="#C8EEA2"/>
</linearGradient>
<linearGradient id="paint123_linear_522_640" x1="382.247" y1="-30.2185" x2="333.31" y2="-71.0697" gradientUnits="userSpaceOnUse">
<stop stop-color="#51A200"/>
<stop offset="1" stop-color="#69D100"/>
</linearGradient>
<linearGradient id="paint124_linear_522_640" x1="389.834" y1="-39.6675" x2="339.177" y2="-81.6005" gradientUnits="userSpaceOnUse">
<stop stop-color="#77D517"/>
<stop offset="0.02" stop-color="#79D51B"/>
<stop offset="0.25" stop-color="#95DE4A"/>
<stop offset="0.48" stop-color="#ABE570"/>
<stop offset="0.68" stop-color="#BBEA8B"/>
<stop offset="0.86" stop-color="#C4EC9C"/>
<stop offset="1" stop-color="#C8EEA2"/>
</linearGradient>
<linearGradient id="paint125_linear_522_640" x1="390.991" y1="-40.1353" x2="339.714" y2="-82.0765" gradientUnits="userSpaceOnUse">
<stop stop-color="#51A200"/>
<stop offset="1" stop-color="#69D100"/>
</linearGradient>
<clipPath id="clip0_522_640">
<rect width="604.913" height="369.961" fill="white" transform="translate(0 -152.054) rotate(-15.6269)"/>
</clipPath>
</defs>
</svg>
