<svg width="388" height="264" viewBox="0 0 388 264" fill="none" xmlns="http://www.w3.org/2000/svg">
<g clip-path="url(#clip0_624_4435)">
<path d="M253.093 216.383C253.093 216.383 233.634 228.438 219.527 235.723L210.282 228.927C210.282 228.927 188.876 239.167 155.309 220.188C121.743 201.209 75.0489 180.775 75.0489 180.775C75.0489 180.775 27.865 149.577 38.0783 131.727C48.2916 113.864 176.715 98.0618 176.715 98.0618L320.704 182.928L253.082 216.395L253.093 216.383Z" fill="#B3241D"/>
<path d="M125.614 169.231C133.589 175.213 142.869 179.192 152.08 182.87C153.409 183.382 154.75 183.882 156.079 184.429C145.481 182.043 133.297 177.086 125.614 169.231Z" fill="#98341D"/>
<path d="M211.995 227.1C217.917 223.865 224.062 220.968 230.334 218.454C224.411 221.689 218.256 224.587 211.995 227.1Z" fill="#98341D"/>
<path d="M161.43 60.5571L252.603 30.7092C252.603 30.7092 307.902 -11.4154 377.121 10.4847L404.974 8.37848V155.256C404.974 155.256 378.8 183.882 252.183 182.916C125.555 181.95 161.43 60.5571 161.43 60.5571Z" fill="white"/>
<g style="mix-blend-mode:multiply" opacity="0.5">
<path d="M350.853 75.4868C350.853 75.4868 378.03 145.376 334.857 169.243L320.726 175.457L317.567 188.176L409.999 221.189V91.5803L350.853 75.4984V75.4868Z" fill="#919191"/>
</g>
<path d="M235.044 37.7492C235.044 37.7492 300.685 30.0807 345.863 70.1339C393.735 112.561 335.218 182.067 405.312 216.383V0C405.312 0 375.267 6.69106 362.302 4.16591C362.302 4.16591 336.991 -0.942566 307.528 1.64076C255.413 6.20232 235.056 37.7376 235.056 37.7376L235.044 37.7492Z" fill="#B3241D"/>
<path d="M30.1499 86.0179C30.1499 86.0179 114.911 39.774 194.402 47.5589C194.402 47.5589 278.65 60.9294 304.871 96.5258C331.08 132.122 355.471 216.395 321.333 249.862C287.196 283.328 230.195 170.965 230.195 170.965C230.195 170.965 57.9799 147.925 49.4455 135.613C40.9111 123.302 30.1499 86.0296 30.1499 86.0296V86.0179Z" fill="black"/>
<path d="M2.0866 173.804C2.0866 173.804 -2.62363 163.052 2.0866 135.951C4.43006 122.452 9.81651 98.0617 30.1498 86.0178C44.1056 77.7558 57.9332 85.3778 63.9375 90.3234C84.7955 107.499 55.5664 163.401 27.9113 174.305C27.9113 174.305 10.0963 194.006 2.0866 173.804Z" fill="black"/>
<path d="M177.286 195.123C162.945 187.338 147.765 189.002 144.093 183.672C140.199 178.028 145.69 175.015 145.69 175.015C145.69 175.015 144.594 165.694 155.262 163.529C155.262 163.529 155.297 155.942 166.14 156.117C166.14 156.117 167.306 151.776 176.377 151.776C184.246 151.776 189.598 155.733 189.598 155.733C189.598 155.733 190.402 150.182 196.955 150.159C200.802 150.147 204.405 152.056 206.713 155.116C209.395 158.653 214.093 164.006 218.792 165.205C225.962 167.032 309.336 175.061 326.008 211.507C345.63 254.388 297.653 267.107 274.137 256.785C250.621 246.463 195.439 204.071 177.263 195.123H177.286Z" fill="black"/>
<path d="M307.004 191.434C299.332 186.616 290.973 183.021 282.473 179.96C263.294 173.153 243.147 169.301 223.071 166.206C220.832 165.81 218.477 165.647 216.448 164.53C214.396 163.471 212.647 161.97 211.027 160.376C209.418 158.758 207.949 157.024 206.585 155.209C204.556 152.335 201.233 150.147 197.631 150.136C194.028 150.066 190.122 151.8 189.598 155.733C190.064 151.753 193.981 149.938 197.631 149.949C201.327 149.891 204.754 152.079 206.865 155.023C208.194 156.757 209.709 158.526 211.307 160.085C212.916 161.644 214.664 163.099 216.658 164.111C218.652 165.182 220.937 165.333 223.141 165.717C251.985 170.255 281.914 175.724 306.992 191.446L307.004 191.434Z" fill="#808080"/>
<path d="M145.69 175.026C152.639 170.802 162.56 173.386 169.579 176.318C170.64 176.818 171.713 177.307 172.762 177.831C171.655 177.435 170.57 176.993 169.474 176.586C162.374 174.084 152.802 171.535 145.69 175.026Z" fill="#808080"/>
<path d="M155.274 163.541C161.885 161.574 168.985 164.134 174.651 167.59C175.456 168.137 176.248 168.673 177.03 169.243C176.178 168.789 175.351 168.3 174.511 167.835C168.67 164.809 161.943 162.331 155.274 163.541Z" fill="#808080"/>
<path d="M166.152 156.117C172.261 156.861 178.359 158.84 183.419 162.4C182.719 162.075 182.055 161.679 181.355 161.376C176.505 159.061 171.352 157.467 166.164 156.117H166.152Z" fill="#808080"/>
<path d="M189.609 155.733C194.413 158.735 199.613 160.969 204.883 163.04C199.368 161.737 193.97 159.387 189.609 155.733Z" fill="#808080"/>
<path d="M137.261 42.008C137.261 42.008 123.212 49.5369 113.313 64.5947L109.816 60.8593C103.8 54.4475 103.893 44.4517 110.026 38.1563C116.601 31.407 127.502 31.5234 133.927 38.4239L137.261 42.008Z" fill="black"/>
<path d="M174.943 155.581C174.943 155.581 205.128 159.922 218.967 140.547C218.967 140.547 223.771 134.88 227.56 139.476C229.95 131.726 230.871 126.35 230.02 117.739C229.064 108.034 227.467 82.4919 222.896 69.0283C217.183 52.2134 201.595 40.7048 183.827 39.9135L150.949 38.4473C149.235 38.4473 147.568 38.5054 145.959 38.6102C124.833 40.088 107.402 55.7044 103.112 76.4059L98.3666 101.099C82.8952 110.315 81.8459 121.87 81.8575 132.867C81.8575 140.698 86.3579 150.205 97.259 156.605C111.261 164.821 135.64 173.781 174.966 155.558L174.943 155.581Z" fill="white"/>
<path d="M116.683 68.6792C121.696 70.541 135.104 74.2648 161.605 73.8226C161.605 73.8226 174.978 74.2066 179 93.7212C183.023 113.236 179.187 130.47 158.679 127.979C158.679 127.979 156.953 103.985 129.345 99.1439C119.598 97.4333 102.902 95.9671 98.355 101.11L103.1 76.4175C103.1 76.4175 102.879 70.5061 109.175 68.3883C111.611 67.5737 114.27 67.7832 116.683 68.6792Z" fill="black"/>
<path d="M98.355 101.11C99.5442 92.8251 101.13 84.5515 103.1 76.4175C101.911 84.7028 100.314 92.9764 98.355 101.11Z" fill="#808080"/>
<path d="M160.987 93.8841C159.926 95.7227 158.422 96.8282 156.93 96.5954C155.437 96.3743 154.33 94.8732 153.863 92.8019L150.529 92.3015C150.669 95.6994 152.651 98.9577 155.845 99.5511C158.084 99.9584 162.608 99.0857 164.31 94.3845L160.975 93.8841H160.987Z" fill="white"/>
<path d="M119.306 86.7508C118.245 88.3101 116.834 89.1713 115.529 88.8687C114.223 88.5662 113.348 87.1698 113.08 85.2963L110.177 84.6213C110.061 87.6352 111.588 90.6607 114.363 91.3939C116.321 91.9175 120.367 91.4637 122.209 87.4258L119.306 86.7508Z" fill="white"/>
<path d="M199.94 46.8606C199.94 46.8606 218.175 57.6128 221.917 80.8861L227.199 77.4533C236.269 71.5535 239.102 59.5794 233.634 50.2468C227.77 40.251 214.7 37.1906 204.988 43.5558L199.94 46.8606Z" fill="black"/>
<path d="M227.198 77.4415C235.896 71.3672 238.682 59.556 233.634 50.2351C234.31 51.3289 234.893 52.481 235.395 53.6796C238.787 62.3256 235.255 72.7287 227.21 77.4415H227.198Z" fill="#808080"/>
<path d="M151.73 40.9375C151.73 40.9375 158.306 38.0167 155.554 30.1155C155.554 30.1155 160.509 31.0115 161.57 38.5869C161.57 38.5869 164.473 32.2915 162.141 27.4507C162.141 27.4507 175.223 36.0385 169.638 43.3929" fill="white"/>
<path d="M225.974 137.347L229.6 142.223L228.877 137.219L231.232 138.069L230.288 132.704L232.666 133.6L230.824 125.955L233.716 127.084L230.02 117.739L233.681 119.718L229.437 111.304L231.384 112.2L227.315 98.8647L225.974 116.878V137.347Z" fill="white"/>
<path d="M117.096 116.009C117.337 112.322 113.225 109.051 107.912 108.705C102.598 108.358 98.0943 111.066 97.8528 114.754C97.6113 118.441 101.723 121.711 107.037 122.058C112.351 122.405 116.854 119.697 117.096 116.009Z" fill="black"/>
<path d="M112.381 151.893C110.772 151.893 109.081 151.753 107.298 151.474C106.691 151.381 106.272 150.811 106.376 150.205C106.47 149.6 107.041 149.181 107.647 149.286C114.025 150.299 119.166 149.356 122.944 146.493C128.26 142.467 129.065 135.892 129.076 135.823C129.146 135.218 129.694 134.775 130.312 134.845C130.919 134.915 131.362 135.462 131.292 136.067C131.257 136.37 130.382 143.619 124.32 148.239C121.125 150.671 117.114 151.893 112.381 151.893Z" fill="black"/>
<path d="M112.579 227.368L108.872 120.486C108.685 115.109 104.826 110.571 99.5447 109.501L53.0603 100.133C51.2648 99.7724 49.5509 100.273 48.2685 101.308L39.6758 107.243L48.1985 149.484L51.1249 209.948C51.3697 214.963 54.8092 219.246 59.6476 220.584L92.2112 229.579L94.0417 232.441L101.632 238.178L109.746 232.546C109.979 232.407 110.201 232.255 110.399 232.092H110.411V232.081C111.763 230.987 112.638 229.3 112.568 227.368H112.579Z" fill="#939393"/>
<path d="M44.5374 106.01L91.0218 115.377C96.3033 116.436 100.162 120.986 100.349 126.362L104.057 233.244C104.196 237.166 100.477 240.087 96.6881 239.039L51.1131 226.46C46.2746 225.122 42.8352 220.84 42.5904 215.824L37.5654 111.979C37.3788 108.197 40.8182 105.253 44.5258 106.01H44.5374Z" fill="#4C4C4C"/>
<path d="M62.982 140.966C65.1505 141.35 67.4007 141.024 69.3711 140.058C71.5863 138.964 74.6876 138.173 77.136 140.314C81.4615 144.085 75.4804 155.768 70.8168 154.15C66.1532 152.533 64.1479 158.537 58.948 152.556C55.7651 148.891 52.5239 139.127 62.982 140.978V140.966Z" fill="#939393"/>
<path d="M90.9558 133.602C92.9537 133.154 94.0653 130.534 93.4387 127.75C92.8121 124.966 90.6846 123.072 88.6868 123.52C86.6889 123.968 85.5773 126.588 86.2039 129.372C86.8304 132.156 88.958 134.05 90.9558 133.602Z" fill="black"/>
<path d="M82.3962 132.071C83.0873 131.916 83.4714 131.008 83.254 130.042C83.0367 129.076 82.3003 128.419 81.6092 128.574C80.9181 128.729 80.5341 129.637 80.7514 130.603C80.9687 131.569 81.7052 132.226 82.3962 132.071Z" fill="black"/>
<path d="M17.1621 144.061C5.52639 144.585 -0.804442 158.747 1.30583 170.186C3.49772 182.113 9.78192 195.902 25.9063 204.339C25.9063 204.339 64.6025 225.087 69.7091 200.941C69.7091 200.941 81.2748 196.438 76.1682 186.093C76.1682 186.093 81.7762 180.845 77.474 170.954C77.474 170.954 82.4757 158.211 67.3074 157.909C67.3074 157.909 46.4261 160.155 39.6639 155.058L38.7662 134.973C38.7662 134.973 32.7152 143.363 17.1737 144.061H17.1621Z" fill="black"/>
<path d="M39.0694 141.85C36.3762 147.25 30.0804 149.67 24.4374 150.555C23.598 150.636 22.7702 150.729 21.9424 150.787C22.7585 150.601 23.5746 150.45 24.3908 150.275C29.8938 148.96 35.8166 146.749 39.0811 141.85H39.0694Z" fill="#808080"/>
<path d="M77.4622 170.954C74.2559 175.946 67.8901 177.819 62.2239 177.866C56.441 178.11 50.5998 177.33 45.0618 175.678C41.3776 174.549 37.775 173.048 34.5454 170.954C41.2493 174.666 48.8626 176.632 56.476 177.191C63.8095 177.761 72.6936 177.389 77.4622 170.954Z" fill="#808080"/>
<path d="M76.1681 186.104C68.2283 193.331 54.3424 191.818 44.7121 189.235C41.2144 188.234 37.775 186.966 34.5571 185.267C37.8683 186.756 41.3193 187.896 44.8287 188.804C54.4707 191.143 67.9252 192.737 76.1681 186.104Z" fill="#808080"/>
<path d="M69.7093 200.941C62.3292 205.933 49.376 204.071 41.3546 201.279C38.3116 200.185 35.3153 198.823 32.7153 196.892C38.2067 200.266 44.5492 202.082 50.8917 202.978C57.1409 203.815 64.043 204.118 69.7093 200.93V200.941Z" fill="#808080"/>
<path d="M223.525 40.2279C223.525 40.2279 221.986 36.19 225.904 31.8379C233.004 23.9599 255.355 25.5192 255.355 25.5192L235.045 37.7493C230.229 37.9355 227 39.0875 223.525 40.2279Z" fill="#B3241D"/>
<path d="M362.291 4.16602C368.75 5.13186 375.115 6.56316 381.423 8.2272C387.719 9.93778 393.991 11.8462 399.926 14.5692C387.695 10.9153 374.544 7.76173 362.291 4.16602Z" fill="#98341D"/>
<path d="M316.343 20.946C331.593 14.7902 348.195 11.1945 364.693 12.0789C363.55 12.0905 361.148 12.1138 360.052 12.1254C345.14 12.7073 330.392 16.0237 316.343 20.946Z" fill="#98341D"/>
<path d="M248.196 25.4842C274.417 24.8791 306.386 27.253 329.914 39.4947C344.429 47.5705 359.236 56.4492 369.274 69.9943C375.978 79.0127 379.756 89.9278 381.073 101.029C382.321 112.119 382.076 123.348 381.015 134.45C380.502 139.977 379.663 145.493 379.266 151.008C379.033 155.023 379.138 159.398 382.216 162.296C383.195 163.25 384.443 163.972 385.422 164.961C386.448 165.961 387.311 167.16 387.894 168.487C390.027 173.095 388.092 178.285 389.281 182.986C389.794 185.022 391.426 186.43 393.024 187.664C395.192 189.339 397.349 191.225 399.938 192.19L399.926 192.307C399.226 192.132 398.608 191.795 397.99 191.469C396.16 190.445 394.458 189.223 392.791 187.955C390.226 186.186 388.582 184.254 388.325 181.054C387.929 176.912 388.908 172.676 387.113 168.847C386.541 167.637 385.749 166.543 384.781 165.624C383.778 164.647 382.566 163.972 381.54 162.994C379.371 161.028 378.345 158.049 378.17 155.198C377.809 148.192 379.289 141.292 379.814 134.345C380.595 126.071 380.875 117.751 380.572 109.442C379.791 81.0723 367.934 63.1403 344.103 48.3269C334.694 42.4504 324.877 37.051 314.151 34.0255C292.885 27.637 270.091 26.0428 248.196 25.4958V25.4842Z" fill="#98341D"/>
<path d="M366.896 54.5642C382.309 63.8153 390.622 82.1197 391.357 99.6445C388.955 82.3874 381.225 65.0954 366.896 54.5642Z" fill="#98341D"/>
<path d="M123.912 185.255C137.261 184.894 150.716 186.453 163.599 190.003C150.611 188.059 137.028 186.488 123.912 185.255Z" fill="#98341D"/>
<path d="M194.437 211.507C201.922 212.555 208.614 217.058 212.998 223.121C213.627 223.982 214.21 224.878 214.77 225.785C214.117 224.948 213.476 224.098 212.776 223.295C208.078 217.57 201.688 213.253 194.437 211.507Z" fill="#98341D"/>
<path d="M227.91 98.6436C221.906 115.412 207.495 143.223 177.088 147.273C177.088 147.273 159.961 167.044 119.19 165.822C132.994 168.533 151.264 167.497 175.002 156.489C175.002 156.489 205.035 160.806 218.793 141.536C218.793 141.536 223.573 135.904 227.35 140.477C229.729 132.774 230.638 127.421 229.799 118.856C229.367 114.493 228.808 106.894 227.898 98.6552L227.91 98.6436Z" fill="#CBCBCB"/>
<path d="M225.625 137.324L229.251 142.199L228.54 137.207L230.895 138.057L229.95 132.692L232.317 133.588L230.487 125.943L233.367 127.083L229.671 117.739L233.332 119.717L229.099 111.316L231.035 112.2L226.966 98.8762L225.625 116.878V137.324Z" fill="#CBCBCB"/>
<path d="M321.263 243.741L319.666 253.969L317.357 250.63L311.679 260.8V255.75L305.652 264V258.659L301.035 264V259.951L295.438 264L305.489 249.524L321.263 243.741Z" fill="black"/>
<path d="M159.844 160.62C165.919 160.946 172.109 162.948 176.866 166.811C171.258 164.344 165.662 162.54 159.844 160.62Z" fill="#808080"/>
<path d="M28.6343 89.9976L21.0093 90.7074L24.9617 92.1271L13.2911 94.4195L20.0067 95.8857L8.37098 100.401L15.483 100.773L5.50287 106.475L12.1019 105.94L4.91992 112.596L27.0603 107.22L28.6343 89.9976Z" fill="black"/>
<g clip-path="url(#clip1_624_4435)">
<path d="M84.143 0.00013597L25.2767 0.291052C21.6042 0.314325 18.6311 3.30494 18.6544 6.97047L18.841 43.4862C18.8643 47.1517 21.849 50.1074 25.5216 50.0958L42.8818 50.0143L52.5704 59.5913C54.7507 61.744 58.2717 61.7324 60.4286 59.5564L70.0239 49.8863L84.3878 49.8165C88.0604 49.7932 91.0218 46.8143 91.0101 43.1487L90.8236 6.63301C90.8003 2.9442 87.8156 -0.0231373 84.143 0.00013597Z" fill="white"/>
<path fill-rule="evenodd" clip-rule="evenodd" d="M52.1505 21.3183V21.9002C52.1388 21.97 52.1155 22.0282 52.1038 22.098C52.0339 22.6449 52.0106 23.1918 51.9056 23.7271C51.6724 24.9839 51.2411 26.1592 50.6231 27.2879C49.877 28.6611 48.8976 29.8596 47.7783 30.9418C46.6474 32.024 45.3999 32.955 44.0591 33.7695C42.5435 34.7005 40.9695 35.4917 39.3023 36.0852C39.209 36.1201 39.0691 36.1201 38.9758 36.0852C37.6117 35.5848 36.2942 34.9681 35.0467 34.2117C34.1723 33.6764 33.3095 33.1179 32.4817 32.5128C31.5141 31.8146 30.6513 30.9884 29.8468 30.104C29.0074 29.1731 28.2962 28.1723 27.7249 27.0668C26.9787 25.6006 26.524 24.0529 26.4191 22.4122C26.4191 22.2376 26.3724 22.0747 26.3491 21.9118V21.33C26.3724 21.1787 26.3958 21.0158 26.4074 20.8645C26.5473 19.7241 26.9088 18.6536 27.5034 17.6644C28.0513 16.7684 28.7392 16.0004 29.5903 15.3953C30.4997 14.7437 31.5141 14.3247 32.6217 14.1502C33.7992 13.9756 34.9418 14.1036 36.0377 14.5458C37.2619 15.0346 38.2763 15.8259 39.1041 16.8615C39.139 16.9081 39.1973 16.9546 39.2556 17.0128C39.3256 16.9313 39.3839 16.8732 39.4305 16.815C40.2466 15.7909 41.261 15.0229 42.4735 14.5342C43.3946 14.1618 44.3623 14.0105 45.3533 14.092C46.4142 14.1735 47.4169 14.4876 48.3263 15.0229C49.259 15.5699 50.0285 16.2913 50.6465 17.1641C51.311 18.095 51.7657 19.119 51.9756 20.2478C52.0455 20.5969 52.0805 20.9576 52.1388 21.3183H52.1505Z" fill="#B3241D"/>
<path d="M64.3183 20.2156V28.9429H63.2615V21.3236H63.2103L61.0796 22.7383V21.6645L63.2615 20.2156H64.3183ZM69.6748 29.0622C69.0328 29.0622 68.4859 28.8875 68.0342 28.538C67.5825 28.1858 67.2373 27.6758 66.9987 27.0082C66.76 26.3378 66.6407 25.5281 66.6407 24.5792C66.6407 23.6361 66.76 22.8307 66.9987 22.163C67.2401 21.4926 67.5867 20.9812 68.0384 20.629C68.493 20.2738 69.0384 20.0963 69.6748 20.0963C70.3112 20.0963 70.8552 20.2738 71.3069 20.629C71.7615 20.9812 72.108 21.4926 72.3467 22.163C72.5882 22.8307 72.7089 23.6361 72.7089 24.5792C72.7089 25.5281 72.5896 26.3378 72.3509 27.0082C72.1123 27.6758 71.7671 28.1858 71.3154 28.538C70.8637 28.8875 70.3169 29.0622 69.6748 29.0622ZM69.6748 28.1247C70.3112 28.1247 70.8055 27.8179 71.1578 27.2042C71.51 26.5906 71.6862 25.7156 71.6862 24.5792C71.6862 23.8236 71.6052 23.1801 71.4433 22.6488C71.2842 22.1176 71.0541 21.7128 70.7529 21.4343C70.4546 21.1559 70.0953 21.0167 69.6748 21.0167C69.0441 21.0167 68.5512 21.3278 68.1961 21.95C67.841 22.5693 67.6634 23.4457 67.6634 24.5792C67.6634 25.3349 67.743 25.977 67.9021 26.5054C68.0612 27.0338 68.2899 27.4358 68.5882 27.7113C68.8893 27.9869 69.2515 28.1247 69.6748 28.1247Z" fill="black"/>
</g>
</g>
<defs>
<clipPath id="clip0_624_4435">
<rect width="410" height="264" fill="white"/>
</clipPath>
<clipPath id="clip1_624_4435">
<rect width="72.3557" height="61.1854" fill="white" transform="translate(18.6543)"/>
</clipPath>
</defs>
</svg>
