<svg width="3776" height="419" viewBox="0 0 3776 419" fill="none" xmlns="http://www.w3.org/2000/svg">
<path d="M1833 184.233H1872.24L1876.28 58.7237L1893.84 52.3521L1925.57 57.1017V106.151L1931.01 107.162V98.0607L1938.72 91.9902L1950.98 94.0104V100.081L1956.42 104.636V110.202L1970.94 114.757V130.434L1981.83 128.413V106.161L1988.7 95.5451L1995.6 94.0299L1999.97 99.5953V108.191L2003.6 110.716V160.776L2009.05 188.584V134.474L2019.94 131.444V124.363L2029.49 111.212L2043.88 112.222L2047.15 129.414V57.6068L2071.26 56.5966L2085.27 61.657V102.111L2090.71 103.626V58.9666H2116.9L2128.83 61.1519V84.385H2132.47V142.565L2141.54 144.08V185.039L2148.25 173.345H2153.31L2157.89 177.958V118.293L2184.41 114.252C2184.41 114.252 2185.3 104.646 2184.28 103.131C2183.27 101.616 2187.75 84.4239 2187.75 84.4239L2199.85 82.4036L2202.61 100.1L2206.88 103.131V73.5067H2217.77V53.5759L2223.22 52.5658V57.6262L2233.3 52.5658L2241.36 56.6063V53.5759L2248.63 52.5658V77.8483L2286.17 76.3331L2299.44 78.8584V128.413L2308.52 129.423V140.545L2318.81 150.656L2323.03 135.989V102.111L2330.3 99.5856V41.4349L2344.73 45.9902L2352.08 53.5759V71.7778L2357.52 73.798V81.8888L2365.62 82.1899L2368.16 78.9458H2393.94L2401.08 86.9492V148.635L2402.9 154.706V55.5962L2409 52.0607L2415.6 56.111V66.2512H2422.24L2431.94 80.3833V112.241L2432.83 117.807L2451.91 123.372V144.614L2466.42 145.624V106.181L2482.75 103.927L2502.12 97.1185H2526.32V39.0261H2544.47V102.14L2553.55 103.655V128.433L2559 128.938V120.342L2571.5 119.487L2575.92 108.016H2595.28V81.9082L2604.36 79.3829V59.6659L2641.71 56.6355L2667.29 0L2696.93 57.6456V130.463L2700.56 128.442V104.17L2713.26 103.16V77.8774L2737.58 76.8673L2747.75 85.9682V130.463L2751.38 139.564V109.833H2764.08V87.9788L2772.12 88.4838L2777.15 84.9484L2780.68 87.9788L2785.84 88.4838L2789.49 97.0797V138.544L2795.95 139.554L2801.48 162.311L2805.84 163.321V102.14L2813.1 101.635V83.9382L2821.62 60.812H2840.83L2853.03 81.9082V110.221L2860.29 112.241V150.675L2867.55 156.24V120.342L2874.87 118.322L2876.63 107.705V92.029L2889.33 91.524V112.261L2896.59 115.291V164.846L2900.23 147.149V120.352L2902.04 116.816V102.15L2913.91 99.7216L2916.67 93.5054H2925.77L2929.78 103.898L2938.35 104.685V94.0687L2969.21 94.3212V110.25L2981.91 109.745V142.613L2985.29 141.943L2989.17 129.977V59.6853L2994.37 66.2609L3001.28 64.2406L3005.23 56.1498L3008.73 60.7052L3023.11 61.2102L3030.91 56.6549V73.8466L3034.54 76.877V132.502L3043.62 134.018V85.9779L3050.08 66.7659L3054.52 66.2609V51.5945L3064.7 50.0793L3070.85 55.1397V63.7355L3079.06 71.3213L3099.89 73.8466V126.432L3103.2 102.665L3121.67 102.159V114.291L3132.56 127.947V77.8871L3172.48 79.9074V100.13L3177.91 107.21L3192.45 108.725V128.442L3201.53 150.694V130.472L3214.23 118.341V94.0687L3223.31 90.5332V85.9779L3239.64 78.3922L3255.97 78.8973V120.361L3258.88 141.934L3266.86 158.785V37.4235L3275.94 34.3931V41.4738L3287.39 39.9586L3292.17 35.4032L3317.68 40.9687V61.7056L3328.56 86.483V102.159L3335.83 101.149V59.6853L3339.46 57.665V53.6148L3359.29 47.5443L3368.5 49.5645V53.6051L3377.58 57.6553V111.659H3402.99V142.604L3430.22 145.634V132.483L3442.92 132.988V120.342L3455.31 119.973L3457.59 126.17H3462.88V118.322L3471.96 119.332V92.029L3508.26 85.4534V29.323L3530.04 22.7474V17.182L3564.71 9.0912L3573.6 10.1013V17.182L3582.67 19.7073V154.716L3600.82 153.705V138.534L3606.27 139.039V89.9893L3613.32 81.51L3621.88 64.4349H3629.47L3637.05 82.2676L3647.13 83.5983L3651.64 100.605V172.917L3660.31 169.732H3669.91L3685.08 179.415L3689.93 166.05L3698.83 175.87V81.8985L3716.97 79.8783V69.7672L3733.37 67.747L3740.96 74.8276L3746.02 79.888V87.9788L3763.14 88.9889L3775.06 97.5848V418.458H1833V184.262V184.233Z" fill="#B9321C"/>
<path d="M0 184.233H39.2381L43.2775 58.7237L60.8429 52.3521L92.5654 57.1017V106.151L98.0127 107.162V98.0607L105.722 91.9902L117.977 94.0104V100.081L123.424 104.636V110.202L137.94 114.757V130.434L148.825 128.413V106.161L155.7 95.5451L162.604 94.0299L166.973 99.5953V108.191L170.605 110.716V160.776L176.052 188.584V134.474L186.937 131.444V124.363L196.492 111.212L210.882 112.222L214.154 129.414V57.6068L238.264 56.5966L252.266 61.657V102.111L257.713 103.626V58.9666H283.901L295.835 61.1519V84.385H299.466V142.565L308.545 144.08V185.039L315.255 173.345H320.313L324.887 177.958V118.293L351.415 114.252C351.415 114.252 352.298 104.646 351.279 103.131C350.269 101.616 354.755 84.4239 354.755 84.4239L366.854 82.4036L369.611 100.1L373.884 103.131V73.5067H384.768V53.5759L390.216 52.5658V57.6262L400.304 52.5658L408.364 56.6063V53.5759L415.627 52.5658V77.8483L453.166 76.3331L466.439 78.8584V128.413L475.518 129.423V140.545L485.811 150.656L490.035 135.989V102.111L497.298 99.5856V41.4349L511.727 45.9902L519.077 53.5759V71.7778L524.524 73.798V81.8888L532.623 82.1899L535.157 78.9458H560.937L568.084 86.9492V148.635L569.899 154.706V55.5962L575.997 52.0607L582.6 56.111V66.2512H589.242L598.942 80.3833V112.241L599.826 117.807L618.906 123.372V144.614L633.422 145.624V106.181L649.754 103.927L669.116 97.1185H693.323V39.0261H711.471V102.14L720.55 103.655V128.433L725.997 128.938V120.342L738.504 119.487L742.922 108.016H762.284V81.9082L771.362 79.3829V59.6659L808.707 56.6355L834.293 0L863.928 57.6456V130.463L867.559 128.442V104.17L880.26 103.16V77.8774L904.584 76.8673L914.75 85.9682V130.463L918.382 139.564V109.833H931.082V87.9788L939.122 88.4838L944.152 84.9484L947.677 87.9788L952.842 88.4838L956.493 97.0797V138.544L962.95 139.554L968.475 162.311L972.835 163.321V102.14L980.098 101.635V83.9382L988.624 60.812H1007.83L1020.03 81.9082V110.221L1027.29 112.241V150.675L1034.55 156.24V120.342L1041.87 118.322L1043.63 107.705V92.029L1056.33 91.524V112.261L1063.59 115.291V164.846L1067.23 147.149V120.352L1069.04 116.816V102.15L1080.91 99.7216L1083.67 93.5054H1092.77L1096.78 103.898L1105.35 104.685V94.0687L1136.21 94.3212V110.25L1148.91 109.745V142.613L1152.29 141.943L1156.17 129.977V59.6853L1161.37 66.2609L1168.28 64.2406L1172.23 56.1498L1175.73 60.7052L1190.11 61.2102L1197.91 56.6549V73.8466L1201.54 76.877V132.502L1210.62 134.018V85.9779L1217.08 66.7659L1221.52 66.2609V51.5945L1231.7 50.0793L1237.85 55.1397V63.7355L1246.06 71.3213L1266.89 73.8466V126.432L1270.2 102.665L1288.67 102.159V114.291L1299.56 127.947V77.8871L1339.48 79.9074V100.13L1344.91 107.21L1359.45 108.725V128.442L1368.53 150.694V130.472L1381.23 118.341V94.0687L1390.31 90.5332V85.9779L1406.64 78.3922L1422.97 78.8973V120.361L1425.88 141.934L1433.86 158.785V37.4235L1442.94 34.3931V41.4738L1454.39 39.9586L1459.17 35.4032L1484.68 40.9687V61.7056L1495.56 86.483V102.159L1502.83 101.149V59.6853L1506.46 57.665V53.6148L1526.29 47.5443L1535.5 49.5645V53.6051L1544.58 57.6553V111.659H1569.99V142.604L1597.22 145.634V132.483L1609.92 132.988V120.342L1622.31 119.973L1624.59 126.17H1629.88V118.322L1638.96 119.332V92.029L1675.26 85.4534V29.323L1697.04 22.7474V17.182L1731.71 9.0912L1740.6 10.1013V17.182L1749.67 19.7073V154.716L1767.82 153.705V138.534L1773.27 139.039V89.9893L1780.32 81.51L1788.88 64.4349H1796.47L1804.05 82.2676L1814.13 83.5983L1818.64 100.605V172.917L1827.31 169.732H1836.91L1852.08 179.415L1856.93 166.05L1865.83 175.87V81.8985L1883.97 79.8783V69.7672L1900.37 67.747L1907.96 74.8276L1913.02 79.888V87.9788L1930.14 88.9889L1942.06 97.5848V418.458H0V184.262V184.233Z" fill="#B9321C"/>
<path d="M1833 229.804L1842.2 226.793L1848.47 223.889H1857.05L1860.23 228.367V233.651L1871.11 231.669V152.374L1880.19 149.732V144.001H1892.89V138.494L1905.59 135.852V131.297H1940.28L1972.75 135.192V229.328H1998.16V150.392L2003.6 147.09V138.504L2010.87 130.578V122.652L2023.57 120.011V108.773L2064.24 104.81L2087.09 108.773V118.68L2092.21 126.606L2097.99 132.55V170.216L2108.87 173.519V188.059L2128.83 186.407V182.114L2131.14 180.133L2143.35 182.445V186.077L2163.31 191.691V213.827L2172.39 214.487V217.79L2185.09 219.441V255.456L2190.54 255.126V213.827L2203.24 212.836V207.882L2223.21 209.203V203.92L2230.47 204.91V209.864L2244.99 211.185V225.725L2255.87 225.395V219.781L2263.13 220.771V225.705H2266.77V215.818L2271.31 212.185L2279.03 212.846L2277.83 207.562H2290.36V118.69L2292.18 115.057V102.265H2301.26V95H2324.74L2325.7 103.207L2333.93 105.47V124.634L2339.38 123.973V118.69L2358.93 117.369L2370.23 119.35V128.597L2377.5 132.229V235.642L2386.58 235.311V229.697L2401.09 227.716V223.753L2406.54 221.111L2411.99 222.102V227.716L2428.32 230.358V245.559L2455.55 245.889V203.929L2457.36 201.948V198.48H2471.88V190.05L2483.53 190.38L2484.96 195.333L2493.65 195.003V190.05L2509.61 190.38L2514.42 186.417L2524.51 191.04V158.328L2536.6 160.824L2541.42 156.715H2554.64L2571.7 159.979V211.845L2579.68 212.836L2581.21 256.447L2584.4 258.098V154.355L2585.88 145.769L2595.29 144.118V142.467L2605.35 140.815L2614.93 143.457L2626.15 145.439V151.266H2640.67V144.448L2637.04 143.788V132.55L2641.42 130.899L2662.16 129.247L2684.22 133.21V146.429L2682.18 149.732L2690.2 150.062L2711.43 153.695V207.882L2715.07 211.845V146.429L2720.51 145.108V136.522L2732.48 135.532L2736.85 136.192V140.485L2742.29 139.494V134.541L2751.37 134.211L2756.82 135.862V146.439L2764.08 148.09V156.725H2774.97V144.021H2786.5L2789.49 146.449V151.286H2794.94V144.021H2804.35L2807.65 147.109V156.356L2811.28 157.016V164.282L2816.73 166.593V188.068L2829.04 187.738L2833.29 180.473L2838.52 179.482V174.878H2843.97V168.244L2856.34 166.593L2873 169.896V239.605L2876.63 242.907V205.901L2882.08 201.938V174.189L2887.53 171.547V160.309L2891.16 157.667V154.365L2903.86 155.356L2920.19 159.318V172.207L2930.32 175.84L2954.37 173.858L2956.82 168.244L2991.24 167.914L2996.23 177.821L2999.62 175.51L3014.57 173.858V138.504L3030.82 139.164L3056.31 136.522V142.467L3069.02 141.476V182.114L3081.06 184.756L3101.68 185.417V138.504L3117.84 132.56L3137.97 131.239L3143.57 134.211L3149.1 134.871L3157.94 138.834V217.799L3163.39 222.753V158.328L3170.15 157.007L3173.71 153.374L3191.65 152.053L3206.96 158.658V164.272L3212.72 164.602L3232.37 171.207V223.734L3245.07 222.413V162.281L3259.58 160.96V156.337L3281.87 152.704L3292.26 154.355V162.281L3306.77 163.271V199.947C3306.77 199.947 3312.53 198.296 3312.86 197.305C3313.19 196.314 3312.53 188.059 3312.53 188.059L3326.74 187.398V182.114L3346.7 181.784V178.152L3360.25 177.491L3370.96 179.142L3390.26 182.775V255.456L3402.96 260.74V221.752L3406.59 220.431V215.808L3413.86 206.892V192.021L3424.74 190.04V182.114L3436.36 180.133L3459.22 183.435V190.04L3470.11 192.021V225.725L3473.8 231.669L3475.58 215.808L3481 214.487V207.882L3489.38 191.206H3492.02L3495.52 201.929V207.873L3505.33 212.166L3508.22 226.376V253.465L3513.66 253.135V193.993L3531.81 193.663V202.094H3575.37V235.622L3590.39 235.953L3600.78 241.236V281.214L3606.23 282.535V203.9L3621.15 201.919L3647.97 203.57V205.882L3666.12 208.523V223.87H3678.82V180.113L3693.34 177.802V173.043H3719.92L3726.27 175.587L3736.91 177.472V257.428L3744.24 262.711L3775.02 266.014V403.606L1833 411.026V229.804Z" fill="#852A1B"/>
<path d="M0 236.804L9.19537 233.793L15.468 230.889H24.0517L27.2268 235.367V240.651L38.1117 238.669V159.374L47.1906 156.732V151.001H59.8913V145.494L72.592 142.852V138.297H107.276L139.746 142.192V236.328H165.157V157.392L170.605 154.09V145.504L177.868 137.578V129.652L190.568 127.011V115.773L231.244 111.81L254.091 115.773V125.68L259.208 133.606L264.986 139.55V177.216L275.871 180.519V195.059L295.835 193.407V189.114L298.136 187.133L310.351 189.445V193.077L330.315 198.691V220.827L339.394 221.487V224.79L352.094 226.441V262.456L357.542 262.126V220.827L370.242 219.836V214.882L390.206 216.203V210.92L397.469 211.91V216.864L411.986 218.185V232.725L422.87 232.395V226.781L430.134 227.771V232.705H433.765V222.818L438.309 219.185L446.029 219.846L444.835 214.562H457.36V125.69L459.176 122.057V109.265H468.255V102H491.743L492.705 110.207L500.929 112.47V131.634L506.376 130.973V125.69L525.932 124.369L537.235 126.35V135.597L544.498 139.229V242.642L553.577 242.311V236.697L568.093 234.716V230.753L573.541 228.111L578.988 229.102V234.716L595.32 237.358V252.559L622.547 252.889V210.929L624.363 208.948V205.48H638.879V197.05L650.531 197.38L651.958 202.333L660.649 202.003V197.05L676.612 197.38L681.419 193.417L691.507 198.04V165.328L703.596 167.824L708.422 163.715H721.637L738.698 166.979V218.845L746.68 219.836L748.214 263.447L751.399 265.098V161.355L752.884 152.769L762.293 151.118V149.467L772.353 147.815L781.927 150.457L793.152 152.439V158.266H807.668V151.448L804.036 150.788V139.55L808.416 137.899L829.156 136.247L851.217 140.21V153.429L849.178 156.732L857.199 157.062L878.435 160.695V214.882L882.066 218.845V153.429L887.513 152.108V143.522L899.476 142.532L903.846 143.192V147.485L909.293 146.494V141.541L918.372 141.211L923.819 142.862V153.439L931.082 155.09V163.725H941.967V151.021H953.503L956.493 153.449V158.286H961.94V151.021H971.349L974.651 154.109V163.356L978.282 164.016V171.282L983.73 173.593V195.068L996.042 194.738L1000.29 187.473L1005.52 186.482V181.878H1010.97V175.244L1023.34 173.593L1040 176.896V246.605L1043.63 249.907V212.901L1049.08 208.938V181.189L1054.53 178.547V167.309L1058.16 164.667V161.365L1070.86 162.356L1087.19 166.318V179.207L1097.32 182.84L1121.37 180.858L1123.82 175.244L1158.24 174.914L1163.23 184.821L1166.62 182.51L1181.57 180.858V145.504L1197.82 146.164L1223.31 143.522V149.467L1236.02 148.476V189.114L1248.06 191.756L1268.68 192.417V145.504L1284.84 139.56L1304.97 138.239L1310.57 141.211L1316.1 141.871L1324.94 145.834V224.799L1330.39 229.753V165.328L1337.15 164.007L1340.71 160.374L1358.65 159.053L1373.96 165.658V171.272L1379.72 171.602L1399.37 178.207V230.734L1412.07 229.413V169.281L1426.58 167.96V163.337L1448.87 159.704L1459.26 161.355V169.281L1473.77 170.271V206.947C1473.77 206.947 1479.53 205.296 1479.86 204.305C1480.19 203.314 1479.53 195.059 1479.53 195.059L1493.74 194.398V189.114L1513.7 188.784V185.152L1527.25 184.491L1537.96 186.142L1557.26 189.775V262.456L1569.96 267.74V228.752L1573.59 227.431V222.808L1580.86 213.892V199.021L1591.74 197.04V189.114L1603.36 187.133L1626.22 190.435V197.04L1637.11 199.021V232.725L1640.8 238.669L1642.58 222.808L1648 221.487V214.882L1656.38 198.206H1659.02L1662.52 208.929V214.873L1672.33 219.166L1675.22 233.376V260.465L1680.66 260.135V200.993L1698.81 200.663V209.094H1742.37V242.622L1757.39 242.953L1767.78 248.236V288.214L1773.23 289.535V210.9L1788.15 208.919L1814.97 210.57V212.882L1833.12 215.523V230.87H1845.82V187.113L1860.34 184.802V180.043H1886.92L1893.27 182.587L1903.91 184.472V264.428L1911.24 269.711L1942.02 273.014V410.606L0 418.026V236.804Z" fill="#852A1B"/>
<path d="M1833 418.484V321.879L1845.7 249.193H1860.22V227.04L1864.74 220.662H1873.6L1881.99 225.47V280.396L1887.44 283.012V299.224L1898.33 300.794V314.912L1903.77 315.436V242.728L1905.59 240.112V233.309L1914.67 233.832V239.588L1923.75 240.635V267.836L1929.19 269.929V258.417L1934.64 259.987V252.137L1950.71 250.044L1952.69 195.739L1960.73 190.081H1971.45L1981.84 199.304V188.042H2002.2L2010.88 193.548V198.781L2016.33 199.828V188.042H2024.57L2041.74 198.781V214.47L2045.37 216.039V245.857L2052.63 247.95V242.717L2058.08 239.054V233.298L2063.52 234.344V230.158L2068.97 228.065V208.19L2078.05 205.573V173.662L2085.15 167.655H2100.05L2107.09 177.325V233.298L2115.22 233.232L2117.75 241.017H2127.04V223.878L2137.31 221.785L2156.18 223.878L2158.13 228.588L2163.35 229.635V264.685L2172.91 273.582L2179.68 272.012V233.298L2185.8 227.541L2192.38 227.018V217.598L2198.24 212.365L2206.9 212.889V230.147L2214.17 229.624V236.427L2226.87 247.939V157.974C2226.87 157.974 2229.61 155.881 2234.73 157.974C2239.86 160.067 2239.34 139.135 2239.34 139.135H2287.33L2333.94 143.332V151.705L2343.02 154.322V239.588L2344.84 249.008V261.556L2352.1 274.116V66.9726L2371.65 55.6015H2393.55L2404.74 63.3094V239.588L2408.83 247.438L2412 240.635V148.576L2420.48 139.68L2430.09 124.515L2441.31 141.25L2446.49 150.146V170.544L2453.75 179.964V220.76L2456.65 208.201L2462.82 209.247V104.629L2466.86 103.059L2479.38 107.246L2490.04 111.432V198.792L2504.56 200.362V211.351L2525 204.548L2542.9 205.595L2546.73 234.889L2563.08 208.212L2571.95 208.735L2584.08 230.703L2603.45 222.33L2611.64 221.807V192.512L2631.17 189.372L2646.53 205.061L2686.59 204.538L2696.84 226.506L2705.68 206.631L2718.71 205.584V195.641L2738.29 188.838L2756.38 189.362L2758.64 179.942V142.275L2765.71 132.332L2782.68 130.238L2793.13 137.565V198.77L2800.26 181.926H2818.43L2823.55 193.755L2833.81 179.887H2888.32L2892.96 194.616V233.287L2896.59 213.935V179.931L2905.57 169.465L2922 167.895V145.404L2937.19 143.834L2971 149.067V230.147C2971 230.147 2977.65 229.1 2977.18 227.53C2976.71 225.96 2977.5 203.458 2977.5 203.458L2990.34 198.214H3005.48V161.092L3054.13 153.242L3078.08 159.522V236.416L3085.23 219.681L3092.67 209.738L3107.11 210.261V198.203H3123.97L3126.84 196.165H3145.47L3150.13 155.608L3159.92 151.28L3181.14 152.784L3186.97 164.221V220.716L3197.86 211.297V195.609L3218.26 198.89L3223.74 206.358H3235.97V248.964L3254.11 249.488V164.221L3263.19 152.185V92.026L3275.89 86.7929V38.6703L3289.71 34.4838L3304.92 39.7169V92.2223H3314V154.79L3317.63 160.547V248.953L3330.31 248.43L3339.7 268.828L3343.04 265.688V195.598L3353.93 190.888V142.242L3363.49 128.908H3374.68L3386.6 144.858V189.318L3390.23 192.981V205.017L3406.56 212.867V233.265L3416.71 235.882L3449.73 234.889L3452.01 212.453H3482.79V233.254L3507 230.638L3519.58 237.964L3535.43 239.534V267.782L3543.11 266.212L3545.81 251.047L3586.25 249.477V223.845L3598.79 205.017L3626.08 206.064L3637.06 225.415V255.233L3651.57 256.149V263.41H3684.94L3688.67 236.307L3694.27 231.782L3702.19 226.735H3732.47L3747.5 227.912L3753.22 235.892V274.083L3761.22 308.611L3775 312.721V418.364L1833.1 418.451L1833 418.484Z" fill="#6C2215"/>
<path d="M0 418V321.395L12.7 248.709H27.2158V226.556L31.7404 220.178H40.5955L48.9942 224.986V279.912L54.4412 282.528V298.74L65.3256 300.31V314.428L70.7727 314.952V242.244L72.5883 239.628V232.825L81.6667 233.348V239.105L90.7451 240.151V267.352L96.1922 269.446V257.933L101.639 259.503V251.653L117.708 249.56L119.689 195.256L127.729 189.597H138.448L148.837 198.821V187.559H169.198L177.878 193.064V198.297L183.325 199.344V187.559H191.569L208.735 198.297V213.986L212.367 215.556V245.373L219.629 247.467V242.234L225.076 238.57V232.814L230.523 233.861V229.674L235.97 227.581V207.706L245.049 205.089V173.178L252.146 167.171H267.051L274.09 176.842V232.814L282.217 232.749L284.751 240.533H294.043V223.394L304.306 221.301L323.181 223.394L325.133 228.104L330.347 229.151V264.202L339.911 273.098L346.678 271.528V232.814L352.795 227.058L359.378 226.534V217.115L365.243 211.882L373.904 212.405V229.663L381.166 229.14V235.943L393.866 247.456V157.49C393.866 157.49 396.614 155.397 401.731 157.49C406.858 159.583 406.343 138.651 406.343 138.651H454.328L500.943 142.848V151.221L510.021 153.838V239.105L511.837 248.524V261.073L519.1 273.632V66.4888L538.655 55.1177H560.55L571.735 62.8256V239.105L575.832 246.954L578.998 240.151V148.092L587.484 139.196L597.087 124.031L608.311 140.766L613.486 149.662V170.06L620.749 179.48V220.276L623.652 207.717L629.817 208.763V104.145L633.857 102.575L646.382 106.762L657.043 110.948V198.308L671.559 199.878V210.868L691.997 204.065L709.901 205.111L713.727 234.406L730.078 207.728L738.952 208.251L751.079 230.219L770.45 221.846L778.635 221.323V192.028L798.171 188.889L813.531 204.577L853.593 204.054L863.836 226.022L872.681 206.147L885.712 205.1V195.157L905.286 188.354L923.385 188.878L925.637 179.458V141.791L932.706 131.848L949.678 129.755L960.125 137.081V198.286L967.262 181.442H985.428L990.555 193.271L1000.81 179.404H1055.32L1059.96 194.133V232.803L1063.59 213.451V179.447L1072.57 168.981L1089 167.411V144.92L1104.19 143.35L1138 148.583V229.663C1138 229.663 1144.65 228.617 1144.18 227.047C1143.71 225.477 1144.5 202.974 1144.5 202.974L1157.34 197.73H1172.48V160.608L1221.13 152.759L1245.08 159.038V235.932L1252.23 219.197L1259.67 209.254L1274.11 209.777V197.719H1290.97L1293.84 195.681H1312.47L1317.13 155.124L1326.92 150.796L1348.14 152.301L1353.97 163.737V220.233L1364.86 210.813V195.125L1385.26 198.406L1390.74 205.874H1402.97V248.48L1421.11 249.004V163.737L1430.19 151.701V91.5422L1442.89 86.3091V38.1865L1456.71 34L1471.92 39.2331V91.7385H1481V154.307L1484.63 160.063V248.47L1497.31 247.946L1506.7 268.344L1510.04 265.205V195.114L1520.93 190.404V141.758L1530.49 128.425H1541.68L1553.6 144.375V188.834L1557.23 192.497V204.533L1573.56 212.383V232.781L1583.71 235.398L1616.73 234.406L1619.01 211.969H1649.79V232.77L1674 230.154L1686.58 237.48L1702.43 239.05V267.298L1710.11 265.728L1712.81 250.563L1753.25 248.993V223.362L1765.79 204.533L1793.08 205.58L1804.06 224.932V254.749L1818.57 255.665V262.926H1851.94L1855.67 235.823L1861.27 231.299L1869.19 226.251H1899.47L1914.5 227.428L1920.22 235.409V273.599L1928.22 308.127L1942 312.237V417.88L0.0970951 417.967L0 418Z" fill="#6C2215"/>
</svg>
