<svg width="34" height="24" viewBox="0 0 34 24" fill="none" xmlns="http://www.w3.org/2000/svg">
<path d="M26.7865 22.7215L26.8275 20.6774L23.9174 23.1401L27.4514 17.681L28.2148 19.8236L33.5056 15.4399L26.7865 22.7215Z" fill="#FE4811"/>
<path d="M6.71919 22.7215L6.67814 20.6774L9.58828 23.1401L6.05425 17.681L5.29079 19.8236L0 15.4399L6.71919 22.7215Z" fill="#FE4811"/>
<path d="M21.9021 2.6663L13.4138 2.86333C13.2948 2.87564 13.184 2.94131 13.1142 3.04393L9.89209 7.89143C9.74022 8.11718 9.83052 8.43323 10.0768 8.53174L18.3516 11.5281L16.2172 14.9144L10.2246 12.8908L11.1399 13.921L17.5184 18.3745L24.9353 11.327L21.7338 9.74669L15.2362 6.697L25.4238 7.40709C25.4238 7.40709 22.0991 2.64988 21.9021 2.6663Z" fill="#030504"/>
<path d="M10.1917 12.7471L8.6853 11.0519L15.3265 13.293L17.2105 10.3007L9.20248 7.40292C9.01778 7.32903 8.88232 7.18127 8.82486 6.99246C8.76329 6.79954 8.79613 6.59022 8.90695 6.42193L12.129 1.57442C12.2358 1.41024 12.4082 1.30763 12.6011 1.29121L21.1057 1.09009C21.2576 1.09009 21.4546 1.11061 24.8204 5.92938L25.0954 6.32341L15.659 5.66258L21.0401 8.18689L24.5413 9.91491L16.7467 17.3196L10.1917 12.7471Z" fill="#FE4811"/>
<path d="M21.1099 1.31982C21.3192 1.31982 24.6316 6.06061 24.6316 6.06061L14.444 5.35051L20.9416 8.40021L24.1431 9.98047L16.7262 17.028L10.3477 12.5746L9.43234 11.5443L15.425 13.5679L17.5594 10.1816L9.28458 7.18526C9.04241 7.08675 8.95211 6.7748 9.09987 6.54494L12.322 1.69744C12.3917 1.59483 12.5026 1.52505 12.6216 1.51684L21.1099 1.31982ZM21.1099 0.860107H21.0811L12.6052 1.05713H12.5888H12.5723C12.3096 1.08176 12.0757 1.22132 11.932 1.44296L8.70993 6.29046C8.55806 6.51621 8.52113 6.79532 8.59911 7.05802C8.6771 7.3125 8.86181 7.51363 9.10397 7.61214L16.8575 10.4197L15.2198 13.0179L9.56779 11.1092L7.92596 10.5551L9.07524 11.8522L9.99056 12.8824L10.0275 12.9235L10.0727 12.9563L16.4512 17.4097L16.759 17.6232L17.0299 17.3646L24.4469 10.317L24.923 9.86143L24.3319 9.57001L21.1304 7.98975L16.8575 5.98262L24.5864 6.52443L25.5469 6.5901L24.9969 5.80202C21.5449 0.864216 21.3849 0.864216 21.0975 0.864216L21.1099 0.860107Z" fill="#030504"/>
<path d="M25.8712 15.5907L31.1127 8.60059L31.987 9.18343L25.8712 15.5907Z" fill="#030504"/>
<path d="M7.79457 15.6164L2.51198 8.573L1.63361 9.15995L7.79457 15.6164Z" fill="#030504"/>
</svg>
