<svg width="3885" height="317" viewBox="0 0 3885 317" fill="none" xmlns="http://www.w3.org/2000/svg">
<path d="M1942 135.379L1951.2 132.368L1957.47 129.463H1966.05L1969.23 133.941V139.225L1980.11 137.243V57.9479L1989.19 55.306V49.5754H2001.89V44.0683L2014.59 41.4264V36.8711H2049.28L2081.75 40.7659V134.903H2107.16V55.9665L2112.6 52.6641V44.078L2119.87 36.1523V28.2266L2132.57 25.5847V14.347L2173.24 10.3842L2196.09 14.347V24.2541L2201.21 32.1798L2206.99 38.124V75.7903L2217.87 79.0927V93.6328L2237.83 91.9816V87.6885L2240.14 85.7072L2252.35 88.0188V91.6514L2272.31 97.2654V119.401L2281.39 120.061V123.364L2294.09 125.015V161.03L2299.54 160.7V119.401L2312.24 118.41V113.457L2332.21 114.778V109.494L2339.47 110.485V115.438L2353.99 116.759V131.299L2364.87 130.969V125.355L2372.13 126.346V131.28H2375.77V121.392L2380.31 117.759L2388.03 118.42L2386.83 113.136H2399.36V24.2638L2401.18 20.6312V7.83942H2410.26V0.574219H2433.74L2434.7 8.78157L2442.93 11.0447V30.2081L2448.38 29.5476V24.2638L2467.93 22.9429L2479.23 24.9243V34.1709L2486.5 37.8035V141.216L2495.58 140.886V135.272L2510.09 133.29V129.327L2515.54 126.686L2520.99 127.676V133.29L2537.32 135.932V151.133L2564.55 151.463V109.504L2566.36 107.522V104.055H2580.88V95.6239L2592.53 95.9542L2593.96 100.908L2602.65 100.577V95.6239L2618.61 95.9542L2623.42 91.9913L2633.51 96.6146V63.9018L2645.6 66.398L2650.42 62.2895H2663.64L2680.7 65.553V117.42L2688.68 118.41L2690.21 162.021L2693.4 163.672V59.9293L2694.88 51.3432L2704.29 49.692V48.0408L2714.35 46.3896L2723.93 49.0315L2735.15 51.0129V56.8406H2749.67V50.0222L2746.04 49.3617V38.124L2750.42 36.4728L2771.16 34.8216L2793.22 38.7845V52.0036L2791.18 55.306L2799.2 55.6362L2820.43 59.2688V113.457L2824.07 117.42V52.0036L2829.51 50.6827V42.0965L2841.48 41.1058L2845.85 41.7663V46.0594L2851.29 45.0687V40.1152L2860.37 39.7849L2865.82 41.4361V52.0134L2873.08 53.6645V62.2992H2883.97V49.5948H2895.5L2898.49 52.0231V56.8601H2903.94V49.5948H2913.35L2916.65 52.6835V61.9301L2920.28 62.5906V69.8558L2925.73 72.1675V93.6425L2938.04 93.3123L2942.29 86.0471L2947.52 85.0564V80.4525H2952.97V73.8186L2965.34 72.1675L2982 75.4698V145.179L2985.63 148.481V111.475L2991.08 107.512V79.7629L2996.53 77.121V65.8833L3000.16 63.2414V59.939L3012.86 60.9297L3029.19 64.8925V77.7815L3039.32 81.4141L3063.37 79.4326L3065.82 73.8186L3100.24 73.4884L3105.23 83.3955L3108.62 81.0838L3123.57 79.4326V44.078L3139.82 44.7384L3165.31 42.0965V48.0408L3178.02 47.0501V87.6885L3190.06 90.3304L3210.68 90.9909V44.078L3226.84 38.1337L3246.97 36.8128L3252.57 39.7849L3258.1 40.4454L3266.94 44.4082V123.373L3272.39 128.327V63.9018L3279.15 62.5809L3282.71 58.9483L3300.65 57.6274L3315.96 64.2321V69.8461L3321.72 70.1763L3341.37 76.7811V129.308L3354.07 127.987V67.855L3368.58 66.534V61.9107L3390.87 58.2781L3401.26 59.9293V67.855L3415.77 68.8457V105.521C3415.77 105.521 3421.53 103.87 3421.86 102.879C3422.19 101.889 3421.53 93.6328 3421.53 93.6328L3435.74 92.9723V87.6885L3455.7 87.3583V83.7257L3469.25 83.0653L3479.96 84.7164L3499.26 88.349V161.03L3511.96 166.314V127.327L3515.59 126.006V121.382L3522.86 112.466V97.5956L3533.74 95.6142V87.6885L3545.36 85.7072L3568.22 89.0095V95.6142L3579.11 97.5956V131.299L3582.8 137.243L3584.58 121.382L3590 120.061V113.457L3598.38 96.7798H3601.02L3604.52 107.503V113.447L3614.33 117.74L3617.22 131.95V159.039L3622.66 158.709V99.5673L3640.81 99.2371V107.668H3684.37V141.197L3699.39 141.527L3709.78 146.811V186.788L3715.23 188.109V109.474L3730.15 107.493L3756.97 109.144V111.456L3775.12 114.098V129.444H3787.82V85.6877L3802.34 83.3761V78.6168H3828.92L3835.27 81.1615L3845.91 83.0458V163.002L3853.24 168.286L3884.02 171.588V309.18L1942 316.6V135.379Z" fill="#48140B"/>
<path d="M0 135.379L9.19537 132.368L15.468 129.463H24.0517L27.2268 133.941V139.225L38.1117 137.243V57.9479L47.1906 55.306V49.5754H59.8913V44.0683L72.592 41.4264V36.8711H107.276L139.746 40.7659V134.903H165.157V55.9665L170.605 52.6641V44.078L177.868 36.1523V28.2266L190.568 25.5847V14.347L231.244 10.3842L254.091 14.347V24.2541L259.208 32.1798L264.986 38.124V75.7903L275.871 79.0927V93.6328L295.835 91.9816V87.6885L298.136 85.7072L310.351 88.0188V91.6514L330.315 97.2654V119.401L339.394 120.061V123.364L352.094 125.015V161.03L357.542 160.7V119.401L370.242 118.41V113.457L390.206 114.778V109.494L397.469 110.485V115.438L411.986 116.759V131.299L422.87 130.969V125.355L430.134 126.346V131.28H433.765V121.392L438.309 117.759L446.029 118.42L444.835 113.136H457.36V24.2638L459.176 20.6312V7.83942H468.255V0.574219H491.743L492.705 8.78157L500.929 11.0447V30.2081L506.376 29.5476V24.2638L525.932 22.9429L537.235 24.9243V34.1709L544.498 37.8035V141.216L553.577 140.886V135.272L568.093 133.29V129.327L573.541 126.686L578.988 127.676V133.29L595.32 135.932V151.133L622.547 151.463V109.504L624.363 107.522V104.055H638.879V95.6239L650.531 95.9542L651.958 100.908L660.649 100.577V95.6239L676.612 95.9542L681.419 91.9913L691.507 96.6146V63.9018L703.596 66.398L708.422 62.2895H721.637L738.698 65.553V117.42L746.68 118.41L748.214 162.021L751.399 163.672V59.9293L752.884 51.3432L762.293 49.692V48.0408L772.353 46.3896L781.927 49.0315L793.152 51.0129V56.8406H807.668V50.0222L804.036 49.3617V38.124L808.416 36.4728L829.156 34.8216L851.217 38.7845V52.0036L849.178 55.306L857.199 55.6362L878.435 59.2688V113.457L882.066 117.42V52.0036L887.513 50.6827V42.0965L899.476 41.1058L903.846 41.7663V46.0594L909.293 45.0687V40.1152L918.372 39.7849L923.819 41.4361V52.0134L931.082 53.6645V62.2992H941.967V49.5948H953.503L956.493 52.0231V56.8601H961.94V49.5948H971.349L974.651 52.6835V61.9301L978.282 62.5906V69.8558L983.73 72.1675V93.6425L996.042 93.3123L1000.29 86.0471L1005.52 85.0564V80.4525H1010.97V73.8186L1023.34 72.1675L1040 75.4698V145.179L1043.63 148.481V111.475L1049.08 107.512V79.7629L1054.53 77.121V65.8833L1058.16 63.2414V59.939L1070.86 60.9297L1087.19 64.8925V77.7815L1097.32 81.4141L1121.37 79.4326L1123.82 73.8186L1158.24 73.4884L1163.23 83.3955L1166.62 81.0838L1181.57 79.4326V44.078L1197.82 44.7384L1223.31 42.0965V48.0408L1236.02 47.0501V87.6885L1248.06 90.3304L1268.68 90.9909V44.078L1284.84 38.1337L1304.97 36.8128L1310.57 39.7849L1316.1 40.4454L1324.94 44.4082V123.373L1330.39 128.327V63.9018L1337.15 62.5809L1340.71 58.9483L1358.65 57.6274L1373.96 64.2321V69.8461L1379.72 70.1763L1399.37 76.7811V129.308L1412.07 127.987V67.855L1426.58 66.534V61.9107L1448.87 58.2781L1459.26 59.9293V67.855L1473.77 68.8457V105.521C1473.77 105.521 1479.53 103.87 1479.86 102.879C1480.19 101.889 1479.53 93.6328 1479.53 93.6328L1493.74 92.9723V87.6885L1513.7 87.3583V83.7257L1527.25 83.0653L1537.96 84.7164L1557.26 88.349V161.03L1569.96 166.314V127.327L1573.59 126.006V121.382L1580.86 112.466V97.5956L1591.74 95.6142V87.6885L1603.36 85.7072L1626.22 89.0095V95.6142L1637.11 97.5956V131.299L1640.8 137.243L1642.58 121.382L1648 120.061V113.457L1656.38 96.7798H1659.02L1662.52 107.503V113.447L1672.33 117.74L1675.22 131.95V159.039L1680.66 158.709V99.5673L1698.81 99.2371V107.668H1742.37V141.197L1757.39 141.527L1767.78 146.811V186.788L1773.23 188.109V109.474L1788.15 107.493L1814.97 109.144V111.456L1833.12 114.098V129.444H1845.82V85.6877L1860.34 83.3761V78.6168H1886.92L1893.27 81.1615L1903.91 83.0458V163.002L1911.24 168.286L1942.02 171.588V309.18L0 316.6V135.379Z" fill="#48140B"/>
</svg>
