<svg width="176" height="66" viewBox="0 0 176 66" fill="none" xmlns="http://www.w3.org/2000/svg">
<path d="M11.4238 56.1927L12.8051 58.9542L15.8663 59.402L13.645 61.5663L14.1677 64.6263L11.4238 63.1709L8.69859 64.6263L9.22123 61.5663L7 59.402L10.0612 58.9542L11.4238 56.1927Z" fill="white"/>
<path d="M163.719 56.1927L165.1 58.9542L168.161 59.402L165.94 61.5663L166.463 64.6263L163.719 63.1709L160.975 64.6263L161.497 61.5663L159.295 59.402L162.356 58.9542L163.719 56.1927Z" fill="white"/>
<path d="M24.338 55.1857H26.6339V63.5632H31.8417V65.6343H24.3193V55.1857H24.338Z" fill="white"/>
<path d="M34.2881 55.1857H36.584V65.6343H34.2881V55.1857Z" fill="white"/>
<path d="M38.8943 55.1857H41.4328L44.158 62.5557L46.9019 55.1857H49.3845L45.166 65.7089H43.1314L38.8943 55.1857Z" fill="white"/>
<path d="M51.5928 55.1855H59.4698V57.238H53.87V59.365H58.7978V61.4174H53.87V63.6191H59.5444V65.6715H51.5928V55.1855Z" fill="white"/>
<path d="M69.7123 57.2939H66.5391V55.1855H75.2V57.3126H72.0268V65.6528H69.7309V57.2939H69.7123Z" fill="white"/>
<path d="M77.5527 55.1855H79.8486V59.3277H84.0858V55.1855H86.3817V65.6342H84.0858V61.4361H79.8486V65.6342H77.5527V55.1855Z" fill="white"/>
<path d="M89.5012 55.1857H97.3782V57.2381H91.7784V59.3651H96.7062V61.4175H91.7784V63.6192H97.4529V65.6716H89.5012V55.1857Z" fill="white"/>
<path d="M110.073 65.8031C109.307 65.8031 108.598 65.6725 107.945 65.3926C107.291 65.1128 106.713 64.7396 106.246 64.2545C105.761 63.7694 105.388 63.2096 105.126 62.5379C104.865 61.8849 104.716 61.1759 104.716 60.4295V60.3922C104.716 59.6459 104.846 58.9555 105.126 58.3025C105.388 57.6495 105.761 57.0711 106.246 56.586C106.731 56.1008 107.291 55.709 107.963 55.4291C108.635 55.1493 109.363 55 110.166 55C110.651 55 111.099 55.0373 111.51 55.1119C111.921 55.1866 112.275 55.2985 112.611 55.4478C112.947 55.5971 113.246 55.765 113.526 55.9516C113.806 56.1382 114.067 56.3621 114.31 56.6046L112.854 58.2839C112.443 57.9107 112.033 57.6308 111.603 57.4256C111.174 57.2203 110.707 57.1084 110.185 57.1084C109.755 57.1084 109.345 57.183 108.971 57.3696C108.598 57.5375 108.281 57.7614 108.001 58.0786C107.721 58.3958 107.515 58.7316 107.366 59.1235C107.217 59.5153 107.142 59.9444 107.142 60.3922V60.4295C107.142 60.8773 107.217 61.3065 107.366 61.6983C107.515 62.0901 107.721 62.4446 107.982 62.7432C108.243 63.0417 108.561 63.2843 108.934 63.4522C109.307 63.6201 109.718 63.7134 110.166 63.7134C110.763 63.7134 111.267 63.6015 111.678 63.3776C112.089 63.1537 112.499 62.8551 112.91 62.482L114.366 63.956C114.104 64.2358 113.824 64.497 113.526 64.7396C113.246 64.9635 112.929 65.1687 112.574 65.3367C112.238 65.5046 111.865 65.6165 111.454 65.7098C111.043 65.8031 110.595 65.8404 110.073 65.8404V65.8031Z" fill="white"/>
<path d="M116.809 55.1857H119.104V59.3278H123.342V55.1857H125.638V65.6343H123.342V61.4362H119.104V65.6343H116.809V55.1857Z" fill="white"/>
<path d="M128.847 55.1857H131.143V65.6343H128.847V55.1857Z" fill="white"/>
<path d="M134.372 55.1857H136.668V63.5632H141.876V65.6343H134.354V55.1857H134.372Z" fill="white"/>
<path d="M144.21 55.1855H146.506V63.5631H151.714V65.6342H144.191V55.1855H144.21Z" fill="white"/>
<g style="mix-blend-mode:multiply">
<path d="M32.5678 16.6023C30.6639 15.2216 28.6293 14.2141 26.52 13.5984C24.3921 12.964 22.3762 12.6468 20.5097 12.6468C19.4084 12.6468 18.8857 12.8334 18.6244 13.0013C18.2698 13.2252 18.2324 13.4304 18.2324 13.617V13.729C18.2324 13.8596 18.2698 13.9715 18.3444 14.0835C18.3817 14.1394 18.5124 14.3074 18.9231 14.5126C19.2964 14.6992 19.819 14.9044 20.4723 15.0724C21.163 15.2589 22.0589 15.4642 23.1415 15.6508C25.8107 16.1359 28.2933 16.7143 30.4959 17.4046C31.9518 17.8524 33.2957 18.3935 34.4903 19.0093L39.7914 11.6579C39.2128 11.1914 38.5968 10.781 37.9809 10.3705L33.1837 17.0128L32.5678 16.565V16.6023Z" fill="#010101"/>
</g>
<g style="mix-blend-mode:multiply">
<path d="M40.1822 36.1953C39.2675 38.0424 37.9423 39.6097 36.281 40.8972C34.6197 42.1659 32.5852 43.1361 30.2333 43.8265C27.9 44.4982 25.2682 44.834 22.431 44.834C18.1192 44.834 14.05 44.237 10.3168 43.0428C7.68496 42.2032 5.29573 41.0651 3.16783 39.6284L1.05859 42.1473C3.70914 44.4795 6.88233 46.2521 10.5595 47.4089C14.2367 48.5843 18.1938 49.1628 22.431 49.1628C25.2122 49.1628 27.7321 48.8269 30.0279 48.1739C32.3052 47.5208 34.2464 46.5879 35.833 45.3751C37.4196 44.1623 38.6516 42.6883 39.5288 40.9345C40.4061 39.1806 40.8355 37.2215 40.8355 35.0385V34.9265C40.8355 34.9265 40.8355 34.7586 40.8355 34.684C40.6488 35.2064 40.4435 35.7102 40.2008 36.1953H40.1822Z" fill="#010101"/>
</g>
<g style="mix-blend-mode:multiply">
<path d="M8.95763 27.5928C11.1415 29.272 13.4561 30.4848 15.864 31.2125C18.2719 31.9401 20.7171 32.3133 23.0877 32.3133C24.5063 32.3133 25.1596 32.1081 25.4582 31.9401C25.8502 31.7162 25.9062 31.4924 25.9062 31.2871V31.1752C25.9062 30.8953 25.6449 30.6154 25.1036 30.3729C24.3569 29.9997 22.8823 29.6079 20.7358 29.1787C18.3652 28.6936 16.088 28.1339 13.9601 27.4995C11.7762 26.8464 9.83493 26.0068 8.19234 24.9806C6.49375 23.9358 5.13114 22.611 4.10452 21.0251C3.80587 20.54 3.54455 20.0175 3.32056 19.4764C3.32056 19.663 3.32056 19.8496 3.32056 20.0362V20.1481C3.32056 22.3685 3.7872 24.2156 4.75782 25.7083C5.42979 26.7532 6.28842 27.6861 7.27771 28.4884L8.37899 27.1636L8.95763 27.6114V27.5928Z" fill="#010101"/>
</g>
<g style="mix-blend-mode:multiply">
<path d="M162.107 21.9588L174.333 6.73364H171.216L160.744 19.7944L162.107 21.9588Z" fill="#010101"/>
</g>
<g style="mix-blend-mode:multiply">
<path d="M113.762 22.462C113.762 21.3238 113.575 20.223 113.183 19.1781C112.791 18.1333 112.25 17.2004 111.559 16.3981C110.869 15.6144 110.029 14.9614 109.058 14.4949C108.088 14.0285 106.986 13.8046 105.754 13.8046C104.522 13.8046 103.477 14.0471 102.506 14.4949C101.536 14.9614 100.696 15.5958 100.005 16.3607C99.3146 17.1444 98.7919 18.04 98.4186 19.0662C98.0453 20.0924 97.8586 21.1932 97.8586 22.3314V22.4433C97.8586 22.7605 97.8773 23.0777 97.9146 23.3949C98.288 22.4993 98.7919 21.6783 99.4266 20.9507C100.173 20.0924 101.088 19.4207 102.17 18.8983C103.234 18.3758 104.429 18.1333 105.736 18.1333C107.042 18.1333 108.293 18.3945 109.375 18.8983C110.439 19.4207 111.354 20.1111 112.119 20.988C112.773 21.753 113.295 22.6113 113.687 23.5628C113.725 23.227 113.743 22.9098 113.743 22.5739V22.462H113.762Z" fill="#010101"/>
</g>
<g style="mix-blend-mode:multiply">
<path d="M53.9426 14.1792H42.4258V18.5266H53.9426V14.1792Z" fill="#010101"/>
</g>
<g style="mix-blend-mode:multiply">
<path d="M146.296 44.0511H132.371V48.3985H146.296V44.0511Z" fill="#010101"/>
</g>
<g style="mix-blend-mode:multiply">
<path d="M157.609 44.0496L149.788 31.3806L147.062 34.7018V38.6014L149.881 35.1869L158.038 48.3969H174.632L171.907 44.0496H157.609Z" fill="#010101"/>
</g>
<g style="mix-blend-mode:multiply">
<path d="M80.8918 14.1792H69.375V18.5266H80.8918V14.1792Z" fill="#010101"/>
</g>
<g style="mix-blend-mode:multiply">
<path d="M68.6083 44.0511H54.6836V48.3985H68.6083V44.0511Z" fill="#010101"/>
</g>
<g style="mix-blend-mode:multiply">
<path d="M127.499 31.252C126.285 33.9574 124.624 36.3643 122.515 38.3981C120.406 40.4132 117.904 42.0364 115.049 43.1932C112.193 44.35 109.075 44.9471 105.772 44.9471C102.468 44.9471 99.3693 44.3687 96.5321 43.2306C93.6949 42.0924 91.1936 40.4878 89.0844 38.4914C86.9752 36.4949 85.3139 34.088 84.1193 31.3826C83.7086 30.4497 83.3726 29.4794 83.1113 28.4719C83.2047 31.196 83.7646 33.7708 84.8099 36.1777C85.9672 38.8085 87.5538 41.1035 89.607 43.044C91.6416 44.9844 94.0495 46.5144 96.812 47.6339C99.5746 48.7534 102.561 49.2945 105.772 49.2945C108.982 49.2945 111.987 48.7347 114.769 47.5966C117.55 46.4584 119.958 44.9098 122.011 42.9507C124.045 40.9916 125.669 38.6779 126.827 36.0471C127.909 33.6216 128.469 31.0467 128.563 28.304C128.283 29.3115 127.947 30.3004 127.517 31.2706L127.499 31.252Z" fill="#010101"/>
</g>
<path d="M36.3237 20.0969C34.6998 19.0147 32.7398 18.1005 30.4999 17.4101C28.2974 16.7384 25.8148 16.1414 23.1456 15.6562C22.063 15.4697 21.167 15.2644 20.4764 15.0778C19.8231 14.8913 19.3005 14.7047 18.9271 14.5181C18.5165 14.3129 18.3858 14.1449 18.3485 14.089C18.2738 13.977 18.2365 13.8651 18.2365 13.7344V13.6225C18.2365 13.4359 18.2925 13.2307 18.6285 13.0068C18.8898 12.8389 19.4125 12.6523 20.5137 12.6523C22.3803 12.6523 24.3962 12.9695 26.5241 13.6038C28.6334 14.2382 30.6679 15.2458 32.5719 16.6078L33.1878 17.0556L40.8408 6.45773L40.2808 6.00993C37.7983 4.05082 34.9611 2.57682 31.8626 1.60659C28.764 0.636359 25.1242 0.151245 21.0177 0.151245C18.0872 0.151245 15.4553 0.52441 13.1967 1.25208C10.9008 1.99841 8.95959 3.04327 7.41033 4.36801C5.8424 5.7114 4.62912 7.29735 3.82649 9.08854C3.0052 10.8797 2.59455 12.8575 2.59455 14.9286V15.0405C2.59455 17.3915 3.11719 19.4066 4.14381 21.0112C5.15177 22.5971 6.53304 23.9218 8.23163 24.9667C9.89288 25.9929 11.8341 26.8325 13.9994 27.4856C16.1273 28.12 18.4045 28.6797 20.7751 29.1648C22.9216 29.594 24.3962 29.9858 25.1429 30.3589C25.6655 30.6202 25.9455 30.8814 25.9455 31.1612V31.2732C25.9455 31.4784 25.8895 31.7023 25.4975 31.9262C25.1989 32.0942 24.5456 32.2994 23.127 32.2994C20.7564 32.2994 18.3298 31.9262 15.9033 31.1986C13.4954 30.4709 11.1808 29.2581 8.99693 27.5789L8.41828 27.1311L0 37.1319L0.559975 37.617C3.28518 40.0239 6.57037 41.8338 10.3222 43.0279C14.0554 44.222 18.1245 44.8191 22.4363 44.8191C25.2735 44.8191 27.9054 44.4832 30.2386 43.8115C32.6092 43.1398 34.6438 42.151 36.2864 40.8822C37.9663 39.6134 39.2729 38.0275 40.1875 36.1803C41.1021 34.3332 41.5688 32.2434 41.5688 29.9485V29.8365C41.5688 27.6162 41.1021 25.6757 40.1875 24.1084C39.2729 22.5411 37.9849 21.1977 36.3237 20.0783V20.0969ZM40.0568 29.9671C40.0568 32.0195 39.6462 33.8854 38.8249 35.5273C38.0036 37.1692 36.8463 38.5686 35.3531 39.7067C33.8411 40.8635 31.9745 41.7591 29.7906 42.3749C27.5881 43.0092 25.1055 43.3264 22.399 43.3264C18.2552 43.3264 14.3353 42.748 10.7515 41.6099C7.44766 40.565 4.53579 38.9977 2.09057 36.964L8.58628 29.2208C10.7328 30.7881 13.0287 31.9449 15.3993 32.6539C17.9565 33.4189 20.5324 33.8107 23.0523 33.8107C24.4709 33.8107 25.4788 33.6241 26.1695 33.2323C27.1774 32.6539 27.3828 31.8516 27.3828 31.2732V31.1612C27.3828 30.5455 27.1028 29.6686 25.7402 28.9969C24.8629 28.5678 23.3136 28.1386 20.999 27.6908C18.6845 27.2244 16.4446 26.6646 14.3727 26.0489C12.3194 25.4332 10.5089 24.6495 8.95959 23.6979C7.46633 22.765 6.25305 21.6082 5.35709 20.2089C4.4798 18.8468 4.05048 17.1116 4.05048 15.0592V14.9472C4.05048 13.0814 4.4238 11.3275 5.15177 9.72293C5.87973 8.11832 6.94368 6.71895 8.34362 5.52482C9.74356 4.33069 11.5168 3.37912 13.626 2.68877C15.7353 1.99841 18.2178 1.66256 20.9804 1.66256C24.9375 1.66256 28.428 2.12902 31.3772 3.06193C34.0651 3.90155 36.5477 5.15165 38.7502 6.77492L32.8332 14.9845C30.9666 13.7344 28.988 12.7829 26.9534 12.1858C24.6949 11.5141 22.5296 11.1783 20.5137 11.1783C19.3191 11.1783 18.4418 11.3648 17.8072 11.7753C16.9112 12.3537 16.7246 13.1187 16.7246 13.6598V13.7718C16.7246 14.2009 16.8552 14.5927 17.0979 14.9659C17.3219 15.3204 17.6952 15.6189 18.2365 15.8988C18.7032 16.1414 19.3005 16.3653 20.0844 16.5892C20.8124 16.7944 21.7643 16.9996 22.8843 17.2049C25.4975 17.6713 27.9054 18.2497 30.052 18.9028C32.1612 19.5558 33.9905 20.3954 35.4837 21.403C36.9397 22.3919 38.0969 23.5673 38.8809 24.9294C39.6649 26.2728 40.0568 27.952 40.0568 29.9111V30.0231V29.9671Z" fill="#010101"/>
<path d="M41.6621 14.1819H53.9256V44.0537H69.3622V14.1819H81.6256V0.897217H41.6621V14.1819ZM43.174 2.38988H80.1324V12.6706H67.8689V42.5424H55.4375V12.6706H43.174V2.38988Z" fill="#010101"/>
<path d="M122.558 6.45575C120.449 4.45932 117.947 2.85471 115.11 1.71656C112.273 0.578406 109.156 0 105.871 0C102.586 0 99.4497 0.597063 96.5938 1.75387C93.7379 2.91069 91.2181 4.53395 89.1275 6.54904C87.0182 8.56413 85.3383 10.971 84.1437 13.6952C82.9304 16.4193 82.3145 19.3673 82.3145 22.4832V22.5951C82.3145 25.7111 82.9118 28.6591 84.1064 31.3832C85.301 34.1073 86.9622 36.4955 89.0715 38.492C91.1807 40.4884 93.6819 42.093 96.5191 43.2312C99.3563 44.3693 102.455 44.9477 105.759 44.9477C109.063 44.9477 112.18 44.3506 115.036 43.1938C117.892 42.037 120.411 40.4138 122.502 38.3987C124.611 36.3649 126.291 33.9767 127.486 31.2526C128.699 28.5285 129.315 25.5805 129.315 22.4645V22.3526C129.315 19.2553 128.718 16.2886 127.523 13.5645C126.328 10.8404 124.667 8.45219 122.558 6.45575ZM127.803 22.4645C127.803 25.3566 127.243 28.0993 126.104 30.6368C124.985 33.1744 123.417 35.4134 121.457 37.2978C119.497 39.1823 117.145 40.6936 114.457 41.7758C111.788 42.858 108.857 43.4177 105.759 43.4177C102.66 43.4177 99.7297 42.8766 97.0791 41.8131C94.4286 40.7496 92.0767 39.2569 90.1168 37.3911C88.1569 35.5253 86.6076 33.305 85.4876 30.7674C84.3864 28.2486 83.8264 25.4872 83.8264 22.5951V22.4832C83.8264 19.5912 84.3864 16.8297 85.525 14.3109C86.6449 11.7734 88.2129 9.53436 90.1728 7.64988C92.1327 5.7654 94.4846 4.25408 97.1724 3.1719C99.8417 2.08972 102.772 1.52998 105.871 1.52998C108.969 1.52998 111.9 2.07106 114.55 3.13458C117.201 4.1981 119.553 5.69076 121.513 7.55659C123.473 9.42241 125.022 11.6427 126.142 14.1803C127.243 16.7178 127.803 19.4605 127.803 22.3526V22.4645Z" fill="#010101"/>
<path d="M112.701 15.429C111.88 14.4775 110.872 13.7125 109.715 13.1527C108.539 12.593 107.214 12.3131 105.758 12.3131C104.302 12.3131 103.032 12.593 101.857 13.1527C100.699 13.7125 99.6913 14.4588 98.8887 15.3917C98.0674 16.306 97.4514 17.3882 97.0221 18.5823C96.5928 19.7764 96.3875 21.0265 96.3875 22.3512V22.4632C96.3875 23.7693 96.6114 25.0567 97.0594 26.2695C97.5074 27.4823 98.142 28.5644 98.9447 29.4974C99.766 30.4489 100.774 31.2139 101.931 31.7737C103.107 32.3334 104.432 32.6133 105.888 32.6133C107.344 32.6133 108.614 32.3334 109.79 31.7737C110.947 31.2139 111.955 30.4676 112.757 29.5347C113.579 28.6204 114.195 27.5382 114.624 26.3441C115.053 25.15 115.259 23.8812 115.259 22.5751V22.4632C115.259 21.1571 115.035 19.8697 114.587 18.6569C114.139 17.4441 113.504 16.362 112.701 15.4104V15.429ZM113.765 22.5938C113.765 23.732 113.579 24.8328 113.205 25.859C112.851 26.8665 112.309 27.7808 111.619 28.5644C110.928 29.3294 110.088 29.9638 109.118 30.4303C108.147 30.8967 107.064 31.1206 105.87 31.1206C104.675 31.1206 103.536 30.8781 102.566 30.4303C101.595 29.9638 100.755 29.3294 100.065 28.5271C99.374 27.7248 98.8327 26.7919 98.4407 25.747C98.0487 24.7022 97.8621 23.6013 97.8621 22.4632V22.3512C97.8621 21.2131 98.0487 20.1123 98.422 19.0861C98.7767 18.0785 99.318 17.1643 100.009 16.3806C100.699 15.6156 101.539 14.9812 102.51 14.5148C103.48 14.0483 104.563 13.8244 105.758 13.8244C106.952 13.8244 108.091 14.067 109.062 14.5148C110.032 14.9812 110.872 15.6156 111.563 16.4179C112.253 17.2202 112.795 18.1531 113.187 19.198C113.579 20.2429 113.765 21.3437 113.765 22.4819V22.5938Z" fill="#010101"/>
<path d="M160.747 19.798L175.923 0.897217H157.779L147.065 15.0028V0.897217H131.629V44.0537H147.065V34.706L149.791 31.3848L157.611 44.0537H175.997L160.729 19.7794L160.747 19.798ZM149.958 28.7913L145.553 34.1649V42.5424H133.122V2.38988H145.553V19.4622L158.526 2.38988H172.768L158.881 19.6674L173.272 42.5424H158.451L149.958 28.7913Z" fill="#010101"/>
<path d="M40.0564 29.9648C40.0564 32.0172 39.6457 33.8831 38.8244 35.525C38.0031 37.1669 36.8458 38.5663 35.3526 39.7044C33.8406 40.8612 31.9741 41.7568 29.7902 42.3726C27.5876 43.0069 25.105 43.3241 22.3985 43.3241C18.2547 43.3241 14.3349 42.7457 10.751 41.6076C7.44718 40.5627 4.53531 38.9954 2.09009 36.9617L8.58579 29.2185C10.7324 30.7858 13.0283 31.9426 15.3988 32.6516C17.956 33.4166 20.5319 33.8084 23.0518 33.8084C24.4704 33.8084 25.4784 33.6218 26.169 33.23C27.1769 32.6516 27.3823 31.8493 27.3823 31.2709V31.159C27.3823 30.5432 27.1023 29.6663 25.7397 28.9946C24.8624 28.5655 23.3131 28.1363 20.9986 27.6885C18.684 27.2221 16.4441 26.6623 14.3722 26.0466C12.319 25.4309 10.5084 24.6472 8.95911 23.6957C7.46584 22.7627 6.25256 21.6059 5.35661 20.2066C4.47931 18.8445 4.05 17.1093 4.05 15.0569V14.9449C4.05 13.0791 4.42331 11.3252 5.15128 9.72063C5.87925 8.11602 6.9432 6.71666 8.34314 5.52253C9.74307 4.3284 11.5163 3.37683 13.6256 2.68647C15.7348 1.99612 18.2174 1.66027 20.9799 1.66027C24.937 1.66027 28.4276 2.12673 31.3768 3.05964C34.0646 3.89926 36.5472 5.14936 38.7498 6.77263L32.8327 14.9823C30.9661 13.7322 28.9875 12.7806 26.953 12.1835C24.6944 11.5118 22.5292 11.176 20.5132 11.176C19.3186 11.176 18.4413 11.3626 17.8067 11.773C16.9107 12.3514 16.7241 13.1164 16.7241 13.6575V13.7695C16.7241 14.1986 16.8547 14.5904 17.0974 14.9636C17.3214 15.3181 17.6947 15.6166 18.236 15.8965C18.7027 16.1391 19.3 16.363 20.0839 16.5869C20.8119 16.7921 21.7639 16.9973 22.8838 17.2026C25.497 17.669 27.9049 18.2475 30.0515 18.9005C32.1607 19.5535 33.99 20.3931 35.4832 21.4007C36.9392 22.3896 38.0964 23.565 38.8804 24.9271C39.6644 26.2705 40.0564 27.9497 40.0564 29.9089V30.0208V29.9648ZM43.1735 2.38794H80.1319V12.6686H67.8684V42.5405H55.437V12.6686H43.1735V2.38794ZM127.804 22.4642C127.804 25.3562 127.244 28.099 126.106 30.6365C124.986 33.174 123.418 35.413 121.458 37.2975C119.498 39.182 117.146 40.6933 114.458 41.7755C111.789 42.8577 108.859 43.4174 105.76 43.4174C102.662 43.4174 99.731 42.8763 97.0804 41.8128C94.4299 40.7493 92.078 39.2566 90.1181 37.3908C88.1582 35.525 86.6089 33.3047 85.489 30.7671C84.3877 28.2483 83.8277 25.4868 83.8277 22.5948V22.4829C83.8277 19.5908 84.3877 16.8294 85.5263 14.3106C86.6462 11.773 88.2142 9.53405 90.1741 7.64957C92.134 5.76508 94.4859 4.25377 97.1738 3.17159C99.843 2.08941 102.774 1.52966 105.872 1.52966C108.971 1.52966 111.901 2.07075 114.552 3.13427C117.202 4.19779 119.554 5.69045 121.514 7.55628C123.474 9.4221 125.023 11.6424 126.143 14.18C127.244 16.7175 127.804 19.4602 127.804 22.3523V22.4642ZM112.704 15.4301C111.882 14.4785 110.874 13.7135 109.717 13.1537C108.541 12.594 107.216 12.3141 105.76 12.3141C104.304 12.3141 103.035 12.594 101.859 13.1537C100.702 13.7135 99.6936 14.4598 98.891 15.3927C98.0697 16.307 97.4537 17.3892 97.0244 18.5833C96.5951 19.7774 96.3898 21.0275 96.3898 22.3523V22.4642C96.3898 23.7703 96.6138 25.0577 97.0618 26.2705C97.5097 27.4833 98.1444 28.5655 98.947 29.4984C99.7683 30.4499 100.776 31.2149 101.934 31.7747C103.109 32.3344 104.435 32.6143 105.891 32.6143C107.347 32.6143 108.616 32.3344 109.792 31.7747C110.949 31.2149 111.957 30.4686 112.76 29.5357C113.581 28.6214 114.197 27.5393 114.626 26.3451C115.056 25.151 115.261 23.8822 115.261 22.5762V22.4642C115.261 21.1581 115.037 19.8707 114.589 18.6579C114.141 17.4451 113.506 16.363 112.704 15.4114V15.4301ZM149.961 28.7894L145.556 34.1629V42.5405H133.124V2.38794H145.556V19.4602L158.528 2.38794H172.77L158.883 19.6655L173.274 42.5405H158.454L149.961 28.7894Z" fill="white"/>
</svg>
