<svg width="3526" height="384" viewBox="0 0 3526 384" fill="none" xmlns="http://www.w3.org/2000/svg">
<path d="M1584 384V287.395L1596.7 214.709H1611.22V192.556L1615.74 186.178H1624.6L1632.99 190.986V245.912L1638.44 248.528V264.74L1649.33 266.31V280.428L1654.77 280.952V208.244L1656.59 205.628V198.825L1665.67 199.348V205.105L1674.75 206.151V233.352L1680.19 235.446V223.933L1685.64 225.503V217.653L1701.71 215.56L1703.69 161.256L1711.73 155.597H1722.45L1732.84 164.821V153.559H1753.2L1761.88 159.064V164.297L1767.33 165.344V153.559H1775.57L1792.74 164.297V179.986L1796.37 181.556V211.373L1803.63 213.467V208.234L1809.08 204.57V198.814L1814.52 199.861V195.674L1819.97 193.581V173.706L1829.05 171.089V139.178L1836.15 133.171H1851.05L1858.09 142.842V198.814L1866.22 198.749L1868.75 206.533H1878.04V189.394L1888.31 187.301L1907.18 189.394L1909.13 194.104L1914.35 195.151V230.202L1923.91 239.098L1930.68 237.528V198.814L1936.8 193.058L1943.38 192.534V183.115L1949.24 177.882L1957.9 178.405V195.663L1965.17 195.14V201.943L1977.87 213.456V123.49C1977.87 123.49 1980.61 121.397 1985.73 123.49C1990.86 125.583 1990.34 104.651 1990.34 104.651H2038.33L2084.94 108.848V117.221L2094.02 119.838V205.105L2095.84 214.524V227.073L2103.1 239.632V32.4888L2122.65 21.1177H2144.55L2155.74 28.8256V205.105L2159.83 212.954L2163 206.151V114.092L2171.48 105.196L2181.09 90.031L2192.31 106.766L2197.49 115.662V136.06L2204.75 145.48V186.276L2207.65 173.717L2213.82 174.764V70.1453L2217.86 68.5753L2230.38 72.7618L2241.04 76.9483V164.308L2255.56 165.878V176.868L2276 170.065L2293.9 171.111L2297.73 200.406L2314.08 173.728L2322.95 174.251L2335.08 196.219L2354.45 187.846L2362.64 187.323V158.029L2382.17 154.889L2397.53 170.577L2437.59 170.054L2447.84 192.022L2456.68 172.147L2469.71 171.1V161.157L2489.29 154.354L2507.38 154.878L2509.64 145.458V107.791L2516.71 97.8479L2533.68 95.7547L2544.13 103.081V164.286L2551.26 147.442H2569.43L2574.55 159.271L2584.81 145.404H2639.32L2643.96 160.133V198.803L2647.59 179.451V145.447L2656.57 134.981L2673 133.411V110.92L2688.19 109.35L2722 114.583V195.663C2722 195.663 2728.65 194.617 2728.18 193.047C2727.71 191.477 2728.5 168.974 2728.5 168.974L2741.34 163.73H2756.48V126.608L2805.13 118.759L2829.08 125.038V201.932L2836.23 185.197L2843.67 175.254L2858.11 175.777V163.719H2874.97L2877.84 161.681H2896.47L2901.13 121.124L2910.92 116.796L2932.14 118.301L2937.97 129.737V186.233L2948.86 176.813V161.125L2969.26 164.406L2974.74 171.874H2986.97V214.48L3005.11 215.004V129.737L3014.19 117.701V57.5422L3026.89 52.3091V4.18647L3040.71 0L3055.92 5.23308V57.7385H3065V120.307L3068.63 126.063V214.47L3081.31 213.946L3090.7 234.344L3094.04 231.205V161.114L3104.93 156.404V107.758L3114.49 94.4246H3125.68L3137.6 110.375V154.834L3141.23 158.497V170.533L3157.56 178.383V198.781L3167.71 201.398L3200.73 200.406L3203.01 177.969H3233.79V198.77L3258 196.154L3270.58 203.48L3286.43 205.05V233.298L3294.11 231.728L3296.81 216.563L3337.25 214.993V189.362L3349.79 170.533L3377.08 171.58L3388.06 190.932V220.749L3402.57 221.665V228.926H3435.94L3439.67 201.823L3445.27 197.299L3453.19 192.251H3483.47L3498.5 193.428L3504.22 201.409V239.599L3512.22 274.127L3526 278.237V383.88L1584.1 383.967L1584 384Z" fill="#FF5124"/>
<path d="M0 384V287.395L12.7 214.709H27.2158V192.556L31.7404 186.178H40.5955L48.9942 190.986V245.912L54.4412 248.528V264.74L65.3256 266.31V280.428L70.7726 280.952V208.244L72.5883 205.628V198.825L81.6667 199.348V205.105L90.7451 206.151V233.352L96.1922 235.446V223.933L101.639 225.503V217.653L117.708 215.56L119.689 161.256L127.729 155.597H138.448L148.837 164.821V153.559H169.198L177.878 159.064V164.297L183.325 165.344V153.559H191.569L208.735 164.297V179.986L212.366 181.556V211.373L219.629 213.467V208.234L225.076 204.57V198.814L230.523 199.861V195.674L235.97 193.581V173.706L245.049 171.089V139.178L252.146 133.171H267.05L274.09 142.842V198.814L282.217 198.749L284.751 206.533H294.043V189.394L304.306 187.301L323.181 189.394L325.133 194.104L330.347 195.151V230.202L339.911 239.098L346.678 237.528V198.814L352.795 193.058L359.378 192.534V183.115L365.243 177.882L373.904 178.405V195.663L381.166 195.14V201.943L393.866 213.456V123.49C393.866 123.49 396.614 121.397 401.731 123.49C406.858 125.583 406.343 104.651 406.343 104.651H454.328L500.943 108.848V117.221L510.021 119.838V205.105L511.837 214.524V227.073L519.1 239.632V32.4888L538.655 21.1177H560.55L571.735 28.8256V205.105L575.832 212.954L578.998 206.151V114.092L587.484 105.196L597.087 90.031L608.311 106.766L613.486 115.662V136.06L620.749 145.48V186.276L623.652 173.717L629.817 174.764V70.1453L633.857 68.5753L646.382 72.7618L657.043 76.9483V164.308L671.559 165.878V176.868L691.997 170.065L709.901 171.111L713.727 200.406L730.078 173.728L738.952 174.251L751.079 196.219L770.45 187.846L778.635 187.323V158.029L798.171 154.889L813.531 170.577L853.593 170.054L863.836 192.022L872.681 172.147L885.712 171.1V161.157L905.286 154.354L923.385 154.878L925.637 145.458V107.791L932.706 97.8479L949.678 95.7547L960.125 103.081V164.286L967.262 147.442H985.428L990.555 159.271L1000.81 145.404H1055.32L1059.96 160.133V198.803L1063.59 179.451V145.447L1072.57 134.981L1089 133.411V110.92L1104.19 109.35L1138 114.583V195.663C1138 195.663 1144.64 194.617 1144.18 193.047C1143.71 191.477 1144.5 168.974 1144.5 168.974L1157.34 163.73H1172.48V126.608L1221.13 118.759L1245.08 125.038V201.932L1252.23 185.197L1259.67 175.254L1274.11 175.777V163.719H1290.97L1293.84 161.681H1312.47L1317.13 121.124L1326.92 116.796L1348.14 118.301L1353.97 129.737V186.233L1364.86 176.813V161.125L1385.26 164.406L1390.74 171.874H1402.97V214.481L1421.11 215.004V129.737L1430.19 117.701V57.5422L1442.89 52.3091V4.18647L1456.71 0L1471.92 5.23308V57.7385H1481V120.307L1484.63 126.063V214.47L1497.31 213.946L1506.7 234.344L1510.04 231.205V161.114L1520.93 156.404V107.758L1530.49 94.4246H1541.68L1553.6 110.375V154.834L1557.23 158.497V170.533L1573.56 178.383V198.781L1583.71 201.398L1616.73 200.406L1619.01 177.969H1649.79V198.77L1674 196.154L1686.58 203.48L1702.43 205.05V233.298L1710.11 231.728L1712.81 216.563L1753.25 214.993V189.362L1765.79 170.533L1793.08 171.58L1804.06 190.932V220.749L1818.57 221.665V228.926H1851.94L1855.67 201.823L1861.27 197.299L1869.19 192.251H1899.47L1914.5 193.428L1920.22 201.409V239.599L1928.22 274.127L1942 278.237V383.88L0.0970951 383.967L0 384Z" fill="#FF5124"/>
</svg>
