<svg width="3885" height="419" viewBox="0 0 3885 419" fill="none" xmlns="http://www.w3.org/2000/svg">
<path d="M1942 184.233H1981.24L1985.28 58.7237L2002.84 52.3521L2034.57 57.1017V106.151L2040.01 107.162V98.0607L2047.72 91.9902L2059.98 94.0104V100.081L2065.42 104.636V110.202L2079.94 114.757V130.434L2090.83 128.413V106.161L2097.7 95.5451L2104.6 94.0299L2108.97 99.5953V108.191L2112.6 110.716V160.776L2118.05 188.584V134.474L2128.94 131.444V124.363L2138.49 111.212L2152.88 112.222L2156.15 129.414V57.6068L2180.26 56.5966L2194.27 61.657V102.111L2199.71 103.626V58.9666H2225.9L2237.83 61.1519V84.385H2241.47V142.565L2250.54 144.08V185.039L2257.25 173.345H2262.31L2266.89 177.958V118.293L2293.41 114.252C2293.41 114.252 2294.3 104.646 2293.28 103.131C2292.27 101.616 2296.75 84.4239 2296.75 84.4239L2308.85 82.4036L2311.61 100.1L2315.88 103.131V73.5067H2326.77V53.5759L2332.22 52.5658V57.6262L2342.3 52.5658L2350.36 56.6063V53.5759L2357.63 52.5658V77.8483L2395.17 76.3331L2408.44 78.8584V128.413L2417.52 129.423V140.545L2427.81 150.656L2432.03 135.989V102.111L2439.3 99.5856V41.4349L2453.73 45.9902L2461.08 53.5759V71.7778L2466.52 73.798V81.8888L2474.62 82.1899L2477.16 78.9458H2502.94L2510.08 86.9492V148.635L2511.9 154.706V55.5962L2518 52.0607L2524.6 56.111V66.2512H2531.24L2540.94 80.3833V112.241L2541.83 117.807L2560.91 123.372V144.614L2575.42 145.624V106.181L2591.75 103.927L2611.12 97.1185H2635.32V39.0261H2653.47V102.14L2662.55 103.655V128.433L2668 128.938V120.342L2680.5 119.487L2684.92 108.016H2704.28V81.9082L2713.36 79.3829V59.6659L2750.71 56.6355L2776.29 0L2805.93 57.6456V130.463L2809.56 128.442V104.17L2822.26 103.16V77.8774L2846.58 76.8673L2856.75 85.9682V130.463L2860.38 139.564V109.833H2873.08V87.9788L2881.12 88.4838L2886.15 84.9484L2889.68 87.9788L2894.84 88.4838L2898.49 97.0797V138.544L2904.95 139.554L2910.48 162.311L2914.84 163.321V102.14L2922.1 101.635V83.9382L2930.62 60.812H2949.83L2962.03 81.9082V110.221L2969.29 112.241V150.675L2976.55 156.24V120.342L2983.87 118.322L2985.63 107.705V92.029L2998.33 91.524V112.261L3005.59 115.291V164.846L3009.23 147.149V120.352L3011.04 116.816V102.15L3022.91 99.7216L3025.67 93.5054H3034.77L3038.78 103.898L3047.35 104.685V94.0687L3078.21 94.3212V110.25L3090.91 109.745V142.613L3094.29 141.943L3098.17 129.977V59.6853L3103.37 66.2609L3110.28 64.2406L3114.23 56.1498L3117.73 60.7052L3132.11 61.2102L3139.91 56.6549V73.8466L3143.54 76.877V132.502L3152.62 134.018V85.9779L3159.08 66.7659L3163.52 66.2609V51.5945L3173.7 50.0793L3179.85 55.1397V63.7355L3188.06 71.3213L3208.89 73.8466V126.432L3212.2 102.665L3230.67 102.159V114.291L3241.56 127.947V77.8871L3281.48 79.9074V100.13L3286.91 107.21L3301.45 108.725V128.442L3310.53 150.694V130.472L3323.23 118.341V94.0687L3332.31 90.5332V85.9779L3348.64 78.3922L3364.97 78.8973V120.361L3367.88 141.934L3375.86 158.785V37.4235L3384.94 34.3931V41.4738L3396.39 39.9586L3401.17 35.4032L3426.68 40.9687V61.7056L3437.56 86.483V102.159L3444.83 101.149V59.6853L3448.46 57.665V53.6148L3468.29 47.5443L3477.5 49.5645V53.6051L3486.58 57.6553V111.659H3511.99V142.604L3539.22 145.634V132.483L3551.92 132.988V120.342L3564.31 119.973L3566.59 126.17H3571.88V118.322L3580.96 119.332V92.029L3617.26 85.4534V29.323L3639.04 22.7474V17.182L3673.71 9.0912L3682.6 10.1013V17.182L3691.67 19.7073V154.716L3709.82 153.705V138.534L3715.27 139.039V89.9893L3722.32 81.51L3730.88 64.4349H3738.47L3746.05 82.2676L3756.13 83.5983L3760.64 100.605V172.917L3769.31 169.732H3778.91L3794.08 179.415L3798.93 166.05L3807.83 175.87V81.8985L3825.97 79.8783V69.7672L3842.37 67.747L3849.96 74.8276L3855.02 79.888V87.9788L3872.14 88.9889L3884.06 97.5848V418.458H1942V184.262V184.233Z" fill="#330F09"/>
<path d="M0 184.233H39.2381L43.2775 58.7237L60.8429 52.3521L92.5654 57.1017V106.151L98.0127 107.162V98.0607L105.722 91.9902L117.977 94.0104V100.081L123.424 104.636V110.202L137.94 114.757V130.434L148.825 128.413V106.161L155.7 95.5451L162.604 94.0299L166.973 99.5953V108.191L170.605 110.716V160.776L176.052 188.584V134.474L186.937 131.444V124.363L196.492 111.212L210.882 112.222L214.154 129.414V57.6068L238.264 56.5966L252.266 61.657V102.111L257.713 103.626V58.9666H283.901L295.835 61.1519V84.385H299.466V142.565L308.545 144.08V185.039L315.255 173.345H320.313L324.887 177.958V118.293L351.415 114.252C351.415 114.252 352.298 104.646 351.279 103.131C350.269 101.616 354.755 84.4239 354.755 84.4239L366.854 82.4036L369.611 100.1L373.884 103.131V73.5067H384.768V53.5759L390.216 52.5658V57.6262L400.304 52.5658L408.364 56.6063V53.5759L415.627 52.5658V77.8483L453.166 76.3331L466.439 78.8584V128.413L475.518 129.423V140.545L485.811 150.656L490.035 135.989V102.111L497.298 99.5856V41.4349L511.727 45.9902L519.077 53.5759V71.7778L524.524 73.798V81.8888L532.623 82.1899L535.157 78.9458H560.937L568.084 86.9492V148.635L569.899 154.706V55.5962L575.997 52.0607L582.6 56.111V66.2512H589.242L598.942 80.3833V112.241L599.826 117.807L618.906 123.372V144.614L633.422 145.624V106.181L649.754 103.927L669.116 97.1185H693.323V39.0261H711.471V102.14L720.55 103.655V128.433L725.997 128.938V120.342L738.504 119.487L742.922 108.016H762.284V81.9082L771.362 79.3829V59.6659L808.707 56.6355L834.293 0L863.928 57.6456V130.463L867.559 128.442V104.17L880.26 103.16V77.8774L904.584 76.8673L914.75 85.9682V130.463L918.382 139.564V109.833H931.082V87.9788L939.122 88.4838L944.152 84.9484L947.677 87.9788L952.842 88.4838L956.493 97.0797V138.544L962.95 139.554L968.475 162.311L972.835 163.321V102.14L980.098 101.635V83.9382L988.624 60.812H1007.83L1020.03 81.9082V110.221L1027.29 112.241V150.675L1034.55 156.24V120.342L1041.87 118.322L1043.63 107.705V92.029L1056.33 91.524V112.261L1063.59 115.291V164.846L1067.23 147.149V120.352L1069.04 116.816V102.15L1080.91 99.7216L1083.67 93.5054H1092.77L1096.78 103.898L1105.35 104.685V94.0687L1136.21 94.3212V110.25L1148.91 109.745V142.613L1152.29 141.943L1156.17 129.977V59.6853L1161.37 66.2609L1168.28 64.2406L1172.23 56.1498L1175.73 60.7052L1190.11 61.2102L1197.91 56.6549V73.8466L1201.54 76.877V132.502L1210.62 134.018V85.9779L1217.08 66.7659L1221.52 66.2609V51.5945L1231.7 50.0793L1237.85 55.1397V63.7355L1246.06 71.3213L1266.89 73.8466V126.432L1270.2 102.665L1288.67 102.159V114.291L1299.56 127.947V77.8871L1339.48 79.9074V100.13L1344.91 107.21L1359.45 108.725V128.442L1368.53 150.694V130.472L1381.23 118.341V94.0687L1390.31 90.5332V85.9779L1406.64 78.3922L1422.97 78.8973V120.361L1425.88 141.934L1433.86 158.785V37.4235L1442.94 34.3931V41.4738L1454.39 39.9586L1459.17 35.4032L1484.68 40.9687V61.7056L1495.56 86.483V102.159L1502.83 101.149V59.6853L1506.46 57.665V53.6148L1526.29 47.5443L1535.5 49.5645V53.6051L1544.58 57.6553V111.659H1569.99V142.604L1597.22 145.634V132.483L1609.92 132.988V120.342L1622.31 119.973L1624.59 126.17H1629.88V118.322L1638.96 119.332V92.029L1675.26 85.4534V29.323L1697.04 22.7474V17.182L1731.71 9.0912L1740.6 10.1013V17.182L1749.67 19.7073V154.716L1767.82 153.705V138.534L1773.27 139.039V89.9893L1780.32 81.51L1788.88 64.4349H1796.47L1804.05 82.2676L1814.13 83.5983L1818.64 100.605V172.917L1827.31 169.732H1836.91L1852.08 179.415L1856.93 166.05L1865.83 175.87V81.8985L1883.97 79.8783V69.7672L1900.37 67.747L1907.96 74.8276L1913.02 79.888V87.9788L1930.14 88.9889L1942.06 97.5848V418.458H0V184.262V184.233Z" fill="#330F09"/>
</svg>
