<svg width="22" height="22" viewBox="0 0 22 22" fill="none" xmlns="http://www.w3.org/2000/svg">
<path d="M4.08002 1.59033H17.16C18.861 1.59033 20.24 2.9693 20.24 4.67033V17.7503C20.24 19.4514 18.861 20.8303 17.16 20.8303H4.08002C2.37897 20.8303 1 19.4514 1 17.7503V4.67033C1 2.9693 2.37898 1.59033 4.08002 1.59033Z" stroke="white" stroke-width="2" stroke-miterlimit="10"/>
<path fill-rule="evenodd" clip-rule="evenodd" d="M4.57001 0.590332H16.67C19.1939 0.590332 21.24 2.63638 21.24 5.16032V17.2603C21.24 19.7843 19.1939 21.8303 16.67 21.8303H4.57001C2.04607 21.8303 0 19.7843 0 17.2603V5.16032C0 2.63638 2.04607 0.590332 4.57001 0.590332ZM13.2635 12.6702L13.2604 12.6902L13.2704 12.6702H13.2635ZM13.6404 10.2202L13.2635 12.6702H11.2805V18.6502H8.61041V12.6702H6.44043V10.2002H8.61041V8.32024C8.61041 6.18024 9.88045 4.99023 11.8405 4.99023C12.7705 4.99023 13.7504 5.16023 13.7504 5.16023V7.27023H12.6704C11.6004 7.27023 11.2704 7.94024 11.2704 8.61024V10.2202H13.6404Z" fill="white"/>
</svg>
