<svg width="24" height="23" viewBox="0 0 24 23" fill="none" xmlns="http://www.w3.org/2000/svg">
<path fill-rule="evenodd" clip-rule="evenodd" d="M16.3205 22.64H7.28052C3.53052 22.64 0.480469 19.59 0.480469 15.84V6.8C0.480469 3.05 3.53052 0 7.28052 0H16.3205C20.0705 0 23.1205 3.05 23.1205 6.8V15.84C23.1205 19.59 20.0705 22.64 16.3205 22.64ZM11.8906 5.73999C8.82056 5.73999 6.32056 8.24 6.32056 11.31C6.32056 14.38 8.82056 16.88 11.8906 16.88C14.9606 16.88 17.4606 14.38 17.4606 11.31C17.4606 8.24 14.9606 5.73999 11.8906 5.73999ZM11.8906 14.89C9.93056 14.89 8.32056 13.28 8.32056 11.32C8.32056 9.35999 9.93056 7.75 11.8906 7.75C13.8506 7.75 15.4606 9.35999 15.4606 11.32C15.4606 13.28 13.8506 14.89 11.8906 14.89ZM16.4609 5.38004C16.4609 4.65004 17.0609 4.05005 17.7909 4.05005C18.5209 4.05005 19.1209 4.65004 19.1209 5.38004C19.1209 6.11004 18.5209 6.71004 17.7909 6.71004C17.0609 6.71004 16.4609 6.11004 16.4609 5.38004Z" fill="white"/>
</svg>
