<svg width="5023" height="300" viewBox="0 0 5023 300" fill="none" xmlns="http://www.w3.org/2000/svg">
<path d="M2653.73 162.136C2525.97 137.531 2401.71 97.143 2270.38 91.3763C2053.06 81.8248 1845.5 167.903 1627.95 173.491C1412.33 179.028 1200.76 105.149 986.037 121.591C780.612 137.317 582.563 234.914 380.65 201.229C298.794 187.571 225.301 153.178 147.186 129.582C99.6932 115.237 50.2687 104.985 0.0141602 98.853V184.28C77.1059 207.49 153.546 238.613 234.573 250.024C449.944 280.367 665.006 168.568 881.815 192.372C971.162 202.181 1053.45 234.506 1141.56 249.388C1440.5 299.885 1739.24 144.714 2044.82 160.834C2180.85 168.01 2309.17 208.806 2440.85 235.6C2519.1 251.527 2602.75 262.109 2683.02 258.016V167.409C2673.18 165.771 2663.41 164.011 2653.74 162.143L2653.73 162.136Z" fill="#09AFB2"/>
<path d="M2440.84 235.601C2309.17 208.806 2180.85 168.01 2044.81 160.834C1739.23 144.715 1440.49 299.885 1141.55 249.388C1053.44 234.506 971.155 202.181 881.807 192.372C664.999 168.568 449.936 280.367 234.566 250.024C153.539 238.613 77.0985 207.49 0.00683594 184.28V300H2683.01V258.016C2602.74 262.109 2519.09 251.527 2440.84 235.601Z" fill="#1CD2D6"/>
<path d="M380.643 201.223C582.556 234.914 780.597 137.317 986.03 121.584C1200.76 105.142 1412.33 179.022 1627.95 173.484C1845.5 167.896 2053.05 81.818 2270.37 91.3696C2401.69 97.1434 2525.97 137.524 2653.72 162.129C2663.4 163.99 2673.17 165.757 2683.01 167.395V26.8916C2533.84 -1.03315 2382.04 -13.7542 2237.57 21.3467C2150.9 42.4029 2071.67 79.8792 1984.53 99.7191C1661.99 173.148 1323.15 -7.27919 990.924 30.9841C842.271 48.1052 706.31 108.162 558.402 128.882C371.271 155.096 180.842 116.697 0 67.938V98.839C50.2545 104.978 99.6862 115.223 147.172 129.568C225.287 153.165 298.787 187.557 380.636 201.215L380.643 201.223Z" fill="#009294"/>
<path d="M4992.73 162.136C4864.97 137.531 4740.7 97.143 4609.38 91.3763C4392.06 81.8248 4184.5 167.903 3966.95 173.491C3751.33 179.028 3539.76 105.149 3325.04 121.591C3119.61 137.317 2921.56 234.914 2719.65 201.229C2637.79 187.571 2564.3 153.178 2486.19 129.582C2438.69 115.237 2389.27 104.985 2339.01 98.853V184.28C2416.11 207.49 2492.55 238.613 2573.57 250.024C2788.94 280.367 3004.01 168.568 3220.81 192.372C3310.16 202.181 3392.45 234.506 3480.56 249.388C3779.49 299.885 4078.24 144.714 4383.81 160.834C4519.85 168.01 4648.17 208.806 4779.85 235.6C4858.1 251.527 4941.75 262.109 5022.02 258.016V167.409C5012.18 165.771 5002.41 164.011 4992.74 162.143L4992.73 162.136Z" fill="#09AFB2"/>
<path d="M4779.84 235.601C4648.17 208.806 4519.85 168.01 4383.81 160.834C4078.23 144.715 3779.49 299.885 3480.55 249.388C3392.44 234.506 3310.15 202.181 3220.81 192.372C3004 168.568 2788.94 280.367 2573.57 250.024C2492.54 238.613 2416.1 238.49 2339.01 215.28V300H5022.01V258.016C4941.74 262.109 4858.09 251.527 4779.84 235.601Z" fill="#1CD2D6"/>
<path d="M2719.64 201.223C2921.56 234.914 3119.6 137.317 3325.03 121.584C3539.76 105.142 3751.33 179.022 3966.95 173.484C4184.5 167.896 4392.05 81.8181 4609.37 91.3696C4740.69 97.1434 4864.97 137.524 4992.72 162.129C5002.4 163.99 5012.17 165.757 5022.01 167.395V26.8916C4872.84 -1.03315 4721.04 -13.7542 4576.57 21.3467C4489.9 42.4029 4410.67 79.8792 4323.53 99.7191C4000.99 173.148 3662.15 -7.27919 3329.92 30.9841C3181.27 48.1052 3050.5 121.584 2683 27C2495.87 53.2148 2519.84 75.6972 2339 26.938V98.8391C2389.25 104.978 2438.69 115.223 2486.17 129.568C2564.29 153.165 2637.79 187.557 2719.64 201.215L2719.64 201.223Z" fill="#009294"/>
</svg>
