<svg width="700" height="205" viewBox="0 0 700 205" fill="none" xmlns="http://www.w3.org/2000/svg">
<path opacity="0.2" fill-rule="evenodd" clip-rule="evenodd" d="M279.246 193.138C277.069 193.475 273.44 194.051 271.722 193.244C271.851 190.479 278.357 191.859 279.246 193.138ZM565.791 198.781C564.584 201.069 558.051 199.894 555.653 199.343C556.095 196.098 564.085 197.655 565.791 198.781ZM539.305 198.213C538.862 198.893 536.708 198.87 535.94 198.398C535.225 195.887 539.511 196.731 539.305 198.213ZM595.118 198.896C592.743 200.372 587.883 200.025 584.213 200.221C582.481 200.304 580.492 201.096 579.536 199.604C579.371 197.124 582.693 197.964 584.736 197.897C588.3 197.805 593.42 196.985 595.118 198.896ZM529.714 198.271C529.207 199.579 525.965 199.002 525.043 198.425C524.378 195.041 529.44 196.623 529.714 198.271ZM420.7 195.409C420.231 197.15 417.459 196.596 416.016 196.593C394.314 196.734 373.079 195.411 350.351 194.929C334.708 194.587 318.926 194.833 304.671 192.916C304.67 191.434 307.535 191.727 308.322 191.704C326.321 191.04 345.982 192.506 365.16 192.921C381.676 193.277 398.511 193.391 414.735 194.249C416.565 194.343 419.358 193.487 420.7 195.407L420.7 195.409ZM297.929 192.246C296.452 194.122 290.056 194.478 287.801 193.068C288.423 189.755 295.631 191.671 297.929 192.246ZM516.998 196.709C515.706 198.877 512.113 197.629 509.723 197.59C485.501 197.063 455.579 199.149 429.772 196.643C428.608 196.527 426.218 197.087 426.154 195.018C432.436 192.888 440.347 194.68 447.702 194.192C458.249 193.476 471.728 194.699 483.514 194.959C492.548 195.144 501.127 195.836 509.73 195.787C512.121 195.768 514.951 195.04 516.998 196.712L516.998 196.709ZM577.495 193.365C576.565 194.689 573.126 194.901 570.471 195.02C567.923 195.136 564.415 195.447 563.476 193.574C563.634 192.25 565.625 192.447 566.852 192.359C570.317 192.12 575.605 191.628 577.495 193.365ZM551.279 192.29C550.394 194.537 547.101 193.484 545.297 193.451C511.991 192.739 478.095 192.775 444.335 192.058C443.096 192.031 438.637 192.537 438.628 190.644C438.62 188.458 444.868 189.486 446.939 189.521C469.213 190.001 491.334 191.494 513.131 190.948C521.136 190.754 533.417 191.125 542.716 191.326C545.624 191.389 548.906 190.827 551.279 192.293L551.279 192.29ZM603.7 193.664C602.875 194.921 600.299 194.794 598.244 194.839C594.796 194.918 590.266 195.101 588.126 193.841L588.134 193.069C588.014 192.108 588.801 192.436 589.176 192.324C592.942 191.217 601.112 192.397 603.702 193.662L603.7 193.664ZM431.871 190.755C430.701 192.448 423.723 192.122 422.533 190.547C422.935 186.796 430.759 188.905 431.871 190.755ZM385.943 189.251C384.999 191.888 381.434 190.481 379.454 190.402C349.371 189.04 318.512 190.16 288.853 188.713C280.58 188.302 272.646 187.995 264.473 187.659C262.115 187.576 259.46 187.839 257.452 186.478C258.434 184.827 261.516 185.341 263.696 185.324C284.437 185.198 307.058 186.261 329.364 186.739C346.054 187.097 362.418 187.973 379.707 188.335C381.642 188.388 384.253 187.818 385.943 189.249L385.943 189.251ZM415.265 189.611C413.839 190.921 408.009 191.498 406.704 189.695C406.784 186.783 414.735 187.481 415.265 189.611ZM401.782 188.813C400.973 191.047 393.929 191.171 392.431 189.392C392.991 186.296 399.87 187.786 401.782 188.813ZM604.243 188.27C603.054 190.481 599.922 189.457 598.016 189.424C566.22 188.739 534.086 188.563 501.97 187.864C499.466 187.824 496.901 187.883 494.449 187.714C492.552 187.588 489.932 187.881 488.481 186.292C490.179 184.099 493.764 184.867 496.268 184.907C530.755 185.645 565.49 186.067 600.879 187.155C601.995 187.192 603.853 186.43 604.243 188.27ZM481.729 186.144C479.654 186.836 475.095 187.323 472.909 186.208C472.817 182.626 481.083 184.143 481.729 186.144ZM622.421 188.147C621.276 189.198 618.393 189.211 616.181 189.303C613.222 189.414 609.626 189.694 608.14 188.357C608.407 186.522 611.166 187.225 613.071 187.169C616.334 187.074 620.389 186.391 622.419 188.145L622.421 188.147ZM454.222 184.784C453.077 187.028 448.897 185.959 445.916 185.901C401.75 184.941 356.485 185.2 312.247 183.017C309.557 182.884 306.437 183.097 303.953 181.806C306.181 180.198 310.087 180.807 313.555 180.729C333.603 180.237 353.688 181.59 374.03 182.032C398.868 182.563 424.198 183.63 448.778 183.898C450.448 183.917 452.846 183.196 454.224 184.787L454.222 184.784ZM297.449 181.411C296.767 183.427 291.158 182.768 289.406 182.006C289.345 178.485 296.079 180.229 297.449 181.411ZM283.698 181.117C282.327 182.354 273.931 183.326 273.324 180.636C275.004 178.955 281.879 179.67 283.698 181.117ZM252.806 180.195C252.247 182.214 246.585 181.977 245.289 180.81C245.324 180.51 245.225 180.347 245.02 180.285C245.801 177.907 251.275 179.336 252.806 180.195ZM468.492 185.344C467.425 187.299 461.451 186.333 460.2 185.167C460.457 181.588 467.313 184.153 468.492 185.344ZM267.611 180.255C266.446 182.003 261.072 181.64 259.043 180.848C258.89 177.688 266.546 178.994 267.611 180.255ZM239.32 179.641C238.088 181.214 231.94 181.293 230.75 179.721C231.134 176.52 237.989 178.286 239.32 179.641ZM444.915 177.619C444.212 179.273 440.314 178.922 438.412 178.508C438.216 175.334 443.422 177.11 444.915 177.619ZM563.009 180.409C562.066 182.541 558.18 181.242 555.472 181.287C538.819 181.543 520.519 180.525 502.52 180.142C486.717 179.809 471.668 179.662 456.06 178.893C454.473 178.814 451.938 179.266 450.882 177.498C483.888 176.562 523.191 178.53 557.809 179.276C559.334 179.305 561.932 178.562 563.009 180.411L563.009 180.409ZM607.125 181.371C606.834 182.458 605.118 182.251 604.014 182.326C600.331 182.561 594.721 182.588 592.85 181.054C592.813 180.411 592.993 179.994 593.369 179.78C597.68 179.565 603.767 179.807 607.123 181.37L607.125 181.371ZM585.842 180.392C585.182 182.146 580.996 181.62 578.317 181.771C576.832 181.854 575.33 182.157 574.421 181.174C574.427 180.665 574.42 180.14 574.425 179.629C577.038 179.205 583.367 179.029 585.842 180.392ZM432.965 177.357C431.165 178.384 426.579 178.715 424.664 177.952C424.311 174.248 431.945 176.065 432.965 177.357ZM419.731 176.56C418.577 178.41 414.688 177.452 411.946 177.682C409.935 173.645 417.773 176.039 419.731 176.56ZM407.014 176.03C405.327 177.174 401.241 177.199 398.972 176.889C398.962 173.726 405.645 174.793 407.014 176.03ZM393.78 175.23C392.783 177.443 389.632 176.432 387.798 176.386C354.989 175.692 321.296 175.468 288.4 174.777C286.634 174.728 283.819 175.383 282.694 173.36C282.855 171.761 284.571 171.997 285.811 171.88C294.29 171.04 303.79 172.687 313.326 172.472C322.29 172.263 331.658 172.86 340.58 173.061C356.76 173.394 372.044 173.462 388.601 174.078C390.171 174.137 392.635 173.6 393.782 175.23L393.78 175.23ZM261.931 172.146C260.571 173.351 255.717 173.634 254.408 172.497C254.477 169.705 260.943 171.01 261.931 172.146ZM275.427 172.177C274.895 173.989 270.38 173.024 268.677 172.799C267.573 168.945 273.681 171.819 275.427 172.177ZM191.596 167.792C191.364 167.963 191.212 168.255 191.078 168.545C190.643 168.541 190.216 168.536 189.783 168.518C188.155 166.987 191.429 165.479 191.596 167.792ZM651.019 174.83C648.918 175.217 645.509 175.554 643.236 174.918C641.542 171.132 651.223 172.227 651.019 174.83ZM556.807 172.493C557.93 170.655 562.03 171.286 564.853 171.225C584.534 170.846 604.22 171.585 625.334 172.046C628.197 172.109 634.129 171.664 634.412 173.441C634.848 176.243 627.122 174.967 626.101 174.956C615.89 174.728 606.05 174.515 595.995 174.306C582.128 174.01 568.446 174.149 556.807 172.495L556.807 172.493ZM547.725 171.055C547.353 173.132 544.642 172.273 543.564 172.262C493.559 171.699 441.667 170.583 390.684 169.485C387.7 169.427 384.008 170.159 381.353 168.25C382.993 166.331 386.825 167.083 390.188 167.152C428.093 167.976 467.238 168.559 506.717 169.4C519.187 169.668 530.261 169.907 541.49 170.161C543.657 170.197 546.298 169.689 547.725 171.055ZM355.392 166.67C354.188 168.683 348.081 167.988 345.791 167.234C346.378 164.215 353.077 166.459 355.392 166.67ZM372.522 167.803C370.421 168.596 365.283 168.478 363.183 167.614C363.189 167.085 363.178 166.58 363.183 166.056C366.069 165.869 371.357 165.492 372.522 167.8L372.522 167.803ZM240.932 164.214C238.465 164.855 231.707 165.278 230.042 163.452C230.501 161.322 240.327 162.152 240.932 164.214ZM338.27 165.519C337.625 167.525 335.086 166.726 333.586 166.709C308.788 166.426 279.9 166.563 254.166 165.014C252.745 164.924 250.436 165.584 249.507 163.872C249.877 161.967 252.711 162.45 253.918 162.419C274.342 161.914 296.629 163.164 316.729 164.282C324.235 164.713 331.722 163.978 338.268 165.519L338.27 165.519ZM223.809 163.067C222.949 164.354 218.741 164.714 216.277 164.454C215.052 164.322 213.692 164.033 213.421 163.097C214.306 160.255 222.481 160.968 223.809 163.067ZM189.546 162.327C189.134 163.705 187.007 162.97 185.653 163.012C182.843 163.112 179.121 163.831 177.862 162.081C177.915 161.266 178.052 160.542 178.916 160.551C182.308 160.282 187.984 159.978 189.546 162.325L189.546 162.327ZM207.974 161.947C207.418 163.658 204.251 162.94 202.256 163.117C200.231 163.302 197.8 164.278 197.065 162.494C197.627 159.051 206.216 160.365 207.974 161.947ZM171.643 160.91C170.217 162.376 164.892 162.071 162.821 161.236C162.636 158.19 171.024 159.11 171.643 160.91ZM583.304 166.405C582.05 167.762 579.132 167.057 576.803 167.049C574.474 167.023 571.926 167.271 570.583 166.397C569.772 162.065 583.188 164.573 583.304 166.405ZM564.614 165.224C564.147 166.344 553.112 167.023 551.893 165.217C552.433 162.413 564.002 164.146 564.614 165.224ZM544.626 165.839C542.383 166.033 537.609 167.145 536.322 165.138C536.877 162.361 544.409 163.01 544.626 165.839ZM527.757 164.186C526.395 166.382 519.856 165.29 517.632 164.993C516.633 160.584 525.721 163.087 527.757 164.186ZM652.085 166.852C651.171 169.051 648.052 168.059 646.382 168.028C631.555 167.706 614.618 168.236 599.917 167.286C596.905 167.078 592.225 168.004 590.061 166.046C591.191 163.977 595.376 164.647 598.109 164.662C606.973 164.716 616.508 164.571 626.14 164.75C634.277 164.913 642.55 165.701 649.234 165.252C650.212 165.188 652.718 164.892 652.087 166.854L652.085 166.852ZM510.377 163.298C509.466 165.195 502.947 165.198 501.812 163.623C502.355 160.559 508.451 162.355 510.377 163.298ZM497.394 163.271C495.287 164.163 490.479 164.709 488.046 163.589C487.967 159.933 496.436 161.558 497.394 163.271ZM295.735 158.682C298.823 157.202 302.508 157.854 305.857 157.861C345.153 157.941 386.698 158.83 427.323 159.698C442.395 160.025 457.352 161.015 471.702 160.662C473.408 160.624 482.855 159.258 482.863 162.186C482.879 164.802 474.262 163.545 472.474 163.51C428.37 162.562 385.524 162.155 341.667 161.209C327.99 160.929 314.054 160.527 300.394 159.812C299.013 159.735 296.777 160.064 295.737 158.683L295.735 158.682ZM287.937 157.739C286.602 159.033 282.416 158.569 280.408 158.355C280.449 158.048 280.351 157.887 280.151 157.827C280.356 155.108 287.155 156.246 287.937 157.739ZM274.707 157.711C272.695 157.921 269.389 158.657 267.698 157.56C267.354 154.398 274.73 155.614 274.707 157.711ZM260.433 156.373C259.49 157.733 255.807 157.418 253.95 157C253.202 153.603 259.957 154.824 260.433 156.373ZM594.492 158.656C593.91 160.057 591.733 159.292 590.075 159.331C587.453 159.393 584.051 160.341 583.067 158.66C584.248 155.964 592.074 157.707 594.492 158.654L594.492 158.656ZM576.852 157.499C576.026 159.619 570.265 159.322 568.535 158.093C568.498 154.701 575.214 156.914 576.852 157.499ZM562.062 156.407C560.494 158.659 553.904 158.399 550.887 157.463C551.322 154.846 559.73 155.039 562.062 156.407ZM530.388 156.497C528.309 157.597 522.662 157.472 520.256 156.549C520.238 155.906 520.225 155.291 520.535 155.007C523.552 154.746 528.972 154.34 530.388 156.497ZM544.145 156.281C542.603 157.709 536.66 157.993 534.796 156.602C535.242 153.359 542.482 155.185 544.145 156.281ZM517.162 154.928C515.436 156.759 508.188 157.141 506.254 155.464C506.216 154.821 506.396 154.4 506.777 154.186C509.882 153.772 514.493 154.068 517.16 154.928L517.162 154.928ZM329.238 150.373C328.221 152.922 324.205 151.557 321.716 151.498C309.174 151.226 295.17 151.192 281.218 150.881C267.467 150.583 253.697 150.912 241.512 149.265C242.947 147.156 248.325 148.264 251.64 148.188C272.955 147.659 298.268 148.925 320.415 149.416C323.425 149.474 326.619 148.898 329.236 150.371L329.238 150.373ZM234.499 149.364C232.883 149.668 229.686 150.358 228.274 149.239C227.795 146.238 234.829 147.055 234.499 149.364ZM501.577 154.335C501.327 155.994 496.218 155.951 494.578 155.99C488.387 156.14 481.847 155.198 475.361 155.065C433.715 154.161 390.871 153.507 348.703 152.592C347.234 152.563 345.56 152.399 344.036 152.234C342.959 152.123 340.829 152.853 340.406 151.136C340.37 149.137 342.415 150.018 343.782 149.916C355.597 149.028 368.567 150.187 381.676 150.461C416.35 151.218 451.599 152.842 486.02 153.23C490.397 153.278 494.241 153.121 497.949 153.479C499.129 153.591 500.736 152.957 501.577 154.335ZM223.077 149.121C221.823 149.81 218.336 149.86 217.114 148.986C215.827 145.422 222.867 147.244 223.077 149.121ZM211.149 147.583C210.439 149.47 205.118 149.194 204.41 147.435C205.044 145.317 210.303 146.072 211.149 147.583ZM588.304 149.488C587.339 152.605 508.049 149.572 499.264 149.389C495.114 149.3 490.859 149.835 487.077 148.351C487.62 146.626 489.839 147.434 490.972 147.404C513.408 146.615 538.663 148.984 562.088 148.411C565.058 148.344 586.907 148.263 588.304 149.488ZM482.66 147.474C481.253 148.594 475.743 149.101 474.611 147.312C474.991 144.798 482.188 145.384 482.66 147.474ZM468.905 146.404C467.305 147.539 460.947 148.633 459.824 146.219C461.093 144.562 467.609 144.879 468.905 146.404ZM340.951 144.179C342.909 142.164 348.096 142.788 351.855 142.86C383.66 143.539 417.822 144.8 450.48 144.983C451.251 144.992 454.373 144.229 454.635 145.845C455.03 148.336 449.106 146.95 447.112 146.97C422.332 147.368 393.135 146.339 366.635 145.755C357.759 145.572 348.981 145.956 340.949 144.179L340.951 144.179ZM336.538 143.302C335.23 145.63 327.711 145.068 325.382 143.836C324.878 140.815 335.564 141.892 336.538 143.302ZM317.586 143.152C316.009 144.535 311.078 144.481 309.023 143.744C308.461 140.374 317.027 141.315 317.586 143.152ZM233.764 140.842C233.015 142.827 226.018 142.533 224.928 140.908C226.002 138.328 231.777 140.253 233.764 140.842ZM242.313 141.546C244.691 139.796 248.516 140.273 251.93 140.194C265.792 139.866 279.996 140.283 293.206 140.575C294.969 140.607 299.324 140.101 299.172 142.241C299.019 144.231 292.004 143.59 289.81 143.595C275.69 143.629 262.414 143.005 249.332 142.731C246.682 142.672 243.652 142.975 242.311 141.546L242.313 141.546ZM202.351 139.651C200.886 141.646 193.268 141.271 191.453 139.676C192.616 136.898 200.605 138.15 202.351 139.651ZM217.143 140.487C215.145 140.93 210.967 141.39 209.1 140.31C208.776 136.901 217.171 137.921 217.143 140.487ZM159.536 138.213C158.718 139.904 153.344 139.833 152.005 138.567C152.007 138.393 152.008 138.23 151.998 138.055C152.993 136.334 158.43 136.903 159.536 138.213ZM184.451 137.974C184.445 138.572 184.438 139.181 184.449 139.779C182.01 140.641 178.192 140.161 174.838 140.097C171.476 140.014 167.94 140.341 166.016 138.861C166.532 137.123 169.219 137.471 170.95 137.433C175.365 137.32 181.131 137.195 184.449 137.974L184.451 137.974ZM145.506 137.91C143.943 138.959 137.874 139.751 136.954 137.468C138.107 135.647 144.436 136.372 145.506 137.91ZM125.79 136.2C127.257 135.224 130.988 135.773 131.235 137.613C129.886 138.226 125.396 138.826 125.79 136.2ZM198.168 147.031C196.65 148.253 193.957 147.638 191.946 147.68C175.468 148.01 156.426 146.943 139.253 146.798C138.846 148.145 140.896 149.307 141.303 150.726C142.712 150.984 144.092 151.278 144.943 152.087C177.84 153.03 214.079 152.958 246.426 155.305C244.388 156.739 241.333 156.37 238.891 156.43C209.614 157.115 178.436 154.4 149.333 155.015C149.978 156.375 152.164 158.439 152.693 160.758C160.923 159.831 167.225 162.709 169.535 168.34C192.699 170.335 222.195 168.549 246.62 171.025C227.442 173.323 203.899 171.174 183.281 171.995C184.213 173.314 186.884 175.179 188.189 177.001C199.514 177.093 213.034 177.272 223.495 179.044C213.593 180.45 201.074 179.18 190.258 179.628C189.854 180.19 191.112 181.344 191.026 182.476C208.973 183.936 231.439 183.253 249.684 185.284C249.376 186.401 247.938 186.197 247.339 186.267C243.594 186.644 239.6 186.195 235.657 186.27C221.472 186.564 206.376 185.906 192.308 186.376C191.437 187.401 193.64 189.448 191.513 189.7C189.382 189.169 190.638 187.174 190.487 186.082C189.749 180.57 184.869 175.814 180.148 173.213C176.595 171.252 172.046 169.135 168.233 170.637C166.599 165.193 161.368 161.855 153.98 162.852C152.626 162.592 153.542 164.641 152.416 164.628C150.332 163.846 150.536 162.352 150.616 160.46C147.984 156.414 145.156 152.552 138.181 152.707C137.247 151.5 139.073 151.319 139.231 150.405C135.83 142.87 123.211 135.115 113.823 141.347C113.056 142.489 115.24 142.627 114.596 144.47C111.294 142.996 107.273 140.679 102.67 140.863C100.439 140.941 99.0303 142.162 96.9547 141.761C98.4502 137.014 108.618 138.7 112.015 140.805C113.161 139.813 114.464 138.981 115.671 138.035C107.065 138.059 99.2012 137.358 90.7472 137.251C91.5272 138.991 95.4748 141.204 94.6098 144.543C91.6005 144.088 91.7309 141.44 89.9633 139.541C87.4328 136.866 83.7518 135.007 79.6882 134.128C80.6575 130.728 86.2879 133.891 88.1586 135.635C97.8179 134.911 107.663 135.381 117.753 135.508C118.356 135.863 118.478 136.68 118.779 137.337C126.777 136.653 132.075 140.248 136.404 143.889C156.901 145.048 179.32 144.301 198.168 147.025L198.168 147.031ZM639.2 144.39C636.247 144.402 631.236 146.053 629.336 143.921C629.933 141.043 638.763 141.607 639.2 144.39ZM625.701 143.591C623.643 143.918 618.927 145.276 617.659 143.167C617.865 139.979 625.362 141.359 625.701 143.591ZM513.848 138.438C513.922 138.438 513.863 138.279 514.112 138.282C530.082 137.841 546.587 139.144 564.197 139.526C578.178 139.823 593.67 140.446 607.801 140.799C610.117 140.856 612.709 140.635 612.728 141.758C612.756 143.228 602.503 142.406 601.047 142.371C573.008 141.76 545.175 141.867 516.959 140.394C515.225 140.303 511.997 140.297 511.772 139.421C511.465 138.31 512.639 138.642 513.85 138.438L513.848 138.438ZM507.099 139.603C506.737 140.819 503.903 140.384 501.891 140.523C500.127 140.647 497.376 141.068 497.237 139.134C496.993 135.955 507.038 137.272 507.101 139.603L507.099 139.603ZM493.34 138.622C492.022 140.354 486.902 140.359 485.035 139.218C484.524 135.352 492.557 136.81 493.34 138.622ZM481.661 137.562C481.954 138.806 477.671 139.02 475.94 138.982C451.115 138.451 424.491 137.771 399.12 137.606C396.604 137.591 357.164 137.18 354.211 135.589C355.064 133.793 376.172 134.503 400.724 134.89C432.448 135.393 469.902 135.981 476.73 136.168C478.181 136.2 481.309 136.509 481.661 137.56L481.661 137.562ZM313.729 133.792C313.844 132.322 317.551 132.743 318.923 132.614C321.519 132.363 348.41 132.744 347.733 134.779C348.342 136.498 322.184 135.371 319.173 135.192C317.325 135.102 314.613 135.434 313.729 133.792ZM304.392 134.625C301.256 135.462 295.495 134.993 291.926 134.096C291.524 132.224 294.709 132.439 296.601 132.385C299.79 132.314 304.967 131.455 304.392 134.627L304.392 134.625ZM282.585 132.349C281.724 135.367 276.38 134.015 272.974 133.946C223.806 132.885 174.189 131.559 125.298 130.515C119.59 130.396 113.977 130.155 108.42 129.894C107.117 129.837 104.788 130.583 104.028 128.769C105.948 127.346 108.57 128.166 110.767 128.141C126.956 127.986 145.164 129.161 162.421 128.734C198.915 127.826 239.097 130.388 276.105 131.172C278.045 131.223 280.974 130.483 282.585 132.349ZM31.5086 126.995C34.0549 127.065 97.4432 127.218 98.8273 129.002C97.6121 130.917 33.2877 129.006 30.5633 128.976C27.1226 128.93 27.3795 126.884 31.5086 126.995ZM464.828 129.139C463.056 130.096 457.025 130.99 456.262 128.434C457.576 126.719 463.884 127.266 464.828 129.139ZM520.983 130.073C517.143 132.636 488.286 130.676 480.647 130.506C478.815 130.469 476.334 131.013 475.2 129.351C475.905 127.513 478.573 128.403 479.885 128.43C493.461 128.722 515.738 129.157 520.983 130.073ZM445.351 129.144C444.344 131.218 441.321 130.426 439.636 130.304C411.725 128.415 380.509 129.571 352.173 127.909C349.471 127.748 341.206 128.576 339.716 126.608C341.33 124.11 426.469 127.206 436.013 127.399C439.086 127.445 442.58 127.048 445.351 129.146L445.351 129.144ZM332.969 126.217C332.483 127.87 328.001 127.808 326.993 126.6C327.106 124.14 332.017 125.055 332.969 126.217ZM322.598 125.474C321.211 127.047 315.13 127.215 313.25 125.782C314.223 123.725 320.88 124.322 322.598 125.474ZM306.496 125.634C304.986 126.815 301.994 126.196 300.005 125.754C299.714 123.144 306.326 123.933 306.496 125.634ZM279.5 122.98C279.082 125.293 276.399 124.185 275.073 124.183C220.267 122.52 68.7393 120.732 5.83025 119.473C-2.27002 119.31 0.658539 117.086 6.59699 117.2L271.45 121.526C274.249 121.656 277.997 121.057 279.502 122.978L279.5 122.98ZM660.801 128.102C659.607 130.785 651.871 128.751 650.431 127.615C651.64 124.756 658.69 126.99 660.801 128.102ZM705.453 128.589C706.751 129.511 667.121 130.575 665.476 127.935C666.938 126.236 705.092 128.108 705.453 128.589ZM621.873 127.521C621.958 126.574 621.835 125.846 621.624 125.188C626.946 125.419 634.724 125.318 639.272 125.569C640.48 125.643 642.249 124.935 642.126 126.926C641.986 128.844 635.375 127.812 632.771 127.756C628.481 127.667 625.409 127.604 621.871 127.521L621.873 127.521ZM431.621 121.875C429.505 122.275 424.578 123.05 423.317 121.19C424.23 119.084 431.021 119.712 431.621 121.875ZM555.211 115.769C556.297 116.529 553.719 117.82 553.117 118.558C543.694 117.787 532.447 118.884 523.531 117.928C522.53 117.818 520.768 117.812 520.151 116.815C521.982 114.393 526.802 115.941 530.541 115.751C537.911 115.381 547.493 116.023 555.211 115.771L555.211 115.769ZM494.47 116.271C492.522 117.326 487.112 117.256 484.863 116.312C484.249 112.681 493.601 114.72 494.47 116.271ZM513.416 116.42C510.111 116.704 502.473 118.948 501.219 115.122C503.982 114.119 512.037 113.627 513.416 116.42ZM339.259 112.467C382.543 113.772 427.871 114.584 468.51 115.757C469.543 115.798 475.147 114.635 475.518 116.692C475.969 119.287 469.914 117.838 468.238 117.82C437.285 117.363 402.772 116.67 370.395 115.98C362.214 115.802 354.255 115.891 345.728 115.698C343.251 115.654 340.436 116.19 338.211 114.768C338.364 114.322 337.892 113.238 338.477 113.228C338.612 112.855 338.877 112.61 339.257 112.464L339.259 112.467ZM191.82 109.853C204.566 110.254 217.237 110.959 229.461 110.775C230.974 110.76 234.666 110.073 234.907 111.987C235.154 113.84 232.156 113.427 231.791 113.435C207.305 113.779 183.083 112.671 158.597 111.909C136.687 111.215 95.3156 111.058 74.3438 109.998C70.8833 109.82 70.5005 108.486 72.7822 108.395C85.3818 107.869 191.203 109.836 191.818 109.855L191.82 109.853ZM596.496 112.526C594.88 113.961 589.135 113.767 586.886 112.839C587.571 110.069 595.071 110.791 596.496 112.526ZM578.84 111.124C577.855 113.513 574.68 112.374 572.875 112.281C538.138 110.461 501.096 112.081 466.454 109.736C464.301 109.582 461.628 110.294 459.708 108.817C460.165 106.841 463.084 107.602 465.164 107.642C499.724 108.382 537.801 109.468 572.885 110.215C574.764 110.267 577.243 109.696 578.84 111.126L578.84 111.124ZM97.3783 100.246C96.7746 100.749 95.2282 101.056 93.5705 101.108C93.651 100.51 93.7274 99.9019 93.8041 99.26C95.3463 99.3382 96.7574 99.6158 97.3783 100.246ZM144.361 101.256C143.255 103.02 136.799 102.44 135.266 101.332C136.222 99.3932 143.083 99.6414 144.361 101.256ZM129.566 100.684C128.51 102.757 123.008 101.795 121.258 100.767C122.552 99.4406 127.894 99.7632 129.566 100.684ZM114.241 100.361C113.316 102.812 106.798 101.383 105.166 100.418C106.288 98.6859 112.719 99.2233 114.241 100.361ZM451.407 107.868C450.009 109.252 443.877 109.678 442.588 107.932C443.052 105.318 450.453 106.187 451.407 107.868ZM435.836 107.789C434.067 108.48 430.744 108.706 428.571 108.141C427.338 104.882 435.232 105.945 435.836 107.789ZM422.859 107.25C421.68 108.575 416.335 108.823 415.07 107.602C415.148 104.531 421.738 105.916 422.859 107.25ZM410.653 106.723C409.548 108.068 407.268 107.619 405.724 107.659C381.502 108.284 355.495 107.607 330.188 107.314C328.457 107.295 320.483 108.373 320.852 105.307C321.187 102.575 330.558 104.236 334.355 104.319C358.789 104.831 387.439 105.25 410.653 106.723ZM160.45 101.095C159.183 103.686 152.834 101.71 150.6 101.132C152.053 99.5026 158.629 99.8809 160.45 101.095ZM203.543 101.758C202.939 103.278 198.58 102.939 196.787 102.907C196.073 102.899 195.477 102.674 194.707 102.605C190.707 102.212 185.995 103.237 183.297 101.582C185.263 100.045 189.769 100.688 193.414 100.772C195.198 100.809 197.159 100.858 198.872 100.893C200.534 100.924 202.78 100.365 203.543 101.758ZM236.246 102.462C235.278 104.361 231.158 103.269 228.458 103.322C221.684 103.483 213.34 103.918 207.958 102.375C210.192 100.258 214.564 101.221 218.589 101.307C222.535 101.395 226.971 101.661 230.54 101.569C232.595 101.521 235.08 100.601 236.248 102.46L236.246 102.462ZM179.137 101.242C177.952 103.107 174.226 102.032 171.357 102.105C169.076 102.147 166.549 102.807 165.38 101.454C165.899 100.163 168.276 100.32 170.062 100.266C173.283 100.17 177.914 99.7404 179.137 101.24L179.137 101.242ZM645.84 106.892C644.811 108.831 640.586 108.055 637.268 107.989C634.212 107.931 629.737 108.736 629.222 106.269C629.514 104.701 631.561 105.409 633.118 105.322C637.559 105.096 644.106 104.319 645.84 106.892ZM553.69 104.385C558.001 103.007 563.891 103.446 569.539 103.438C583.552 103.398 597.635 104.049 612.363 104.354C613.54 104.383 619.369 103.633 619.355 106.062C619.344 108.699 606.183 107.318 603.525 107.259C588.899 106.954 575.186 107.039 560.687 106.094C558.229 105.919 555.051 106.407 553.69 104.385ZM545.912 103.964C545.486 105.778 543.031 104.925 542.017 104.913C519.125 104.664 495.433 104.172 471.933 103.669C450.718 103.2 428.756 103.166 407.042 101.751C404.336 101.573 401.02 102.546 398.744 100.54C399.332 98.9709 401.727 99.3776 402.909 99.3483C414.682 99.0095 429.229 99.9717 440.798 99.8929C466.983 99.7432 494.227 101.567 520.478 102.133C527.097 102.279 533.497 102.668 540.465 102.818C542.081 102.848 544.8 102.032 545.912 103.969L545.912 103.964ZM390.964 99.8564C388.984 99.8644 385.885 100.793 384.473 99.7115C384.833 97.5039 390.366 98.3656 390.964 99.8564ZM380.581 99.1151C378.98 100.337 373.773 100.047 372.017 99.4445C372.447 96.4215 379.032 98.3561 380.581 99.1151ZM368.645 99.1201C366.315 100.461 359.684 99.8956 356.958 99.1237C356.92 98.4974 356.927 97.8843 357.224 97.5852C360.82 97.2862 366.072 97.5634 368.645 99.1223L368.645 99.1201ZM351.245 98.2283C350.223 99.879 344.962 99.312 343.209 98.5782C343.074 94.938 349.963 97.0239 351.245 98.2283ZM337.749 97.4255C335.051 98.1255 329.976 98.8715 327.105 97.7195C327.113 97.0346 326.978 96.1873 327.634 96.1818C330.486 96.0966 336.436 95.1869 337.751 97.4255L337.749 97.4255ZM321.66 96.8164C320.988 98.4837 314.831 98.2241 314.134 96.6582C314.597 94.1577 320.921 95.0006 321.66 96.8164ZM650.014 98.8718C649.216 101.686 643.921 100.082 641.445 99.9665C623.627 99.1483 601.51 99.7379 582.524 98.9619C580.183 98.8623 577.328 99.2117 575.529 97.5175C576.147 95.6298 579.907 96.2819 581.759 96.1034C592.013 95.1074 604.353 96.8553 616.287 97.1019C625.12 97.304 633.63 97.4793 642.493 97.6691C644.983 97.7217 648.105 96.9396 650.016 98.8718L650.014 98.8718ZM569.557 96.3613C569.001 98.144 562.836 98.7914 562.558 96.2109C563.594 94.4589 568.484 94.7744 569.557 96.3613ZM554.518 93.9687C553.771 95.7979 550.302 94.9143 548.015 94.8576C514.594 94.1439 480.289 94.1797 446.02 93.4377C444.129 93.4044 441.237 94.1869 439.789 92.2787C440.298 90.6964 443.587 91.17 445.506 91.119C468.57 90.5124 493.584 92.0625 516.358 92.6345C527.763 92.9197 538.829 92.7318 550.626 93.1079C551.746 93.1519 553.708 92.5305 554.518 93.9666L554.518 93.9687ZM433.299 91.8907C431.964 93.2166 426.411 93.6339 425.253 91.9784C425.779 88.9099 431.782 91.1024 433.299 91.8907ZM419.026 91.5743C418.152 92.846 415.189 92.4352 413.049 92.4816C411.798 92.4997 410.347 93.1245 409.677 92.1573C408.62 88.7099 418.038 89.9016 419.024 91.5742L419.026 91.5743ZM404.757 90.7461C404.125 92.6929 398.214 92.7425 397.213 91.1036C397.88 88.7068 403.199 89.6085 404.757 90.7461ZM389.44 88.8769C390.919 89.1002 391.667 88.5946 391.518 90.2084C391.356 91.9002 305.567 90.6847 296.499 90.499C287.583 90.3002 278.088 90.6152 267.7 90.3877C266.723 90.3601 259.57 91.1151 259.389 88.9142C259.224 86.8001 265.466 87.2615 265.884 87.2492C268.563 87.179 273.439 87.4205 274.194 87.4287C312.465 88.2566 350.872 88.0479 388.926 88.8713C389.087 88.873 389.275 88.8455 389.436 88.8769L389.44 88.8769ZM659.361 99.8471C659.809 97.5515 662.987 98.3728 665.071 98.4082C667.947 98.484 759.098 99.1597 758.849 101.893C758.814 102.345 758.635 102.65 758.371 102.848L684.089 101.09C683.77 101.086 683.453 101.07 683.117 101.066C675.492 100.941 665.413 101.34 659.359 99.847L659.361 99.8471ZM557.654 86.96C556.957 89.1767 548.649 89.2784 548.049 86.7495C549.612 84.9355 555.932 85.7149 557.654 86.96ZM543.643 86.3948C543.444 88.8093 536.505 88.3086 535.588 86.7424C535.998 84.0257 542.315 85.302 543.643 86.3948ZM530.142 86.1058C526.777 87.4518 522.84 86.7238 519.248 86.6529C494.962 86.1256 470.349 86.1191 445.525 85.586C444.026 85.5443 441.839 86.1124 440.603 84.7034C441.13 83.0642 443.642 83.5272 444.763 83.4972C469.933 82.9875 498.563 85.5666 523.925 84.9469C525.468 84.9024 529.804 83.715 530.144 86.1058L530.142 86.1058ZM434.883 84.3217C433.517 85.4845 428.172 85.8364 427.102 84.1501C427.537 81.4337 433.929 82.8123 434.883 84.3217ZM422.686 83.0257C422.391 84.8726 419.734 84.2262 418.538 84.2322C362.954 84.2365 307.072 82.2881 251.376 82.1898C249.275 82.1795 241.58 83.3916 242.036 80.1807C242.338 78.057 250.055 79.0567 252.688 79.1172C307.737 80.3016 362.165 81.7816 417.249 82.3997C418.993 82.4188 421.198 81.8149 422.686 83.0257ZM606.217 81.7962C605.027 82.9313 600.34 83.2459 599.467 81.6485C599.8 79.2227 605.543 80.0402 606.217 81.7962ZM595.202 80.3946C594.88 81.4377 589.225 81.1751 587.012 81.1214C551.492 80.3552 514.244 79.3101 478.773 78.5445C473.445 78.425 467.955 78.9042 462.947 77.4245C464.974 75.8271 468.56 76.5089 472.041 76.5892C510.585 77.4159 549.947 78.2557 589.353 79.1087C590.661 79.1357 594.442 79.6019 595.205 80.3947L595.202 80.3946ZM454.386 77.7476C452.022 78.2187 448.152 78.4513 445.55 77.8266C445.153 74.2892 454.249 75.3907 454.386 77.7476ZM440.106 76.414C438.594 77.8226 432.301 78.3523 430.764 76.4728C431.672 74.4148 438.829 74.8545 440.106 76.414ZM370.813 75.1777C370.2 76.5115 367.368 75.8823 365.35 75.8475C363.266 75.7931 360.671 76.1157 360.164 74.7C361.92 72.4589 369.101 73.4105 370.813 75.1777ZM336.549 73.9326C332.301 75.269 327.384 74.8792 322.526 74.9129C290.487 75.2334 258.136 74.5716 224.932 73.8476C222.984 73.8137 218.964 74.1757 218.704 72.4264C218.311 69.7264 222.389 70.7604 223.645 70.7318C241.507 70.2861 260.809 71.5286 280.237 71.9479C299.377 72.3619 318.561 72.7447 336.549 73.9326ZM425.838 75.5923C425.434 77.9855 422.303 77.0676 420.642 77.0325C408.129 76.7648 394.792 77.2747 381.702 76.451C380.058 76.3443 377.523 76.6232 376.523 75.054C378.575 73.5752 381.61 73.9572 384.306 73.9295C395.732 73.7752 408.626 73.973 419.608 74.6912C421.818 74.8316 424.311 74.1315 425.838 75.5923ZM353.938 74.0463C353.495 76.2594 345.997 76.3214 345.633 73.869C347.321 72.604 352.403 72.5284 353.938 74.0463ZM360.455 67.9901C359.179 69.1538 354.007 69.4463 352.669 68.0785C353.461 66.2075 359.183 67.0586 360.455 67.9901ZM376.801 67.8323C375.985 69.3352 369.233 70.3842 369.018 67.6586C370.713 66.8483 375.091 67.0398 376.801 67.8323ZM667.514 73.3101C667.489 74.4009 667.072 75.0919 667.233 76.3898C661.356 76.2706 655.474 76.1451 649.585 76.0238C648.728 75.6529 650.97 74.2205 650.895 72.9553C656.44 73.073 661.969 73.1904 667.514 73.3122L667.514 73.3101ZM643.883 72.8027C643.705 74.1835 644.177 74.916 644.403 75.9101C636.529 75.7375 628.642 75.5626 620.772 75.4027C620.029 75.1472 621.739 73.172 622.085 72.328C629.361 72.4835 636.62 72.6346 643.885 72.8027L643.883 72.8027ZM615.069 72.1816C614.939 73.6074 615.019 74.4075 614.802 75.2614C607.326 75.0804 598.039 75.0044 592.483 74.5251C591.408 74.2322 593.722 73.3124 593.01 71.7019C600.373 71.8563 607.721 72.0253 615.066 72.1795L615.069 72.1816ZM587.566 71.5896C587.196 72.389 587.437 74.1064 587.29 74.4262C582.076 74.7625 575.827 73.8909 569.898 74.0439C570.565 73.3408 570.519 71.9131 571.212 71.2356C576.67 71.3523 582.11 71.4709 587.566 71.5875L587.566 71.5896ZM432.096 69.1082C431.785 72.0163 404.805 70.4553 401.458 68.962C403.559 67.4288 429.405 67.5481 432.096 69.1082ZM393.938 68.7171C392.582 70.3642 385.423 70.1254 384.071 68.51C383.959 67.957 384.254 67.827 384.332 67.479C387.244 67.1619 392.328 66.9129 393.938 68.7171ZM499.583 69.4347C521.333 70.0379 543.648 70.1059 564.986 71.0958C564.731 71.7907 564.449 72.4452 564.451 73.4052C544.194 74.6852 520.722 72.7968 499.048 72.778C498.543 72.1445 499.689 71.5164 499.31 70.2013C499.297 69.8396 499.27 69.4735 499.581 69.4325L499.583 69.4347ZM492.567 69.2883C492.123 70.0383 491.951 71.0682 492.041 72.3653C477.646 72.1384 461.687 71.7845 448.173 70.9139C446.081 70.7726 442.681 71.4459 441.43 69.7302C443.153 67.9117 446.083 68.8909 448.442 68.8469C462.17 68.5738 477.828 68.8885 492.567 69.2862L492.567 69.2883ZM346.176 66.9187C345.424 68.9614 341.473 68.2924 339.175 68.3118C308.711 68.5015 276.352 67.478 245.471 66.8111C236.948 66.6293 228.379 66.1869 220.03 66.0049C217.68 65.9538 214.675 66.6611 212.782 64.8221C213.426 62.5689 216.457 63.6845 218.218 63.6424C257.525 62.7753 300.214 65.1484 340.221 66.0059C342.082 66.0579 344.591 65.4869 346.178 66.9187L346.176 66.9187ZM272.907 59.1438C271.358 60.7887 219.239 59.797 213.823 59.6765C211.726 59.641 205.341 60.4149 205.79 57.9608C206.161 55.9245 215.479 56.8846 218.771 56.9523C223.951 57.0659 271.528 57.4711 272.904 59.1437L272.907 59.1438ZM683.986 64.4321C682.232 64.95 546.702 63.3522 546.484 60.6456C546.282 58.0639 683.245 61.6415 683.986 64.4321ZM116.263 48.8878C116.306 49.0194 116.231 49.1179 116.086 49.2326C116.132 49.0724 116.159 48.9289 116.209 48.7688C116.249 48.8115 116.266 48.8434 116.265 48.8878L116.263 48.8878ZM673.942 58.9182C669.449 58.6535 575.1 56.2134 570.858 55.8563C568.038 55.6373 564.933 56.0094 563.333 54.4083C564.766 52.4872 568.398 53.0935 571.123 53.0365C574.282 52.9526 667.257 55.3798 670.69 55.5484L673.942 58.9161L673.942 58.9182ZM261.873 52.3526C261.539 53.8374 256.808 53.7667 256.168 52.4975C256.344 49.9812 260.883 51.2529 261.873 52.3526ZM250.975 51.8721C249.628 52.7475 247.231 52.5416 244.999 52.5173C243.302 49.3843 250.735 50.0765 250.975 51.8721ZM238.001 51.0771C236.575 52.7932 187.583 51.2816 181.677 51.1601C178.708 51.0854 174.913 51.9151 173.107 49.6837C173.256 47.9791 176.367 48.2076 177.536 48.233C184.069 48.3212 235.782 49.3361 238.003 51.0793L238.001 51.0771ZM650.979 50.7514C651.946 48.8993 654.803 49.5542 656.959 49.5904C660.526 49.6737 665.38 49.9741 669.866 50.0844C670.454 50.4523 670.843 50.8181 670.84 51.112C670.837 51.4333 670.819 51.8835 670.801 52.3633C664.429 52.0886 656.25 51.974 650.981 50.7515L650.979 50.7514ZM118.294 41.9221C128.473 42.2636 135.69 42.7653 135.739 43.4636C135.828 44.4857 128.185 44.8273 117.356 44.7768C117.658 43.8371 117.975 42.8764 118.294 41.9221ZM270.018 45.0624C266.116 47.8171 187.782 43.7018 174.169 43.9464C172.032 43.9802 168.485 44.9183 167.168 43.0243C167.128 42.2077 167.168 41.4681 167.697 41.2244C186.129 41.8062 253.508 42.7023 270.018 45.0624ZM120.936 34.4217C132.266 34.8076 141.007 35.3132 140.824 35.8207C140.773 37.0169 131.424 37.158 120.032 36.9026C120.35 36.0349 120.648 35.2072 120.936 34.4217ZM626.878 42.5363C626.938 41.1584 628.984 41.3393 629.731 41.2587C632.264 40.9798 648.537 40.7049 661.913 41.13C662.759 42.448 663.191 43.9095 663.427 45.0771C656.227 44.8103 649.071 44.2354 647.368 44.1724C640.123 43.8882 632.816 44.0452 626.88 42.5364L626.878 42.5363ZM268.943 37.1155C267.268 38.3659 264.72 38.0019 262.718 38.0118C231.363 38.2065 198.433 37.3968 165.377 36.6871C163.933 36.6544 159.694 37.1748 159.666 35.2864C159.665 33.394 164.505 33.838 165.129 33.8448C196.877 34.4662 235.282 35.0482 268.943 37.1155ZM300.872 38.4113C302.547 38.3408 303.395 39.0478 303.457 40.5369C302.961 41.6648 300.284 41.5045 300.076 40.2083C299.977 39.2346 300.603 39.0067 300.872 38.4113ZM460.261 34.1083C460.846 37.6963 456.602 37.4322 456.363 35.3026C456.165 33.5561 458.635 32.4455 460.261 34.1083ZM613.668 33.9771C586.086 34.249 553.5 35.2444 524.641 33.8659C523.042 33.7913 520.405 34.0543 520.498 31.9706C520.599 29.4852 529.274 30.6117 531.924 30.6681C556.005 31.1931 581.294 31.9978 606.141 32.7912C608.674 32.8633 611.558 32.6156 613.668 33.9771ZM627.946 33.7714C626.872 35.1424 622.342 34.9915 620.682 34.1276C620.212 30.4837 627.19 32.3486 627.946 33.7714ZM428.086 32.1269C427.062 33.9531 422.18 34.6419 422.37 31.9947C422.505 30.0891 427.359 29.5585 428.086 32.1269ZM197.857 27.7808C199.773 26.3195 203.116 26.9924 206.423 26.9419C215.596 26.7988 306.153 25.3093 306.607 28.8388C306.986 31.6952 283.739 30.3209 280.9 30.3449C253.019 30.6135 224.4 29.134 197.857 27.7808ZM194.218 27.1004C193.454 29.5278 190.628 28.37 189.024 28.27C167.793 26.9304 145.772 26.7619 123.671 26.3452C123.971 25.5514 124.299 24.7811 124.686 24.0009C145.711 24.2304 167.793 25.2431 188.516 25.6892C190.356 25.722 193.167 24.9809 194.218 27.1025L194.218 27.1004ZM370.215 28.8164C372.355 28.5331 374.053 29.0633 374.092 30.7087C374.223 35.8353 362.197 29.8812 370.215 28.8164ZM462.614 29.2583C462.188 31.1459 457.744 30.0339 456.131 29.8852C454.415 25.7626 462.068 27.3452 462.614 29.2583ZM435.63 27.9023C435.493 29.5881 432.926 29.0949 431.469 29.1086C426.998 29.1296 421.326 29.0106 417.717 27.7766C417.709 26.9054 417.719 26.0576 418.767 26.2446C424.006 26.158 432.165 25.4182 435.63 27.9023ZM379.304 26.6913C375.564 27.8006 369.703 27.299 365.018 27.4191C363.225 27.4609 361.255 28.2069 360.089 26.786C359.752 25.7611 360.53 23.9639 361.922 24.2582C366.178 25.1208 376.194 24.6466 379.304 26.6913ZM629.54 25.2426C628.746 27.2848 625.246 26.6673 622.786 26.6531C619.497 26.6341 615.816 26.3762 612.922 26.1818C609.344 25.9376 605.583 26.569 603.581 24.697C604.555 22.1874 611.725 23.5173 615.524 23.9119C617.937 24.1708 620.716 24.0257 623.045 24.0828C625.477 24.1347 628.467 23.4252 629.538 25.2425L629.54 25.2426ZM597.606 24.0483C596.366 25.6797 589.881 25.334 588.277 24.1092C588.79 21.0871 596.14 22.5628 597.606 24.0483ZM583.59 24.001C580.04 24.032 574.849 24.9818 572.433 23.2513C573.746 20.5317 582.628 21.5125 583.59 24.001ZM566.734 22.8698C564.213 24.5295 557.017 23.8843 553.749 23.1023C553.792 19.1574 565.363 21.8463 566.734 22.8698ZM546.216 22.4259C543.745 23.4033 537.889 24.3289 535.33 22.7004C535.164 21.7662 535.501 21.3322 535.842 20.913C538.944 20.7587 544.83 20.0829 546.216 22.4259ZM528.571 21.7809C527.819 22.7199 525.077 22.9965 523.125 23.2226C521.187 23.434 517.935 24.0984 517.93 21.8148C519.685 20.0114 526.745 19.6212 528.571 21.783L528.571 21.7809ZM249.02 20.8841C255.165 20.08 323.86 19.0094 323.321 22.0566C322.917 24.3991 255.21 21.3639 249.02 20.8841ZM244.351 20.2665C243.932 22.2536 241.38 21.4857 239.929 21.4699C229.321 21.3541 216.074 21.1778 206.717 19.7246C207.065 18.593 208.581 18.8104 209.317 18.7486C216.716 18.0852 224.863 18.8126 232.938 18.9896C234.975 19.0414 237.264 19.0791 239.164 19.1315C240.915 19.1633 243.424 18.4803 244.349 20.2664L244.351 20.2665ZM143.379 17.8386C142.363 18.9608 138.376 19.2112 136.89 18.2203C137.346 16.3202 142.256 16.7354 143.379 17.8386ZM156.361 18.3736C154.555 18.8064 150.738 20.0608 149.361 18.4875C149.417 16.0122 155.874 16.6218 156.361 18.3736ZM198.406 18.5112C197.749 21.1829 191.051 20.3549 189.586 18.8378C190.389 16.7491 196.863 17.3864 198.406 18.5112ZM169.604 18.1566C168.049 19.4463 163.232 19.7912 161.032 18.7333C161.341 15.6624 167.883 17.2033 169.604 18.1566ZM181.796 18.9282C179.943 19.2146 177.713 19.8309 175.827 19.3134C175.868 19.0073 175.77 18.8497 175.566 18.7862C175.398 15.8158 181.587 16.9448 181.796 18.9282ZM386.353 16.8963C383.709 17.8274 350.056 19.3524 347.924 17.3607C347.641 15.3511 348.458 15.1105 349.49 14.8173C351.931 14.1462 382.984 16.2591 386.353 16.8942L386.353 16.8963ZM470.183 18.6951C466.798 20.7007 413.253 18.0907 406.591 17.5951C407.415 15.7413 409.897 16.481 411.523 16.4099C418.298 16.9511 467.577 16.0788 470.183 18.693L470.183 18.6951ZM343.256 15.466C342.948 16.9596 340.139 16.9712 339.366 15.8866C338.757 13.0594 343.029 14.0385 343.256 15.466ZM252.951 12.2518C252.483 14.0777 241.294 13.5496 239.701 12.7309C242.831 11.5726 249.381 11.2529 252.951 12.2518ZM574.807 16.8538C570.553 18.4692 565.552 17.7296 560.518 17.8375C545.87 18.1258 528.94 17.0551 514.312 17.3585C511.952 17.4067 507.638 18.1314 506.799 16.4159C505.829 14.4728 508.513 13.9059 508.615 13.8753C510.469 13.5023 514.171 14.1981 516.921 14.3148C535.208 15.0684 557.741 15.0543 574.807 16.8538ZM334.469 13.9006C333.839 15.7248 325.272 15.052 322.757 15.0245C302.922 14.7763 279.052 14.706 259.701 13.1416C260.641 11.6507 262.759 12.2278 264.103 12.2129C283.492 11.9614 303.896 12.2983 324.059 12.7235C326.069 12.7772 333.448 12.752 334.469 13.9028L334.469 13.9006ZM235.558 11.3325C236.449 13.5391 206.863 12.1695 203.637 11.1765C205.697 9.5794 221.684 10.2656 225.171 10.3459C228.903 10.4184 232.803 9.87738 235.556 11.3325L235.558 11.3325ZM566.262 10.2145C565.529 12.287 559.969 12.3701 558.728 10.83C558.761 7.78573 564.903 9.21017 566.262 10.2145ZM224.16 5.93917C222.616 7.20361 218.082 7.0188 216.112 6.27419C215.414 3.60038 223.172 4.67458 224.16 5.93917ZM553.544 9.94039C552.524 11.6059 546.59 12.2241 545.229 10.2894C545.727 7.43837 552.148 8.45568 553.544 9.94039ZM540.829 9.40833C539.271 10.5859 533.918 11.6629 532.514 9.75313C532.49 6.73781 540.019 7.74184 540.829 9.40833ZM527.849 9.13557C526.002 10.0499 521.82 10.9325 519.531 9.72982C519.161 6.50563 527.159 7.2505 527.849 9.13557ZM514.612 8.58725C513.361 9.71957 508.994 9.90659 507.343 8.95614C507.287 6.18997 513.765 7.43836 514.612 8.58725ZM502.676 8.60073C500.969 8.88868 497.645 9.57762 496.188 8.46014C496.357 6.17638 501.947 7.4024 502.676 8.60073ZM265.691 6.56798C263.806 8.685 258.674 7.71347 254.515 7.62367C252.509 7.57641 250.22 7.53451 248.289 7.48594C246.484 7.43453 244.018 7.98905 243.635 6.09676C247.794 4.59869 255.792 5.47041 261.281 5.44364C262.996 5.43275 265.076 4.59915 265.691 6.57009L265.691 6.56798ZM237.393 5.70514C236.664 7.38443 231.068 7.50307 230.127 5.7992C230.477 3.37364 236.508 4.12452 237.393 5.70514ZM404.541 9.04134C405.799 7.24942 409.331 8.1041 412.078 8.16369C431.3 8.57859 453.692 9.06616 475.157 9.52245C476.715 9.55214 481.219 9.14884 481.373 10.9435C481.596 13.388 474.793 12.1128 473.59 12.0679C453.235 11.2791 433.43 10.9445 413.118 10.5029C410.161 10.4411 406.411 11.2903 404.543 9.03924L404.541 9.04134ZM348.236 6.02486C347.75 6.56083 348.059 7.90258 347.962 8.84875C341.659 8.56218 336.124 9.05572 329.795 8.72234C328.739 8.44864 330.617 7.06944 330.066 5.63836C336.116 5.75937 342.185 5.88693 348.238 6.02277L348.236 6.02486ZM324.358 5.50205C324.333 6.6097 323.915 7.30287 324.077 8.60073C306.517 7.8847 287.535 8.27376 271.395 7.07636C272.15 5.50307 274.41 5.26556 275.824 5.23237C280.966 5.14471 286.767 5.45752 292.691 5.3467C303.678 5.14313 313.585 5.57476 324.358 5.49994L324.358 5.50205ZM397.017 9.1347C394.765 10.0425 391.005 9.39046 388.194 9.72133C388.408 8.56077 389.23 8.01367 389.244 6.65008C392.122 7.20373 397.454 5.36959 397.019 9.13261L397.017 9.1347ZM383.541 6.52651C383.43 7.54653 383.763 9.00695 383.26 9.6125C379.549 9.52759 375.825 9.45735 372.097 9.37226C371.045 8.80681 373.905 7.99652 373.412 6.29755C376.791 6.38306 380.166 6.44527 383.541 6.52651ZM367.444 6.17743C367.331 7.40041 367.511 8.33269 367.689 9.28185C363.021 9.17381 358.346 9.0805 353.676 8.98512C352.632 8.72635 354.664 7.50953 354.199 6.15127C358.337 5.87505 362.947 6.08606 367.444 6.17955L367.444 6.17743ZM335.266 2.13245C333.253 2.76381 329.53 3.75709 328.007 1.9771C328.205 -0.162562 335.191 -0.318891 335.266 2.13245ZM441.688 3.90299C438.791 6.28806 431.032 5.28363 425.856 4.85078C424.065 4.70015 422.241 5.2342 421.442 3.7264C423.552 0.92256 429.282 2.89647 433.649 2.69465C435.893 2.60285 440.146 2.0192 441.688 3.90299ZM415.735 3.86497C413.655 3.84227 410.815 5.13697 409.24 3.98649C408.74 0.661505 415.583 1.7384 415.735 3.86497ZM349.547 1.65826C348.272 3.84114 342.168 3.41296 340.203 1.97913C340.658 -0.999234 348.269 0.0310668 349.547 1.65826ZM402.764 2.80788C402.646 4.07521 400.812 4.23067 399.634 4.28759C397.098 4.4206 392.023 4.04171 389.263 3.55066C388.276 3.37919 386.981 3.35237 386.919 2.21207C387.921 -0.0626067 394.527 1.23582 397.307 1.40994C399.577 1.5341 402.068 1.14264 402.764 2.81L402.764 2.80788ZM357.332 2.09209C358.825 -0.132809 365.005 0.735979 368.499 0.526741C371.934 0.314743 380.704 -0.200585 380.956 1.82771C381.345 4.90199 372.572 3.26276 370.825 3.15489C365.923 2.82651 360.24 3.69268 357.332 2.09209ZM770.692 202.445C771.051 204.212 773.852 203.75 775.291 203.804C796.968 204.768 818.251 204.26 840.984 204.639C843.121 204.663 845.262 204.716 847.398 204.767L850.196 202.15C842.265 202.15 834.243 202.21 826.326 202.08C809.797 201.794 792.973 201.28 776.713 201.506C774.882 201.544 772.154 200.567 770.694 202.443L770.692 202.445ZM693.871 201.626C715.457 202.557 739.843 204.599 761.542 203.322C762.72 203.261 765.072 203.914 765.27 201.832C759.126 199.466 751.102 200.967 743.793 200.202C733.308 199.085 719.764 199.796 707.979 199.606C703.193 199.522 698.533 199.59 693.921 199.613C693.359 199.14 692.324 199.291 691.682 199.428C691.375 199.497 691.057 199.552 690.72 199.61C687.721 199.609 684.724 199.557 681.743 199.438L681.595 199.424L681.504 199.841C679.393 199.761 677.215 199.638 675.062 199.583C654.614 199.155 632.01 197.906 613.029 198.252C610.132 198.307 606.944 197.226 605.511 199.13C607.87 201.461 612.113 200.805 615.621 200.886C619.344 200.983 623.391 201.146 627.036 201.389C646.541 202.693 665.256 201.706 684.405 202.114C686.907 202.158 692.343 202.742 693.873 201.626L693.871 201.626ZM682.222 196.572C703.846 197.155 725.583 197.834 747.292 198.185C748.516 198.215 752.962 198.888 753.069 196.996C753.207 194.816 746.914 195.606 744.848 195.566C727.896 195.294 710.993 195.59 694.306 195.146C694.309 193.663 692.557 194.067 691.959 194.018C691.784 194 691.61 194.015 691.435 194.013C669.099 193.564 643.15 193.223 619.551 192.716C619.564 192.717 610.248 191.596 610.453 194.074C610.607 195.896 616.564 195.654 618.499 195.794C639.657 197.346 663.561 196.848 682.238 196.473L682.225 196.574L682.222 196.572ZM759.802 197.362C760.878 199.092 767.877 199.05 769.158 197.521C768.969 193.749 761.045 195.57 759.802 197.362ZM805.793 197.601C806.563 200.276 810.199 199.02 812.197 198.997C825.382 198.904 838.682 199.299 851.966 199.736L852.037 197.146C838.881 197.06 825.75 197.166 812.059 196.943C810.136 196.909 807.554 196.238 805.793 197.601ZM776.475 196.859C777.812 198.228 783.6 199.002 785.014 197.256C785.115 194.361 777.14 194.754 776.475 196.859ZM789.997 196.571C790.67 198.834 797.684 199.215 799.303 197.501C798.918 194.395 791.959 195.615 789.997 196.571ZM683.265 191.708C685.507 191.749 687.735 191.786 689.975 191.823C692.473 191.867 695.035 192.026 697.496 191.95C699.389 191.901 701.989 192.291 703.548 190.764C701.99 188.504 698.356 189.136 695.839 189.096L694.761 189.068C693.478 187.863 688.642 188.273 686.271 188.22C668.082 187.829 652.516 187.036 635.135 187.383C633.372 187.425 630.513 186.914 629.938 188.815C631.565 190.446 634.551 190.117 636.934 190.257C652.745 191.231 668.004 190.831 683.414 191.031L683.263 191.71L683.265 191.708ZM710.284 190.884C712.317 191.632 716.848 192.309 719.102 191.283C719.416 187.692 711.064 188.895 710.284 190.884ZM737.857 190.557C738.866 192.837 743.109 191.942 746.091 191.987C781.104 192.556 816.761 193.924 852.124 194.21L852.22 191.036C840.908 190.944 829.556 191.036 818.12 190.852C793.279 190.437 767.926 190.539 743.35 189.877C741.676 189.827 739.326 189.017 737.857 190.559L737.857 190.557ZM723.561 190.577C724.516 192.568 730.546 191.83 731.871 190.712C731.824 187.142 724.825 189.44 723.561 190.577ZM747.596 183.749C748.188 185.445 752.12 185.239 754.028 184.898C754.428 181.727 749.114 183.301 747.596 183.749ZM695.226 184.182C709.105 184.433 722.507 184.755 736.381 184.6C737.969 184.59 740.478 185.139 741.649 183.393C724.166 182.238 704.857 181.826 685.4 181.614L685.4 181.627C679.678 181.577 673.829 181.792 667.091 181.37C651.092 180.349 635.549 180.416 620.106 180.609C617.89 180.642 614.57 179.617 613.872 182.03C616.432 183.553 623.027 183.506 626.854 183.597C645.462 183.988 668.632 184.241 688.362 184.661C689.425 184.686 693.813 185.418 695.226 184.182ZM759.542 183.95C761.277 185.032 765.839 185.545 767.802 184.856C768.379 181.179 760.634 182.697 759.542 183.95ZM772.803 183.659C773.848 185.533 777.799 184.735 780.516 185.069C782.774 181.121 774.801 183.216 772.803 183.659ZM785.541 183.61C787.156 184.824 791.231 185 793.531 184.771C793.727 181.619 786.981 182.416 785.541 183.61ZM798.815 183.319C799.68 185.551 802.878 184.672 804.708 184.692C821.093 184.97 837.694 185.374 854.315 185.771C854.964 184.979 855.725 184.346 856.5 184.255C857.203 184.176 857.991 183.762 858.769 183.214C856.512 183.202 854.286 183.197 852.088 183.154C835.891 182.891 820.641 182.375 804.065 182.368C802.49 182.368 800.056 181.726 798.813 183.319L798.815 183.319ZM695.318 175.751C730.76 176.517 766.734 177.114 802.256 177.69C805.238 177.74 808.883 178.608 811.651 176.82C810.146 174.837 806.267 175.436 802.905 175.384C767.998 174.811 732.056 173.996 695.761 173.356C695.113 172.911 694.019 173.162 693.858 173.173C693.116 173.222 692.357 173.256 691.572 173.291L687.045 173.217L687.012 173.36C680.043 173.328 672.086 172.836 665.567 172.822C663.033 172.807 659.679 172.189 658.549 174.214C660.33 176.401 666.472 175.553 669.698 175.488C673.677 175.401 678.791 175.687 683.711 175.785C686.201 175.842 692.887 176.596 695.316 175.751L695.318 175.751ZM837.67 176.214C838.763 178.281 844.896 177.807 847.237 177.147C846.835 174.102 839.996 176.079 837.67 176.214ZM820.504 176.712C822.558 177.563 827.681 177.648 829.844 176.858C829.866 176.347 829.899 175.825 829.935 175.313C827.067 175.007 821.793 174.44 820.504 176.712ZM854.849 175.716C855.381 177.733 857.961 177.047 859.449 177.092C861.076 177.123 862.705 177.172 864.366 177.22L865.534 175.732L865.336 175.089C861.695 175.005 858.177 175.085 854.849 175.714L854.849 175.716ZM697.247 167.882C699.599 168.59 703.275 168.966 705.37 168.101C705.652 164.802 698.63 165.554 696.53 166.975C695.403 166.422 693.133 166.278 690.746 166.252C690.11 165.884 689.181 165.755 688.191 165.806L688.1 166.287C686.22 166.311 684.501 166.347 683.498 166.237C679.326 165.81 671.234 165.68 667.93 165.904C664.666 166.13 659.032 164.86 657.54 166.968C659.289 169.349 665.371 168.119 669.21 168.51C673.967 168.997 679.03 168.979 684.795 169.103C686.844 169.155 697.297 170.343 697.25 167.884L697.247 167.882ZM863.584 168.519C831.65 167.604 798.663 167.056 766.254 166.529C751.194 166.278 736.183 166.693 721.872 165.795C720.168 165.69 710.829 163.97 710.636 166.894C710.464 169.514 719.149 168.588 720.926 168.624C765.046 169.338 807.866 170.565 851.725 171.287C855.888 171.364 860.062 171.422 864.239 171.468L863.539 169.105L863.584 168.519ZM692.42 158.354C692.471 158.934 693.168 159.354 694.108 159.625C693.526 159.631 692.986 159.743 692.606 159.727C664.707 159.422 631.532 157.69 604.102 158.35C602.339 158.388 599.238 157.452 598.644 159.777C603.575 161.197 609.239 161.083 614.725 161.143C639.248 161.423 664.954 161.197 689.487 161.727C692.165 161.783 695.993 162.918 696.236 160.578C696.079 160.297 695.88 160.094 695.647 159.944C697.057 160.164 698.557 160.206 699.311 160.256C705.49 160.647 712.065 159.96 718.553 160.063C760.218 160.748 803.041 161.712 845.225 162.405C846.694 162.434 848.371 162.321 849.915 162.224C850.994 162.162 853.063 162.956 853.606 161.258C853.759 159.268 851.67 160.072 850.302 159.913C838.559 158.592 825.527 159.249 812.416 159.032C777.735 158.465 742.425 158.748 708.03 157.819C703.647 157.714 699.822 157.397 696.095 157.631C694.917 157.707 693.337 157.007 692.42 158.35L692.42 158.354ZM707.28 152.924C706.725 150.719 647.94 150.253 626.974 149.806C618.869 149.629 610.525 148.593 603.356 149.299C600.838 149.549 595.462 148.572 594.258 150.657C595.168 152.692 597.784 152.021 599.453 152.054C614.939 152.384 630.1 152.712 645.394 153.039C646.666 153.062 688.586 154.458 702.966 153.503C705.056 153.363 706.563 153.176 707.28 152.926L707.28 152.924ZM711.727 152.218C713.067 153.381 718.544 154.098 719.774 152.348C719.552 149.825 712.328 150.157 711.727 152.218ZM725.531 151.671C727.076 152.865 733.348 154.198 734.625 151.827C733.45 150.108 726.915 150.197 725.531 151.671ZM853.481 154.302C851.654 152.214 846.426 152.642 842.667 152.565C810.858 152.048 776.658 152.007 744.022 150.938C743.251 150.917 740.189 150.036 739.818 151.647C739.267 154.13 745.277 152.963 747.273 153.054C771.986 154.39 801.224 154.472 827.72 154.909C836.596 155.05 845.337 155.77 853.477 154.3L853.481 154.302ZM857.942 153.596C859.111 155.966 866.649 155.685 869.065 154.561C869.738 151.553 859.004 152.221 857.942 153.596ZM645.946 143.503C645.69 143.501 645.639 143.722 645.438 143.76C645.735 145.804 648.389 145.499 649.839 145.658C651.817 145.885 654.069 145.996 656.066 146.05C661.216 146.193 696.647 146.956 696.296 145.63C695.483 144.209 667.313 143.627 645.946 143.506L645.946 143.503ZM701.61 142.965C702.812 144.735 707.938 144.939 709.869 143.871C710.621 140.038 702.489 141.182 701.61 142.965ZM713.335 142.347C712.973 143.58 717.234 143.964 718.965 143.983C743.791 144.398 770.434 144.733 795.78 145.532C798.298 145.608 837.7 146.692 840.756 145.224C840.021 143.398 818.889 143.298 794.339 142.751C762.617 142.056 725.178 141.209 718.337 141.135C716.897 141.119 713.752 141.317 713.335 142.347ZM871.299 143.329C862.845 143.076 846.85 143.062 847.287 144.655C846.732 145.957 862.071 146.171 870.57 146.19L871.299 143.327L871.299 143.329ZM730.681 134.576C732.369 135.596 738.358 136.714 739.271 134.202C738.052 132.444 731.722 132.739 730.681 134.576ZM714.781 135.347C716.626 135.367 719.065 136.005 720.292 134.405C719.701 132.519 716.985 133.318 715.677 133.289C704.106 133.101 691.902 134.002 681.294 133.698C681.917 133.747 680.841 134.92 684.772 135.149C691.823 135.574 707.112 135.204 714.781 135.345L714.781 135.347ZM750.118 135.31C751.01 137.432 754.074 136.753 755.748 136.697C783.758 135.867 814.867 138.213 843.27 137.621C845.974 137.561 854.186 138.717 855.781 136.797C854.336 134.246 769.093 134.1 759.545 133.929C756.475 133.863 753.001 133.329 750.115 135.308L750.118 135.31ZM856.686 133.925C856.955 136.227 859.698 135.24 861.023 135.279C864.834 135.308 868.955 135.353 873.32 135.401L870.029 132.874L864.807 132.76C861.997 132.787 858.296 132.048 856.686 133.923L856.686 133.925ZM764.281 128.593C766.369 129.066 771.235 130.022 772.612 128.206C771.832 126.068 765.017 126.449 764.281 128.593ZM701.854 120.59C703.72 121.731 709.149 121.866 711.439 121.013C712.282 117.399 702.817 119.086 701.854 120.59ZM695.177 119.189C680.89 117.259 609.951 117.33 600.364 116.991C608.581 120.094 619.264 120.21 630.736 119.974C637.925 119.818 645.328 120.29 652.533 120.442C655.924 120.511 693.396 123.711 695.179 119.189L695.177 119.189ZM857.115 122.69C813.805 122.349 768.475 121.435 727.814 121.078C726.768 121.067 721.253 119.693 720.764 121.726C720.137 124.314 726.279 123.099 727.952 123.143C758.886 123.859 793.403 124.473 825.795 125.015C833.974 125.148 841.932 125.54 850.445 125.677C852.918 125.717 855.705 126.375 858.017 125.032C857.922 124.682 858.204 124 858.094 123.667L857.846 123.472C857.719 123.109 857.475 122.844 857.113 122.692L857.115 122.69ZM730.238 115.134C732.393 115.07 735.018 115.871 737.026 114.466C736.686 112.481 733.739 113.121 731.643 113.098C697.346 112.531 667.959 112.515 633.62 111.779C626.226 111.624 618.671 110.639 611.807 111.304C610.262 111.467 606.643 110.96 606.606 112.748C608.28 114.502 611.292 114.095 613.621 114.182C651.2 115.725 692.313 116.25 730.238 115.134ZM745.372 113.829C746.682 115.269 752.789 115.934 754.19 114.23C753.883 111.609 746.424 112.183 745.372 113.829ZM760.943 114.346C762.666 115.107 765.963 115.464 768.167 114.979C769.601 111.762 761.643 112.535 760.943 114.346ZM773.926 114.302C775.014 115.684 780.338 116.133 781.691 114.953C781.799 111.882 775.132 113.019 773.926 114.302ZM786.151 114.247C787.169 115.624 789.471 115.256 791.013 115.359C812.48 116.733 835.402 117.125 857.983 117.678L858.042 114.664C834.628 114.247 808.015 113.68 786.148 114.245L786.151 114.247ZM725.138 108.862C746.355 109.21 768.295 110.003 790.061 109.41C792.784 109.338 796.017 110.439 798.422 108.528C797.93 106.935 795.528 107.245 794.351 107.158C782.611 106.387 768.011 106.784 756.459 106.282C738.16 106.429 666.035 104.404 654.142 106.038C653.936 106.093 653.833 106.235 653.874 106.54C654.246 108.511 656.885 108.049 658.545 108.198C675.372 108.075 703.049 108.492 725.138 108.864L725.138 108.862ZM806.247 108.132C808.227 108.21 811.255 109.246 812.735 108.247C812.498 106.016 806.932 106.651 806.247 108.132ZM816.655 107.793C818.184 109.061 823.398 108.974 825.19 108.44C824.948 105.41 818.248 107.083 816.655 107.793ZM828.587 108.244C830.812 109.666 837.48 109.358 840.252 108.691C840.32 108.068 840.371 107.453 840.081 107.144C836.505 106.713 831.236 106.785 828.587 108.244ZM846.011 108.012C846.935 109.696 852.223 109.346 854.023 108.666C854.38 105.033 847.361 106.861 846.011 108.012ZM764.448 98.5584C765.685 99.9293 771.207 100.569 772.477 98.9505C772.13 95.864 766.012 97.8333 764.448 98.5584ZM778.722 98.7903C779.511 100.095 782.497 99.8062 784.633 99.931C785.871 100.006 787.29 100.675 788.015 99.7184C789.286 96.3261 779.806 97.1572 778.724 98.7903L778.722 98.7903ZM793.034 98.5088C793.536 100.466 799.441 100.746 800.522 99.1572C800.007 96.7349 794.645 97.4354 793.034 98.5088ZM808.434 97.2201C806.946 97.3773 806.24 96.8473 806.279 98.4779C806.313 99.4382 834.129 100.514 859.765 101.286L854.151 98.3281C839.049 97.8905 823.974 97.4765 808.958 97.2259C808.782 97.224 808.592 97.2092 808.434 97.2201ZM757.972 93.3371C757.633 92.0374 603.355 88.1989 570.119 87.4872C567.473 87.4266 564.033 86.5307 562.325 88.3494C564.314 89.8533 567 89.1425 569.326 89.2673C577.677 89.7369 756.276 95.082 757.97 93.3371L757.972 93.3371ZM763.322 90.9471C764.618 92.158 769.928 92.7086 771.11 91.0765C770.832 88.3397 764.372 89.4764 763.322 90.9471ZM775.572 90.1231C775.77 91.9605 778.466 91.438 779.66 91.4765C801.233 92.2955 822.889 92.8236 844.569 93.2907L843.736 91.0531C822.881 90.6817 802.014 90.2489 781.062 89.6882C779.315 89.6374 777.141 88.9604 775.572 90.1209L775.572 90.1231ZM737.148 84.5023C734.73 82.4124 618.075 80.8621 614.785 80.9425C614.761 83.1538 617.997 82.7536 619.714 82.859C621.108 82.9482 729.181 86.5149 737.148 84.5023ZM744.249 83.6517C746.585 84.1994 750.439 84.5777 753.066 84.0545C753.666 80.5364 744.522 81.295 744.249 83.6517ZM758.591 82.8483C760.019 84.3164 766.267 85.0866 767.919 83.2694C767.126 81.1802 759.965 81.3494 758.591 82.8483ZM827.885 84.258C828.411 85.6021 831.268 85.0814 833.291 85.1162C835.37 85.1558 837.957 85.5773 838.539 84.1713C836.922 81.868 829.696 82.5482 827.885 84.2601L827.885 84.258ZM772.89 82.5688C773.138 84.984 776.335 84.1774 777.992 84.2081C790.509 84.4061 803.8 85.4371 816.915 85.1003C818.577 85.0613 821.076 85.4375 822.183 83.9061C820.22 82.3581 817.16 82.6292 814.471 82.4814C803.065 81.9087 790.189 81.6074 779.167 81.9079C776.955 81.9535 774.503 81.174 772.888 82.5688L772.89 82.5688ZM822.338 76.6873C823.064 78.2091 829.756 79.5169 830.122 76.8145C828.487 75.9383 824.092 75.9474 822.338 76.6873ZM767.036 75.849C767.165 78.7766 794.215 78.2304 797.647 76.866C795.642 75.2584 769.817 74.3951 767.036 75.849ZM805.174 76.9038C806.42 78.6067 813.598 78.6407 815.041 77.0728C815.178 76.533 814.901 76.3862 814.848 76.0389C811.956 75.6267 806.895 75.1782 805.174 76.9038ZM699.616 73.6288C695.806 73.5872 677.373 74.2275 674.513 73.4542C674.999 74.4511 674.421 75.4766 674.249 76.5404C675.766 76.2503 698.739 76.9388 699.948 76.9815C700.476 76.3594 699.376 75.694 699.828 74.4029C699.876 74.0376 699.91 73.6764 699.618 73.6288L699.616 73.6288ZM706.618 73.737C707.033 74.4942 707.135 75.544 706.958 76.8361C721.352 77.1412 737.316 77.4169 750.872 77.0405C752.965 76.9894 756.319 77.7977 757.676 76.1253C756.064 74.2576 753.072 75.1151 750.719 74.9837C737.03 74.181 721.372 73.9107 706.618 73.737ZM741.043 39.8244C740.233 43.3782 744.5 43.2831 744.871 41.175C745.17 39.4149 742.766 38.2405 741.043 39.8244ZM638.632 36.4041C651.552 36.9257 664.483 37.2571 676.757 37.1416C678.357 37.1273 680.987 37.4943 681.029 35.4079C681.069 32.9092 672.326 33.7166 669.692 33.6709C660.846 33.5321 651.838 33.419 642.741 33.3197C640.642 32.3643 635.402 30.8482 635.212 33.9225C635.743 34.4083 636.675 34.6489 637.721 34.7365L638.634 36.4041L638.632 36.4041ZM773.303 39.0707C774.215 40.9307 779.04 41.8101 779.024 39.1607C779.001 37.2385 774.191 36.5305 773.303 39.0707ZM738.985 34.8946C739.301 36.7903 743.811 35.8649 745.438 35.7642C747.405 31.7113 739.646 33.0094 738.985 34.8946ZM766.03 34.566C766.061 36.2536 768.669 35.8613 770.106 35.9193C774.574 36.1118 780.251 36.2161 783.93 35.1103C783.984 34.2524 784.036 33.3925 782.983 33.5565C777.749 33.2519 769.654 32.2164 766.03 34.566ZM635.401 24.5475C637.81 26.3097 645.031 25.9487 648.344 25.2871C648.548 21.3461 636.823 23.5904 635.401 24.5475ZM655.903 24.8897C658.324 25.9648 664.103 27.1041 666.766 25.5939C666.994 24.645 666.68 24.2229 666.351 23.7837C663.284 23.5156 657.429 22.608 655.903 24.8918L655.903 24.8897ZM673.572 24.9218C674.259 25.8871 676.992 26.2722 678.925 26.5681C680.841 26.8682 684.049 27.6453 684.188 25.3591C682.564 23.4913 675.528 22.831 673.569 24.9218L673.572 24.9218ZM732.08 24.0593C735.345 26.1924 788.98 25.6128 795.665 25.3686C794.958 23.4981 792.433 24.1366 790.805 24.0025C784.021 24.2943 734.855 21.5418 732.08 24.0593ZM628.971 18.7157C632.86 19.9063 637.392 19.5054 641.898 19.7618C656.516 20.6169 673.479 20.1932 688.083 21.0503C690.436 21.1754 694.704 22.0825 695.657 20.3908C696.741 18.4807 694.098 17.8091 693.984 17.7952C692.154 17.3523 688.423 17.8952 685.654 17.9094C667.695 17.9565 645.713 17.1245 628.685 18.1713L628.971 18.7157ZM636.642 11.9426C637.23 14.0296 642.786 14.3207 644.115 12.8361C644.279 9.79748 638.052 10.9812 636.642 11.9426ZM649.364 12.1513C650.276 13.8527 656.162 14.6845 657.635 12.8124C657.317 9.93768 650.832 10.7126 649.364 12.1513ZM662.098 12.1021C663.567 13.3254 668.852 14.6052 670.373 12.7591C670.579 9.74626 663.002 10.467 662.098 12.1021ZM675.062 12.3176C676.856 13.2971 680.979 14.3464 683.334 13.224C683.91 10.025 675.873 10.4637 675.062 12.3176ZM688.322 12.2699C689.499 13.4478 693.848 13.7997 695.563 12.9156C695.798 10.1526 689.237 11.1593 688.322 12.2699ZM700.254 12.7363C701.924 13.0929 705.204 13.8983 706.742 12.8389C706.71 10.5529 701.053 11.5695 700.254 12.7363ZM798.234 16.9076C797.09 15.0746 793.514 15.7904 790.764 15.7477C771.541 15.4385 749.134 15.0628 727.681 14.7103C726.111 14.6805 721.649 14.1032 721.38 15.8932C721.022 18.3377 727.888 17.3047 729.097 17.3052C749.459 17.2907 769.273 17.712 789.591 18.0522C792.544 18.0971 796.23 19.0846 798.234 16.9097L798.234 16.9076ZM761.45 10.3639C764.204 12.855 772.01 12.1516 777.21 11.9187C778.999 11.8325 780.798 12.4399 781.674 10.961C779.742 8.07496 773.902 9.82955 769.553 9.46282C767.315 9.29038 763.102 8.54666 761.45 10.3639ZM787.373 11.315C789.44 11.3671 792.206 12.7801 793.85 11.6774C794.554 8.38041 787.663 9.19322 787.373 11.315ZM800.394 10.7467C800.416 11.4129 800.936 11.7992 801.589 12.0241L800.81 10.1973C800.648 10.3393 800.515 10.5302 800.394 10.7467ZM264.442 192.828C263.805 194.102 260.393 193.53 258.999 193.223C259.004 192.8 258.992 192.363 258.996 191.94C260.602 191.465 263.406 191.901 264.442 192.828Z" fill="#995F16"/>
</svg>
