<svg width="23" height="22" viewBox="0 0 23 22" fill="none" xmlns="http://www.w3.org/2000/svg">
<path fill-rule="evenodd" clip-rule="evenodd" d="M7.84794 0.746472C9.16821 0.227585 10.5778 -0.0261163 11.9961 -0.000142504C13.4145 0.0253642 14.8139 0.330044 16.1145 0.896494C17.415 1.46294 18.5913 2.28006 19.576 3.30118C20.5607 4.3223 21.3346 5.52742 21.8535 6.84769C22.3724 8.16796 22.6261 9.57752 22.6001 10.9959C22.5746 12.4142 22.2699 13.8136 21.7035 15.1142C21.137 16.4148 20.3199 17.591 19.2988 18.5757C18.2777 19.5604 17.0725 20.3344 15.7523 20.8532C14.432 21.3721 13.0224 21.6258 11.6041 21.5998L3.89211 21.4598L0.808105 21.4038L1.00011 10.6039C1.02561 9.18551 1.33029 7.78608 1.89674 6.48551C2.46319 5.18494 3.28031 4.0087 4.30143 3.02398C5.32255 2.03926 6.52767 1.26536 7.84794 0.746472ZM10.704 14.088C10.704 15.72 10.64 16.472 10.48 17H13.28C13.136 16.472 13.056 15.608 13.056 14.296V10.472V8.456C12.224 8.536 11.328 8.616 10.512 8.68C10.624 9.048 10.704 9.592 10.704 10.456V14.088ZM11.872 5.096C11.04 5.096 10.528 5.576 10.528 6.376C10.528 7.176 11.04 7.672 11.872 7.672C12.688 7.672 13.216 7.176 13.216 6.376C13.216 5.576 12.688 5.096 11.872 5.096Z" fill="#FBC002"/>
</svg>
