<svg width="1366" height="120" viewBox="0 0 1366 120" fill="none" xmlns="http://www.w3.org/2000/svg">
<g clip-path="url(#clip0_325_1505)">
<path fill-rule="evenodd" clip-rule="evenodd" d="M2406.87 63.2006C2462.42 76.1658 2518 89.1365 2574.06 99.9331L2574.07 99.9431C2587.59 102.553 2601.25 105.013 2615 107.303V233.943C2502.81 239.663 2385.89 224.873 2276.52 202.613C2222.32 191.585 2168.53 178.859 2114.75 166.136C1985.91 135.655 1857.14 105.189 1722.99 98.1131C1603.32 91.8001 1484.39 104.284 1366 123.974V283H0V137.55C-115.399 138.671 -230.489 161.306 -345.427 183.912C-499.481 214.21 -653.265 244.455 -807.16 222.773C-889.051 211.24 -967.591 185.301 -1045.55 159.555C-1075.4 149.696 -1105.16 139.866 -1135 130.883V11.4831C-1064.76 20.0531 -995.68 34.3831 -929.3 54.4331C-891.727 65.7829 -854.918 78.9198 -818.135 92.0477C-748.035 117.067 -678.027 142.053 -602.99 154.573C-430.113 183.413 -259.262 143.398 -86.8265 103.011C22.2272 77.4689 131.915 51.7785 243.15 43.2631C402.667 31.0486 560.944 54.4996 719.488 77.9904C859.223 98.6943 999.167 119.429 1140.35 115.803C1279.63 112.225 1415.99 85.0408 1552.07 57.9111C1713.05 25.8164 1873.65 -6.20155 2038.26 1.03304C2164.19 6.56266 2285.47 34.8681 2406.87 63.2006Z" fill="#00C4C8"/>
</g>
<defs>
<clipPath id="clip0_325_1505">
<rect width="1366" height="120" fill="white"/>
</clipPath>
</defs>
</svg>
