<svg width="3776" height="324" viewBox="0 0 3776 324" fill="none" xmlns="http://www.w3.org/2000/svg">
<path d="M1833 134.804L1842.2 131.793L1848.47 128.889H1857.05L1860.23 133.367V138.651L1871.11 136.669V57.3737L1880.19 54.7318V49.0012H1892.89V43.4941L1905.59 40.8522V36.2969H1940.28L1972.75 40.1917V134.328H1998.16V55.3923L2003.6 52.0899V43.5037L2010.87 35.5781V27.6524L2023.57 25.0105V13.7728L2064.24 9.80996L2087.09 13.7728V23.6799L2092.21 31.6055L2097.99 37.5498V75.2161L2108.87 78.5185V93.0586L2128.83 91.4074V87.1143L2131.14 85.1329L2143.35 87.4446V91.0772L2163.31 96.6912V118.827L2172.39 119.487V122.79L2185.09 124.441V160.456L2190.54 160.126V118.827L2203.24 117.836V112.882L2223.21 114.203V108.92L2230.47 109.91V114.864L2244.99 116.185V130.725L2255.87 130.395V124.781L2263.13 125.771V130.705H2266.77V120.818L2271.31 117.185L2279.03 117.846L2277.83 112.562H2290.36V23.6896L2292.18 20.057V7.2652H2301.26V0H2324.74L2325.7 8.20735L2333.93 10.4705V29.6338L2339.38 28.9734V23.6896L2358.93 22.3687L2370.23 24.3501V33.5967L2377.5 37.2293V140.642L2386.58 140.311V134.697L2401.09 132.716V128.753L2406.54 126.111L2411.99 127.102V132.716L2428.32 135.358V150.559L2455.55 150.889V108.929L2457.36 106.948V103.48H2471.88V95.0497L2483.53 95.38L2484.96 100.333L2493.65 100.003V95.0497L2509.61 95.38L2514.42 91.4171L2524.51 96.0404V63.3276L2536.6 65.8238L2541.42 61.7153H2554.64L2571.7 64.9788V116.845L2579.68 117.836L2581.21 161.447L2584.4 163.098V59.3551L2585.88 50.769L2595.29 49.1178V47.4666L2605.35 45.8154L2614.93 48.4573L2626.15 50.4387V56.2664H2640.67V49.448L2637.04 48.7875V37.5498L2641.42 35.8986L2662.16 34.2474L2684.22 38.2103V51.4294L2682.18 54.7318L2690.2 55.062L2711.43 58.6946V112.882L2715.07 116.845V51.4294L2720.51 50.1085V41.5223L2732.48 40.5316L2736.85 41.1921V45.4852L2742.29 44.4945V39.5409L2751.37 39.2107L2756.82 40.8619V51.4391L2764.08 53.0903V61.725H2774.97V49.0206H2786.5L2789.49 51.4488V56.2858H2794.94V49.0206H2804.35L2807.65 52.1093V61.3559L2811.28 62.0164V69.2816L2816.73 71.5933V93.0683L2829.04 92.7381L2833.29 85.4729L2838.52 84.4822V79.8783H2843.97V73.2444L2856.34 71.5933L2873 74.8956V144.605L2876.63 147.907V110.901L2882.08 106.938V79.1887L2887.53 76.5468V65.3091L2891.16 62.6672V59.3648L2903.86 60.3555L2920.19 64.3183V77.2073L2930.32 80.8399L2954.37 78.8584L2956.82 73.2444L2991.24 72.9142L2996.23 82.8213L2999.62 80.5096L3014.57 78.8584V43.5037L3030.82 44.1642L3056.31 41.5223V47.4666L3069.02 46.4759V87.1143L3081.06 89.7562L3101.68 90.4167V43.5037L3117.84 37.5595L3137.97 36.2386L3143.57 39.2107L3149.1 39.8712L3157.94 43.834V122.799L3163.39 127.753V63.3276L3170.15 62.0067L3173.71 58.3741L3191.65 57.0532L3206.96 63.6579V69.2719L3212.72 69.6021L3232.37 76.2068V128.734L3245.07 127.413V67.2808L3259.58 65.9598V61.3365L3281.87 57.7039L3292.26 59.3551V67.2808L3306.77 68.2715V104.947C3306.77 104.947 3312.53 103.296 3312.86 102.305C3313.19 101.314 3312.53 93.0586 3312.53 93.0586L3326.74 92.3981V87.1143L3346.7 86.7841V83.1515L3360.25 82.491L3370.96 84.1422L3390.26 87.7748V160.456L3402.96 165.74V126.752L3406.59 125.431V120.808L3413.86 111.892V97.0214L3424.74 95.04V87.1143L3436.36 85.1329L3459.22 88.4353V95.04L3470.11 97.0214V130.725L3473.8 136.669L3475.58 120.808L3481 119.487V112.882L3489.38 96.2056H3492.02L3495.52 106.929V112.873L3505.33 117.166L3508.22 131.376V158.465L3513.66 158.135V98.9931L3531.81 98.6629V107.094H3575.37V140.622L3590.39 140.953L3600.78 146.236V186.214L3606.23 187.535V108.9L3621.15 106.919L3647.97 108.57V110.882L3666.12 113.523V128.87H3678.82V85.1135L3693.34 82.8018V78.0426H3719.92L3726.27 80.5873L3736.91 82.4716V162.428L3744.24 167.711L3775.02 171.014V308.606L1833 316.026V134.804Z" fill="#852A1B"/>
<path d="M0 141.804L9.19537 138.793L15.468 135.889H24.0517L27.2268 140.367V145.651L38.1117 143.669V64.3737L47.1906 61.7318V56.0012H59.8913V50.4941L72.592 47.8522V43.2969H107.276L139.746 47.1917V141.328H165.157V62.3923L170.605 59.0899V50.5038L177.868 42.5781V34.6524L190.568 32.0105V20.7728L231.244 16.81L254.091 20.7728V30.6799L259.208 38.6055L264.986 44.5498V82.2161L275.871 85.5185V100.059L295.835 98.4074V94.1143L298.136 92.1329L310.351 94.4446V98.0772L330.315 103.691V125.827L339.394 126.487V129.79L352.094 131.441V167.456L357.542 167.126V125.827L370.242 124.836V119.882L390.206 121.203V115.92L397.469 116.91V121.864L411.986 123.185V137.725L422.87 137.395V131.781L430.134 132.771V137.705H433.765V127.818L438.309 124.185L446.029 124.846L444.834 119.562H457.36V30.6896L459.176 27.057V14.2652H468.255V7H491.744L492.705 15.2073L500.929 17.4705V36.6338L506.376 35.9734V30.6896L525.932 29.3687L537.235 31.3501V40.5967L544.498 44.2293V147.642L553.577 147.311V141.697L568.093 139.716V135.753L573.541 133.111L578.988 134.102V139.716L595.32 142.358V157.559L622.547 157.889V115.929L624.363 113.948V110.48H638.879V102.05L650.531 102.38L651.958 107.333L660.649 107.003V102.05L676.612 102.38L681.419 98.4171L691.507 103.04V70.3276L703.596 72.8238L708.422 68.7153H721.637L738.698 71.9788V123.845L746.68 124.836L748.214 168.447L751.399 170.098V66.3551L752.884 57.769L762.293 56.1178V54.4666L772.353 52.8154L781.927 55.4573L793.152 57.4387V63.2664H807.668V56.448L804.037 55.7875V44.5498L808.416 42.8986L829.156 41.2474L851.217 45.2103V58.4294L849.178 61.7318L857.199 62.062L878.435 65.6946V119.882L882.066 123.845V58.4294L887.513 57.1085V48.5223L899.476 47.5316L903.846 48.1921V52.4852L909.293 51.4945V46.5409L918.372 46.2107L923.819 47.8619V58.4391L931.082 60.0903V68.725H941.967V56.0206H953.503L956.493 58.4488V63.2858H961.941V56.0206H971.35L974.651 59.1093V68.3559L978.282 69.0164V76.2816L983.73 78.5933V100.068L996.042 99.7381L1000.29 92.4729L1005.52 91.4822V86.8783H1010.97V80.2444L1023.34 78.5933L1040 81.8956V151.605L1043.63 154.907V117.901L1049.08 113.938V86.1887L1054.53 83.5468V72.3091L1058.16 69.6672V66.3648L1070.86 67.3555L1087.19 71.3183V84.2073L1097.32 87.8399L1121.37 85.8584L1123.82 80.2444L1158.24 79.9142L1163.23 89.8213L1166.62 87.5096L1181.57 85.8584V50.5038L1197.82 51.1642L1223.31 48.5223V54.4666L1236.02 53.4759V94.1143L1248.06 96.7562L1268.68 97.4167V50.5038L1284.84 44.5595L1304.97 43.2386L1310.57 46.2107L1316.1 46.8712L1324.94 50.834V129.799L1330.39 134.753V70.3276L1337.15 69.0067L1340.71 65.3741L1358.65 64.0532L1373.96 70.6579V76.2719L1379.72 76.6021L1399.37 83.2068V135.734L1412.07 134.413V74.2808L1426.58 72.9598V68.3365L1448.87 64.7039L1459.26 66.3551V74.2808L1473.77 75.2715V111.947C1473.77 111.947 1479.53 110.296 1479.86 109.305C1480.19 108.314 1479.53 100.059 1479.53 100.059L1493.74 99.3981V94.1143L1513.7 93.7841V90.1515L1527.25 89.491L1537.96 91.1422L1557.26 94.7748V167.456L1569.96 172.74V133.752L1573.59 132.431V127.808L1580.86 118.892V104.021L1591.74 102.04V94.1143L1603.36 92.1329L1626.22 95.4353V102.04L1637.11 104.021V137.725L1640.8 143.669L1642.58 127.808L1648 126.487V119.882L1656.38 103.206H1659.02L1662.52 113.929V119.873L1672.33 124.166L1675.22 138.376V165.465L1680.66 165.135V105.993L1698.81 105.663V114.094H1742.37V147.622L1757.39 147.953L1767.78 153.236V193.214L1773.23 194.535V115.9L1788.15 113.919L1814.97 115.57V117.882L1833.12 120.524V135.87H1845.82V92.1135L1860.34 89.8018V85.0426H1886.92L1893.27 87.5873L1903.91 89.4716V169.428L1911.24 174.711L1942.02 178.014V315.606L0 323.026V141.804Z" fill="#852A1B"/>
</svg>
