<svg width="3776" height="419" viewBox="0 0 3776 419" fill="none" xmlns="http://www.w3.org/2000/svg">
<path d="M1833 184.233H1872.24L1876.28 58.7237L1893.84 52.3521L1925.57 57.1017V106.151L1931.01 107.162V98.0607L1938.72 91.9902L1950.98 94.0104V100.081L1956.42 104.636V110.202L1970.94 114.757V130.434L1981.83 128.413V106.161L1988.7 95.5451L1995.6 94.0299L1999.97 99.5953V108.191L2003.6 110.716V160.776L2009.05 188.584V134.474L2019.94 131.444V124.363L2029.49 111.212L2043.88 112.222L2047.15 129.414V57.6068L2071.26 56.5966L2085.27 61.657V102.111L2090.71 103.626V58.9666H2116.9L2128.83 61.1519V84.385H2132.47V142.565L2141.54 144.08V185.039L2148.25 173.345H2153.31L2157.89 177.958V118.293L2184.41 114.252C2184.41 114.252 2185.3 104.646 2184.28 103.131C2183.27 101.616 2187.75 84.4239 2187.75 84.4239L2199.85 82.4036L2202.61 100.1L2206.88 103.131V73.5067H2217.77V53.5759L2223.22 52.5658V57.6262L2233.3 52.5658L2241.36 56.6063V53.5759L2248.63 52.5658V77.8483L2286.17 76.3331L2299.44 78.8584V128.413L2308.52 129.423V140.545L2318.81 150.656L2323.03 135.989V102.111L2330.3 99.5856V41.4349L2344.73 45.9902L2352.08 53.5759V71.7778L2357.52 73.798V81.8888L2365.62 82.1899L2368.16 78.9458H2393.94L2401.08 86.9492V148.635L2402.9 154.706V55.5962L2409 52.0607L2415.6 56.111V66.2512H2422.24L2431.94 80.3833V112.241L2432.83 117.807L2451.91 123.372V144.614L2466.42 145.624V106.181L2482.75 103.927L2502.12 97.1185H2526.32V39.0261H2544.47V102.14L2553.55 103.655V128.433L2559 128.938V120.342L2571.5 119.487L2575.92 108.016H2595.28V81.9082L2604.36 79.3829V59.6659L2641.71 56.6355L2667.29 0L2696.93 57.6456V130.463L2700.56 128.442V104.17L2713.26 103.16V77.8774L2737.58 76.8673L2747.75 85.9682V130.463L2751.38 139.564V109.833H2764.08V87.9788L2772.12 88.4838L2777.15 84.9484L2780.68 87.9788L2785.84 88.4838L2789.49 97.0797V138.544L2795.95 139.554L2801.48 162.311L2805.84 163.321V102.14L2813.1 101.635V83.9382L2821.62 60.812H2840.83L2853.03 81.9082V110.221L2860.29 112.241V150.675L2867.55 156.24V120.342L2874.87 118.322L2876.63 107.705V92.029L2889.33 91.524V112.261L2896.59 115.291V164.846L2900.23 147.149V120.352L2902.04 116.816V102.15L2913.91 99.7216L2916.67 93.5054H2925.77L2929.78 103.898L2938.35 104.685V94.0687L2969.21 94.3212V110.25L2981.91 109.745V142.613L2985.29 141.943L2989.17 129.977V59.6853L2994.37 66.2609L3001.28 64.2406L3005.23 56.1498L3008.73 60.7052L3023.11 61.2102L3030.91 56.6549V73.8466L3034.54 76.877V132.502L3043.62 134.018V85.9779L3050.08 66.7659L3054.52 66.2609V51.5945L3064.7 50.0793L3070.85 55.1397V63.7355L3079.06 71.3213L3099.89 73.8466V126.432L3103.2 102.665L3121.67 102.159V114.291L3132.56 127.947V77.8871L3172.48 79.9074V100.13L3177.91 107.21L3192.45 108.725V128.442L3201.53 150.694V130.472L3214.23 118.341V94.0687L3223.31 90.5332V85.9779L3239.64 78.3922L3255.97 78.8973V120.361L3258.88 141.934L3266.86 158.785V37.4235L3275.94 34.3931V41.4738L3287.39 39.9586L3292.17 35.4032L3317.68 40.9687V61.7056L3328.56 86.483V102.159L3335.83 101.149V59.6853L3339.46 57.665V53.6148L3359.29 47.5443L3368.5 49.5645V53.6051L3377.58 57.6553V111.659H3402.99V142.604L3430.22 145.634V132.483L3442.92 132.988V120.342L3455.31 119.973L3457.59 126.17H3462.88V118.322L3471.96 119.332V92.029L3508.26 85.4534V29.323L3530.04 22.7474V17.182L3564.71 9.0912L3573.6 10.1013V17.182L3582.67 19.7073V154.716L3600.82 153.705V138.534L3606.27 139.039V89.9893L3613.32 81.51L3621.88 64.4349H3629.47L3637.05 82.2676L3647.13 83.5983L3651.64 100.605V172.917L3660.31 169.732H3669.91L3685.08 179.415L3689.93 166.05L3698.83 175.87V81.8985L3716.97 79.8783V69.7672L3733.37 67.747L3740.96 74.8276L3746.02 79.888V87.9788L3763.14 88.9889L3775.06 97.5848V418.458H1833V184.262V184.233Z" fill="#B9321C"/>
<path d="M0 184.233H39.2381L43.2775 58.7237L60.8429 52.3521L92.5654 57.1017V106.151L98.0127 107.162V98.0607L105.722 91.9902L117.977 94.0104V100.081L123.424 104.636V110.202L137.94 114.757V130.434L148.825 128.413V106.161L155.7 95.5451L162.604 94.0299L166.973 99.5953V108.191L170.605 110.716V160.776L176.052 188.584V134.474L186.937 131.444V124.363L196.492 111.212L210.882 112.222L214.154 129.414V57.6068L238.264 56.5966L252.266 61.657V102.111L257.713 103.626V58.9666H283.901L295.835 61.1519V84.385H299.466V142.565L308.545 144.08V185.039L315.255 173.345H320.313L324.887 177.958V118.293L351.415 114.252C351.415 114.252 352.298 104.646 351.279 103.131C350.269 101.616 354.755 84.4239 354.755 84.4239L366.854 82.4036L369.611 100.1L373.884 103.131V73.5067H384.768V53.5759L390.216 52.5658V57.6262L400.304 52.5658L408.364 56.6063V53.5759L415.627 52.5658V77.8483L453.166 76.3331L466.439 78.8584V128.413L475.518 129.423V140.545L485.811 150.656L490.035 135.989V102.111L497.298 99.5856V41.4349L511.727 45.9902L519.077 53.5759V71.7778L524.525 73.7981V81.8888L532.623 82.1899L535.157 78.9458H560.937L568.084 86.9492V148.635L569.899 154.706V55.5962L575.997 52.0607L582.6 56.111V66.2512H589.242L598.942 80.3833V112.241L599.826 117.807L618.906 123.372V144.614L633.422 145.624V106.181L649.754 103.927L669.116 97.1185H693.323V39.0261H711.471V102.14L720.55 103.655V128.433L725.997 128.938V120.342L738.504 119.487L742.922 108.016H762.284V81.9082L771.362 79.3829V59.6659L808.707 56.6355L834.293 0L863.928 57.6456V130.463L867.559 128.442V104.17L880.26 103.16V77.8774L904.584 76.8673L914.75 85.9682V130.463L918.382 139.564V109.833H931.082V87.9788L939.122 88.4838L944.152 84.9484L947.677 87.9788L952.842 88.4838L956.493 97.0797V138.544L962.95 139.554L968.475 162.311L972.835 163.321V102.14L980.098 101.635V83.9382L988.624 60.812H1007.83L1020.03 81.9082V110.221L1027.29 112.241V150.675L1034.55 156.24V120.342L1041.87 118.322L1043.63 107.705V92.029L1056.33 91.524V112.261L1063.59 115.291V164.846L1067.23 147.149V120.352L1069.04 116.816V102.15L1080.91 99.7216L1083.67 93.5054H1092.77L1096.78 103.898L1105.35 104.685V94.0687L1136.21 94.3212V110.25L1148.91 109.745V142.613L1152.29 141.943L1156.17 129.977V59.6853L1161.37 66.2609L1168.28 64.2406L1172.23 56.1498L1175.73 60.7052L1190.11 61.2102L1197.91 56.6549V73.8466L1201.54 76.877V132.502L1210.62 134.018V85.9779L1217.08 66.7659L1221.52 66.2609V51.5945L1231.7 50.0793L1237.85 55.1397V63.7356L1246.06 71.3213L1266.89 73.8466V126.432L1270.2 102.665L1288.67 102.159V114.291L1299.56 127.947V77.8871L1339.48 79.9074V100.13L1344.91 107.21L1359.45 108.725V128.442L1368.53 150.694V130.472L1381.23 118.341V94.0687L1390.31 90.5332V85.9779L1406.64 78.3922L1422.97 78.8973V120.361L1425.88 141.934L1433.86 158.785V37.4235L1442.94 34.3931V41.4738L1454.39 39.9586L1459.17 35.4032L1484.68 40.9687V61.7056L1495.56 86.483V102.159L1502.83 101.149V59.6853L1506.46 57.665V53.6148L1526.29 47.5443L1535.5 49.5645V53.6051L1544.58 57.6553V111.659H1569.99V142.604L1597.22 145.634V132.483L1609.92 132.988V120.342L1622.31 119.973L1624.59 126.17H1629.88V118.322L1638.96 119.332V92.029L1675.26 85.4534V29.323L1697.04 22.7474V17.182L1731.71 9.0912L1740.6 10.1013V17.182L1749.67 19.7073V154.716L1767.82 153.705V138.534L1773.27 139.039V89.9893L1780.32 81.51L1788.88 64.4349H1796.47L1804.05 82.2676L1814.13 83.5983L1818.64 100.605V172.917L1827.31 169.732H1836.91L1852.08 179.415L1856.93 166.05L1865.83 175.87V81.8985L1883.97 79.8783V69.7672L1900.37 67.747L1907.96 74.8276L1913.02 79.888V87.9788L1930.14 88.9889L1942.06 97.5848V418.458H0V184.262V184.233Z" fill="#B9321C"/>
</svg>
