<svg width="3775" height="385" viewBox="0 0 3775 385" fill="none" xmlns="http://www.w3.org/2000/svg">
<path d="M1833 384.484V287.879L1845.7 215.193H1860.22V193.04L1864.74 186.662H1873.6L1881.99 191.47V246.396L1887.44 249.012V265.224L1898.33 266.794V280.912L1903.77 281.436V208.728L1905.59 206.112V199.309L1914.67 199.832V205.588L1923.75 206.635V233.836L1929.19 235.929V224.417L1934.64 225.987V218.137L1950.71 216.044L1952.69 161.739L1960.73 156.081H1971.45L1981.84 165.304V154.042H2002.2L2010.88 159.548V164.781L2016.33 165.828V154.042H2024.57L2041.74 164.781V180.47L2045.37 182.039V211.857L2052.63 213.95V208.717L2058.08 205.054V199.298L2063.52 200.344V196.158L2068.97 194.065V174.19L2078.05 171.573V139.662L2085.15 133.655H2100.05L2107.09 143.325V199.298L2115.22 199.232L2117.75 207.017H2127.04V189.878L2137.31 187.785L2156.18 189.878L2158.13 194.588L2163.35 195.635V230.685L2172.91 239.582L2179.68 238.012V199.298L2185.8 193.541L2192.38 193.018V183.598L2198.24 178.365L2206.9 178.889V196.147L2214.17 195.624V202.427L2226.87 213.939V123.974C2226.87 123.974 2229.61 121.881 2234.73 123.974C2239.86 126.067 2239.34 105.135 2239.34 105.135H2287.33L2333.94 109.332V117.705L2343.02 120.322V205.588L2344.84 215.008V227.556L2352.1 240.116V32.9726L2371.65 21.6015H2393.55L2404.74 29.3094V205.588L2408.83 213.438L2412 206.635V114.576L2420.48 105.68L2430.09 90.5148L2441.31 107.25L2446.49 116.146V136.544L2453.75 145.964V186.76L2456.65 174.201L2462.82 175.247V70.6291L2466.86 69.0591L2479.38 73.2456L2490.04 77.4321V164.792L2504.56 166.362V177.351L2525 170.548L2542.9 171.595L2546.73 200.889L2563.08 174.212L2571.95 174.735L2584.08 196.703L2603.45 188.33L2611.64 187.807V158.512L2631.17 155.372L2646.53 171.061L2686.59 170.538L2696.84 192.506L2705.68 172.631L2718.71 171.584V161.641L2738.29 154.838L2756.38 155.362L2758.64 145.942V108.275L2765.71 98.3317L2782.68 96.2385L2793.13 103.565V164.77L2800.26 147.926H2818.43L2823.55 159.755L2833.81 145.887H2888.32L2892.96 160.616V199.287L2896.59 179.935V145.931L2905.57 135.465L2922 133.895V111.404L2937.19 109.834L2971 115.067V196.147C2971 196.147 2977.65 195.1 2977.18 193.53C2976.71 191.96 2977.5 169.458 2977.5 169.458L2990.34 164.214H3005.48V127.092L3054.13 119.242L3078.08 125.522V202.416L3085.23 185.681L3092.67 175.738L3107.11 176.261V164.203H3123.97L3126.84 162.165H3145.47L3150.13 121.608L3159.92 117.28L3181.14 118.784L3186.97 130.221V186.716L3197.86 177.297V161.609L3218.26 164.89L3223.74 172.358H3235.97V214.964L3254.11 215.488V130.221L3263.19 118.185V58.026L3275.89 52.7929V4.67027L3289.71 0.483795L3304.92 5.71688V58.2223H3314V120.79L3317.63 126.547V214.953L3330.31 214.43L3339.7 234.828L3343.04 231.688V161.598L3353.93 156.888V108.242L3363.49 94.9084H3374.68L3386.6 110.858V155.318L3390.23 158.981V171.017L3406.56 178.867V199.265L3416.71 201.882L3449.73 200.889L3452.01 178.453H3482.79V199.254L3507 196.638L3519.58 203.964L3535.43 205.534V233.782L3543.11 232.212L3545.81 217.047L3586.25 215.477V189.845L3598.79 171.017L3626.08 172.064L3637.06 191.415V221.233L3651.57 222.149V229.41H3684.94L3688.67 202.307L3694.27 197.782L3702.19 192.735H3732.47L3747.5 193.912L3753.22 201.892V240.083L3761.22 274.611L3775 278.721V384.364L1833.1 384.451L1833 384.484Z" fill="#6C2215"/>
<path d="M0 384V287.395L12.7 214.709H27.2158V192.556L31.7404 186.178H40.5955L48.9942 190.986V245.912L54.4412 248.528V264.74L65.3256 266.31V280.428L70.7727 280.952V208.244L72.5883 205.628V198.825L81.6667 199.348V205.105L90.7451 206.151V233.352L96.1922 235.446V223.933L101.639 225.503V217.653L117.708 215.56L119.689 161.256L127.729 155.597H138.448L148.837 164.821V153.559H169.198L177.878 159.064V164.297L183.325 165.344V153.559H191.569L208.735 164.297V179.986L212.367 181.556V211.373L219.629 213.467V208.234L225.076 204.57V198.814L230.523 199.861V195.674L235.97 193.581V173.706L245.049 171.089V139.178L252.146 133.171H267.051L274.09 142.842V198.814L282.217 198.749L284.751 206.533H294.043V189.394L304.306 187.301L323.181 189.394L325.133 194.104L330.347 195.151V230.202L339.911 239.098L346.678 237.528V198.814L352.795 193.058L359.378 192.534V183.115L365.243 177.882L373.904 178.405V195.663L381.166 195.14V201.943L393.866 213.456V123.49C393.866 123.49 396.614 121.397 401.731 123.49C406.858 125.583 406.343 104.651 406.343 104.651H454.328L500.943 108.848V117.221L510.021 119.838V205.105L511.837 214.524V227.073L519.1 239.632V32.4888L538.655 21.1177H560.55L571.735 28.8256V205.105L575.832 212.954L578.998 206.151V114.092L587.484 105.196L597.087 90.031L608.311 106.766L613.486 115.662V136.06L620.749 145.48V186.276L623.652 173.717L629.817 174.763V70.1453L633.857 68.5753L646.382 72.7618L657.043 76.9483V164.308L671.559 165.878V176.868L691.997 170.065L709.901 171.111L713.727 200.406L730.078 173.728L738.952 174.251L751.079 196.219L770.45 187.846L778.635 187.323V158.028L798.171 154.889L813.531 170.577L853.593 170.054L863.836 192.022L872.681 172.147L885.712 171.1V161.157L905.286 154.354L923.385 154.878L925.637 145.458V107.791L932.706 97.8479L949.678 95.7547L960.125 103.081V164.286L967.262 147.442H985.428L990.555 159.271L1000.81 145.404H1055.32L1059.96 160.133V198.803L1063.59 179.451V145.447L1072.57 134.981L1089 133.411V110.92L1104.19 109.35L1138 114.583V195.663C1138 195.663 1144.65 194.617 1144.18 193.047C1143.71 191.477 1144.5 168.974 1144.5 168.974L1157.34 163.73H1172.48V126.608L1221.13 118.759L1245.08 125.038V201.932L1252.23 185.197L1259.67 175.254L1274.11 175.777V163.719H1290.97L1293.84 161.681H1312.47L1317.13 121.124L1326.92 116.796L1348.14 118.301L1353.97 129.737V186.233L1364.86 176.813V161.125L1385.26 164.406L1390.74 171.874H1402.97V214.48L1421.11 215.004V129.737L1430.19 117.701V57.5422L1442.89 52.3091V4.18647L1456.71 0L1471.92 5.23308V57.7385H1481V120.307L1484.63 126.063V214.47L1497.31 213.946L1506.7 234.344L1510.04 231.205V161.114L1520.93 156.404V107.758L1530.49 94.4246H1541.68L1553.6 110.375V154.834L1557.23 158.497V170.533L1573.56 178.383V198.781L1583.71 201.398L1616.73 200.406L1619.01 177.969H1649.79V198.77L1674 196.154L1686.58 203.48L1702.43 205.05V233.298L1710.11 231.728L1712.81 216.563L1753.25 214.993V189.362L1765.79 170.533L1793.08 171.58L1804.06 190.932V220.749L1818.57 221.665V228.926H1851.94L1855.67 201.823L1861.27 197.299L1869.19 192.251H1899.47L1914.5 193.428L1920.22 201.409V239.599L1928.22 274.127L1942 278.237V383.88L0.0970951 383.967L0 384Z" fill="#6C2215"/>
</svg>
