<svg width="17" height="18" viewBox="0 0 17 18" fill="none" xmlns="http://www.w3.org/2000/svg">
<path d="M16.7522 3.74528V5.3099H0.247559V3.74528C0.247559 2.50605 1.25141 1.5022 2.49064 1.5022H4.74065V2.74143C4.74065 3.05989 5.05219 3.31605 5.43296 3.31605C5.81373 3.31605 6.12527 3.05989 6.12527 2.74143V1.5022H10.743V2.74143C10.743 3.05989 11.0545 3.31605 11.4353 3.31605C11.8161 3.31605 12.1276 3.05989 12.1276 2.74143V1.5022H14.5091C15.7484 1.5022 16.7522 2.50605 16.7522 3.74528Z" fill="white"/>
<path d="M0.247559 6.69458H16.7522V15.7569C16.7522 16.9961 15.7484 18 14.5091 18H2.49064C1.25141 18 0.247559 16.9961 0.247559 15.7569V6.69458Z" fill="white"/>
<path d="M6.12534 0.574617V1.50231H4.74072V0.574617C4.74072 0.256155 5.05226 0 5.43303 0C5.8138 0 6.12534 0.256155 6.12534 0.574617Z" fill="white"/>
<path d="M12.1273 0.574617V1.50231H10.7427V0.574617C10.7427 0.256155 11.0542 0 11.435 0C11.8158 0 12.1273 0.256155 12.1273 0.574617Z" fill="white"/>
</svg>
