<svg width="1943" height="384" viewBox="0 0 1943 384" fill="none" xmlns="http://www.w3.org/2000/svg">
<path d="M0 142.625L9.19537 139.614L15.468 136.71H24.0517L27.2268 141.187V146.471L38.1117 144.49V65.1942L47.1906 62.5523V56.8218H59.8913V51.3146L72.592 48.6727V44.1174H107.276L139.746 48.0122V142.149H165.157V63.2128L170.605 59.9104V51.3243L177.868 43.3986V35.473L190.568 32.8311V21.5934L231.244 17.6305L254.091 21.5934V31.5004L259.208 39.4261L264.986 45.3703V83.0367L275.871 86.3391V100.879L295.835 99.228V94.9349L298.136 92.9535L310.351 95.2651V98.8977L330.315 104.512V126.647L339.394 127.308V130.61L352.094 132.261V168.276L357.542 167.946V126.647L370.242 125.657V120.703L390.206 122.024V116.74L397.469 117.731V122.684L411.986 124.005V138.545L422.87 138.215V132.601L430.134 133.592V138.526H433.765V128.638L438.309 125.006L446.029 125.666L444.834 120.382H457.36V31.5102L459.176 27.8776V15.0858H468.255V7.82056H491.744L492.705 16.0279L500.929 18.291V37.4544L506.376 36.7939V31.5102L525.932 30.1892L537.235 32.1706V41.4172L544.498 45.0498V148.462L553.577 148.132V142.518L568.093 140.537V136.574L573.541 133.932L578.988 134.923V140.537L595.32 143.178V158.379L622.547 158.709V116.75L624.363 114.768V111.301H638.879V102.87L650.531 103.201L651.958 108.154L660.649 107.824V102.87L676.612 103.201L681.419 99.2377L691.507 103.861V71.1482L703.596 73.6444L708.422 69.5359H721.637L738.698 72.7994V124.666L746.68 125.657L748.214 169.267L751.399 170.918V67.1756L752.884 58.5895L762.293 56.9383V55.2872L772.353 53.636L781.927 56.2779L793.152 58.2593V64.087H807.668V57.2686L804.037 56.6081V45.3703L808.416 43.7192L829.156 42.068L851.217 46.0308V59.25L849.178 62.5523L857.199 62.8826L878.435 66.5152V120.703L882.066 124.666V59.25L887.513 57.929V49.3429L899.476 48.3522L903.846 49.0127V53.3057L909.293 52.315V47.3615L918.372 47.0313L923.819 48.6824V59.2597L931.082 60.9109V69.5456H941.967V56.8412H953.503L956.493 59.2694V64.1064H961.941V56.8412H971.35L974.651 59.9299V69.1765L978.282 69.8369V77.1022L983.73 79.4138V100.889L996.042 100.559L1000.29 93.2934L1005.52 92.3027V87.6988H1010.97V81.065L1023.34 79.4138L1040 82.7162V152.425L1043.63 155.727V118.722L1049.08 114.759V87.0092L1054.53 84.3674V73.1296L1058.16 70.4877V67.1854L1070.86 68.1761L1087.19 72.1389V85.0278L1097.32 88.6604L1121.37 86.679L1123.82 81.065L1158.24 80.7347L1163.23 90.6418L1166.62 88.3302L1181.57 86.679V51.3243L1197.82 51.9848L1223.31 49.3429V55.2872L1236.02 54.2964V94.9349L1248.06 97.5768L1268.68 98.2373V51.3243L1284.84 45.3801L1304.97 44.0591L1310.57 47.0313L1316.1 47.6917L1324.94 51.6545V130.62L1330.39 135.573V71.1482L1337.15 69.8273L1340.71 66.1946L1358.65 64.8737L1373.96 71.4784V77.0924L1379.72 77.4227L1399.37 84.0274V136.554L1412.07 135.233V75.1013L1426.58 73.7804V69.1571L1448.87 65.5245L1459.26 67.1756V75.1013L1473.77 76.092V112.768C1473.77 112.768 1479.53 111.116 1479.86 110.126C1480.19 109.135 1479.53 100.879 1479.53 100.879L1493.74 100.219V94.9349L1513.7 94.6047V90.9721L1527.25 90.3116L1537.96 91.9628L1557.26 95.5954V168.276L1569.96 173.56V134.573L1573.59 133.252V128.629L1580.86 119.712V104.842L1591.74 102.861V94.9349L1603.36 92.9535L1626.22 96.2558V102.861L1637.11 104.842V138.545L1640.8 144.49L1642.58 128.629L1648 127.308V120.703L1656.38 104.026H1659.02L1662.52 114.749V120.693L1672.33 124.986L1675.22 139.196V166.285L1680.66 165.955V106.814L1698.81 106.483V114.914H1742.37V148.443L1757.39 148.773L1767.78 154.057V194.035L1773.23 195.356V116.721L1788.15 114.739L1814.97 116.391V118.702L1833.12 121.344V136.69H1845.82V92.934L1860.34 90.6224V85.8631H1886.92L1893.27 88.4079L1903.91 90.2922V170.248L1911.24 175.532L1942.02 178.834V316.426L0 323.847V142.625Z" fill="#852A1B"/>
<path d="M0 384V287.395L12.7 214.709H27.2158V192.556L31.7404 186.178H40.5955L48.9942 190.986V245.912L54.4412 248.528V264.74L65.3256 266.31V280.428L70.7726 280.952V208.244L72.5883 205.628V198.825L81.6667 199.348V205.105L90.7451 206.151V233.352L96.1922 235.446V223.933L101.639 225.503V217.653L117.708 215.56L119.689 161.256L127.729 155.597H138.448L148.837 164.821V153.559H169.198L177.878 159.064V164.297L183.325 165.344V153.559H191.569L208.735 164.297V179.986L212.366 181.556V211.373L219.629 213.467V208.234L225.076 204.57V198.814L230.523 199.861V195.674L235.97 193.581V173.706L245.049 171.089V139.178L252.146 133.171H267.05L274.09 142.842V198.814L282.217 198.749L284.751 206.533H294.043V189.394L304.306 187.301L323.181 189.394L325.133 194.104L330.347 195.151V230.202L339.911 239.098L346.678 237.528V198.814L352.795 193.058L359.378 192.534V183.115L365.243 177.882L373.904 178.405V195.663L381.166 195.14V201.943L393.866 213.456V123.49C393.866 123.49 396.614 121.397 401.731 123.49C406.858 125.583 406.343 104.651 406.343 104.651H454.328L500.943 108.848V117.221L510.021 119.838V205.105L511.837 214.524V227.073L519.1 239.632V32.4888L538.655 21.1177H560.55L571.735 28.8256V205.105L575.832 212.954L578.998 206.151V114.092L587.484 105.196L597.087 90.031L608.311 106.766L613.486 115.662V136.06L620.749 145.48V186.276L623.652 173.717L629.817 174.764V70.1453L633.857 68.5753L646.382 72.7618L657.043 76.9483V164.308L671.559 165.878V176.868L691.997 170.065L709.901 171.111L713.727 200.406L730.078 173.728L738.952 174.251L751.079 196.219L770.45 187.846L778.635 187.323V158.029L798.171 154.889L813.531 170.577L853.593 170.054L863.836 192.022L872.681 172.147L885.712 171.1V161.157L905.286 154.354L923.385 154.878L925.637 145.458V107.791L932.706 97.8479L949.678 95.7547L960.125 103.081V164.286L967.262 147.442H985.428L990.555 159.271L1000.81 145.404H1055.32L1059.96 160.133V198.803L1063.59 179.451V145.447L1072.57 134.981L1089 133.411V110.92L1104.19 109.35L1138 114.583V195.663C1138 195.663 1144.64 194.617 1144.18 193.047C1143.71 191.477 1144.5 168.974 1144.5 168.974L1157.34 163.73H1172.48V126.608L1221.13 118.759L1245.08 125.038V201.932L1252.23 185.197L1259.67 175.254L1274.11 175.777V163.719H1290.97L1293.84 161.681H1312.47L1317.13 121.124L1326.92 116.796L1348.14 118.301L1353.97 129.737V186.233L1364.86 176.813V161.125L1385.26 164.406L1390.74 171.874H1402.97V214.481L1421.11 215.004V129.737L1430.19 117.701V57.5422L1442.89 52.3091V4.18647L1456.71 0L1471.92 5.23308V57.7385H1481V120.307L1484.63 126.063V214.47L1497.31 213.946L1506.7 234.344L1510.04 231.205V161.114L1520.93 156.404V107.758L1530.49 94.4246H1541.68L1553.6 110.375V154.834L1557.23 158.497V170.533L1573.56 178.383V198.781L1583.71 201.398L1616.73 200.406L1619.01 177.969H1649.79V198.77L1674 196.154L1686.58 203.48L1702.43 205.05V233.298L1710.11 231.728L1712.81 216.563L1753.25 214.993V189.362L1765.79 170.533L1793.08 171.58L1804.06 190.932V220.749L1818.57 221.665V228.926H1851.94L1855.67 201.823L1861.27 197.299L1869.19 192.251H1899.47L1914.5 193.428L1920.22 201.409V239.599L1928.22 274.127L1942 278.237V383.88L0.0970951 383.967L0 384Z" fill="#6C2215"/>
</svg>
