<svg width="22" height="20" viewBox="0 0 22 20" fill="none" xmlns="http://www.w3.org/2000/svg">
<path d="M0.200195 19.4003V6.60028C0.200199 5.72309 0.520476 4.87609 1.10087 4.21836C1.68126 3.56063 2.48183 3.13744 3.3522 3.02828C3.40861 3.02146 3.46583 3.02674 3.52004 3.04376C3.57426 3.06079 3.62422 3.08917 3.66661 3.12702C3.709 3.16486 3.74284 3.21131 3.76587 3.26325C3.78891 3.3152 3.80061 3.37146 3.8002 3.42828V15.8003C2.84542 15.8003 1.92974 16.1796 1.25461 16.8547C0.57948 17.5298 0.200195 18.4455 0.200195 19.4003ZM21.8002 9.40028V18.2003C21.8002 18.5185 21.6738 18.8238 21.4487 19.0488C21.2237 19.2739 20.9185 19.4003 20.6002 19.4003H1.4002C1.26374 19.3992 1.12846 19.3749 1.0002 19.3283C1.01897 18.5982 1.32224 17.9044 1.84532 17.3948C2.3684 16.8851 3.0699 16.6 3.8002 16.6003H4.6002V8.20028H7.7002C8.09769 9.3141 8.68057 10.3527 9.4242 11.2723C10.6002 12.7723 12.6642 14.6003 13.4002 14.6003C14.1362 14.6003 17.8282 11.8003 19.0922 8.20028H20.6002C20.9185 8.20028 21.2237 8.32671 21.4487 8.55176C21.6738 8.7768 21.8002 9.08202 21.8002 9.40028Z" fill="#010101"/>
<path d="M17.8801 2.7882C17.5807 2.29393 17.2039 1.85095 16.7641 1.4762C15.8344 0.657275 14.639 0.203837 13.4001 0.200195C10.4601 0.200195 8.08008 2.7162 8.08008 5.8002C8.08008 7.6842 8.98408 9.4002 10.0521 10.7642C11.5001 12.6242 13.2401 13.8002 13.4001 13.8002C13.6801 13.8002 18.7201 10.2522 18.7201 5.8002C18.7211 4.73823 18.4305 3.69636 17.8801 2.7882ZM13.4001 8.6002C12.8968 8.60085 12.4011 8.47702 11.9573 8.23973C11.5134 8.00245 11.1351 7.65908 10.8561 7.2402C10.7967 7.15215 10.7747 7.0441 10.7949 6.93983C10.8152 6.83556 10.876 6.7436 10.9641 6.6842C11.0521 6.62479 11.1602 6.60279 11.2644 6.62305C11.3687 6.6433 11.4607 6.70414 11.5201 6.7922C11.8208 7.243 12.2736 7.57072 12.7958 7.71563C13.318 7.86054 13.8748 7.81298 14.3649 7.58163C14.8549 7.35028 15.2456 6.95054 15.4655 6.45526C15.6855 5.95999 15.7202 5.40217 15.5632 4.88346C15.4063 4.36476 15.0682 3.91971 14.6106 3.62945C14.153 3.33918 13.6063 3.22302 13.0701 3.30214C12.534 3.38125 12.0442 3.65038 11.6899 4.06046C11.3356 4.47054 11.1405 4.99427 11.1401 5.5362C11.1401 5.64228 11.0979 5.74403 11.0229 5.81904C10.9479 5.89405 10.8462 5.9362 10.7401 5.9362C10.634 5.9362 10.5322 5.89405 10.4572 5.81904C10.3822 5.74403 10.3401 5.64228 10.3401 5.5362C10.3409 4.93116 10.521 4.33993 10.8577 3.83724C11.1944 3.33455 11.6726 2.94297 12.2318 2.71198C12.791 2.48099 13.4062 2.42096 13.9995 2.53948C14.5928 2.658 15.1377 2.94976 15.5652 3.37786C15.9928 3.80597 16.2838 4.35122 16.4016 4.94469C16.5193 5.53816 16.4585 6.15322 16.2268 6.71213C15.995 7.27104 15.6028 7.74871 15.0997 8.08477C14.5966 8.42083 14.0051 8.6002 13.4001 8.6002Z" fill="#FE4811"/>
</svg>
