<svg width="1366" height="1294" viewBox="0 0 1366 1294" fill="none" xmlns="http://www.w3.org/2000/svg">
<g clip-path="url(#clip0_1015_1704)">
<rect width="1366" height="1294" fill="#85141A"/>
<mask id="mask0_1015_1704" style="mask-type:luminance" maskUnits="userSpaceOnUse" x="-371" y="0" width="2107" height="1185">
<path d="M1736 0H-370.667V1185H1736V0Z" fill="white"/>
</mask>
<g mask="url(#mask0_1015_1704)">
<path d="M1754.88 -25.7571H-389.544V1210.75H1754.88V-25.7571Z" fill="#85141A"/>
<g style="mix-blend-mode:multiply" opacity="0.15">
<path d="M703.569 718.67C701.709 734.741 699.668 752.113 697.545 770.711C693.406 807.866 689.678 849.555 676.487 894.552C670.924 917.034 665.098 940.479 659.074 964.747C650.219 988.43 641.077 1012.92 631.629 1038.14C626.964 1050.71 622.191 1063.45 617.385 1076.31C611.09 1088.78 604.728 1101.41 598.285 1114.17C585.11 1139.53 572.783 1165.83 558.258 1191.77C525.259 1242.15 494.079 1295.35 452.209 1344.09C414.733 1395.35 366.766 1441.23 321.867 1488.45C272.566 1532.71 224.516 1577.71 170.936 1616.21C157.465 1627.32 143.525 1637.8 129.362 1647.9L289.288 1647.98C324.476 1614.03 357.697 1577.97 391.165 1542.47C434.483 1488.85 480.122 1437.09 514.866 1380.15C553.987 1325.9 581.884 1267.54 611.197 1212.83C623.836 1184.72 634.246 1156.35 645.446 1129.12C650.853 1115.5 656.202 1102.03 661.501 1088.71C665.246 1075 668.965 1061.46 672.635 1048.14C679.902 1021.6 686.954 995.787 693.776 970.861C697.66 945.589 701.388 921.181 704.968 897.769C714.036 851.365 713.938 808.211 714.522 770.398C714.917 751.554 715.287 733.943 715.625 717.682C713.946 701.619 712.415 686.897 711.033 673.632C705.478 620.537 702.285 590.245 702.285 590.245C702.285 590.245 702.598 620.776 703.141 674.298C703.264 687.671 703.413 702.5 703.577 718.678L703.569 718.67Z" fill="#CBCBCB"/>
<path d="M762.728 705.017C768.357 720.134 774.405 736.51 780.915 753.997C794.221 788.815 809.536 827.731 817.757 873.016C822.743 895.267 827.994 918.49 833.392 942.544C835.894 967.083 838.486 992.454 841.16 1018.59C842.485 1031.63 843.835 1044.82 845.209 1058.19C845.003 1071.69 844.773 1085.39 844.559 1099.23C843.835 1126.92 844.049 1155.09 842.551 1183.75C834.264 1241.2 829.903 1300.6 812.58 1359.84C800.87 1419.82 776.545 1478.6 756.268 1537.74C738.872 1574.71 722.775 1611.99 704.556 1648.19L813.996 1648.24C824.652 1619.22 834.602 1589.96 845.094 1561.02C861.108 1496.56 880.586 1433.25 887.219 1369.18C899.456 1305.98 898.435 1243.18 901.291 1183.23C900.073 1153.3 897.151 1123.97 895.185 1095.4C894.041 1081.16 892.922 1067.08 891.811 1053.16C889.12 1039.45 886.445 1025.93 883.796 1012.59C878.529 986.043 873.41 960.278 868.456 935.335C861.256 910.993 852.92 887.837 845.703 865.527C833.038 820.473 813.469 781.647 796.583 747.455C788.337 730.38 780.618 714.407 773.5 699.668C764.547 685.885 756.367 673.228 748.961 661.814C719.253 616.241 702.301 590.237 702.301 590.237C702.301 590.237 716.694 617.508 741.925 665.312C748.22 677.301 755.19 690.559 762.753 705.009L762.728 705.017Z" fill="#CBCBCB"/>
<path d="M737.514 712.983C739.662 728.808 741.958 745.908 744.418 764.243C746.879 782.413 749.463 801.768 752.22 822.176C754.853 842.552 752.59 864.746 752.985 887.401C752.318 910.187 753.577 933.813 751.314 958.303C747.702 982.736 743.957 1008.01 740.123 1034.04C737.629 1060.11 730.585 1086.46 722.504 1113.23C714.332 1139.95 708.77 1167.69 698.17 1194.94C676.133 1249.37 654.679 1305.67 622.857 1359.81C608.719 1387.45 593.635 1414.96 575.037 1441.22C557.122 1467.7 540.713 1495.01 521.548 1520.93C487.816 1564.09 454.875 1607.54 418.296 1648.05L544.836 1648.11C564.01 1619.9 582.419 1591.16 600.935 1562.64C618.611 1533.88 633.473 1503.68 649.635 1474.54C666.505 1445.68 679.77 1415.49 692.031 1385.28C720.002 1326.26 737.284 1265.33 754.779 1207.14C763.123 1178.01 766.431 1148.44 772.233 1120.18C777.969 1091.88 782.659 1064.2 782.799 1036.88C784.223 1009.83 785.622 983.559 786.947 958.18C786.905 932.883 783.367 908.599 781.836 885.335C779.211 862.17 779.384 839.811 774.718 819.057C769.896 798.427 765.329 778.866 761.041 760.474C756.778 742.271 752.804 725.22 749.092 709.461C743.25 694.451 737.876 680.684 733.037 668.242C713.452 618.587 702.285 590.245 702.285 590.245C702.285 590.245 710.703 619.41 725.442 670.546C729.104 683.358 733.153 697.546 737.522 712.992L737.514 712.983Z" fill="#CBCBCB"/>
<path d="M605.238 689.325C591.479 700.269 576.593 712.119 560.702 724.792C544.894 737.367 528.09 750.755 510.364 764.844C492.803 779.039 470.675 790.313 449.707 804.006C428.048 816.992 406.43 831.697 382.541 844.658C357.82 856.377 332.26 868.449 305.96 880.9C292.785 886.923 279.832 893.762 266.007 899.325C251.861 904.303 237.559 909.331 223.1 914.417C194.027 924.103 165.225 935.986 134.563 944.396C72.6219 959.776 9.44659 977.099 -56.9792 985.196C-122.401 997.853 -190.506 999.63 -257.442 1004.86C-324.888 1005.26 -392.005 1007.11 -457.707 1001.38C-474.684 1000.86 -491.504 999.778 -508.201 998.354L-502.613 1101.28C-490.829 1101.21 -478.996 1101.01 -467.08 1100.49C-397.247 1101.17 -325.9 1094 -255.006 1088.11C-184.235 1077.35 -113.324 1069.94 -45.0881 1051.55C23.8148 1037.77 89.1625 1014.63 152.223 993.754C183.485 982.563 212.839 967.94 242.151 955.612C256.659 949.226 271.044 942.906 285.239 936.652C299.105 929.797 312.082 921.683 325.233 914.433C351.237 899.604 376.533 885.179 400.982 871.239C424.444 856.072 445.502 839.268 466.453 824.357C486.779 808.697 507.937 795.785 524.831 779.821C541.709 764.054 557.731 749.085 572.774 734.996C587.652 721.048 601.609 707.972 614.496 695.916C625.556 682.626 635.711 670.43 644.862 659.412C681.416 615.369 702.285 590.229 702.285 590.229C702.285 590.229 679.227 613.822 638.813 655.124C628.691 665.444 617.467 676.866 605.247 689.316L605.238 689.325Z" fill="#CBCBCB"/>
<path d="M632.427 707.075C621.59 720.554 609.904 735.145 597.379 750.747C584.97 766.21 571.754 782.717 557.822 800.089C541.454 815.881 524.255 832.438 506.274 849.769C472.255 885.993 427.365 917.906 381.002 952.214C358.923 970.589 331.52 984.085 305.524 1000.01C278.516 1014.64 253.631 1033.3 223.627 1045.45C194.627 1058.89 165.118 1072.53 135.229 1086.37C105.135 1099.68 72.77 1109.46 41.3428 1121.33L-6.35345 1138.45L-55.819 1151.84C-88.9743 1160.28 -121.562 1170.87 -155.194 1177.64C-222.674 1190.84 -289.675 1204.77 -356.875 1211.09C-403.691 1218.28 -450.358 1220.7 -496.005 1223.05L-490.031 1333.1C-441.956 1326.99 -393.108 1320.67 -344.185 1309.47C-273.736 1297.46 -203.656 1277.5 -133.889 1258.25C-99.0715 1248.5 -65.299 1234.82 -31.2549 1223.34L19.4203 1205.43L68.211 1183.77C100.313 1168.85 133.04 1156.13 163.472 1139.87C193.525 1123.09 223.174 1106.56 252.322 1090.27C282.219 1075.38 307.087 1053.89 333.733 1036.63C359.4 1018.1 386.186 1002.13 407.705 981.287C452.818 942.207 495.766 906.147 527.612 866.35C544.375 847.341 560.43 829.163 575.679 811.873C588.41 792.979 600.498 775.048 611.83 758.219C623.054 741.514 633.547 725.928 643.249 711.469C652.186 696.838 657.749 682.313 664.184 669.789C688.46 619.122 702.301 590.229 702.301 590.229C702.301 590.229 685.884 618.109 657.082 666.982C649.536 678.989 642.673 693.168 632.452 707.067L632.427 707.075Z" fill="#CBCBCB"/>
<path d="M807.799 737.268C826.841 769.189 847.135 805.866 865.7 847.308C903.825 929.88 938.273 1030.65 955.776 1141.9C960.269 1169.74 962.244 1198.45 965.709 1227.17C967.437 1256.19 967.552 1285.68 968.597 1315.23C967.042 1344.87 965.453 1374.78 963.832 1404.85L950.493 1496.09L929.41 1583.37C922.382 1605.07 915.379 1626.7 908.392 1648.28L1018.52 1648.34C1022.19 1631.98 1025.87 1615.59 1029.54 1599.18L1043.53 1500.68L1048.29 1405.33C1046.95 1373.45 1045.61 1341.74 1044.28 1310.32C1040.26 1279.21 1037.13 1248.37 1032.38 1218.25C1025.91 1188.43 1020.93 1158.8 1013.46 1130.29C984.15 1016.31 938.717 916.211 891.885 835.59C868.991 795.094 844.814 759.709 822.496 729.088C800.393 698.401 779.293 672.907 761.502 652.285C742.706 630.634 727.425 614.744 717.04 604.391C727.589 614.505 743.463 629.721 764.143 649.537C784.757 667.748 806.639 692.361 830.61 721.056C842.806 735.219 855.8 750.286 869.518 766.202C882.232 782.792 894.543 801.06 907.932 819.658C920.802 838.577 935.919 857.216 948.361 878.398C960.664 899.637 973.353 921.585 986.438 944.207C1000.35 966.343 1011.62 990.545 1022.7 1015.45C1033.75 1040.4 1046.62 1065.16 1056.78 1091.47C1075.4 1144.92 1096.85 1199.24 1109.01 1257.27C1125.86 1314.15 1131.74 1374.4 1141.07 1433.51C1144.26 1493.78 1150.07 1553.63 1145.24 1613.08C1145.33 1624.91 1144.91 1636.68 1144.14 1648.41L1258.71 1648.47C1258.35 1635.36 1257.61 1622.23 1256.29 1609.08C1255.19 1545.37 1243.08 1482.1 1233.46 1419.12C1217.73 1357.37 1205.27 1295.16 1182.04 1237.17C1163.44 1177.98 1135.71 1123.22 1111.18 1069.92C1098 1043.68 1082.26 1019.09 1068.44 994.512C1054.55 969.947 1040.61 946.165 1024.14 924.564C1008.54 902.625 993.391 881.278 978.727 860.664C963.964 840.215 946.65 822.333 931.722 804.245C916.259 786.478 902.114 769.123 887.532 753.38C872.036 738.338 857.289 724.06 843.481 710.671C816.316 683.605 792.106 660.893 769.78 644.41C726.824 609.938 702.285 590.245 702.285 590.245C702.285 590.245 723.672 612.966 755.017 656.548C770.62 678.388 789.004 705.297 807.807 737.276L807.799 737.268Z" fill="#CBCBCB"/>
<path d="M655.765 768.152C642.994 804.245 627.309 844.757 606.497 887.689C565.895 973.963 508.101 1071.38 430.278 1165.54C410.964 1189.21 389.107 1211.79 368.287 1235.39C346.167 1258.1 322.41 1280.03 299.352 1302.64C274.401 1323.62 249.236 1344.78 223.964 1366.03L141.574 1424.91L57.1675 1475.74C27.4026 1491.1 -2.29648 1506.43 -31.7569 1521.65C-92.1919 1549.93 -152.94 1575.21 -213.054 1596.99C-231.619 1603.67 -250.036 1609.94 -268.37 1616.01L-95.6234 1647.8L-52.766 1647.83C-28.4241 1635.17 -4.11514 1622.08 20.0704 1608.38C50.4113 1589.6 81.0403 1571.5 111.315 1551.94C140.973 1530.73 171.438 1509.76 199.993 1488.33L280.03 1420.87C304.816 1396.4 329.446 1372.04 353.903 1347.88C376.237 1322.18 399.081 1297.33 420.09 1271.85C439.807 1245.48 460.364 1220.29 478.246 1194.23C550.358 1090.4 600.284 986.365 633.472 895.901C650.573 850.888 662.645 808.812 672.174 771.55C681.876 734.371 688.081 701.668 692.607 674.775C701.47 621.047 702.276 590.245 702.276 590.245C702.276 590.245 698.573 620.99 684.847 673.755C677.852 700.162 668.734 732.108 655.765 768.152Z" fill="#CBCBCB"/>
<path d="M815.765 514.076C830.898 505.921 847.241 497.099 864.737 487.669C899.414 468.692 937.984 447.008 983.936 429.365C1006.37 419.885 1029.7 410.018 1053.88 399.806C1078.93 391.741 1104.85 383.413 1131.46 374.839C1183.67 355.434 1242.71 346.613 1301.23 331.808C1361.65 324.139 1422.99 311.647 1486.65 310.042C1549.81 303.928 1614.13 306.8 1677.99 307.549C1708.79 310.396 1739.61 312.568 1770.16 315.432L1772.54 227.018C1742.16 226.623 1711.67 226.755 1681.36 226.368C1613.47 230.672 1545.85 233.058 1480.01 244.431C1413.7 251.343 1350.32 269.143 1288.7 281.981C1228.83 301.936 1169.31 315.712 1117.08 339.766C1090.59 350.628 1064.84 361.178 1039.91 371.407C1016.18 383.685 993.186 395.568 971.132 406.982C926.274 428.394 888.61 453.625 855.224 475.522C838.494 486.36 822.842 496.515 808.383 505.896C795.044 516.446 782.832 526.148 771.747 534.929C727.573 570.117 702.285 590.245 702.285 590.245C702.285 590.245 729.326 572.067 776.611 540.302C788.428 532.402 801.528 523.63 815.773 514.084L815.765 514.076Z" fill="#CBCBCB"/>
<path d="M828.101 534.32C844.485 528.856 862.169 522.956 881.088 516.644C899.851 510.357 919.856 503.691 940.873 496.663C962.36 490.829 985.5 486.204 1009.22 480.551C1056.37 467.721 1108.93 461.155 1164.16 454.267C1191.57 449.494 1220.29 449.543 1249.36 448.144C1278.49 447.749 1308.03 443.865 1338.2 446.268C1368.21 447.593 1398.74 448.959 1429.63 450.333C1460.41 452.325 1491.2 457.682 1522.33 461.204C1553.53 464.24 1584.44 470.182 1615.25 477.136C1645.96 484.278 1677.48 488.36 1707.52 497.98L1764.8 514.43L1767.19 425.777L1731.28 418.511C1698.85 411.031 1664.78 409.097 1631.86 404.2C1598.83 399.518 1565.83 395.873 1532.54 395.148C1499.44 393.98 1466.85 391.001 1434.42 391.421C1401.99 392.507 1369.99 393.56 1338.49 394.597C1307.05 394.613 1276.25 400.933 1246.2 403.715C1216.16 407.517 1186.7 409.788 1158.64 416.89C1102.15 428.386 1049.09 439.306 1001.89 456.085C978.127 463.714 955.167 470.24 933.837 477.851C912.943 486.69 893.119 495.075 874.497 502.934C855.989 510.793 838.692 518.125 822.67 524.922C807.034 532.287 793.596 540.508 780.972 547.149C730.906 574.577 702.277 590.237 702.277 590.237C702.277 590.237 732.239 576.799 784.577 553.296C797.752 547.635 811.955 540.426 828.101 534.32Z" fill="#CBCBCB"/>
<path d="M842.51 463.697C857.726 451.617 873.904 438.812 890.931 425.3C908.78 412.652 928.562 400.357 948.568 387.018C968.992 374.18 988.94 359.277 1011.83 346.769C1034.73 334.376 1058.4 321.579 1082.73 308.437C1106.48 294.579 1132.62 283.124 1159.38 271.661C1186.18 260.33 1212.67 247.286 1240.97 236.737C1298.22 216.945 1356.25 194.809 1418.21 180.466C1478.69 162.197 1542.76 153.178 1605.42 141.163C1662.48 135.098 1719.01 127.149 1775.27 125.347L1777.81 30.703C1714.62 36.8337 1651.72 50.5517 1588.91 62.2536C1523.62 79.8805 1457.69 94.5696 1395.99 118.36C1332.86 138.275 1274.29 165.834 1217.18 190.769C1188.96 203.886 1162.62 219.414 1136.14 233.19C1109.7 247.031 1084.04 260.823 1060.85 276.911C1037.21 292.209 1014.2 307.104 991.935 321.522C969.84 336.03 950.724 352.809 931.196 367.383C912.104 382.508 893.325 396.358 876.39 410.586C860.302 425.621 845.012 439.923 830.66 453.345C801.512 479.826 777.228 503.411 759.873 524.864C723.245 566.455 702.277 590.237 702.277 590.237C702.277 590.237 725.384 568.059 765.765 529.325C785.079 509.163 811.519 487.446 842.51 463.697Z" fill="#CBCBCB"/>
<path d="M893.679 546.696C933.615 540.541 978.834 534.591 1028.25 531.694C1126.87 524.889 1242.37 526.494 1361.93 545.231C1391.87 549.708 1421.68 556.711 1452.06 562.397C1482.09 569.483 1511.92 578.263 1542.18 586.155C1571.56 596.236 1601.18 606.415 1630.92 616.619L1718.05 654.556L1760.42 677.334L1762.99 581.81C1760.78 580.905 1758.55 579.884 1756.34 578.988L1662.04 546.853C1629.42 538.508 1596.92 530.213 1564.7 521.959C1531.82 516.059 1499.51 509.336 1467.24 504.398C1434.66 500.843 1402.81 496.013 1371.16 493.791C1244.47 483.998 1125.62 491.651 1025.82 506.291C975.757 513.105 930.43 522.618 890.651 531.925C850.805 541.084 816.613 550.975 788.667 559.567C732.766 576.922 702.269 590.229 702.269 590.229C702.269 590.229 733.852 579.275 790.666 566.298C819.073 559.888 853.685 552.712 893.671 546.68L893.679 546.696Z" fill="#CBCBCB"/>
<path d="M833.91 629.392C849.62 635.884 866.588 642.846 884.742 650.327C902.78 657.758 921.971 665.641 942.239 673.994C962.154 682.873 981.706 694.805 1002.78 705.783C1023.4 717.534 1046.17 727.911 1067.26 741.95C1088.08 756.261 1109.61 771.081 1131.78 786.33C1154.69 800.624 1174.99 818.917 1196.05 837.104C1216.58 855.825 1240.15 872.424 1259.29 893.729C1278.92 914.499 1298.88 935.632 1319.09 957.052C1338.86 978.761 1355.41 1003.32 1373.96 1026.53C1393.04 1049.52 1409.1 1074.66 1424.43 1100.39C1439.45 1126.22 1457.9 1150.25 1469.93 1177.75L1509.78 1257.98C1520.63 1285.62 1531.45 1313.19 1542.2 1340.56C1553.84 1367.56 1561.39 1395.77 1569.35 1423.43C1576.67 1451.3 1586.85 1477.92 1591.63 1505.61C1601.47 1554.88 1612.13 1602.3 1617.29 1648.64L1734.3 1648.7L1737.07 1545.59C1730.07 1521.9 1722.65 1498.02 1715.25 1473.76C1707.22 1444.92 1693.7 1417 1682.95 1388.13C1671.62 1359.43 1660.62 1330.36 1645.43 1302.46C1631.19 1274.43 1616.82 1246.17 1602.45 1217.83L1551.86 1136.32C1536.34 1108.6 1514.28 1084.3 1495.77 1058.51C1476.97 1032.82 1457.46 1007.86 1434.99 985.147C1413.05 962.212 1393.19 938.158 1370.24 917.05C1346.91 896.387 1323.85 875.995 1301.22 855.965C1279.17 835.549 1252.74 819.913 1229.56 802.336C1205.84 785.235 1183.09 768.176 1157.88 755.174C1133.5 741.341 1109.85 727.895 1086.94 714.884C1063.88 702.244 1039.39 693.324 1017.16 683.046C994.445 673.516 973.584 663.082 952.303 655.585C930.727 648.714 910.277 642.18 891.078 636.065C871.97 629.984 854.138 624.298 837.605 619.023C820.777 614.867 805.009 612.003 790.962 608.893C734.502 597.043 702.252 590.262 702.252 590.262C702.252 590.262 733.605 599.528 788.527 615.723C802.187 619.903 817.6 623.977 833.886 629.416L833.91 629.392Z" fill="#CBCBCB"/>
<path d="M894.699 617.944C933.574 626.478 977.164 637.135 1023.24 652.128C1115.78 681.087 1220.01 724.142 1320.42 784.717C1345.66 799.702 1369.73 817.033 1394.87 833.31C1419.05 850.813 1442.36 869.79 1466.45 888.124C1488.74 908.204 1511.24 928.464 1533.83 948.831L1596.48 1016.04L1650.55 1085.59C1666.92 1110.35 1683.24 1135.05 1699.47 1159.56C1715.69 1186.77 1730.93 1214.14 1745.26 1241.55L1750.35 1052.17C1744.65 1045.08 1739.01 1038.08 1733.29 1030.97C1710.67 1006.8 1688.24 981.945 1665.39 958.764L1593.53 894.486C1567.47 874.867 1541.49 855.315 1515.75 835.951C1488.37 818.539 1461.88 800.615 1434.71 784.313C1406.57 769.238 1379.7 753.306 1351.85 739.761C1240.96 685.062 1129.57 649.553 1032.44 627.482C984.035 615.961 938.733 608.596 898.583 603.074C858.433 597.396 823.089 594.393 793.991 592.459C757.799 590.13 731.21 589.842 716.242 589.957C731.112 589.653 757.445 589.093 793.365 588.336C807.832 588.13 823.854 587.859 841.308 587.603C858.581 588.731 877.253 589.941 897.209 591.257C937.055 593.372 981.723 596.187 1029.79 605.008C1053.84 608.859 1079.07 611.945 1104.69 616.817C1130.01 622.882 1156.16 629.153 1183.1 635.612C1196.49 638.863 1210.07 642.105 1223.86 645.422C1237.21 649.841 1250.72 654.301 1264.37 658.843C1291.59 668.077 1319.72 676.701 1347.59 686.839C1401.88 710.539 1459.24 732.141 1512.38 762.852C1567.92 789.72 1618.4 825.492 1670.34 858.499C1698.3 880.159 1726.59 901.291 1753.84 923.214L1756.87 810.729C1746.25 804.022 1735.62 797.34 1725.08 790.592C1666.59 759.873 1610.01 726.956 1548.9 703.322C1490.24 675.837 1427.93 657.831 1369.44 637.933C1339.44 629.671 1309.36 623.014 1280.35 615.764C1265.83 612.258 1251.49 608.744 1237.3 605.321C1222.74 603.017 1208.39 600.745 1194.26 598.491C1166.01 594.072 1138.56 589.76 1112.02 585.612C1085.25 582.699 1059.1 581.514 1034.24 579.531C984.669 574.445 938.536 575.103 897.818 576.107C877.558 576.371 858.59 576.618 841.045 576.848C823.624 578.477 807.602 579.959 793.151 581.325C735.341 587.011 702.301 590.27 702.301 590.27C702.301 590.27 735.679 591.298 792.814 599.486C821.328 603.667 855.841 609.296 894.732 617.977L894.699 617.944Z" fill="#CBCBCB"/>
<path d="M818.505 658.49C832.042 668.258 846.707 678.775 862.375 690.057C893.885 712.292 929.286 737.243 963.528 769.378C981.114 784.841 999.432 800.962 1018.35 817.691C1035.57 835.878 1053.32 854.706 1071.59 874.086C1110.15 911.208 1140.36 958.172 1176.47 1002.66C1206.24 1051.45 1240.96 1099.51 1265.28 1153.86C1294.41 1206.07 1313.29 1263.49 1335.31 1319.29C1350.68 1377.46 1369.37 1434.55 1376.62 1493.31C1387.91 1545.26 1389.04 1597.92 1392.65 1648.52L1520.68 1648.59C1510.59 1590.2 1503.95 1529.76 1485.3 1470.9C1471.33 1408.88 1445.67 1349.31 1423.27 1289.44C1394.31 1231.96 1368.5 1173.66 1332.68 1121.29C1301.68 1066.76 1260.58 1019.26 1224.9 971.569C1182.88 928.176 1147.2 882.858 1103.82 847.72C1083.2 829.476 1063.14 811.684 1043.76 794.51C1022.75 779.047 1002.47 764.07 983.006 749.718C945.226 720.052 906.426 697.365 872.275 677.401C855.397 667.303 839.564 657.865 824.974 649.175C809.544 641.719 795.406 634.889 782.659 628.717C731.482 604.219 702.252 590.245 702.252 590.245C702.252 590.245 729.943 606.457 778.429 634.831C790.51 641.982 803.882 649.899 818.472 658.498L818.505 658.49Z" fill="#CBCBCB"/>
<path d="M657.14 716.563C649.355 731.688 640.937 748.064 631.917 765.584C622.997 782.98 613.467 801.488 603.428 821.024C593.01 840.338 577.992 859.133 564.578 879.525C550.234 899.514 537.216 921.321 520.321 941.927C502.604 962.006 484.253 982.776 465.392 1004.14C447.641 1026.23 425.604 1046.12 402.842 1066.2C379.866 1086 358.767 1108.3 333.19 1127.17C307.622 1145.93 281.61 1165.01 255.26 1184.33C229.379 1204.08 198.915 1219.14 170.689 1236.95L127.387 1262.86L81.3777 1285.33C50.288 1299.73 20.4408 1316.37 -11.6282 1328.99L-107.778 1366.31C-139.633 1378.85 -173.249 1386.91 -205.458 1397.33C-269.646 1419.17 -336.244 1429.76 -398.737 1444.71C-427.514 1448.63 -455.641 1453.41 -483.283 1457.79L-476.782 1577.64L-468.676 1579.13C-437.916 1571.95 -406.686 1564.18 -374.897 1557.3C-308.676 1536.42 -239.107 1519.7 -172.196 1491.43C-138.645 1477.79 -103.968 1466.56 -71.0593 1450.75L27.666 1403.62C60.4099 1387.78 90.9318 1367.8 122.318 1350.23L168.689 1322.95L212.197 1292.28C240.489 1271.28 270.682 1253.24 296.282 1230.49C322.097 1208.25 347.608 1186.29 372.649 1164.72C397.542 1143.1 417.836 1118.14 439.816 1095.85C461.565 1073.33 482.451 1051.12 498.967 1026.88C516.421 1003.47 533.414 980.711 549.815 958.698C565.319 936.323 576.815 912.853 589.603 891.449C601.478 869.559 614.858 849.62 623.812 829.006C632.271 808.293 640.295 788.675 647.857 770.258C655.321 751.956 662.308 734.848 668.743 719.023C673.047 702.82 676.98 687.95 680.51 674.536C694.368 620.858 702.252 590.22 702.252 590.22C702.252 590.22 691.579 620.273 672.899 672.923C668.15 686.098 662.843 700.68 657.115 716.546L657.14 716.563Z" fill="#CBCBCB"/>
<path d="M531.044 695.694C494.013 714.933 451.608 735.786 403.755 755.141C308.56 794.83 193.048 832.092 66.5653 854.245C35.0394 860.121 2.53418 863.281 -29.9546 868.021C-62.6326 871.411 -95.8208 872.868 -129.058 875.451C-162.255 875.6 -195.739 875.756 -229.323 875.912L-330.591 868.671C-363.713 864.556 -395.042 858.763 -426.971 854.113C-457.131 848.254 -487.299 840.856 -517.113 834.273L-511.632 935.261C-490.804 938.372 -469.911 941.417 -448.597 943.869C-412.298 946.568 -375.431 950.131 -339.766 951.711L-233.38 951.283C-197.517 948.428 -161.909 946.346 -126.697 942.807C-91.6075 937.541 -56.757 933.352 -22.6801 927.238C11.1747 919.749 44.8321 913.89 77.2714 905.348C207.358 872.481 322.608 825.418 415.984 778.018C462.907 754.795 504.028 730.577 539.726 708.432C575.465 686.403 605.321 665.591 629.457 648.121C677.614 613.04 702.277 590.253 702.277 590.253C702.277 590.253 675.672 611.197 624.881 642.55C599.47 658.136 568.174 676.577 531.044 695.718V695.694Z" fill="#CBCBCB"/>
<path d="M663.369 470.116C660.53 454.678 657.485 437.997 654.193 420.165C647.322 384.746 639.266 345.238 639.043 300.661C637.965 278.664 636.879 255.754 635.744 232.079C637.455 208.346 639.241 183.856 641.019 158.683C641.915 146.166 642.821 133.469 643.751 120.648C646.112 107.884 648.507 94.9646 650.943 81.9296C655.954 55.9912 661.098 29.518 666.323 2.61688C674.009 -21.0749 680.872 -45.2275 688.377 -69.4459H623.252C618.717 -47.4329 614.529 -25.6092 609.772 -4.23801C606.966 24.0374 604.209 51.852 601.502 79.107C600.301 92.7016 599.116 106.173 597.922 119.463C598.21 132.745 598.523 145.928 598.795 158.889C599.42 184.786 600.013 209.975 600.597 234.391C604.053 258.462 607.411 281.767 610.636 304.166C615.179 349.155 627.333 389.165 637.834 424.46C642.887 442.112 647.602 458.636 651.963 473.918C658.242 488.508 664.044 501.913 669.245 514.018C690.245 562.488 702.285 590.237 702.285 590.237C702.285 590.237 692.977 561.583 676.733 511.517C672.701 499.025 668.232 485.183 663.377 470.116H663.369Z" fill="#CBCBCB"/>
<path d="M579.251 453.049C558.118 422.313 529.012 391.371 508.974 350.554C497.905 330.928 486.385 310.486 474.46 289.329C462.117 268.501 455.319 244.373 445.082 221.126C423.308 174.993 412.528 122.689 398.752 70.0138C392.86 43.4747 391.33 15.5943 387.297 -11.9734C384.055 -30.8018 382.763 -50.0169 382.442 -69.4459H310.634C312.938 -46.3796 316.386 -23.6424 322.303 -1.44832C329.249 27.2468 333.734 56.0324 342.514 83.3285C362.141 137.526 378.681 190.456 405.73 236.597C418.634 259.787 427.999 283.783 442.795 304.282C457.072 324.978 470.897 344.95 484.154 364.165C508.439 403.764 541.66 433.751 566.002 462.907C590.352 492.491 615.945 514.306 636.929 532.468C678.478 569.22 702.26 590.229 702.26 590.229C702.26 590.229 680.651 567.426 642.821 527.588C623.697 507.847 600.219 483.966 579.226 453.04L579.251 453.049Z" fill="#CBCBCB"/>
<path d="M711.757 507.871C716.159 481.842 722.191 450.382 731.531 414.733C740.715 379.159 752.195 339.264 768.522 296.867C799.924 212.082 846.756 116.171 913.001 22.8277C929.237 -0.567856 948.238 -22.9347 965.931 -46.2562C972.498 -54.0657 979.287 -61.7682 986.175 -69.4377H906.985C892.058 -46.4043 876.538 -24.0704 863.387 -1.0863C803.495 100.988 764.901 202.594 741.094 290.86C728.577 335.026 720.809 376.163 714.933 412.602C708.901 449.09 705.856 481.11 703.914 507.435C701.676 539.537 701.569 563.089 701.816 576.725C701.355 563.278 700.549 540.22 699.454 508.883C698.993 495.955 698.5 481.669 697.948 466.125C699.216 450.613 700.565 433.866 702.03 415.984C705.165 380.327 706.86 340.465 717.797 297.254C722.2 275.743 726.808 253.368 731.564 230.194C738.938 207.548 746.517 184.128 754.359 160.082C767.312 111.612 794.065 63.8418 815.354 13.4546C831.565 -13.6522 846.682 -41.7055 863.305 -69.4377H792.394C782.165 -47.326 772.43 -25.3212 762.169 -3.96651C744.731 50.2719 722.216 101.145 713.444 152.174C707.815 177.363 702.301 201.853 697.002 225.611C694.41 249.558 691.892 272.78 689.472 295.065C682.634 339.42 684.757 380.591 685.135 416.783C685.415 434.796 685.711 451.707 685.95 467.359C687.991 482.747 689.859 496.926 691.587 509.714C698.393 560.925 702.269 590.245 702.269 590.245C702.269 590.245 703.091 560.044 711.74 507.879L711.757 507.871Z" fill="#CBCBCB"/>
<path d="M1441.08 -69.4377C1387.38 -44.5281 1333.26 -20.6306 1284.15 9.64454C1226.59 40.4545 1174.66 77.0661 1124.24 111.818C1098.86 129.058 1076.72 149.252 1053.6 167.217C1030.9 185.633 1008.11 203.055 988.841 222.854C948.633 260.906 910.631 296.612 880.619 333.577C865.008 351.517 850.023 368.691 835.762 385.092C823.114 402.521 811.115 419.103 799.841 434.697C776.931 465.606 757.725 492.655 745.2 516.594C717.895 563.435 702.285 590.237 702.285 590.237C702.285 590.237 720.389 564.636 752.005 519.902C766.744 496.926 788.469 471.358 813.782 442.729C826.183 428.32 839.399 413.022 853.306 396.893C868.81 381.883 885.096 366.107 902.072 349.633C934.594 315.737 975.082 283.61 1017.37 249.665C1037.69 231.931 1061.48 216.657 1085.06 200.479C1109.04 184.778 1131.92 166.962 1157.91 152.198C1209.64 122.392 1262.28 91.138 1319.94 65.8827C1375.36 37.3275 1436.47 17.1084 1495.49 -5.52181C1556.51 -23.9963 1616.71 -43.5899 1678.29 -55.3083C1701.1 -61.2662 1724.08 -65.6935 1746.99 -69.4377L1441.08 -69.4377Z" fill="#CBCBCB"/>
<path d="M751.718 470.716C759.33 456.299 767.518 440.713 776.298 424.065C794.131 391.009 812.144 353.262 839.465 315.161C852.237 295.871 865.535 275.784 879.286 254.989C894.313 234.959 911.224 215.045 927.772 194.225C959.109 151.557 1001.65 112.929 1041.43 70.8037C1086.36 32.785 1129.54 -9.07681 1181.61 -43.3513C1193.34 -52.4281 1205.51 -61.0769 1217.94 -69.4377H1107.21C1067.8 -34.8259 1033.53 3.25048 998.461 38.3396C960.952 85.1801 921.197 128.005 892.897 174.236C877.879 196.833 862.548 218.402 849.143 239.913C837.087 262.099 825.467 283.528 814.268 304.125C790.296 344.58 775.36 384.607 760.523 419.177C753.331 436.533 746.558 452.76 740.304 467.787C735.539 483.126 731.153 497.247 727.219 509.978C711.354 561.032 702.277 590.237 702.277 590.237C702.277 590.237 714.069 561.723 734.708 511.895C739.843 499.453 745.546 485.685 751.718 470.716Z" fill="#CBCBCB"/>
<path d="M595.66 509.797C582.625 499.403 570.561 486.401 556.67 473.531C529.966 446.778 496.613 419.934 469.391 383.051C454.949 365.465 439.914 347.114 424.345 328.179C409.187 309.071 397.345 286.935 383.166 265.613C353.245 223.693 332.836 174.187 308.89 124.96C297.805 99.9843 290.596 73.075 281.108 46.8733L267.686 7.08527L258.601 -34.3403C256.363 -46.0998 253.532 -57.7523 250.808 -69.4377H169.446C175.067 -51.2842 181.667 -33.4105 186.966 -15.3968L200.66 27.0163L218.723 67.6931C231.313 94.4214 241.567 121.594 255.639 146.726C285.601 196.34 311.687 245.46 346.826 286.474C363.646 307.351 377.94 328.911 395.452 347.32C413.285 365.482 430.508 383.01 447.09 399.872C478.262 434.969 515.549 460.298 545.165 485.06C560.529 496.943 574.009 509.048 587.998 518.405C602.35 527.424 615.5 535.694 627.391 543.174C675.038 573.128 702.26 590.237 702.26 590.237C702.26 590.237 676.832 571.063 632.386 537.537C621.293 529.16 608.983 519.878 595.643 509.797H595.66Z" fill="#CBCBCB"/>
<path d="M630.93 481.563C623.12 467.4 616.266 451.452 608.102 434.887C592.566 401.41 572.248 365.276 560.867 321.522C554.053 300.258 546.96 278.105 539.619 255.195C534.246 231.84 530.822 207.235 526.156 182.342C514.199 133.016 516.652 78.9259 512.981 24.4818C515.738 -6.41874 516.841 -37.813 519.787 -69.4459H453.377C453.386 -36.2988 455.237 -3.58791 455.492 28.333C464.553 85.1143 467.466 140.711 484.607 190.917C491.874 216.246 497.815 241.115 505.608 264.592C515.376 287.453 524.79 309.573 533.859 330.837C549.618 374.09 574.173 410.01 593.191 442.54C603.074 458.653 611.575 474.14 620.734 487.619C630.955 500.498 640.344 512.307 648.845 523.005C682.823 565.763 702.269 590.229 702.269 590.229C702.269 590.229 685.259 564.299 655.502 518.997C648.088 507.69 639.867 495.157 630.922 481.554L630.93 481.563Z" fill="#CBCBCB"/>
<path d="M556.917 613.353C538.59 614.044 518.807 614.785 497.642 615.591C476.658 616.414 454.357 617.27 430.797 618.15C407.335 617.829 382.705 614.636 357.096 612.867C331.619 610.077 304.61 610.16 277.718 604.803C250.956 599.421 223.265 593.85 194.825 588.114C166.056 583.736 138.258 573.935 109.719 564.743C81.5013 554.86 51.3496 547.964 23.3787 535.283C-4.65808 522.922 -33.1064 510.389 -61.9249 497.675C-90.9245 485.554 -116.92 467.713 -144.817 452.867C-172.657 437.833 -199.903 421.819 -225.101 402.826C-250.62 384.475 -277.332 367.424 -301.92 348.102C-349.584 307.812 -398.128 269.061 -439.018 224.697C-483.266 183.502 -518.216 136.398 -555.058 93.7301C-555.848 92.578 -556.654 91.4671 -557.452 90.3232L-547.742 269.406C-538.484 277.578 -529.218 285.741 -519.343 293.51C-471.573 336.96 -415.911 374.493 -361.623 412.865C-333.685 431.282 -303.591 447.313 -274.863 464.504C-246.538 482.311 -216.057 497.099 -185.157 510.793C-154.141 524.231 -125.405 540.566 -93.5166 551.14C-62.0071 562.151 -30.8927 573.054 -0.263733 583.752C30.1677 594.697 62.7388 599.816 93.088 607.814C123.742 615.13 153.408 622.964 183.987 625.417C214.024 629.144 243.246 632.765 271.529 636.254C299.747 639.661 327.891 637.629 354.323 638.55C380.903 638.427 406.142 639.768 430.344 638.32C454.546 635.645 477.472 633.086 499.024 630.683C520.42 628.272 540.442 626.001 558.958 623.911C577.169 620.652 593.528 615.97 608.522 612.629C668.208 598.384 702.277 590.253 702.277 590.253C702.277 590.253 667.673 595.89 607.098 605.757C591.965 607.971 575.21 611.468 556.925 613.369L556.917 613.353Z" fill="#CBCBCB"/>
<path d="M560.101 625.055C541.981 627.729 522.387 630.585 501.452 633.638C459.689 639.711 413.079 647.883 361.153 648.524C335.404 649.808 308.577 651.149 280.812 652.532C253.195 651.38 224.648 650.154 195.311 648.919C136.489 648.993 76.2923 636.279 13.726 628.98C-47.1287 614.283 -111.292 603.914 -171.924 581.44C-234.383 563.632 -293.296 536.69 -352.571 511.525C-408.949 481.604 -466.923 454.456 -517.286 419.021C-525.26 414.256 -532.781 409.105 -540.443 404.077L-533.835 526C-489.208 547.75 -441.923 566.307 -395.815 586.057C-330.089 608.16 -265.35 631.539 -197.591 645.447C-131.741 664.003 -62.8876 670.159 1.67847 680.478C68.0961 683.4 131.247 691.621 192.381 687.127C222.681 686.173 252.166 685.202 280.688 684.305C309.087 680.791 336.515 677.392 362.84 674.15C415.515 669.55 462.981 657.708 504.843 648.384C525.703 643.76 545.223 639.39 563.278 635.349C580.748 629.671 596.803 624.479 611.295 619.772C669.195 600.993 702.285 590.245 702.285 590.245C702.285 590.245 668.447 598.524 609.205 613.048C594.384 616.686 577.959 620.702 560.11 625.055H560.101Z" fill="#CBCBCB"/>
<path d="M570.552 648.754C553.329 654.309 534.665 660.308 514.767 666.735C495 673.096 473.958 679.877 451.756 687.061C428.822 691.949 404.702 697.084 379.545 702.458C329.677 715.172 274.253 720.529 216.023 726.43C187.04 730.775 156.963 730.207 126.358 730.766C95.7789 730.544 64.5821 733.21 33.0479 730.692C-30.0204 726.323 -94.9074 722.768 -159.35 710.531C-224.517 702.705 -287.873 683.901 -351.657 669.196C-411.985 649.495 -472.931 632.239 -529.399 607.74L-523.622 714.201C-476.609 727.195 -428.082 737.522 -380.246 748.994C-310.997 759.601 -242.991 773.937 -173.422 777.138C-104.807 784.75 -36.1182 783.466 29.855 782.997C62.821 783.096 95.4414 778.018 127.148 775.837C158.864 772.891 189.863 771.122 219.685 764.424C279.511 753.866 335.75 744.065 385.923 727.326C411.137 719.945 435.273 712.876 458.208 706.169C480.369 697.15 501.362 688.608 521.087 680.593C540.656 672.603 559.007 665.13 575.951 658.21C592.598 650.985 606.514 642.064 619.853 635.201C672.323 606.596 702.277 590.253 702.277 590.253C702.277 590.253 670.998 604.375 616.249 629.046C602.416 634.896 587.677 642.821 570.552 648.771V648.754Z" fill="#CBCBCB"/>
<path d="M531.069 501.444C497.782 480.69 460.891 456.381 423.514 427.135C385.544 398.629 346.941 365.293 308.824 328.204C270.542 291.345 233.889 249.739 199.104 205.17C181.576 183.008 166.55 158.774 149.869 135.378C134.423 111.258 120.886 85.7726 106.139 60.8629C93.0797 35.1632 81.5012 8.59944 69.034 -17.5199L50.3209 -69.4377H-46.2566C-46.2237 -69.3555 -46.1908 -69.2732 -46.1578 -69.1909C-32.983 -41.3516 -22.1616 -16.2526 -7.04464 13.8085C8.81296 40.6109 23.7901 67.6519 40.2155 93.6068C58.295 118.788 75.0989 144.323 93.7626 168.311C113.611 191.591 131.757 215.489 152.264 237.14C192.965 280.738 235.057 320.674 278.112 355.533C321.011 390.573 363.745 421.514 405.245 447.519C446.144 474.272 485.915 495.98 521.605 514.323C557.238 532.822 589.488 547.166 616.232 558.456C669.936 580.946 702.285 590.253 702.285 590.253C702.285 590.253 671.014 578.51 620.125 552.185C594.771 538.936 564.38 522.371 531.077 501.452L531.069 501.444Z" fill="#CBCBCB"/>
<path d="M565.409 554.514C548.605 549.305 531.373 541.693 512.52 534.698C475.407 519.565 432.022 506.308 390.12 481.604C368.724 470.33 346.423 458.62 323.365 446.506C300.759 433.932 279.865 417.564 257.153 402.686C210.493 374.18 169.652 335.372 125.626 297.879C103.843 278.944 85.7063 256.149 65.2321 235.19C44.7415 214.172 25.1725 192.168 8.35211 167.891C-8.9785 144.126 -27.9467 121.207 -44.1253 96.5528L-89.8877 20.9844C-106.074 -3.59612 -116.254 -31.2626 -129.61 -56.9787C-131.692 -61.1345 -133.741 -65.2902 -135.782 -69.4459H-250.998C-241.428 -51.3335 -230.771 -33.5914 -219.826 -15.907C-203.047 10.2865 -189.576 38.134 -169.949 62.9943L-114.057 138.727C-94.4878 163.316 -72.1456 186.053 -51.5727 209.482C-31.5429 233.371 -8.71516 254.882 14.8943 275.315C38.512 295.666 59.6363 317.654 84.3156 335.734C134.193 371.514 180.243 408.01 231.552 433.998C256.585 447.593 279.585 462.562 304.141 473.745C329.01 484.377 353.08 494.639 376.188 504.497C421.061 526.206 467.581 536.756 506.702 549.124C526.526 554.753 544.68 561.04 562.043 564.965C579.654 568.15 595.799 571.071 610.431 573.68C668.866 584.197 702.26 590.221 702.26 590.221C702.26 590.221 669.664 581.72 612.612 566.85C598.342 563.097 582.583 558.991 565.384 554.49L565.409 554.514Z" fill="#CBCBCB"/>
<path d="M556.67 583.374C538.837 580.584 519.54 577.589 498.917 574.379C457.846 567.961 411.524 562.151 363.342 546.746C339.099 540.088 313.852 533.168 287.732 526.017C262.897 516.142 237.255 505.954 210.872 495.47C197.755 490.277 184.465 485.002 171.002 479.678C157.942 473.671 145.425 466.363 132.44 459.665C106.765 445.963 80.522 431.949 53.8842 417.729C4.94537 383.635 -48.2068 352.077 -93.2039 310.396C-142.028 272.879 -182.285 226.483 -224.928 183.033C-262.231 135.444 -301.772 89.8707 -331.628 39.4259C-356.587 4.37788 -375.917 -33.0072 -394.836 -69.4377H-534.806C-532.617 -65.3067 -530.411 -61.1839 -528.263 -57.0117C-495.273 -7.38983 -464.841 45.6389 -423.745 93.9771C-386.903 144.874 -340.12 190.555 -295.855 237.486C-246.077 280.45 -199.031 325.595 -143.599 361.466C-92.1341 401.394 -32.7278 430.78 21.6176 462.109C50.9135 474.856 79.732 487.43 107.925 499.733C122.129 505.649 135.764 512.15 149.927 517.376C164.451 521.885 178.844 526.313 192.998 530.724C221.224 539.422 248.718 547.914 275.298 556.111C302.907 561.451 329.578 566.644 355.195 571.614C405.673 583.547 454.299 586.098 496.745 589.496C517.894 591.159 537.71 592.714 556.036 594.129C574.387 593.652 591.265 593.199 606.514 592.78C667.467 591.15 702.293 590.22 702.293 590.22C702.293 590.22 667.615 588.591 606.95 585.711C591.784 585.003 574.98 584.197 556.686 583.349L556.67 583.374Z" fill="#CBCBCB"/>
</g>
</g>
<rect y="807" width="1366" height="487" fill="url(#paint0_linear_1015_1704)"/>
</g>
<defs>
<linearGradient id="paint0_linear_1015_1704" x1="683" y1="807" x2="683" y2="1294" gradientUnits="userSpaceOnUse">
<stop stop-color="#85141A" stop-opacity="0"/>
<stop offset="1" stop-color="#85141A"/>
</linearGradient>
<clipPath id="clip0_1015_1704">
<rect width="1366" height="1294" fill="white"/>
</clipPath>
</defs>
</svg>
