<svg width="394" height="619" viewBox="0 0 394 619" fill="none" xmlns="http://www.w3.org/2000/svg">
<path opacity="0.1" fill-rule="evenodd" clip-rule="evenodd" d="M356.165 60.7366C372.954 92.9096 356.165 148.25 356.165 148.25H356.154C353.243 151.48 350.435 154.481 347.728 157.262C358.707 149.718 371.425 145.815 386.15 147.103H386.161C386.161 147.103 401.717 197.716 389.002 319.857C371.066 492.033 333.962 462.883 333.962 462.883C333.962 462.883 307.567 603.786 274.011 599.294C239.222 607.688 204.733 615.825 179.829 615.793C147.431 619.803 100.624 610.755 92.7014 602.832C80.4904 590.61 116.609 585.561 116.609 585.561L128.38 581.347L213.9 567.818L279.307 354.689C279.307 354.689 285.17 227.922 331.441 172.398C267.58 224.63 275.727 122.231 279.629 73.1736C280.214 65.832 280.703 59.6851 280.841 55.4298C282.02 19.4938 328.645 33.9776 328.645 33.9776C328.645 33.9776 345.627 20.9732 354.664 33.2592C363.702 45.5452 356.165 60.7366 356.165 60.7366Z" fill="black"/>
<path d="M312.608 235.94L338.237 244.463C352.821 249.314 360.635 265.138 355.631 279.66L304.188 428.841C299.163 443.414 283.184 451.044 268.693 445.804L243.156 436.563C228.962 431.425 221.516 415.847 226.459 401.571L277.8 253.098C282.743 238.812 298.26 231.151 312.608 235.92V235.94Z" fill="#676767"/>
<path d="M295.439 230.413L321.068 238.935C335.652 243.786 343.467 259.611 338.462 274.133L287.019 423.313C281.994 437.887 266.016 445.517 251.524 440.276L225.987 431.036C211.793 425.898 204.348 410.319 209.291 396.043L260.631 247.571C265.575 233.284 281.092 225.623 295.439 230.392V230.413Z" fill="#303030"/>
<path d="M76.4593 439.569H256.766C265.585 439.569 272.734 446.718 272.734 455.537V483.074C272.734 491.893 265.585 499.042 256.766 499.042H76.4593C67.6403 499.042 60.4911 491.893 60.4911 483.074V455.537C60.4911 446.718 67.6403 439.569 76.4593 439.569Z" fill="#303030"/>
<path d="M76.4588 499.042H256.755" stroke="#010101" stroke-miterlimit="10"/>
<path d="M280.61 484.499V356.086H301.953V488.191C301.953 498.303 293.758 506.497 283.646 506.497H182.094V499.041H266.058C274.088 499.041 280.6 492.529 280.6 484.499H280.61Z" fill="#303030"/>
<path d="M54.5321 484.499V356.086H33.1899V488.191C33.1899 498.303 41.3842 506.497 51.4964 506.497H153.049V499.041H69.085C61.0547 499.041 54.5424 492.529 54.5424 484.499H54.5321Z" fill="#303030"/>
<path d="M8.02219 341.636H72.4693C75.29 341.636 77.5767 343.923 77.5767 346.743V356.794C77.5767 359.615 75.29 361.901 72.4693 361.901H8.02219C5.20146 361.901 2.91481 359.615 2.91481 356.794V346.743C2.91481 343.923 5.20146 341.636 8.02219 341.636Z" fill="#303030"/>
<path d="M172.833 552.864L260.848 598V610.635L166.608 574.535H134.928L50.974 604.317V589.877L155.911 545.193L172.833 552.864Z" fill="#303030"/>
<path d="M56.5527 623.587C50.6281 623.587 45.8252 618.784 45.8252 612.86C45.8252 606.935 50.6281 602.132 56.5527 602.132C62.4774 602.132 67.2803 606.935 67.2803 612.86C67.2803 618.784 62.4774 623.587 56.5527 623.587Z" fill="#303030"/>
<path d="M255.699 630.253C249.774 630.253 244.971 625.45 244.971 619.526C244.971 613.601 249.774 608.798 255.699 608.798C261.623 608.798 266.426 613.601 266.426 619.526C266.426 625.45 261.623 630.253 255.699 630.253Z" fill="#303030"/>
<path d="M122.589 234.453C122.589 234.453 126.999 217.306 119.728 201.091C112.456 184.877 94.6831 135.465 92.1704 112.964C90.632 99.1902 88.5296 77.0173 108.108 62.9566C127.686 48.9063 149.869 32.5894 225.844 11.5343C225.844 11.5343 235.074 9.17548 240.786 5.0219C246.489 0.878581 256.939 -1.79817 266.816 5.0219C266.816 5.0219 279.697 5.79109 278.897 16.5596C278.897 16.5596 284.302 21.0414 280.466 31.9433C276.62 42.8554 211.383 61.7362 211.383 61.7362C211.383 61.7362 168.545 82.4939 157.848 91.4984L172.729 140.429L229.823 167.135L221.865 227.869L122.589 234.443V234.453Z" fill="#010101"/>
<path d="M168.422 131.804C168.422 131.804 166.637 118.348 159.048 118.42C151.459 118.492 147.08 124.368 155.664 135.988C160.894 143.065 179.693 154.479 196.471 160.602C210.706 165.802 168.422 131.804 168.422 131.804Z" fill="#E73039"/>
<path d="M170.535 133.085C170.535 133.085 166.33 123.229 160.761 123.219C154.207 123.219 155.91 130.47 159.12 134.316C163.356 139.393 186.544 157.289 196.697 160.663C209.814 165.011 170.535 133.085 170.535 133.085Z" fill="#AD2525"/>
<path d="M276.723 298.849C283.256 279.363 306.988 275.22 306.988 275.22C348.349 216.372 364.923 177.431 375.302 152.725C385.67 128.009 385.055 108.769 373.086 85.6218C361.118 62.4746 292.979 29.1947 292.979 29.1947C266.283 17.5031 238.921 14.0264 234.059 23.7386C229.208 33.4508 236.07 36.3429 236.07 36.3429C236.07 36.3429 236.736 42.2708 245.382 42.2502L293.779 72.156C293.779 72.156 313.706 102.667 320.69 112.318C320.69 112.318 306.588 143.095 284.866 161.35L220.378 172.632L210.266 231.571L276.734 298.839L276.723 298.849Z" fill="#010101"/>
<path d="M289.297 156.14C289.297 156.14 295.891 144.859 303.409 145.957C310.608 147.013 314.577 157.566 300.906 163.268C292.784 166.663 271.462 170.519 253.648 169.37C238.531 168.396 289.297 156.14 289.297 156.14Z" fill="#E73039"/>
<path d="M288.63 155.125C288.63 155.125 296.383 147.72 301.5 149.915C307.521 152.5 303.1 158.489 298.639 160.756C292.752 163.75 264.375 171.042 253.719 170.14C239.945 168.96 288.64 155.125 288.64 155.125H288.63Z" fill="#AD2525"/>
<path d="M281.851 24.8054C276.815 22.8568 271.647 21.2364 266.385 19.9852C258.509 18.2212 250.222 16.8264 242.172 18.334C239.495 18.8981 236.736 19.8929 234.869 22.0055C233.157 24.2105 232.326 26.9488 232.131 29.6871C232.039 32.4254 233.505 35.2457 236.069 36.3533C233.649 35.0919 232.326 32.3639 232.541 29.6974C232.788 27.1539 233.711 24.3951 235.351 22.426C237.146 20.539 239.751 19.5852 242.325 19.0724C255.648 17.0828 269.154 21.021 281.851 24.7951V24.8054Z" fill="#8C8F8F"/>
<path d="M250.386 21.1438C245.32 19.4926 239.361 21.5643 236.5 26.1076L236.079 26.8255C234.141 29.6151 234.459 33.5328 236.059 36.3531C235.679 35.3378 235.423 34.2814 235.331 33.2148C234.931 30.5483 235.946 27.9639 237.638 25.923C240.53 21.995 245.638 20.3951 250.386 21.1438Z" fill="#8C8F8F"/>
<path d="M257.166 25.8C249.176 23.3796 238.11 26.0666 240.11 36.4557C240.695 39.1632 242.787 41.4092 245.382 42.2604C240.377 40.0657 239.044 33.1431 242.479 29.1023C245.956 25.1128 252.263 25.1538 257.166 25.8Z" fill="#8C8F8F"/>
<path d="M196.195 179.206C196.195 179.206 130.332 168.068 105.821 217.973C95.9754 238.002 91.2373 248.063 86.3658 271.579C86.3658 271.579 45.9992 298.849 56.1729 350.692C63.5262 388.177 273.041 398.381 273.041 398.381C273.041 398.381 290.301 324.53 306.988 275.22C320.248 236.033 287.43 193.4 196.205 179.196L196.195 179.206Z" fill="white"/>
<path d="M114.354 208.752C114.354 208.752 102.323 231.059 107.8 266.472C107.8 266.472 66.9002 309.454 73.9151 349.8L58.3674 348.979C50.9012 319.627 66.1822 289.793 88.6321 271.579C88.6321 271.579 94.0061 234.515 114.364 208.742L114.354 208.752Z" fill="#D7D6D6"/>
<path d="M275.821 387.059C275.821 387.059 276.118 449.148 216.296 452.491C182.647 454.368 148.865 453.106 125.738 451.65C107.75 450.512 96.2015 449.25 96.2015 449.25C96.2015 449.25 30.657 444.491 6.23807 402.75C1.60248 394.823 49.6712 365.502 49.6712 365.502L212.051 363.307L263.247 376.475L275.811 387.059H275.821Z" fill="#010101"/>
<path d="M198.769 76.238L218.234 62.4748C220.296 61.0185 220.778 58.1674 219.321 56.1162L205.076 35.9739C199.825 28.5385 189.539 26.7745 182.103 32.0357C174.668 37.2866 172.904 47.5732 178.165 55.0086L192.41 75.1509C193.867 77.2123 196.718 77.6943 198.769 76.238Z" fill="#010101" stroke="#8C8F8F" stroke-width="0.82" stroke-miterlimit="10"/>
<path d="M281.43 90.4216L267.667 70.9664C266.211 68.905 266.703 66.0642 268.754 64.6079L288.897 50.3626C296.332 45.1117 306.608 46.8757 311.87 54.3008C317.121 61.7362 315.357 72.0125 307.931 77.2737L287.789 91.5189C285.728 92.9753 282.887 92.483 281.43 90.4318V90.4216Z" fill="#010101" stroke="#8C8F8F" stroke-width="0.82" stroke-miterlimit="10"/>
<path d="M224.039 173.278C271.564 173.534 298.178 153.925 298.178 153.925C294.568 151.864 294.055 148.028 298.229 142.613C302.403 137.208 302.567 125.424 302.567 125.424L302.598 91.3343C302.619 66.4231 284.681 45.1219 260.129 40.9068L247.156 38.6813L234.182 36.4558C209.63 32.2407 185.611 46.3424 177.324 69.8383L165.981 101.99C165.981 101.99 162.207 113.148 164.34 119.64C166.474 126.132 165.551 128.614 161.469 129.352C161.469 129.352 179.16 157.689 224.06 173.288" fill="white"/>
<path d="M193.61 140.162C193.61 140.162 203.661 141.721 207.435 150.756C211.209 159.791 220.563 162.53 225.731 163.412C239.002 165.053 247.207 157.576 247.207 157.576C253.771 150.315 263.77 152.192 263.77 152.192C285.297 151.7 290.917 141.536 290.917 141.536C285.584 157.556 272.723 159.217 267.554 159.299C262.385 159.381 260.714 158.766 251.094 164.058C244.54 167.658 234.726 168.458 229.136 168.591C226.275 168.663 223.465 168.181 220.798 167.155C215.578 165.165 206.594 161.135 201.61 155.556C194.308 147.372 192.534 147.382 187.683 145.587C182.832 143.782 171.263 137.926 171.581 121.055C171.581 121.055 173.489 132.511 193.621 140.152L193.61 140.162Z" fill="#D7D6D6"/>
<path d="M222.029 125.168C221.414 128.727 225.372 132.378 230.849 133.322C236.336 134.265 241.269 132.142 241.884 128.583C242.5 125.025 238.541 121.374 233.064 120.43C227.577 119.487 222.644 121.61 222.029 125.168Z" fill="#020202"/>
<path d="M222.47 98.616C222.47 98.616 210.994 100.698 206.604 110.277C206.604 110.277 193.19 114.512 187.99 102.903C182.791 91.2831 189.426 73.2022 203.189 66.936C216.952 60.6697 237.238 71.9921 222.47 98.6263V98.616Z" fill="#020202"/>
<path d="M222.47 98.6158L213.948 65.5103L270.375 75.1917L250.335 103.395C250.335 103.395 238.726 96.2467 222.47 98.6158Z" fill="#020202"/>
<path d="M205.24 86.7504C205.876 88.2169 207.209 89.3348 208.901 89.6322C210.594 89.9296 212.224 89.304 213.311 88.1349L217.075 88.781C215.414 91.8475 211.937 93.6627 208.317 93.0371C204.686 92.4115 202.02 89.5399 201.476 86.094L205.24 86.7401V86.7504Z" fill="white"/>
<path d="M250.335 103.395C250.335 103.395 260.458 109.19 261.401 119.681C261.401 119.681 272.631 128.142 281.41 118.933C290.189 109.713 289.964 90.4525 279.072 79.9506C268.191 69.4488 245.289 73.3665 250.335 103.395Z" fill="#020202"/>
<path d="M270.529 97.9601C269.442 99.1292 267.811 99.7446 266.119 99.4574C264.427 99.1703 263.094 98.0421 262.458 96.5756L258.694 95.9294C259.238 99.3754 261.904 102.247 265.535 102.873C269.165 103.498 272.632 101.673 274.293 98.6165L270.529 97.9703V97.9601Z" fill="white"/>
<path d="M168.032 117.62L163.161 121.866L163.909 117.938L161.079 118.451L163.776 112.482L160.915 113.036L165.243 104.431L161.745 105.159L168.473 95.0061L164.525 96.5342L170.965 87.827L168.596 88.4526L175.991 73.5715L173.806 94.8214L168.032 117.62Z" fill="white"/>
<path d="M295.409 139.475L298.578 145.105L299.173 141.157L301.675 142.582L301.131 136.049L303.644 137.537L302.434 127.978L305.48 129.824L302.526 118.01L305.736 120.768L302.578 110.41L304.598 111.795L302.588 95.8879L297.562 116.061L295.409 139.475Z" fill="white"/>
<path d="M255.678 38.9582L255.894 40.1068C253.504 42.3323 248.284 47.1115 254.827 53.0393C254.827 53.0393 247.525 51.8702 245.381 45.8808C243.412 40.3632 247.915 36.6301 247.915 36.6301C247.915 36.6301 250.971 38.0454 251.843 39.2556L255.668 38.9582H255.678Z" fill="#010101"/>
<path d="M246.294 38.5275C246.807 37.8711 247.381 37.2455 248.007 36.7327L247.863 36.7532C249.197 37.5019 250.673 38.2095 251.689 39.3684C251.76 39.4607 251.73 39.4607 251.863 39.4505C253.135 39.3479 254.406 39.2043 255.678 39.0403L255.596 38.9787L255.894 40.1069L255.76 38.948V38.8762C254.448 38.9069 253.145 38.9685 251.843 39.0608L252.017 39.1428C250.93 37.8301 249.402 37.1532 247.904 36.4661C247.248 37.0712 246.725 37.7788 246.315 38.5377L246.294 38.5275Z" fill="#8C8F8F"/>
<path d="M209.209 129.609C209.209 129.609 209.23 146.428 231.167 149.208" stroke="#020202" stroke-width="2.47" stroke-miterlimit="10" stroke-linecap="round"/>
<path d="M266.816 5.03247C269.277 7.40155 268.99 11.1346 267.831 14.0473C266.683 17.1548 263.514 18.8777 260.283 19.1136C261.944 19.329 263.678 19.0008 265.216 18.2111C269.636 15.8831 271.216 8.09894 266.816 5.04273V5.03247Z" fill="#8C8F8F"/>
<path d="M278.908 16.5698C277.903 18.8363 277 21.308 274.641 22.4669C277.513 22.4874 279.123 19.0927 278.908 16.5698Z" fill="#8C8F8F"/>
<path d="M32.4924 421.826C105.76 435.948 200.718 389.643 200.718 389.643C219.004 394.402 224.685 407.283 246.068 395.499C268.734 383.008 279.512 365.665 277.831 355.266C276.149 344.877 268.621 341.667 258.139 347.215C234.459 359.748 227.321 356.496 227.321 356.496C227.321 356.496 95.4217 323.575 32.4924 346.118C-21.6374 365.501 2.13541 415.97 32.4924 421.826Z" fill="#010101"/>
<path d="M32.4927 421.826C81.3613 431.21 135.46 416.555 180.883 398.484C187.57 395.705 194.216 392.823 200.718 389.644C194.144 392.669 187.437 395.407 180.688 398.023C134.896 415.406 81.587 429.928 32.4824 421.826H32.4927Z" fill="#8C8F8F"/>
<path d="M222.665 433.528C222.665 433.528 232.9 387.931 189.016 381.47C145.132 375.009 135.122 407.919 128.24 441.21C121.359 474.489 130.866 550.556 130.866 550.556C130.866 550.556 130.866 567.376 111.852 583.467C92.8375 599.558 96.4886 608.337 96.4886 608.337C96.4886 608.337 107.462 631.382 146.229 608.337L172.873 588.021C176.627 585.159 178.832 580.698 178.832 575.97V564.084L222.655 433.528H222.665Z" fill="#010101"/>
<path d="M126.701 451.711C127.717 442.768 129.963 434.02 132.281 425.343C135.942 412.626 140.803 399.304 151.09 390.443C157.828 384.526 166.689 381.592 175.58 381.203C182.431 381.008 189.477 381.234 196.02 383.541C202.902 385.992 209.199 390.033 214.87 394.607C211.199 391.438 207.158 388.433 202.912 386.095C198.625 383.756 193.866 381.746 189.077 381.121C180.154 379.757 170.801 379.757 162.186 382.823C144.249 388.997 135.962 408.114 131.645 425.159C129.45 433.887 127.399 442.717 126.712 451.701L126.701 451.711Z" fill="#8C8F8F"/>
<path d="M214.86 394.597C218.87 397.376 222.398 401.571 227.69 401.714C232.725 402.053 237.587 400.145 242.068 398.074C246.56 395.951 250.827 393.407 254.857 390.536C258.867 387.633 262.631 384.362 265.893 380.649C260.467 385.674 254.509 390.033 248.13 393.725C241.084 397.581 232.449 402.822 224.193 400.381C220.644 399.222 218.07 396.381 214.86 394.587V394.597Z" fill="#8C8F8F"/>
<path d="M216.296 452.491C219.086 446.399 221.209 440.071 222.665 433.528C219.875 439.62 217.753 445.948 216.296 452.491Z" fill="#8C8F8F"/>
<path d="M262.663 341.636H327.11C329.931 341.636 332.217 343.923 332.217 346.743V356.794C332.217 359.615 329.931 361.901 327.11 361.901H262.663C259.842 361.901 257.555 359.615 257.555 356.794V346.743C257.555 343.923 259.842 341.636 262.663 341.636Z" fill="#303030"/>
<path d="M280.61 362.415H301.921" stroke="#010101" stroke-miterlimit="10"/>
<path d="M231.259 213.223L188.863 204.995C188.256 204.912 187.641 205.132 187.183 205.574L165.921 226.161C164.933 227.123 165.034 228.782 166.142 229.533L204.009 253.407L189.729 267.914L162.152 251.356L165.575 257.456L192.431 286.503L236.949 259.534L222.768 248.21L193.797 226.013L243.631 240.605C243.631 240.605 232.275 213.352 231.272 213.218L231.259 213.223Z" fill="#020202"/>
<path d="M161.937 250.733L155.826 239.834L187.029 258.56L199.298 246.097L162.92 223.154C162.012 222.532 161.463 221.58 161.376 220.518C161.283 219.419 161.681 218.337 162.476 217.567L183.738 196.979C184.511 196.233 185.549 195.884 186.584 196.022L229.238 204.303L229.423 204.391C230.035 204.68 231.064 205.167 242.454 232.493L243.587 235.23L198.19 221.931L221.138 239.521L236.925 252.126L189.69 280.738L161.932 250.72L161.937 250.733Z" fill="#EE5230"/>
<path d="M228.813 205.679C229.963 206.223 241.144 233.054 241.144 233.054L191.31 218.461L220.281 240.659L234.462 251.982L189.944 278.951L163.088 249.904L159.665 243.805L187.242 260.362L201.522 245.855L163.655 221.981C162.547 221.23 162.446 219.571 163.434 218.609L184.696 198.022C185.154 197.58 185.764 197.37 186.376 197.444L228.772 205.671C228.772 205.671 228.79 205.679 228.8 205.684M230.023 203.12L229.615 202.927L229.252 202.88L186.93 194.665L186.847 194.649L186.76 194.641C185.297 194.449 183.826 194.944 182.752 195.991L161.491 216.578C160.385 217.644 159.831 219.129 159.965 220.667C160.09 222.156 160.862 223.496 162.082 224.323L162.129 224.345L162.171 224.376L197.065 246.379L186.806 256.798L161.136 241.391L151.991 235.899L157.205 245.194L160.628 251.293L160.795 251.588L161.02 251.831L187.876 280.878L189.445 282.573L191.419 281.374L235.938 254.404L239.406 252.3L236.235 249.768L222.054 238.445L222.026 238.432L222.003 238.41L205.065 225.431L240.35 235.764L246.039 237.433L243.758 231.964C243.734 231.896 240.92 225.154 238.012 218.446C231.711 203.918 231.219 203.686 230.033 203.124L230.023 203.12Z" fill="#020202"/>
<path d="M121.667 55.4905L109.944 57.6237L111.944 59.4697L103.452 61.4593L107.247 63.131L96.5912 67.9922L102.242 69.3255L94.1913 74.0431L97.9142 76.2891L91.2377 82.5349L95.8528 82.8118L111.39 81.1299L121.667 55.4905Z" fill="#020202"/>
<path d="M370.174 81.1401L382.696 95.7238L378.368 95.2315L386.162 104.205L382.009 105.836L387.988 115.569L383.219 113.446L385.865 123.178L382.347 121.62L385.537 129.342L381.342 126.686L372.902 122.368L370.174 81.1401Z" fill="#020202"/>
<path d="M305.726 276.594V292.337L304.126 286.819L303.357 303.023L301.501 299.844L300.742 311.023L299.121 307.792L298.311 319.853L296.516 316.766L295.727 325.935L287.122 308.849L305.726 276.594Z" fill="white"/>
<g style="mix-blend-mode:multiply" opacity="0.5">
<path d="M233.854 293.004C200.882 275.815 143.665 262.062 106.631 266.318C100.406 267.139 94.2014 268.554 88.448 271.179C88.2223 271.282 88.1198 271.549 88.2223 271.774C88.3249 272 88.5915 272.102 88.8172 271.99C94.4783 269.477 100.601 268.123 106.765 267.375C142.568 263.088 201.538 276.882 233.864 293.004H233.854Z" fill="#8C8F8F"/>
</g>
<path d="M218.43 38.0864C218.43 38.0864 191.672 40.0965 179.222 83.5091C175.889 95.1289 166.32 113.6 174.956 127.64L173.458 143.198C173.458 143.198 165.91 135.578 163.674 132.46C163.674 132.46 170.31 131.691 166.023 118.43C166.023 118.43 164.874 104.995 171.561 90.7702C178.248 76.5455 183.427 41.2144 218.43 38.0967V38.0864Z" fill="#D7D6D6"/>
</svg>
