<svg width="604" height="654" viewBox="0 0 604 654" fill="none" xmlns="http://www.w3.org/2000/svg">
<path opacity="0.15" d="M601.096 537.558C601.096 537.558 601.923 539.892 564.5 532.006C488.287 515.954 475.183 532.266 475.183 532.266C475.183 532.266 437.434 560.204 410.139 588.885C376.25 624.485 338.492 662.829 307.579 645.568L314.712 540.413L121.458 580.915C121.458 580.915 93.5858 585.314 109.907 564.649C126.182 544.05 390.534 445.916 390.534 445.916C564.491 488.808 675.337 473.249 601.086 537.558H601.096Z" fill="black"/>
<path d="M314.712 244.943C314.712 244.943 393.38 210.784 524.743 219.656C542.31 220.847 566.118 235.42 576.069 261.46C593.916 308.127 591.452 466.581 591.452 466.581C610.684 469.575 634.603 473.416 632.046 488.798C632.046 488.798 641.876 497.773 629.051 506.747C629.051 506.747 632.046 517.861 617.938 520.846C617.938 520.846 612.814 539.223 595.292 532.806C595.292 532.806 585.072 527.942 576.06 507.593C576.06 507.593 581.184 517.424 574.349 521.692C567.513 525.961 540.59 517.842 541.018 490.072L514.95 322.57C514.95 322.57 426.944 299.553 330.81 292.717L314.693 244.934L314.712 244.943Z" fill="black"/>
<path d="M539.409 223.758L550.801 224.688L546.384 226.827L560.538 229.877L553.842 231.96L566.323 235.801L559.125 237.103L567.82 240.042L562.315 241.084L569.652 247.073L535.661 242.497L539.409 223.758Z" fill="black"/>
<path d="M514.978 322.589C514.978 322.589 506.682 285.389 420.648 273.782C346.843 263.822 330.838 292.736 330.838 292.736C330.838 292.736 250.272 343.765 258.875 402.28C258.875 402.28 324.849 480.41 378.193 507.603C431.547 534.796 455.634 528.481 455.634 528.481C455.634 528.481 550.29 444.726 514.968 322.579L514.978 322.589Z" fill="white"/>
<path d="M514.978 322.589C514.978 322.589 514.271 318.636 510.886 312.982C512.997 347.541 511.695 434.737 450.78 477.276L406.41 520.083C440.103 532.527 455.644 528.481 455.644 528.481C455.644 528.481 550.299 444.726 514.978 322.579V322.589Z" fill="#D4D2D2"/>
<path d="M254.299 407.786L126.266 495.392C126.266 495.392 116.557 460.433 114.846 447.581C112.707 431.51 111.777 423.019 98.9891 421.29C83.8208 419.244 81.0773 433.389 81.0773 433.389C81.0773 433.389 72.9305 431.743 69.6848 441.452C69.6848 441.452 64.1327 441.266 62.4122 445.916C62.4122 445.916 55.6697 446.297 54.6839 452.565C54.6839 452.565 50.6012 453.784 53.4656 463.549C56.9159 475.304 57.6785 481.842 65.4161 505.715C73.1537 529.579 83.7464 586.234 112.772 573.651C141.797 561.068 297.897 529.141 297.897 529.141C297.897 529.141 282.971 637.784 307.569 645.568C333.051 653.631 338.529 641.374 395.296 579.454C452.063 517.526 449.803 515.591 449.803 515.591C449.803 515.591 353.558 404.15 254.29 407.786H254.299Z" fill="black"/>
<path d="M188.455 452.835C188.455 452.835 196.304 448.185 217.917 461.41C239.531 474.634 246.552 526.231 234.974 542.524L297.897 529.142C297.897 529.142 309.829 502.692 340.789 505.278C371.749 507.854 397.482 536.358 389.939 585.323L455.625 528.5C455.625 528.5 466.264 432.784 382.397 396.914C333.377 375.952 297.46 362.895 256.494 389.167C242.33 398.253 188.455 452.844 188.455 452.844V452.835Z" fill="#941C08"/>
<g opacity="0.35">
<mask id="mask0_1264_7955" style="mask-type:luminance" maskUnits="userSpaceOnUse" x="188" y="374" width="269" height="212">
<path d="M188.455 452.835C188.455 452.835 196.304 448.185 217.917 461.41C239.531 474.634 246.552 526.231 234.974 542.524L297.897 529.142C297.897 529.142 309.829 502.692 340.789 505.278C371.749 507.854 397.482 536.358 389.939 585.323L455.625 528.5C455.625 528.5 466.264 432.784 382.397 396.914C333.377 375.952 297.46 362.895 256.494 389.167C242.33 398.253 188.455 452.844 188.455 452.844V452.835Z" fill="white"/>
</mask>
<g mask="url(#mask0_1264_7955)">
<path d="M443.73 453.077C443.73 453.077 434.049 444.354 425.214 450.389C416.379 456.425 440.95 463.372 440.95 463.372C440.95 463.372 425.874 460.61 422.936 465.474C415.049 478.568 454.119 475.248 454.119 475.248" fill="white"/>
<path d="M344.853 425.726C344.853 425.726 343.328 432.459 334.205 422.034C326.448 413.171 319.65 425.726 320.301 430.292C320.952 434.858 339.422 427.902 333.991 435.509C328.559 443.117 320.236 446.809 327.044 450.715C351.577 464.814 344.221 440.41 349.856 441.591C353.986 442.456 351.596 458.638 360.068 451.524C368.54 444.419 367.982 440.355 356.376 436.597C344.407 432.719 369.405 431.166 368.54 420.304C367.675 409.441 345.95 406.4 344.862 425.735L344.853 425.726Z" fill="white"/>
<path d="M451.663 537.279C451.663 537.279 456.313 513.332 448.232 510.951C440.15 508.579 436.272 521.581 439.304 535.745C439.304 535.745 424.442 513.081 418.025 518.428C411.608 523.775 426.34 546.551 426.34 546.551C426.34 546.551 408.353 535.01 401.602 543.78C394.84 552.55 419.625 553.74 419.625 553.74C419.625 553.74 406.642 557.2 405.061 565.3C403.48 573.4 414.24 574.414 423.196 565.095C423.196 565.095 433.807 553.638 451.673 537.279H451.663Z" fill="white"/>
<path d="M241 523.608C241 523.608 252.913 534.424 257.34 530.555C261.767 526.686 255.564 519.535 246.087 516.019C246.087 516.019 264.994 515.759 264.25 509.974C263.506 504.19 244.58 504.338 244.58 504.338C244.58 504.338 258.112 498.07 255.48 490.807C255.48 490.807 252.755 488.054 248.831 492.425L239.298 502.841C238.377 503.827 237.894 504.924 238.043 506.273C238.368 509.295 239.521 517.07 241.019 523.608H241Z" fill="white"/>
<path d="M248.561 391.678C248.561 391.678 265.44 384.806 267.431 392.711C269.411 400.625 251.286 401.555 251.286 401.555C251.286 401.555 260.855 419.244 254.541 420.88C248.226 422.517 242.274 408.251 242.274 408.251C245.334 419.978 234.536 431.017 231.551 424.572C228.566 418.128 233.495 411.441 233.495 411.441C217.462 412.083 233.058 401.667 233.058 401.667" fill="white"/>
<path d="M373.125 493.83C373.125 493.83 375.534 508.942 368.735 513.62C361.946 518.298 357.008 507.761 361.119 494.369C361.119 494.369 349.494 507.426 342.1 501.214C334.707 495.001 359.742 486.901 359.742 486.901C359.742 486.901 346.797 479.545 349.382 470.189C351.967 460.833 367.192 484.678 367.192 484.678C367.192 484.678 360.44 458.927 372.009 461.633C383.578 464.339 375.078 484.678 375.078 484.678C375.078 484.678 387.847 463.288 393.585 472.151C399.323 481.014 379.793 487.692 379.793 487.692C379.793 487.692 411.506 480.8 408.818 489.561C406.131 498.321 382.118 495.736 382.118 495.736C382.118 495.736 394.413 510.783 389.837 515.582C385.261 520.381 373.125 493.82 373.125 493.82V493.83Z" fill="white"/>
<path d="M287.528 495.15C287.528 495.15 288.858 501.056 296.865 491.914C303.673 484.139 309.634 495.15 309.057 499.158C308.49 503.157 292.289 497.066 297.051 503.734C301.813 510.402 309.122 513.638 303.152 517.07C281.632 529.439 288.077 508.031 283.148 509.063C279.53 509.825 281.622 524.017 274.192 517.777C266.761 511.537 267.254 507.975 277.428 504.683C287.928 501.279 265.998 499.921 266.761 490.388C267.524 480.865 286.579 478.196 287.528 495.15Z" fill="white"/>
<path d="M295.219 439.815C295.219 439.815 314.209 431.027 313.958 439.815C313.707 448.604 299.906 450.073 299.906 450.073C299.906 450.073 306.026 469.203 298.995 469.064C291.964 468.924 289.658 455.3 289.658 455.3C289.406 468.357 275.28 473.742 274.061 466.19C272.843 458.638 279.911 453.133 279.911 453.133C276.777 452.379 274.443 451.58 272.722 450.771C269.03 449.041 270.09 443.535 274.154 443.247L284.496 442.521C284.496 442.521 278.842 432.636 284.05 428.627C293.712 421.187 295.238 439.815 295.238 439.815H295.219Z" fill="white"/>
<path d="M206.655 433.473C206.655 433.473 218.01 421.122 224.251 427.986C230.491 434.849 216.02 444.168 216.02 444.168C216.02 444.168 233.699 436.067 233.467 444.298C233.234 452.538 217.713 448.185 217.713 448.185C217.713 448.185 241.158 457.792 235.55 462.237C229.942 466.683 215.648 454.388 215.648 454.388C215.648 454.388 216.894 469.51 211.826 470.57C206.757 471.63 210.71 449.171 210.71 449.171C210.71 449.171 205.567 459.959 199.122 459.959C192.677 459.959 194.091 455.225 200.285 444.4" fill="white"/>
</g>
</g>
<path d="M304.128 445.916C310.145 448.418 313.447 454.909 314.851 460.963C317.567 473.518 314.73 486.464 310.908 498.433C308.946 504.432 306.528 510.263 303.821 515.945C307.839 504.097 311.754 492.137 313.465 479.74C314.907 468.413 315.065 452.64 304.128 445.907V445.916Z" fill="black"/>
<path d="M320.264 333.237C351.949 324.858 386.973 328.969 415.998 344.211C429.064 351.01 441.033 360.217 451.143 370.912C454.416 374.334 457.82 378.379 460.768 382.053L457.448 378.445C456.843 377.784 455.551 376.343 454.983 375.72C453.328 374.092 450.557 371.274 448.901 369.693C434.114 355.79 416.584 344.583 397.305 338.11C372.725 329.647 345.736 327.927 320.273 333.237H320.264Z" fill="black"/>
<path d="M584.216 490.77C596.111 494.434 612.972 502.33 617.296 514.875C617.891 516.81 618.152 518.846 617.947 520.846C617.789 505.51 596.464 495.829 584.216 490.77Z" fill="#AFAFAF"/>
<path d="M593.553 484.027C605.225 485.469 621.881 490.082 627.647 501.307C628.447 503.027 628.958 504.878 629.061 506.747C626.559 492.286 605.894 486.808 593.553 484.027Z" fill="#AFAFAF"/>
<path d="M603.588 479.88C612.516 479.647 626.401 481.07 632.055 488.807C631.19 487.859 630.223 487.04 629.154 486.371C621.518 481.758 612.284 480.903 603.588 479.88Z" fill="#AFAFAF"/>
<path d="M564.5 496.136C569.996 497.447 574.805 502.051 576.079 507.612C573.577 502.609 569.466 498.684 564.5 496.136Z" fill="#AFAFAF"/>
<path d="M338.65 540.664C345.476 540.664 351.01 535.131 351.01 528.305C351.01 521.479 345.476 515.945 338.65 515.945C331.824 515.945 326.29 521.479 326.29 528.305C326.29 535.131 331.824 540.664 338.65 540.664Z" fill="black"/>
<path d="M347.503 546.598C354.33 546.598 359.863 541.064 359.863 534.238C359.863 527.412 354.33 521.878 347.503 521.878C340.677 521.878 335.144 527.412 335.144 534.238C335.144 541.064 340.677 546.598 347.503 546.598Z" fill="black"/>
<path d="M278.795 528.007C278.795 528.007 270.193 539.52 275.782 562.928C285.37 603.086 285.073 649.883 315.335 648.033C315.335 648.033 341.096 651.325 347.122 619.537C353.149 587.75 359.789 535.521 359.789 535.521C359.789 535.521 312.229 518.688 278.795 528.007Z" fill="black"/>
<path d="M307.253 534.238C314.079 534.238 319.613 528.704 319.613 521.878C319.613 515.052 314.079 509.519 307.253 509.519C300.427 509.519 294.893 515.052 294.893 521.878C294.893 528.704 300.427 534.238 307.253 534.238Z" fill="black"/>
<path d="M287.918 540.655C297.569 540.655 305.393 532.831 305.393 523.18C305.393 513.529 297.569 505.706 287.918 505.706C278.267 505.706 270.444 513.529 270.444 523.18C270.444 532.831 278.267 540.655 287.918 540.655Z" fill="black"/>
<path d="M322.793 537.558C329.619 537.558 335.153 532.024 335.153 525.198C335.153 518.372 329.619 512.839 322.793 512.839C315.967 512.839 310.434 518.372 310.434 525.198C310.434 532.024 315.967 537.558 322.793 537.558Z" fill="black"/>
<path d="M322.793 537.558C313.568 537.986 307.234 528.016 311.206 519.739C315.037 511.416 326.82 509.937 332.326 517.349C326.634 510.83 315.595 512.234 312.052 520.139C308.202 527.942 314.172 537.307 322.793 537.567V537.558Z" fill="#AFAFAF"/>
<path d="M336.185 540.413C327.211 539.065 322.905 528.165 328.215 520.874C333.405 513.462 345.039 513.945 349.289 522.008C344.704 514.782 333.814 514.364 328.978 521.413C323.881 528.249 327.908 538.497 336.195 540.413H336.185Z" fill="#AFAFAF"/>
<path d="M315.335 648.033C334.688 648.73 344.751 634.278 347.224 616.636C351.809 591.042 356.05 560.176 359.854 534.229C356.71 561.85 353.046 589.433 348.052 616.785C347.113 622.272 345.727 627.805 343.03 632.734C337.934 642.825 326.625 649.242 315.335 648.033Z" fill="#AFAFAF"/>
<path d="M347.503 546.588C332.075 546.56 330.057 524.975 345.011 521.702C352.591 520.074 360.282 526.454 359.863 534.238C359.64 525.245 349.735 519.432 341.896 523.738C331.024 529.82 335.097 546.068 347.513 546.598L347.503 546.588Z" fill="#AFAFAF"/>
<path d="M307.253 534.238C300.752 534.629 294.707 529.076 294.512 522.557C293.935 515.963 299.357 509.714 305.914 509.24C310.164 508.84 314.535 510.783 316.981 514.262C312.935 509.407 305.458 508.43 300.408 512.113C290.959 518.995 295.619 533.689 307.253 534.229V534.238Z" fill="#AFAFAF"/>
<path d="M126.266 495.392C128.507 501.018 131.855 507.603 138.542 508.403C131.52 508.998 127.168 501.483 126.266 495.392Z" fill="#AFAFAF"/>
<path d="M81.0866 433.389C79.2731 439.815 80.6867 446.892 85.0763 451.952C86.0249 453.114 87.2153 454.221 88.2941 455.281C87.4478 454.695 86.5829 454.1 85.7738 453.44C79.9985 448.613 77.8409 440.262 81.0866 433.389Z" fill="#AFAFAF"/>
<path d="M69.6942 441.443C68.2713 447.264 69.5547 453.877 74.8743 457.243C75.5625 457.755 76.3529 458.118 77.0876 458.61C76.2692 458.304 75.4137 458.043 74.6418 457.634C68.6619 454.807 66.9693 447.153 69.6942 441.443Z" fill="#AFAFAF"/>
<path d="M62.4122 445.916C59.2409 451.663 61.5008 458.973 66.2717 463.149C60.4313 459.987 57.8925 451.152 62.4122 445.916Z" fill="#AFAFAF"/>
<path d="M54.6932 452.565C54.2468 455.932 55.0094 459.41 57.1949 462.033C57.8831 462.954 58.748 463.688 59.5664 464.516C59.0456 464.256 58.5155 463.986 58.0226 463.66C54.4979 461.363 52.8518 456.425 54.6932 452.565Z" fill="#AFAFAF"/>
<path d="M298.065 215.462C300.883 210.905 305.281 207.734 309.978 205.335C314.526 202.758 319.417 200.685 324.505 199.503L324.588 199.773C319.817 201.726 315.381 204.312 311.159 207.232C307.03 210.394 303.04 213.416 298.251 215.667L298.065 215.462Z" fill="white"/>
<path d="M285.026 170.264C290.299 169.297 295.6 170.441 300.529 172.32C305.486 173.975 310.304 176.216 314.591 179.202L314.451 179.443C309.801 177.211 304.919 175.649 299.925 174.468C294.81 173.519 289.89 172.589 285.017 170.543L285.045 170.264H285.026Z" fill="white"/>
<path d="M308.806 144.308C314.033 145.508 318.45 148.66 322.226 152.334C326.123 155.812 329.657 159.774 332.419 164.219L332.196 164.387C328.811 160.499 324.942 157.133 320.822 154.073C316.497 151.181 312.35 148.381 308.676 144.568L308.806 144.327V144.308Z" fill="white"/>
<path d="M320.617 113.19C325.388 115.636 328.903 119.765 331.666 124.257C334.595 128.582 337.05 133.297 338.631 138.272L338.371 138.375C336.046 133.771 333.116 129.558 329.871 125.587C326.392 121.718 323.054 117.989 320.431 113.395L320.617 113.19Z" fill="white"/>
<path d="M392.478 224.985C392.478 224.985 353.669 217.145 296.465 252.411C239.261 287.677 220.056 375.441 256.503 389.158C292.94 402.876 336.632 408.195 336.632 408.195C355.064 421.671 353.818 437.565 369.74 438.141C369.74 438.141 378.751 436.969 378.751 428.739C378.751 428.739 385.587 434.207 392.478 429.129C400.318 423.363 395.203 413.068 395.203 413.068C395.203 413.068 408.019 421.476 414.008 411.106C416.788 406.289 411.348 399.239 411.348 399.239C411.348 399.239 418.816 398.756 417.904 390.814C416.77 381.011 400.439 377.812 400.439 377.812C400.439 377.812 400.132 368.01 386.089 368.01C372.046 368.01 367.694 367.805 367.694 367.805C367.694 367.805 342.937 347.894 304.128 333.247L330.829 292.736L392.478 224.985Z" fill="black"/>
<path d="M367.694 367.805C378.761 370.521 389.735 373.878 400.439 377.812C389.372 375.096 378.389 371.739 367.694 367.805Z" fill="#AFAFAF"/>
<path d="M272.694 332.977C281.26 328.941 291.369 329.554 300.315 331.972C301.599 332.372 302.863 332.791 304.128 333.237C302.808 332.995 301.524 332.661 300.213 332.419C291.173 330.698 281.567 330.094 272.694 332.977Z" fill="#AFAFAF"/>
<path d="M243.353 355.799L238.452 363.267L235.448 370.865L239.224 368.735L235.001 377.449L241.186 374.492L238.303 381.858L243.725 378.221L243.399 385.15L258.744 372.883L243.353 355.799Z" fill="black"/>
<path d="M436.551 98.4776C436.551 98.4776 419.997 102.021 405.442 114.474L402.978 109.628C398.746 101.305 401.797 91.1213 409.916 86.4992C418.62 81.5423 429.697 84.8903 434.207 93.8276L436.551 98.4776Z" fill="black"/>
<path d="M377.924 201.698C377.924 201.698 382.564 245.566 399.016 258.27C399.016 258.27 465.465 255.796 494.36 228.557L377.933 201.708L377.924 201.698Z" fill="white"/>
<path d="M384.462 127.568L409.971 103.621C409.971 103.621 428.971 86.2202 461.187 95.6318L494.276 106.848C512.16 112.911 524.64 129.27 525.487 148.13C526.166 163.233 524.64 182.038 517.07 201.019C517.07 201.019 507.501 228.38 488.733 233.746C477.592 236.927 459.764 241.223 454.872 247.975C454.872 247.975 399.518 238.024 366.401 206.59C357.092 197.755 356.72 187.897 365.415 178.448C365.704 178.141 365.992 177.834 366.289 177.546C366.289 177.546 376.65 171.036 375.506 168.237C370.642 156.351 354.106 148.158 362.318 134.655C364.336 130.935 370.084 127.838 374.306 127.484C377.17 127.242 380.732 127.159 384.462 127.568Z" fill="white"/>
<path d="M490.416 107.173C490.416 107.173 527.003 171.501 464.628 218.196C464.628 218.196 487.571 222.251 508.496 204.804C529.421 187.358 521.395 138.123 521.395 138.123C521.395 138.123 515.945 114.427 490.407 107.164L490.416 107.173Z" fill="#D4D2D2"/>
<path d="M475.183 218.196C475.183 218.196 471.816 234.667 464.637 241.409C464.637 241.409 506.468 229.905 517.545 191.989L506.143 189.831L480.084 209.761L475.183 218.196Z" fill="#D4D2D2"/>
<path d="M514.978 206.041L510.625 217.694L509.5 215.899L505.389 226.622L505.771 221.052L500.767 232.825L500.702 226.855L496.303 234.49L495.355 230.64L488.594 237.103L488.854 232.583L514.978 206.041Z" fill="white"/>
<path d="M431.269 166.842C476.671 197.141 491.728 132.646 458.806 121.439C438.541 114.539 421.271 108.057 409.934 103.667L384.471 127.568C431.668 128.898 431.278 166.842 431.278 166.842H431.269Z" fill="black"/>
<path d="M508.505 124.676C508.505 124.676 518.382 143.025 518.316 166.6L524.826 165.047C536.005 162.378 543.119 151.395 540.98 140.095C538.693 127.986 526.714 120.258 514.736 123.169L508.505 124.685V124.676Z" fill="black"/>
<path d="M459.094 96.227C459.094 96.227 467.836 95.0273 467.306 84.7694C467.306 84.7694 472.83 87.5222 471.5 96.8222C471.5 96.8222 477.071 90.3866 475.983 83.8673C475.983 83.8673 488.454 98.4776 479.359 105.239" fill="white"/>
<path d="M362.309 149.665C362.309 149.665 364.346 152.994 369.228 151.98C369.228 151.98 374.734 166.6 415.989 173.305C415.989 173.305 389.381 198.257 369.712 194.993C356.841 192.854 361.556 184.177 367.471 175.509C367.471 175.509 374.325 168.107 362.309 149.665Z" fill="black"/>
<path d="M369.228 207.604C385.271 218.55 406.484 216.904 424.275 211.51C427.037 210.589 430.106 210.003 433.008 210.542C438.662 211.705 443.377 214.197 448.873 215.481C459.243 218.327 470.552 218.633 480.475 214.058C485.432 211.863 489.896 208.58 493.895 204.804C490.351 209.017 486.036 212.672 481.079 215.295C471.1 220.698 459.01 220.8 448.213 218.048C442.949 216.913 437.685 214.337 432.552 213.295C428.59 212.495 424.814 214.383 421.02 215.22C403.982 219.508 383.253 219.517 369.219 207.594L369.228 207.604Z" fill="#AFAFAF"/>
<path d="M379.179 134.059C383.468 134.059 386.945 131.524 386.945 128.396C386.945 125.268 383.468 122.732 379.179 122.732C374.89 122.732 371.414 125.268 371.414 128.396C371.414 131.524 374.89 134.059 379.179 134.059Z" fill="black"/>
<path d="M380.937 180.448C380.937 180.448 382.555 176.932 387.131 176.635C382.564 175.398 379.328 175.258 375.338 177.862C366.345 183.74 367.489 197.262 377.412 191.691C387.345 186.13 395.891 182.019 395.891 182.019C395.556 180.597 388.126 173.966 380.937 180.448Z" fill="#FF647D"/>
<path d="M430.497 132.488C438.15 131.595 446.316 134.831 450.975 141.025C451.654 141.881 452.175 142.857 452.742 143.787C447.562 136.766 439.146 132.785 430.497 132.478V132.488Z" fill="white"/>
<path d="M392.367 120.137C397.788 115.859 404.977 118.082 408.595 123.541C409.041 124.304 409.506 125.038 409.925 125.801C409.339 125.15 408.8 124.48 408.242 123.82C404.057 119.068 398.328 117.133 392.367 120.128V120.137Z" fill="white"/>
<path d="M420.657 43.2078C425.214 46.0257 428.385 50.4246 430.785 55.1211C433.361 59.6687 435.435 64.5605 436.616 69.6476L436.346 69.7313C434.393 64.9604 431.808 60.5243 428.888 56.3022C425.726 52.173 422.703 48.1833 420.453 43.3938L420.657 43.2078Z" fill="white"/>
<path d="M468.357 35.0238C469.324 40.2969 468.18 45.5979 466.302 50.5269C464.646 55.4837 462.405 60.3011 459.42 64.5884L459.178 64.4489C461.41 59.7989 462.972 54.9164 464.153 49.9223C465.102 44.8074 466.032 39.8877 468.078 35.0145L468.357 35.0424V35.0238Z" fill="white"/>
<path d="M500.479 49.8294C499.279 55.056 496.127 59.4735 492.453 63.2492C488.975 67.1459 485.013 70.6799 480.568 73.442L480.4 73.2188C484.288 69.8336 487.654 65.9648 490.714 61.8449C493.606 57.5205 496.406 53.3727 500.219 49.6992L500.46 49.8294H500.479Z" fill="white"/>
<path d="M529.858 72.2051C527.412 76.976 523.283 80.4914 518.791 83.2535C514.466 86.183 509.751 88.6382 504.776 90.2192L504.673 89.9588C509.277 87.6338 513.49 84.7043 517.461 81.4586C521.33 77.9804 525.059 74.6417 529.653 72.0191L529.858 72.2051Z" fill="white"/>
</svg>
