<svg width="24" height="24" viewBox="0 0 24 24" fill="none" xmlns="http://www.w3.org/2000/svg">
<path d="M17.67 1.59021H5.57001C3.04607 1.59021 1 3.63626 1 6.1602V18.2602C1 20.7841 3.04607 22.8302 5.57001 22.8302H17.67C20.1939 22.8302 22.24 20.7841 22.24 18.2602V6.1602C22.24 3.63626 20.1939 1.59021 17.67 1.59021Z" fill="#00716D"/>
<path d="M18.16 1.59021H5.08002C2.8267 1.59021 1 3.41689 1 5.67021V18.7502C1 21.0035 2.8267 22.8302 5.08002 22.8302H18.16C20.4133 22.8302 22.24 21.0035 22.24 18.7502V5.67021C22.24 3.41689 20.4133 1.59021 18.16 1.59021Z" stroke="#00726E" stroke-width="2" stroke-miterlimit="10"/>
<path d="M14.2604 13.6901L14.6404 11.2201H12.2704V9.61012C12.2704 8.94012 12.6004 8.27011 13.6704 8.27011H14.7504V6.16011C14.7504 6.16011 13.7705 5.99011 12.8405 5.99011C10.8805 5.99011 9.61041 7.18011 9.61041 9.32011V11.2001H7.44043V13.6701H9.61041V19.6501H12.2805V13.6701H14.2704L14.2604 13.6901Z" fill="#80F0F0"/>
</svg>
