<svg width="451" height="462" viewBox="0 0 451 462" fill="none" xmlns="http://www.w3.org/2000/svg">
<path d="M205.64 126.409C205.64 126.409 184.814 121.62 173.393 111.956C164.154 104.134 132.985 115.752 135.151 154.537C135.695 164.21 144.478 170.85 148.156 181.617C148.156 181.617 251.837 161.319 276.783 177.317C276.783 177.317 304.162 130.876 277.145 121.053C263.975 116.264 263.534 107.907 253.255 109.971C253.255 109.971 243.125 119.738 205.64 126.409Z" fill="black"/>
<path d="M253.255 109.971C253.255 109.971 266.118 103.221 295.293 106.71C302.776 107.608 320.924 106.828 336.992 105.324C373.162 101.952 407.001 102.653 429.654 107.6C429.654 107.6 424.432 126.402 401.692 125.685C401.692 125.685 382.504 129.875 343.081 145.621C320.215 154.758 302.579 156.703 287.755 173.118C287.755 173.118 228.073 147.708 253.247 109.963L253.255 109.971Z" fill="black"/>
<path d="M67.8843 108.112L63.8593 104.378L73.9336 108.443L72.2874 104.378L80.9045 109.073V106.726L87.6864 109.632L77.7853 114.965L61.2915 106.844L67.8843 108.112Z" fill="black"/>
<path d="M366.805 103.031L370.83 99.2979L360.756 103.362L362.402 99.2979L353.785 103.992V101.645L347.003 104.56L356.897 109.884L373.398 101.763L366.805 103.031Z" fill="black"/>
<path d="M419.43 106.387C419.43 106.387 433.907 106.426 434.703 111.176C435.467 115.776 430.489 117.414 415.003 115.666" fill="black"/>
<path d="M422.439 108.246C422.439 108.246 436.128 108.246 436.837 113.972C437.404 118.596 432.623 120.211 417.138 118.462" fill="black"/>
<path d="M421.257 111.893C421.257 111.893 436.333 111.373 436.617 117.635C436.829 122.29 432.403 123.873 416.917 122.125" fill="black"/>
<path d="M418.311 114.153C418.311 114.153 433.789 114.153 433.718 120.092C433.663 124.755 429.504 126.331 414.019 124.582" fill="black"/>
<path d="M405.811 116.997C411.915 116.351 421.612 117.824 419.327 124.929C417.925 129.292 410.143 125.842 401.684 125.693" fill="black"/>
<path d="M405.811 116.997C410.182 116.437 416.035 116.532 419.052 120.265C420.367 122.156 420.17 125.614 418.004 126.803C417.256 127.165 416.445 127.284 415.649 127.315C410.939 127.276 406.378 125.984 401.691 125.7C404.818 125.574 407.938 126.039 411.017 126.527C413.254 126.78 415.696 127.362 417.823 126.457C419.768 125.37 419.91 122.187 418.729 120.494C415.964 116.981 409.954 116.926 405.811 117.005V116.997Z" fill="#DADADA"/>
<path d="M422.439 108.246C426.676 108.309 435.994 108.718 437.01 113.917C437.136 114.705 437.058 115.603 436.554 116.249C436.719 115.461 436.719 114.728 436.64 113.964C435.695 109.089 426.487 108.522 422.431 108.246H422.439Z" fill="#DADADA"/>
<path d="M421.257 111.893C425.519 111.633 436.278 111.893 436.617 117.635C435.892 112.279 425.471 112.168 421.257 111.893Z" fill="#DADADA"/>
<path d="M418.312 114.153C422.463 114.224 432.876 114.492 433.868 119.62C433.963 120.478 433.852 121.369 433.348 122.07C433.458 121.242 433.553 120.447 433.506 119.667C432.631 114.933 422.25 114.382 418.312 114.153Z" fill="#DADADA"/>
<path d="M169.778 109.79C160.908 107.474 152.724 107.143 143.485 108.86C132.261 110.947 120.792 111.499 109.403 110.711C64.0327 107.545 25.2084 105.599 9.69126 107.75C9.69126 107.75 6.34366 127.67 29.0837 126.953C35.0936 127.079 50.3115 138.098 77.4073 147.377C109.143 158.247 141.185 166.108 148.156 188.966C148.156 188.966 187.571 132.443 169.778 109.79Z" fill="black"/>
<path d="M164.153 44.6257L160.499 150.796" stroke="black" stroke-width="2" stroke-miterlimit="10"/>
<path d="M20.2775 452.072C17.1268 453.86 13.4327 454.096 10.8255 452.072V150.993C10.8255 147.527 8.72239 136.366 7.06828 128.095C6.06794 123.117 9.80937 118.446 14.8898 118.336C19.9546 118.226 23.8929 122.7 23.1446 127.709C21.8844 136.074 20.2854 147.393 20.2854 150.835V452.072H20.2775Z" fill="#613A12"/>
<path d="M14.3306 118.163C12.2433 118.399 10.2347 118.045 8.66726 118.69C9.51006 120.707 5.08336 124.188 1.79089 120.707C-0.0758878 118.738 -0.162533 114.744 1.92479 111.696C4.74466 107.561 10.0299 107.734 10.0299 107.734C10.0299 107.734 19.1354 107.687 20.0018 111.696C20.8683 115.705 14.3227 118.163 14.3227 118.163H14.3306Z" fill="black"/>
<path d="M16.7564 125.842C14.6691 126.079 12.6605 125.724 11.093 126.37C11.9358 128.387 7.50914 131.868 4.21667 128.387C2.34989 126.417 2.26325 122.424 4.35058 119.376C7.17044 115.24 12.4557 115.414 12.4557 115.414C12.4557 115.414 21.5612 115.366 22.4276 119.376C23.2941 123.385 16.7485 125.842 16.7485 125.842H16.7564Z" fill="black"/>
<path d="M14.1099 118.942C12.0226 119.179 10.014 118.824 8.44656 119.47C9.28936 121.487 4.86265 124.968 1.57019 121.487C-0.296591 119.517 -0.383236 115.524 1.70409 112.476C4.52395 108.34 9.80923 108.514 9.80923 108.514C9.80923 108.514 18.9147 108.466 19.7811 112.476C20.6476 116.477 14.102 118.942 14.102 118.942H14.1099Z" fill="black"/>
<path d="M1.578 121.486C-0.288778 119.517 -0.375424 115.524 1.7119 112.476C4.53177 108.34 9.81704 108.514 9.81704 108.514" fill="black"/>
<path d="M1.57828 121.486C-1.84021 117.721 0.727599 111.184 5.14643 109.412C6.61938 108.758 8.23411 108.443 9.81732 108.514C8.23411 108.608 6.67451 108.994 5.27246 109.687C1.07417 111.578 -1.34397 117.588 1.57828 121.486Z" fill="#DADADA"/>
<path d="M14.3306 121.762C12.2433 121.999 10.2347 121.644 8.66726 122.29C9.51006 124.306 5.08336 127.788 1.79089 124.306C-0.0758878 122.337 -0.162533 118.344 1.92479 115.295C4.74466 111.16 10.0299 111.333 10.0299 111.333C10.0299 111.333 19.1354 111.286 20.0018 115.295C20.8683 119.297 14.3227 121.762 14.3227 121.762H14.3306Z" fill="black"/>
<path d="M1.7987 124.307C-0.0680768 122.337 -0.154719 118.344 1.93261 115.296C4.75247 111.16 10.0377 111.334 10.0377 111.334" fill="black"/>
<path d="M1.79891 124.306C-1.61171 120.541 0.948225 114.004 5.36706 112.231C6.84 111.578 8.45473 111.263 10.0379 111.334C8.45473 111.428 6.89514 111.814 5.49309 112.507C1.2948 114.398 -1.12335 120.408 1.79891 124.306Z" fill="#DADADA"/>
<path d="M24.9561 118.257C18.8517 117.611 9.15547 119.084 11.4397 126.189C12.8418 130.553 20.624 127.103 29.0835 126.953" fill="black"/>
<path d="M24.9565 118.257C20.8213 118.186 14.8035 118.241 12.0387 121.747C10.8493 123.44 10.999 126.622 12.9445 127.709C15.0713 128.615 17.513 128.032 19.75 127.78C22.8298 127.292 25.949 126.827 29.076 126.953C24.3815 127.237 19.8288 128.528 15.1185 128.568C13.5353 128.584 11.6528 127.882 11.2353 126.181C10.7312 124.669 10.7548 122.865 11.7237 121.526C14.7404 117.792 20.5928 117.698 24.9644 118.257H24.9565Z" fill="#DADADA"/>
<g style="mix-blend-mode:multiply">
<path d="M259.926 461.871C294.802 461.871 323.074 456.105 323.074 448.992C323.074 441.88 294.802 436.114 259.926 436.114C225.051 436.114 196.779 441.88 196.779 448.992C196.779 456.105 225.051 461.871 259.926 461.871Z" fill="#DADADA"/>
</g>
<path d="M311.874 201.845L401.188 153.75C404.094 152.19 406.181 149.394 406.693 146.133C407.064 143.746 408.355 141.052 412.01 139.784C419.383 137.224 432.561 135.617 442.233 131.254C452.087 126.811 454.237 136.114 445.581 141.557C436.924 147.007 423.857 168.03 409.954 187.493C398.596 203.389 323.232 297.137 323.232 297.137C323.232 297.137 268.063 298.098 260.076 268.293C252.089 238.487 311.874 201.837 311.874 201.837V201.845Z" fill="black"/>
<path d="M263.55 432.821L180.553 299.319L253.35 252.35L323.24 297.145C323.24 297.145 279.248 363.987 297.94 428.56C297.94 428.56 298.153 436.783 282.053 437.792C282.053 437.792 269.576 439.981 263.542 432.821" fill="black"/>
<path d="M449.693 130.962C451.567 133.12 450.283 135.531 447.716 136.161C446.999 136.381 446.306 136.578 445.581 136.744C446.243 136.429 446.936 136.153 447.613 135.877C449.976 135.074 451.016 133.239 449.693 130.962Z" fill="#DADADA"/>
<path d="M446.81 138.217C448.172 137.839 449.456 137.39 450.433 136.35C449.913 137.752 448.204 138.421 446.81 138.217Z" fill="#DADADA"/>
<path d="M291.087 177.317C291.087 177.317 280.114 151.261 223.339 154.742C166.572 158.224 142.185 154.136 142.012 185.784C141.839 217.433 154.166 337.45 254.68 318.436C331.998 303.809 338.504 184.422 290.378 195.583C290.378 195.583 296.285 189.155 291.087 177.317Z" fill="white"/>
<path d="M299.215 433.499C299.404 436.823 297.868 439.997 295.127 441.895C287.794 446.968 273.774 456.633 272.915 456.916C272.915 456.916 265.196 461.808 260.312 456.664L260.131 456.601C259.659 456.601 257.823 456.546 256.665 455.349L256.626 455.333C256.406 455.349 254.515 455.467 253.334 454.144C253.334 454.144 251.057 454.293 249.876 452.923V452.907L249.726 452.852C246.52 451.804 245.126 447.756 250.049 444.881C250.049 444.881 264.432 435.2 263.55 432.821C263.55 432.821 260.698 428.954 262.289 425.496C263.88 422.038 298.467 415.264 299.215 433.499Z" fill="black"/>
<path d="M268.985 448.173C268.985 448.173 257.737 448.441 260.313 456.672L268.985 448.173Z" fill="black"/>
<path d="M268.985 448.173C265.165 448.512 259.651 450.142 260.029 454.9C260.045 455.498 260.171 456.089 260.313 456.68C258.076 450.804 264.054 448.134 268.985 448.181V448.173Z" fill="#808080"/>
<path d="M259.178 448.394C257.698 448.646 256.563 449.945 255.925 451.229C255.216 452.608 255.602 454.207 256.618 455.341C255.382 454.348 254.933 452.545 255.665 451.111C256.343 449.788 257.603 448.425 259.178 448.394Z" fill="#808080"/>
<path d="M255.886 447.204C254.405 447.456 253.271 448.756 252.633 450.04C251.924 451.418 252.31 453.017 253.326 454.152C252.089 453.159 251.64 451.355 252.373 449.922C253.05 448.599 254.311 447.236 255.886 447.204Z" fill="#808080"/>
<path d="M252.444 445.968C250.963 446.22 249.829 447.519 249.191 448.803C248.482 450.182 248.868 451.781 249.884 452.915C248.647 451.922 248.198 450.119 248.931 448.685C249.608 447.362 250.869 445.999 252.444 445.968Z" fill="#808080"/>
<path d="M280.847 197.662C281.674 197.386 283.533 196.74 284.336 196.488C285.14 196.331 287.085 195.89 287.912 195.717L289.102 195.457C289.527 195.488 289.944 195.512 290.378 195.583C290.015 195.827 289.637 196.024 289.267 196.228L288.078 196.488C287.235 196.677 285.313 197.079 284.502 197.276C283.674 197.386 281.697 197.575 280.839 197.662H280.847Z" fill="black"/>
<path d="M198.74 25.5324C198.74 25.5324 188.232 30.1875 180.293 40.4903L177.985 37.6074C174.015 32.6608 174.629 25.4694 179.379 21.2632C184.475 16.7577 192.305 17.443 196.542 22.7598L198.748 25.5245L198.74 25.5324Z" fill="black"/>
<path d="M168.163 52.1162L181.789 32.6528C181.789 32.6528 192.005 18.4433 214.722 20.2155L238.273 23.0669C251.002 24.6107 261.572 33.7477 264.762 46.1693C267.315 56.1175 268.921 68.8227 266.527 82.4967C266.527 82.4967 266.44 99.7073 248.718 107.726C248.718 107.726 248.269 109.569 253.255 109.971C253.255 109.971 239.195 122.534 205.994 126.409C197.582 125.732 178.591 117.359 169.777 109.782C169.777 109.782 172.455 107.482 166.997 102.015C155.828 95.2569 152.953 86.6004 152.228 75.9432C151.834 70.0672 152.582 63.7343 155.875 58.2206C157.348 55.7473 157.151 55.448 159.75 54.2271C161.711 53.3056 165.618 52.3604 168.155 52.1083L168.163 52.1162Z" fill="white"/>
<path d="M168.163 52.1164L181.789 32.6531C181.789 32.6531 191.903 18.6011 214.367 20.2C204.585 25.1466 192.037 33.9764 182.924 49.1469L168.163 52.1164Z" fill="#DADADA"/>
<path d="M166.997 102.031C179.576 106.765 194.14 108.127 207.002 103.709C207.168 103.653 209.846 102.685 209.917 102.653C221.464 104.158 234.027 104.142 244.787 99.1322C244.818 99.1165 244.834 99.1559 244.811 99.1795C238.58 105.434 231.42 108.12 218.691 107.474C215.635 107.316 213.186 106.725 210.129 106.143C210.129 106.143 207.365 107.19 206.498 107.537C200.654 109.459 194.313 109.915 188.169 109.506C175.606 108.663 169.596 105.402 169.596 105.402C168.69 103.764 167.304 102.299 166.997 102.039V102.031Z" fill="#DADADA"/>
<path d="M159.75 54.235C159.75 54.235 155.3 54.7785 156.82 59.7172C158.34 64.6559 169.084 66.0344 171.478 60.2135C173.865 54.3926 162.184 52.9669 159.75 54.235Z" fill="black"/>
<path d="M249.616 106.883L251.695 109.073L252.963 106.253L255.484 108.191L256.461 102.37L258.784 105.639L260.761 98.5495L263.51 102.244L264.014 92.6735L268.504 96.2101L266.346 84.4975L271.907 87.8057L267.551 73.6985L263.195 88.0184L249.616 106.883Z" fill="white"/>
<path d="M204.734 71.7137C239.124 85.5452 240.164 40.5771 216.723 37.7021C202.292 35.9377 189.91 34.0315 181.766 32.6846L168.163 52.1164C199.725 46.4373 204.742 71.7137 204.742 71.7137H204.734Z" fill="black"/>
<path d="M250.207 32.9445C250.207 32.9445 259.328 43.7671 262.557 59.4496L266.669 57.512C273.726 54.1801 276.932 45.8938 273.939 38.6787C270.733 30.9438 261.699 27.4781 254.137 31.0777L250.207 32.9524V32.9445Z" fill="black"/>
<path d="M228.128 24.0752C233.232 18.3173 222.914 10.3382 222.914 10.3382C224.544 14.5208 221.732 19.5776 221.732 19.5776C221.323 13.2054 217.274 12.1499 217.274 12.1499C219.054 18.8923 213.415 20.9088 213.415 20.9088" fill="white"/>
<path d="M187.571 79.9919C184.066 86.5375 178.26 88.0971 173.755 89.0344" stroke="black" stroke-width="2.01" stroke-linecap="round" stroke-linejoin="round"/>
<mask id="mask0_1274_964" style="mask-type:luminance" maskUnits="userSpaceOnUse" x="163" y="30" width="28" height="24">
<path d="M164.736 52.6911C164.736 52.6911 178.008 49.2884 188.445 53.2188L190.761 46.0353L190.209 36.6226L183.735 31.676L179.395 30.7623H174.078L171.022 32.3062L166.745 36.4414L163.87 43.0421L164.728 52.6911H164.736Z" fill="white"/>
</mask>
<g mask="url(#mask0_1274_964)">
<path d="M177.867 33.2042C178.97 33.2042 180.057 33.4011 181.088 33.7792C183.688 34.7401 185.712 36.8038 186.791 39.5764C187.894 42.4199 187.886 45.673 186.752 48.7213C184.932 53.6442 180.584 56.9446 175.945 56.9446C174.842 56.9446 173.755 56.7477 172.723 56.3696C167.296 54.361 164.752 47.6579 167.06 41.4275C168.88 36.5045 173.227 33.2042 177.867 33.2042ZM177.867 31.6288C172.723 31.6288 167.682 35.2206 165.579 40.884C162.964 47.9415 165.918 55.5347 172.172 57.8504C173.409 58.3073 174.677 58.5278 175.945 58.5278C181.088 58.5278 186.13 54.936 188.233 49.2727C190.848 42.2151 187.894 34.622 181.64 32.3062C180.403 31.8494 179.135 31.6288 177.867 31.6288Z" fill="black"/>
<path d="M181.64 32.3064C192.58 36.1739 191.525 52.1006 182.049 57.1417C179.072 58.8037 175.323 59.229 172.172 57.8506C175.401 58.8903 178.946 58.3153 181.75 56.614C190.603 51.5335 191.675 36.7016 181.64 32.3064Z" fill="white"/>
</g>
<path d="M178.34 106.387L179.474 116.351C179.474 116.351 172.164 112.365 169.778 109.79C169.778 109.79 171.826 107.899 168.651 103.937L178.34 106.387Z" fill="#DADADA"/>
<path d="M199.756 21.476C199.756 21.476 236.052 26.6667 271.048 43.2866C271.048 43.2866 279.831 48.6585 278.421 37.9225C277.515 31.0383 267.204 25.4773 267.204 25.4773C267.204 25.4773 229.987 -8.04593 206.396 1.81571C206.396 1.81571 186.255 -3.69011 199.764 21.476H199.756Z" fill="#613A12"/>
<path d="M196.306 3.8086C196.999 5.47058 198.795 6.26613 200.3 7.07743C201.914 7.86511 203.6 8.55826 205.301 9.2199C208.712 10.5589 212.201 11.7326 215.588 13.1504C218.999 14.5682 222.346 16.2144 225.812 17.4983C231.011 19.4754 236.446 20.7672 241.77 22.3504C250.648 25.123 259.414 28.3839 267.519 33.0076C270.765 34.8428 273.931 36.8514 276.861 39.1829L276.712 39.4271C269.906 36.4182 263.148 33.6062 256.311 30.873C251.412 28.8644 245.937 26.5408 240.983 24.5243C235.887 22.3267 230.814 20.011 225.505 18.3805C221.976 17.262 218.321 16.498 214.769 15.411C209.429 13.686 204.143 11.5908 199.496 8.38496C198.007 7.25072 196.204 5.8723 196.015 3.84798L196.298 3.80072L196.306 3.8086Z" fill="black"/>
<path d="M242.487 8.33756C242.487 8.33756 242.542 3.3516 245.291 4.93482C249.442 7.32934 244.291 9.51119 244.291 9.51119L242.487 8.33756Z" fill="#613A12"/>
<path d="M206.373 171.48C207.547 171.48 208.5 170.528 208.5 169.353C208.5 168.179 207.547 167.227 206.373 167.227C205.198 167.227 204.246 168.179 204.246 169.353C204.246 170.528 205.198 171.48 206.373 171.48Z" fill="black"/>
<path d="M209.343 203.743C210.517 203.743 211.469 202.791 211.469 201.616C211.469 200.442 210.517 199.489 209.343 199.489C208.168 199.489 207.216 200.442 207.216 201.616C207.216 202.791 208.168 203.743 209.343 203.743Z" fill="black"/>
<path d="M222.717 234.194C223.892 234.194 224.844 233.242 224.844 232.068C224.844 230.893 223.892 229.941 222.717 229.941C221.542 229.941 220.59 230.893 220.59 232.068C220.59 233.242 221.542 234.194 222.717 234.194Z" fill="black"/>
<path d="M240.731 266.56C241.906 266.56 242.858 265.608 242.858 264.433C242.858 263.259 241.906 262.306 240.731 262.306C239.557 262.306 238.604 263.259 238.604 264.433C238.604 265.608 239.557 266.56 240.731 266.56Z" fill="black"/>
<path d="M270.56 290.765C271.734 290.765 272.687 289.813 272.687 288.638C272.687 287.464 271.734 286.512 270.56 286.512C269.385 286.512 268.433 287.464 268.433 288.638C268.433 289.813 269.385 290.765 270.56 290.765Z" fill="black"/>
<path d="M177.158 257.895C159.585 222.466 155.82 185.06 155.497 161.689C146.392 165.596 142.091 172.575 142.02 185.792C141.847 217.441 154.174 337.458 254.689 318.444C262.983 316.876 270.458 314.096 277.145 310.409C241.487 312.087 196.314 296.531 177.158 257.903V257.895Z" fill="#DADADA"/>
<path d="M4.22449 128.379C2.35771 126.41 2.27106 122.416 4.35839 119.368C7.17825 115.233 12.4635 115.406 12.4635 115.406" fill="black"/>
<path d="M4.22477 128.379C0.806277 124.614 3.37408 118.076 7.79292 116.304C9.26586 115.65 10.8806 115.335 12.4638 115.406C10.8806 115.5 9.321 115.886 7.91894 116.579C3.72066 118.47 1.30251 124.48 4.22477 128.379Z" fill="#DADADA"/>
<path d="M173.755 44.1216C175.89 46.0356 179.033 45.8229 181.703 45.5787C182.105 45.5394 182.506 45.4763 182.916 45.4527C180.041 46.5948 175.717 47.0202 173.748 44.1216H173.755Z" fill="#949494"/>
<path d="M200.828 49.1469C203.498 51.9747 207.483 52.786 211.186 52.1243C211.721 52.0377 212.249 51.9038 212.792 51.8172C212.288 52.0298 211.768 52.2189 211.249 52.4079C207.562 53.5737 202.954 52.5733 200.828 49.1469Z" fill="#949494"/>
</svg>
