<svg width="23" height="19" viewBox="0 0 23 19" fill="none" xmlns="http://www.w3.org/2000/svg">
<path d="M11.9082 5.39992C11.7657 5.28429 11.5877 5.22119 11.4042 5.22119C11.2207 5.22119 11.0427 5.28429 10.9002 5.39992L4.2002 10.9999V17.1999C4.2002 18.1999 4.8162 18.9999 5.5762 18.9999H17.6242C18.3842 18.9999 19.0002 18.1999 19.0002 17.1999V10.9999L11.9082 5.39992ZM13.8002 17.7999C13.8002 17.906 13.7581 18.0077 13.683 18.0828C13.608 18.1578 13.5063 18.1999 13.4002 18.1999C13.2941 18.1999 13.1924 18.1578 13.1174 18.0828C13.0423 18.0077 13.0002 17.906 13.0002 17.7999V15.7999C13.0002 15.3756 12.8316 14.9686 12.5316 14.6685C12.2315 14.3685 11.8245 14.1999 11.4002 14.1999C10.9759 14.1999 10.5689 14.3685 10.2688 14.6685C9.96877 14.9686 9.8002 15.3756 9.8002 15.7999V17.7999C9.8002 17.906 9.75805 18.0077 9.68304 18.0828C9.60802 18.1578 9.50628 18.1999 9.4002 18.1999C9.29411 18.1999 9.19237 18.1578 9.11735 18.0828C9.04234 18.0077 9.0002 17.906 9.0002 17.7999V15.7999C9.0002 15.1634 9.25305 14.5529 9.70314 14.1029C10.1532 13.6528 10.7637 13.3999 11.4002 13.3999C12.0367 13.3999 12.6472 13.6528 13.0973 14.1029C13.5473 14.5529 13.8002 15.1634 13.8002 15.7999V17.7999Z" fill="#010101"/>
<path d="M2.45599 10.572C2.232 10.7552 1.94634 10.8458 1.65769 10.8249C1.36904 10.8041 1.09934 10.6735 0.903986 10.46C0.79883 10.3458 0.718181 10.2113 0.667017 10.0648C0.615852 9.91828 0.595256 9.76282 0.606501 9.60802C0.617745 9.45322 0.660591 9.30237 0.732395 9.16477C0.804199 9.02717 0.903437 8.90575 1.02399 8.80799L10.344 1.20799C10.6439 0.96507 11.0181 0.83252 11.404 0.83252C11.7899 0.83252 12.1641 0.96507 12.464 1.20799L21.784 8.80799C21.9045 8.90575 22.0038 9.02717 22.0756 9.16477C22.1474 9.30237 22.1902 9.45322 22.2015 9.60802C22.2127 9.76282 22.1921 9.91828 22.141 10.0648C22.0898 10.2113 22.0091 10.3458 21.904 10.46C21.7086 10.6735 21.4389 10.8041 21.1503 10.8249C20.8616 10.8458 20.576 10.7552 20.352 10.572L12.46 4.14799C12.1607 3.90366 11.7863 3.77021 11.4 3.77021C11.0137 3.77021 10.6392 3.90366 10.34 4.14799L2.45599 10.572Z" fill="#966028"/>
</svg>
