<svg width="24" height="23" viewBox="0 0 24 23" fill="none" xmlns="http://www.w3.org/2000/svg">
<path d="M16.3205 22.64H7.28052C3.53052 22.64 0.480469 19.59 0.480469 15.84V6.8C0.480469 3.05 3.53052 0 7.28052 0H16.3205C20.0705 0 23.1205 3.05 23.1205 6.8V15.84C23.1205 19.59 20.0705 22.64 16.3205 22.64ZM7.28052 2.12999C4.71052 2.12999 2.61047 4.22 2.61047 6.8V15.84C2.61047 18.41 4.70052 20.51 7.28052 20.51H16.3205C18.8905 20.51 20.9905 18.42 20.9905 15.84V6.8C20.9905 4.23 18.9005 2.12999 16.3205 2.12999H7.28052ZM17.8405 20.58H5.58051C3.44051 20.58 1.71051 18.85 1.71051 16.71V5.7C1.71051 3.56 3.44051 1.83 5.58051 1.83H17.8405C19.9805 1.83 21.7105 3.56 21.7105 5.7V16.71C21.7105 18.85 19.9805 20.58 17.8405 20.58Z" fill="black"/>
<path d="M11.8903 5.73999C8.82032 5.73999 6.32031 8.24 6.32031 11.31C6.32031 14.38 8.82032 16.88 11.8903 16.88C14.9603 16.88 17.4603 14.38 17.4603 11.31C17.4603 8.24 14.9603 5.73999 11.8903 5.73999ZM11.8903 14.89C9.93032 14.89 8.32031 13.28 8.32031 11.32C8.32031 9.35999 9.93032 7.75 11.8903 7.75C13.8503 7.75 15.4603 9.35999 15.4603 11.32C15.4603 13.28 13.8503 14.89 11.8903 14.89Z" fill="#FFB600"/>
<path d="M17.7909 4.05005C17.0609 4.05005 16.4609 4.65004 16.4609 5.38004C16.4609 6.11004 17.0609 6.71004 17.7909 6.71004C18.5209 6.71004 19.1209 6.11004 19.1209 5.38004C19.1209 4.65004 18.5209 4.05005 17.7909 4.05005Z" fill="#FFB600"/>
</svg>
