<svg width="35" height="24" viewBox="0 0 35 24" fill="none" xmlns="http://www.w3.org/2000/svg">
<path d="M8.26068 21.5741C8.26068 16.0035 12.7759 11.4883 18.3465 11.4883C23.9171 11.4883 28.4323 16.0035 28.4323 21.5741" fill="#19BECD"/>
<path d="M28.8648 21.7522H7.61395C7.61395 21.7522 7.70521 16.7608 12.5458 15.6499C17.3863 14.5389 16.9578 23.5177 22.5641 19.9032" fill="black"/>
<path d="M8.3797 3.9455C8.59396 3.70744 8.84789 3.54873 9.13356 3.44954C9.56207 3.29877 9.99851 3.16784 10.435 3.03294C10.8119 2.91788 11.1531 2.73933 11.4626 2.49333C11.9308 2.12037 12.4188 1.77122 12.9068 1.40619C12.1053 1.24352 11.2959 1.1602 10.4786 1.24749C10.2167 1.27526 9.95487 1.32684 9.70491 1.40222C8.73283 1.68393 8.09403 2.31875 7.78059 3.28289C7.76472 3.33447 7.74885 3.38606 7.73298 3.43764C7.73298 3.4416 7.72504 3.44558 7.71314 3.45351C7.64569 3.17974 7.59411 2.90597 7.50682 2.6441C7.14576 1.5768 6.45936 0.850721 5.31667 0.636467C4.83262 0.545211 4.34856 0.584886 3.86847 0.684077C3.05113 0.858655 2.30521 1.20781 1.53946 1.65219C1.86877 1.67599 2.15048 1.69187 2.43218 1.71964C2.7972 1.75535 3.15826 1.79899 3.52329 1.83867C4.43982 1.94183 5.23335 2.3386 5.97133 2.85836C6.32049 3.10039 6.59426 3.42176 6.80455 3.79075C6.83232 3.83836 6.85613 3.89392 6.90374 3.98518C6.80851 3.9336 6.75297 3.90185 6.69742 3.87011C5.82056 3.37019 4.90404 2.98135 3.89625 2.82661C2.3806 2.59649 1.18236 3.20751 0.495958 4.57635C0.265833 5.03264 0.107127 5.51272 0 6.02852C0.480087 5.80633 0.940338 5.58811 1.40852 5.38576C2.1346 5.06835 2.86466 4.75887 3.64232 4.59223C4.47553 4.41368 5.3127 4.42955 6.14591 4.61206C6.16575 4.61603 6.18559 4.62793 6.24113 4.65174C6.16178 4.68348 6.11417 4.70729 6.06259 4.72713C5.26906 5.02867 4.52313 5.40559 3.91608 6.01265C3.23761 6.68318 2.92813 7.48862 3.0551 8.44483C3.06304 8.51624 3.07891 8.58766 3.09874 8.68289C4.70168 8.08377 6.26891 7.46481 7.16957 5.85394C7.12593 10.3017 7.48301 14.686 8.60586 18.9829C8.29242 19.098 7.99088 19.1932 7.70124 19.3162C7.06641 19.5821 6.503 19.951 6.05862 20.4827C5.82056 20.7684 5.64995 21.0898 5.56663 21.4508C5.55473 21.5064 5.54679 21.5659 5.53489 21.6373H15.6167C15.577 21.4826 15.5493 21.3397 15.5017 21.2009C15.3231 20.7049 14.9938 20.32 14.5891 19.9947C13.994 19.5146 13.3115 19.2091 12.5815 19.0186C12.4307 18.979 12.3751 18.9195 12.3712 18.7528C12.3474 17.3324 12.4505 15.9318 12.887 14.5709C13.1211 13.8329 13.4504 13.1425 13.9384 12.5355C13.982 12.4799 14.0297 12.4284 14.105 12.3411C14.2042 12.5276 14.3074 12.6823 14.3709 12.8489C14.4621 13.0949 14.5336 13.3528 14.5891 13.6068C14.8232 14.6582 15.339 15.5866 15.8588 16.523C16.446 15.5549 16.5094 13.9956 14.9978 12.3847C15.0573 12.4006 15.093 12.4046 15.1247 12.4165C15.7953 12.6982 16.3706 13.1108 16.7237 13.7536C17.0689 14.3765 17.3704 15.0232 17.6878 15.662C17.7156 15.7215 17.7394 15.781 17.7751 15.8683C18.0211 15.1779 18.1917 14.5074 18.0687 13.8012C17.9457 13.0989 17.5331 12.6069 16.9181 12.2776C16.3864 11.9919 15.8072 11.8689 15.212 11.8054C15.1049 11.7935 14.9978 11.7856 14.8946 11.7578C15.5771 11.3849 16.3071 11.4523 17.0292 11.5634C17.7791 11.6785 18.402 12.0514 18.9337 12.6029C18.9337 12.5712 18.9416 12.5553 18.9337 12.5434C18.6123 12.0038 18.2513 11.4999 17.7751 11.0833C16.8626 10.2858 15.9341 10.2223 14.9105 10.8889C14.8867 10.9048 14.8629 10.9167 14.8034 10.9524C14.9819 10.6072 15.2319 10.4247 15.5612 10.3176C15.8627 10.2184 16.1484 10.0835 16.442 9.96048C16.5015 9.93667 16.5491 9.88906 16.6205 9.84541C16.2317 9.69067 15.8627 9.57958 15.466 9.57958C14.8311 9.57958 14.4145 9.92873 14.2479 10.5913C14.236 10.6469 14.2201 10.7024 14.2082 10.754C14.113 10.0954 13.863 9.528 13.3472 9.09949C12.9068 8.7305 12.391 8.53608 11.8276 8.42102C12.3037 9.40897 13.0774 10.1668 13.7281 11.0079C13.7003 11.0317 13.6765 11.0556 13.6488 11.0754C13.6131 11.0238 13.5853 10.9683 13.5416 10.9246C12.8076 10.1946 11.9308 10.0319 10.9785 10.4406C10.3834 10.6945 9.39543 11.4761 9.12563 11.8927C9.65333 11.7618 10.181 11.611 10.7206 11.4999C11.415 11.3531 12.1212 11.2579 12.8314 11.373C13.0774 11.4126 13.3195 11.5079 13.5615 11.5793C13.5575 11.5991 13.5496 11.615 13.5456 11.6348C13.3274 11.5952 13.1052 11.5396 12.883 11.5118C11.8435 11.3809 11.1214 11.8292 10.7762 12.8132C10.6214 13.2536 10.558 13.7099 10.5421 14.186C11.0182 13.8289 11.4745 13.4719 11.9427 13.1346C12.4109 12.7974 12.8989 12.4799 13.4464 12.2736C12.641 13.1584 12.0974 14.186 11.7364 15.3129C11.3793 16.4278 11.2245 17.5784 11.1888 18.7488C11.0182 18.7488 10.8674 18.7647 10.7246 18.7409C10.669 18.733 10.6095 18.6497 10.5778 18.5862C10.0461 17.5308 9.65333 16.4238 9.33195 15.293C8.79234 13.3885 8.43128 11.4483 8.21306 9.48435C8.07023 8.2028 7.98691 6.91331 7.87581 5.62778C7.87185 5.5762 7.87581 5.52066 7.87581 5.4175C9.03834 6.29435 9.6573 7.50053 10.2247 8.77415C10.435 8.27819 10.6056 7.79413 10.6532 7.27833C10.681 6.97679 10.6849 6.66335 10.6373 6.36577C10.5341 5.72698 10.1413 5.28656 9.56604 5.00883C9.46288 4.96122 9.35972 4.91757 9.25259 4.83822C9.33592 4.83425 9.41527 4.82235 9.49859 4.82235C10.4865 4.81441 11.4666 4.93344 12.4267 5.15563C13.4266 5.38575 14.4145 5.6635 15.4064 5.9214C15.4501 5.9333 15.4937 5.94519 15.5651 5.96107C14.7319 4.3621 13.502 3.37812 11.6729 3.27099C10.5976 3.20751 9.57398 3.45747 8.59 3.87011C8.53445 3.89392 8.4789 3.91773 8.42335 3.93757C8.41938 3.93757 8.41145 3.93756 8.38368 3.92962L8.3797 3.9455Z" fill="black"/>
<path d="M22.0007 23.1967C22.0007 23.1967 28.6346 22.1492 27.6863 19.352C26.7381 16.5548 24.2107 17.7213 24.2107 17.7213C24.2107 17.7213 28.7378 15.8565 30.3169 18.5386C31.896 21.2168 30.1066 22.8475 30.1066 22.8475L34.102 23.1213L21.9967 23.1967H22.0007Z" fill="#F4F4F4"/>
<path d="M16.2555 23.415C16.2555 23.415 20.8223 22.6929 20.1716 20.7686C19.5209 18.8443 17.7791 19.6457 17.7791 19.6457C17.7791 19.6457 20.8977 18.3642 21.9848 20.2052C23.0719 22.0501 21.838 23.173 21.838 23.173L24.5876 23.3634L16.2555 23.415Z" fill="#F4F4F4"/>
</svg>
