<svg width="66" height="322" viewBox="0 0 66 322" fill="none" xmlns="http://www.w3.org/2000/svg">
<path d="M31.64 244.327C31.64 244.327 23.64 171.447 0 138.977C0 138.977 3.80995 213.457 31.64 244.327Z" fill="#0E8047"/>
<path d="M51.08 260.437C51.08 260.437 44.22 133.067 19.82 80.3472C19.82 80.3472 8.37995 182.287 51.08 260.437Z" fill="#0E8047"/>
<path d="M65.69 251.737C65.69 251.737 78.47 77.5071 54.52 0.807129C54.52 0.807129 21.33 136.667 65.69 251.737Z" fill="#0E8047"/>
<path d="M49.76 321.897C28.33 321.897 10.95 304.517 10.95 283.087V223.217H88.57V283.087C88.57 304.517 71.19 321.897 49.76 321.897Z" fill="#CDCED0"/>
<path d="M60.16 321.897C38.73 321.897 21.35 304.517 21.35 283.087V223.217H98.97V283.087C98.97 304.517 81.59 321.897 60.16 321.897Z" fill="#E3E3E4"/>
<path d="M10.94 239.497H112.43" stroke="#CDCED0" stroke-width="2" stroke-miterlimit="10"/>
</svg>
