<svg width="30" height="30" viewBox="0 0 30 30" fill="none" xmlns="http://www.w3.org/2000/svg">
<path d="M5.8109 5.21173C5.8109 5.21173 2.35305 5.73782 1.17652 3.8152L0 1.89258C0 1.89258 5.58612 2.26084 5.8109 5.21173Z" fill="#955E25"/>
<path d="M8.13049 6.25108C8.13049 6.25108 4.92613 4.84499 4.96439 2.58758L4.99786 0.334961C4.99786 0.334961 9.51746 3.63498 8.13049 6.25108Z" fill="#955E25"/>
<path d="M9.54138 8.1784C9.54138 8.1784 6.38006 9.67536 4.70135 8.1784L3.02264 6.67665C3.02264 6.67665 8.47485 5.4236 9.54138 8.18318V8.1784Z" fill="#955E25"/>
<path d="M12.7601 11.3161C12.7601 11.3161 9.59874 12.8131 7.92004 11.3161L6.24133 9.81435C6.24133 9.81435 11.6935 8.56129 12.7601 11.3209V11.3161Z" fill="#955E25"/>
<path d="M10.6939 8.82035C10.6939 8.82035 8.09219 6.48164 8.82871 4.35337L9.56524 2.2251C9.56524 2.2251 12.827 6.77339 10.6939 8.82035Z" fill="#955E25"/>
<path d="M13.994 12.2867C13.994 12.2867 11.3922 9.94795 12.1288 7.81968L12.8653 5.69141C12.8653 5.69141 16.127 10.2397 13.994 12.2867Z" fill="#955E25"/>
<path d="M13.2048 27.8921C21.077 27.2512 28.1601 26.6247 27.7727 24.3434C27.4379 22.3634 24.5636 22.8034 24.5636 22.8034C24.5636 22.8034 30.671 21.2682 29.5567 18.9581C28.7054 17.1981 24.3627 19.4125 24.3627 19.4125C24.3627 19.4125 29.9632 15.7203 27.7584 13.4533C26.5292 12.1907 22.421 16.256 22.421 16.256C22.421 16.256 22.244 15.5051 20.9336 13.8694C18.7623 11.1624 17.2844 11.4925 16.6866 12.4681C16.0601 13.4916 17.2318 14.7973 18.2888 16.2703C19.0349 17.3034 17.6479 18.5755 17.6479 18.5755C16.6722 19.8142 15.0366 20.0247 14.5153 19.3264C13.1857 17.5425 16.7822 16.8203 15.4861 14.3525C15.357 14.1086 15.1514 13.9364 14.917 13.812C14.2379 13.4486 13.9748 13.9555 13.3531 14.4194C12.5496 15.0173 10.78 15.7968 10.0818 17.8055C8.58481 22.1147 9.28307 22.7651 9.54133 27.3278C9.80438 31.9717 7.74306 28.3369 13.2096 27.8969L13.2048 27.8921Z" fill="#010101"/>
<path d="M22.2297 27.663C21.1727 25.0373 19.8049 21.9669 18.2123 19.1642C11.9518 8.13547 5.40918 4.83545 5.40918 4.83545" stroke="#955E25" stroke-width="1.43" stroke-linecap="round" stroke-linejoin="round"/>
</svg>
