<svg width="104" height="38" viewBox="0 0 104 38" fill="none" xmlns="http://www.w3.org/2000/svg">
<path d="M18.3007 9.33002C17.2281 8.55862 16.082 7.98558 14.8992 7.64029C13.7091 7.28765 12.5703 7.10398 11.5271 7.10398C10.91 7.10398 10.6088 7.21418 10.4692 7.30234C10.2708 7.42723 10.2488 7.54478 10.2488 7.64763V7.71375C10.2488 7.78722 10.2708 7.85334 10.3149 7.91211C10.3369 7.94884 10.4104 8.037 10.6455 8.15455C10.8512 8.26475 11.1451 8.3676 11.5124 8.47046C11.9018 8.58066 12.4013 8.69086 13.0111 8.79371C14.5098 9.06554 15.9057 9.39614 17.1399 9.77816C17.9628 10.0353 18.7121 10.3365 19.388 10.6818L22.3708 6.55298C22.0402 6.29585 21.6949 6.06075 21.3496 5.83301L18.6534 9.56511L18.3081 9.31532L18.3007 9.33002Z" fill="#101820"/>
<path d="M22.5764 20.3419C22.0622 21.3778 21.3202 22.2668 20.3798 22.9794C19.4468 23.692 18.308 24.243 16.9783 24.625C15.6632 24.9997 14.1939 25.1907 12.5997 25.1907C10.1826 25.1907 7.89047 24.8528 5.79667 24.1842C4.31999 23.7141 2.9829 23.0675 1.77805 22.2668L0.587891 23.6847C2.07926 24.9997 3.85715 25.9842 5.92156 26.6454C7.98597 27.3066 10.2047 27.6298 12.5923 27.6298C14.1498 27.6298 15.5751 27.4462 16.8534 27.0788C18.1317 26.7115 19.219 26.1899 20.1153 25.5066C21.0042 24.8234 21.6948 23.9932 22.1871 23.0161C22.6793 22.039 22.9217 20.9297 22.9217 19.7028V19.6367C22.9217 19.5926 22.9217 19.5412 22.9217 19.4971C22.8189 19.7909 22.7013 20.0701 22.5691 20.3419H22.5764Z" fill="#101820"/>
<path d="M5.03262 15.5086C6.25951 16.4563 7.55987 17.1396 8.91166 17.5436C10.2708 17.955 11.6373 18.1607 12.967 18.1607C13.7604 18.1607 14.1278 18.0432 14.2968 17.9477C14.5245 17.8228 14.5539 17.6979 14.5539 17.5804V17.5142C14.5539 17.36 14.3996 17.2057 14.1057 17.0588C13.6796 16.853 12.8568 16.6253 11.652 16.3902C10.3222 16.1184 9.04389 15.8025 7.84639 15.4425C6.62684 15.0752 5.53219 14.5976 4.59917 14.0246C3.6441 13.4369 2.8727 12.6875 2.30701 11.8059C2.13069 11.5341 1.9911 11.2402 1.86621 10.9316C1.86621 11.0345 1.86621 11.1373 1.86621 11.2475V11.3137C1.86621 12.5626 2.13069 13.6058 2.667 14.4433C3.04902 15.0384 3.52655 15.5527 4.0849 16.0082L4.70937 15.2662L5.03262 15.516V15.5086Z" fill="#101820"/>
<path d="M91.0766 12.3494L97.9457 3.7832H96.1972L90.3052 11.1225L91.0766 12.3494Z" fill="#101820"/>
<path d="M63.9162 12.6286C63.9162 11.9894 63.806 11.3723 63.5929 10.7846C63.3798 10.1969 63.0713 9.67525 62.6819 9.2271C62.2999 8.7863 61.8297 8.42631 61.2787 8.16183C60.735 7.9047 60.1106 7.77246 59.42 7.77246C58.7294 7.77246 58.1417 7.9047 57.598 8.16183C57.047 8.42631 56.5768 8.77895 56.1948 9.21241C55.8054 9.64586 55.5116 10.1601 55.3059 10.7332C55.1002 11.3062 54.9973 11.9233 54.9973 12.5625V12.6286C54.9973 12.8123 55.0047 12.9886 55.0267 13.1649C55.2398 12.658 55.5189 12.2025 55.8789 11.7984C56.305 11.3209 56.8119 10.9315 57.4144 10.645C58.0168 10.3585 58.6853 10.2116 59.42 10.2116C60.1547 10.2116 60.8599 10.3585 61.4624 10.645C62.0648 10.9315 62.5791 11.3282 62.9978 11.8131C63.3652 12.2392 63.659 12.7241 63.8794 13.2604C63.8941 13.0767 63.9088 12.8931 63.9088 12.7021V12.6359L63.9162 12.6286Z" fill="#101820"/>
<path d="M30.2976 7.9707H23.8325V10.4098H30.2976V7.9707Z" fill="#101820"/>
<path d="M82.1946 24.7578H74.3704V27.1969H82.1946V24.7578Z" fill="#101820"/>
<path d="M88.5494 24.7586L84.1561 17.6396L82.6206 19.5057V21.7023L84.2001 19.7775L88.7844 27.1976H98.1147L96.5793 24.7586H88.5494Z" fill="#101820"/>
<path d="M45.4392 7.9707H38.9741V10.4098H45.4392V7.9707Z" fill="#101820"/>
<path d="M38.5481 24.7578H30.7239V27.1969H38.5481V24.7578Z" fill="#101820"/>
<path d="M71.6301 17.5656C70.9542 19.0937 70.0139 20.4382 68.8311 21.5769C67.6482 22.7156 66.2377 23.6193 64.6361 24.2731C63.0345 24.927 61.2787 25.2576 59.4273 25.2576C57.576 25.2576 55.8275 24.9343 54.2332 24.2878C52.639 23.6486 51.2358 22.7524 50.053 21.6283C48.8702 20.5043 47.9298 19.1598 47.2613 17.6317C47.0335 17.1028 46.8425 16.5591 46.6882 16.0008C46.7397 17.5289 47.0556 18.9762 47.6506 20.328C48.2971 21.812 49.1934 23.0977 50.3395 24.1923C51.4856 25.287 52.8374 26.1465 54.3875 26.771C55.9377 27.3954 57.6127 27.704 59.42 27.704C61.2273 27.704 62.9096 27.3881 64.4671 26.7489C66.0246 26.1171 67.3838 25.2429 68.5298 24.1409C69.6759 23.0389 70.5796 21.7459 71.2408 20.2618C71.8432 18.9027 72.1664 17.4481 72.2179 15.9053C72.0636 16.471 71.8652 17.0293 71.6301 17.5656Z" fill="#101820"/>
<path d="M20.409 11.2921C19.498 10.6823 18.396 10.1754 17.1397 9.78599C15.8982 9.40396 14.5096 9.07336 13.0109 8.80154C12.4012 8.69134 11.8942 8.58114 11.5122 8.47828C11.1449 8.37543 10.851 8.26523 10.6453 8.16238C10.4176 8.04483 10.3367 7.94932 10.3147 7.91994C10.2706 7.85382 10.2486 7.79504 10.2486 7.72158V7.65546C10.2486 7.5526 10.278 7.43506 10.469 7.31017C10.6086 7.22201 10.9098 7.11181 11.5269 7.11181C12.5775 7.11181 13.7089 7.28813 14.899 7.64811C16.0818 8.00075 17.2279 8.56644 18.3005 9.33784L18.6458 9.58763L22.9436 3.62949L22.6277 3.3797C21.2318 2.28505 19.6376 1.44753 17.8965 0.90388C16.1553 0.360228 14.1056 0.0810547 11.7987 0.0810547C10.1604 0.0810547 8.6764 0.286761 7.40543 0.705521C6.11976 1.12428 5.02511 1.71201 4.15086 2.46137C3.26926 3.21073 2.59337 4.10702 2.13053 5.11351C1.67504 6.12001 1.43994 7.22935 1.43994 8.39747V8.46359C1.43994 9.78599 1.73381 10.9174 2.30685 11.821C2.87254 12.71 3.64394 13.4593 4.59901 14.0397C5.53203 14.6127 6.61934 15.0903 7.84623 15.4576C9.04373 15.8176 10.3221 16.1335 11.6518 16.4053C12.8567 16.6404 13.6795 16.8682 14.1056 17.0739C14.4068 17.2208 14.5537 17.3751 14.5537 17.5294V17.5955C14.5537 17.713 14.5243 17.8379 14.2966 17.9628C14.1276 18.0583 13.7603 18.1759 12.9668 18.1759C11.6298 18.1759 10.2633 17.9702 8.9115 17.5588C7.55971 17.1547 6.25935 16.4641 5.03246 15.5237L4.70921 15.2739L0 20.8868L0.308558 21.1586C1.83666 22.5104 3.68802 23.5316 5.79651 24.2075C7.89031 24.876 10.1825 25.214 12.5995 25.214C14.1937 25.214 15.6704 25.023 16.9781 24.6483C18.3079 24.2663 19.4466 23.7152 20.3796 23.0026C21.32 22.2827 22.0547 21.4011 22.5763 20.3652C23.0979 19.3293 23.355 18.1538 23.355 16.8682V16.802C23.355 15.5531 23.0905 14.4658 22.5763 13.5769C22.0694 12.7026 21.3347 11.9386 20.409 11.3141V11.2921ZM22.5102 16.8461C22.5102 17.9996 22.2751 19.0501 21.8196 19.9685C21.3641 20.8868 20.7029 21.6729 19.8654 22.312C19.0205 22.9585 17.9699 23.4655 16.743 23.8108C15.5088 24.1634 14.1129 24.3471 12.5922 24.3471C10.2633 24.3471 8.05928 24.0238 6.0463 23.3773C4.19494 22.7896 2.55664 21.908 1.17546 20.7692L4.82675 16.4127C6.03895 17.2943 7.32462 17.9481 8.65436 18.3448C10.0943 18.7783 11.5416 18.9987 12.9595 18.9987C13.7529 18.9987 14.326 18.8958 14.708 18.6754C15.2737 18.3522 15.3912 17.8967 15.3912 17.5734V17.5073C15.3912 17.1547 15.2296 16.6625 14.4656 16.2878C13.966 16.0453 13.0991 15.8029 11.8061 15.5531C10.5057 15.2886 9.24944 14.9727 8.08132 14.6274C6.9279 14.2821 5.90671 13.834 5.03981 13.305C4.19494 12.7834 3.51905 12.1296 3.01948 11.3435C2.5346 10.5794 2.28481 9.60232 2.28481 8.44155V8.37543C2.28481 7.32486 2.49052 6.34041 2.90193 5.43677C3.306 4.54048 3.91577 3.74704 4.69451 3.07849C5.48061 2.4026 6.47975 1.86629 7.66256 1.48427C8.85272 1.10224 10.2412 0.90388 11.7987 0.90388C14.0174 0.90388 15.9863 1.16836 17.6393 1.68997C19.1527 2.16751 20.5486 2.86544 21.7828 3.78377L18.4548 8.39747C17.4042 7.69219 16.2949 7.16323 15.1488 6.81794C13.8778 6.44326 12.6656 6.25225 11.5343 6.25225C10.8657 6.25225 10.3735 6.36245 10.0208 6.58285C9.51392 6.9061 9.41107 7.33955 9.41107 7.64077V7.70689C9.41107 7.94933 9.47719 8.16972 9.61677 8.37543C9.74901 8.57379 9.95472 8.74276 10.2559 8.89704C10.5204 9.03663 10.8584 9.16152 11.2918 9.27907C11.7032 9.39662 12.2322 9.50682 12.8713 9.62436C14.3407 9.88884 15.6925 10.2121 16.8973 10.5794C18.0801 10.9468 19.1013 11.4169 19.9462 11.9826C20.769 12.5336 21.4082 13.2022 21.8563 13.9662C22.2971 14.7229 22.5175 15.6633 22.5175 16.7653V16.8314L22.5102 16.8461Z" fill="#101820"/>
<path d="M23.4138 7.97057H30.305V24.7577H38.9814V7.97057H45.8725V0.499023H23.4212V7.97057H23.4138ZM24.2587 1.35124H45.0203V7.12571H38.1292V23.9128H31.1498V7.12571H24.2587V1.35124Z" fill="#101820"/>
<path d="M68.8603 3.62925C67.6775 2.50521 66.2743 1.60892 64.6801 0.969758C63.0858 0.330599 61.3373 0 59.486 0C57.6346 0 55.8788 0.3306 54.2772 0.984452C52.6756 1.6383 51.2577 2.54194 50.0822 3.68067C48.8994 4.81941 47.9591 6.17119 47.2758 7.69195C46.5999 9.22005 46.2546 10.8804 46.2546 12.6289V12.695C46.2546 14.4435 46.5926 16.1039 47.2611 17.632C47.9297 19.1601 48.8627 20.5045 50.0529 21.6286C51.2357 22.7526 52.6389 23.6489 54.2331 24.288C55.8273 24.9272 57.5758 25.2578 59.4272 25.2578C61.2786 25.2578 63.0344 24.9272 64.636 24.2734C66.2375 23.6195 67.6481 22.7159 68.8309 21.5771C70.0137 20.4384 70.9541 19.0866 71.63 17.5659C72.3059 16.0378 72.6512 14.3774 72.6512 12.6289V12.5628C72.6512 10.8216 72.3132 9.16128 71.6447 7.62583C70.9761 6.09772 70.0358 4.75329 68.853 3.6219L68.8603 3.62925ZM71.8063 12.6289C71.8063 14.2525 71.4831 15.8027 70.8586 17.2206C70.2268 18.6458 69.3452 19.9021 68.2432 20.9674C67.1412 22.0253 65.8188 22.8775 64.3127 23.4873C62.8067 24.097 61.1684 24.4129 59.4198 24.4129C57.6713 24.4129 56.033 24.1117 54.5417 23.5093C53.0503 22.9069 51.7352 22.0694 50.6259 21.0188C49.5239 19.9682 48.6496 18.7193 48.0325 17.294C47.4154 15.8761 47.0995 14.326 47.0995 12.695V12.6289C47.0995 10.9979 47.4228 9.45515 48.0472 8.03724C48.679 6.61199 49.5606 5.34837 50.6626 4.29045C51.7646 3.23253 53.087 2.38032 54.5931 1.77054C56.0918 1.16077 57.7375 0.852212 59.486 0.852212C61.2345 0.852212 62.8654 1.15343 64.3641 1.75585C65.8555 2.35828 67.1706 3.1958 68.2799 4.24637C69.3819 5.29694 70.2562 6.54587 70.8733 7.97112C71.4904 9.39637 71.8063 10.9392 71.8063 12.5701V12.6362V12.6289Z" fill="#101820"/>
<path d="M63.3208 8.67675C62.8579 8.14779 62.2996 7.71434 61.6457 7.39843C60.9919 7.08253 60.2425 6.9209 59.4197 6.9209C58.5968 6.9209 57.8842 7.08253 57.2304 7.39843C56.5765 7.71434 56.0182 8.1331 55.5553 8.65471C55.0998 9.16898 54.7472 9.77875 54.5048 10.4473C54.2697 11.1158 54.1448 11.8285 54.1448 12.5631V12.6293C54.1448 13.3639 54.2697 14.0839 54.5195 14.7671C54.7692 15.4504 55.1292 16.0601 55.5847 16.5891C56.0476 17.1181 56.6059 17.5515 57.2598 17.8674C57.9136 18.1833 58.663 18.3449 59.4858 18.3449C60.3086 18.3449 61.0212 18.1833 61.6751 17.8674C62.329 17.5515 62.8873 17.1328 63.3501 16.6111C63.8056 16.0969 64.1583 15.4871 64.4007 14.8186C64.6358 14.15 64.7607 13.4374 64.7607 12.7027V12.6366C64.7607 11.9019 64.6358 11.182 64.386 10.4987C64.1362 9.81548 63.7762 9.20571 63.3208 8.67675ZM63.9158 12.6954C63.9158 13.3345 63.813 13.9517 63.6073 14.5247C63.4016 15.0977 63.1077 15.6046 62.7183 16.0454C62.3363 16.4789 61.8588 16.8315 61.3151 17.096C60.7715 17.3532 60.1617 17.4854 59.4931 17.4854C58.8246 17.4854 58.1781 17.3532 57.6344 17.096C57.0908 16.8315 56.6133 16.4716 56.2312 16.0308C55.8419 15.5826 55.5406 15.061 55.3202 14.4733C55.1072 13.8855 54.997 13.2684 54.997 12.6293V12.5631C54.997 11.924 55.0998 11.3069 55.3055 10.7338C55.5113 10.1608 55.8051 9.65386 56.1945 9.21306C56.5765 8.7796 57.0541 8.42696 57.5977 8.16248C58.1414 7.90535 58.7511 7.77311 59.4197 7.77311C60.0882 7.77311 60.7347 7.90535 61.2784 8.16248C61.822 8.42696 62.2996 8.78695 62.6816 9.22775C63.071 9.6759 63.3795 10.2049 63.5926 10.7852C63.8056 11.373 63.9158 11.9901 63.9158 12.6293V12.6954Z" fill="#101820"/>
<path d="M90.3051 11.1223L98.8272 0.499023H88.6374L82.6132 8.42607V0.499023H73.9368V24.7577H82.6132V19.5048L84.1486 17.6388L88.5419 24.7577H98.8787L90.3051 11.1223ZM84.2515 16.1841L81.7756 19.2036V23.9128H74.7963V1.35124H81.7756V10.946L89.0635 1.35124H97.064L89.2692 11.0635L97.3506 23.9128H89.0195L84.2515 16.1841Z" fill="#101820"/>
<path d="M22.5102 16.8462C22.5102 17.9996 22.2751 19.0502 21.8196 19.9685C21.3641 20.8869 20.703 21.673 19.8654 22.3121C19.0206 22.9586 17.97 23.4655 16.7431 23.8108C15.5089 24.1635 14.113 24.3471 12.5922 24.3471C10.2634 24.3471 8.05936 24.0239 6.04637 23.3774C4.19501 22.7897 2.55671 21.9081 1.17554 20.7693L4.82683 16.4128C6.03902 17.2944 7.32469 17.9482 8.65443 18.3449C10.0944 18.7784 11.5417 18.9988 12.9596 18.9988C13.753 18.9988 14.3261 18.8959 14.7081 18.6755C15.2738 18.3523 15.3913 17.8968 15.3913 17.5735V17.5074C15.3913 17.1548 15.2297 16.6625 14.4656 16.2879C13.9661 16.0454 13.0992 15.803 11.8062 15.5532C10.5058 15.2887 9.24951 14.9728 8.0814 14.6275C6.92797 14.2822 5.90679 13.8341 5.03988 13.3051C4.19501 12.7835 3.51912 12.1297 3.01955 11.3436C2.53467 10.5795 2.28488 9.60241 2.28488 8.44164V8.37552C2.28488 7.32494 2.49059 6.34049 2.902 5.43685C3.30607 4.54056 3.91584 3.74712 4.69459 3.07858C5.48068 2.40268 6.47982 1.86638 7.66264 1.48435C8.85279 1.10233 10.2413 0.903965 11.7988 0.903965C14.0175 0.903965 15.9864 1.16845 17.6394 1.69006C19.1528 2.16759 20.5487 2.86552 21.7829 3.78386L18.4549 8.39756C17.4043 7.69228 16.295 7.16332 15.1489 6.81802C13.8779 6.44334 12.6657 6.25233 11.5343 6.25233C10.8658 6.25233 10.3736 6.36253 10.0209 6.58293C9.51399 6.90618 9.41114 7.33964 9.41114 7.64085V7.70697C9.41114 7.94941 9.47726 8.16981 9.61685 8.37552C9.74909 8.57388 9.95479 8.74285 10.256 8.89713C10.5205 9.03671 10.8584 9.16161 11.2919 9.27915C11.7033 9.3967 12.2323 9.5069 12.8714 9.62445C14.3407 9.88893 15.6925 10.2122 16.8974 10.5795C18.0802 10.9468 19.1014 11.417 19.9462 11.9827C20.7691 12.5337 21.4082 13.2023 21.8564 13.9663C22.2972 14.723 22.5176 15.6634 22.5176 16.7654V16.8315L22.5102 16.8462ZM24.2587 1.35211H45.0204V7.12658H38.1292V23.9137H31.1499V7.12658H24.2587V1.35211ZM71.8063 12.6292C71.8063 14.2528 71.483 15.803 70.8586 17.2209C70.2268 18.6461 69.3452 19.9024 68.2432 20.9677C67.1412 22.0256 65.8188 22.8778 64.3127 23.4876C62.8066 24.0974 61.1683 24.4133 59.4198 24.4133C57.6713 24.4133 56.033 24.1121 54.5417 23.5096C53.0503 22.9072 51.7352 22.0697 50.6259 21.0191C49.5239 19.9685 48.6496 18.7196 48.0325 17.2944C47.4154 15.8765 47.0995 14.3263 47.0995 12.6953V12.6292C47.0995 10.9983 47.4227 9.45547 48.0472 8.03757C48.679 6.61232 49.5606 5.34869 50.6626 4.29077C51.7646 3.23286 53.087 2.38064 54.5931 1.77087C56.0918 1.1611 57.7375 0.852539 59.486 0.852539C61.2345 0.852539 62.8654 1.15375 64.3641 1.75618C65.8555 2.3586 67.1706 3.19612 68.2799 4.24669C69.3819 5.29727 70.2562 6.5462 70.8733 7.97145C71.4904 9.3967 71.8063 10.9395 71.8063 12.5705V12.6366V12.6292ZM63.3209 8.67673C62.8581 8.14777 62.2997 7.71432 61.6459 7.39841C60.992 7.0825 60.2427 6.92088 59.4198 6.92088C58.597 6.92088 57.8844 7.0825 57.2305 7.39841C56.5767 7.71432 56.0183 8.13308 55.5555 8.65469C55.1 9.16895 54.7474 9.77873 54.5049 10.4473C54.2698 11.1158 54.1449 11.8284 54.1449 12.5631V12.6292C54.1449 13.3639 54.2698 14.0839 54.5196 14.7671C54.7694 15.4503 55.1294 16.0601 55.5849 16.5891C56.0477 17.118 56.6061 17.5515 57.2599 17.8674C57.9138 18.1833 58.6631 18.3449 59.486 18.3449C60.3088 18.3449 61.0214 18.1833 61.6753 17.8674C62.3291 17.5515 62.8875 17.1327 63.3503 16.6111C63.8058 16.0969 64.1584 15.4871 64.4009 14.8185C64.636 14.15 64.7609 13.4374 64.7609 12.7027V12.6366C64.7609 11.9019 64.636 11.1819 64.3862 10.4987C64.1364 9.81546 63.7764 9.20569 63.3209 8.67673ZM84.2515 16.185L81.7757 19.2045V23.9137H74.7964V1.35211H81.7757V10.9468L89.0636 1.35211H97.0641L89.2693 11.0644L97.3506 23.9137H89.0195L84.2515 16.185Z" fill="white"/>
<path d="M7.5965 31.7158L8.41198 33.3835L10.2486 33.648L8.92624 34.9483L9.2348 36.7703L7.5965 35.9108L5.95085 36.7703L6.26675 34.9483L4.93701 33.648L6.77368 33.3835L7.5965 31.7158Z" fill="#101820"/>
<path d="M91.2894 31.7158L92.1122 33.3835L93.9489 33.648L92.6191 34.9483L92.9277 36.7703L91.2894 35.9108L89.6437 36.7703L89.9596 34.9483L88.6299 33.648L90.4665 33.3835L91.2894 31.7158Z" fill="#101820"/>
<path d="M15.9348 31.7744H17.1617V36.2412H19.9387V37.3505H15.9348V31.7744Z" fill="#101820"/>
<path d="M21.239 31.7744H22.4659V37.3505H21.239V31.7744Z" fill="#101820"/>
<path d="M23.7002 31.7744H25.052L26.5066 35.6975L27.9613 31.7744H29.2837L27.0283 37.3873H25.9483L23.6929 31.7744H23.7002Z" fill="#101820"/>
<path d="M30.4666 31.7744H34.6615V32.8691H31.6788V34.0005H34.3089V35.0951H31.6788V36.2632H34.7056V37.3505H30.4666V31.7744Z" fill="#101820"/>
<path d="M40.1202 32.9058H38.4231V31.7744H43.0441V32.9058H41.3471V37.3505H40.1202V32.9058Z" fill="#101820"/>
<path d="M44.3003 31.7744H45.5272V33.9784H47.79V31.7744H49.0168V37.3505H47.79V35.1171H45.5272V37.3505H44.3003V31.7744Z" fill="#101820"/>
<path d="M50.6699 31.7744H54.8649V32.8691H51.8821V34.0005H54.5122V35.0951H51.8821V36.2632H54.9089V37.3505H50.6699V31.7744Z" fill="#101820"/>
<path d="M61.6384 37.4458C61.227 37.4458 60.8523 37.3724 60.4996 37.2254C60.147 37.0785 59.8458 36.8728 59.5886 36.6157C59.3315 36.3585 59.1332 36.0573 58.9936 35.7047C58.8466 35.352 58.7805 34.9774 58.7805 34.5806V34.5659C58.7805 34.1692 58.854 33.7945 58.9936 33.4493C59.1332 33.104 59.3389 32.7954 59.5886 32.5309C59.8384 32.2664 60.147 32.0607 60.507 31.9065C60.8596 31.7522 61.2563 31.6787 61.6824 31.6787C61.9396 31.6787 62.182 31.7008 62.3951 31.7448C62.6081 31.7889 62.8065 31.8477 62.9828 31.9212C63.1591 31.9946 63.3207 32.0828 63.4677 32.193C63.6146 32.3032 63.7542 32.4134 63.8791 32.5456L63.1003 33.4419C62.88 33.2435 62.6595 33.0893 62.4318 32.9791C62.2041 32.8689 61.9543 32.8101 61.6678 32.8101C61.4327 32.8101 61.2196 32.8542 61.0212 32.9423C60.8229 33.0305 60.6539 33.1554 60.507 33.317C60.36 33.4786 60.2498 33.6623 60.169 33.868C60.0882 34.0811 60.0515 34.3015 60.0515 34.5439V34.5586C60.0515 34.801 60.0882 35.0214 60.169 35.2345C60.2498 35.4475 60.36 35.6312 60.4996 35.7928C60.6392 35.9545 60.8082 36.0794 61.0066 36.1675C61.2049 36.263 61.4253 36.3071 61.6604 36.3071C61.9763 36.3071 62.2481 36.2483 62.4685 36.1308C62.6889 36.0132 62.9093 35.8516 63.1224 35.6533L63.9011 36.4393C63.7542 36.5936 63.6073 36.7332 63.453 36.8508C63.2987 36.9757 63.1297 37.0785 62.9461 37.1667C62.7624 37.2548 62.564 37.3209 62.3436 37.365C62.1232 37.4091 61.8808 37.4311 61.609 37.4311L61.6384 37.4458Z" fill="#101820"/>
<path d="M65.2236 31.7744H66.4505V33.9784H68.7133V31.7744H69.9402V37.3505H68.7133V35.1171H66.4505V37.3505H65.2236V31.7744Z" fill="#101820"/>
<path d="M71.6445 31.7744H72.8714V37.3505H71.6445V31.7744Z" fill="#101820"/>
<path d="M74.5833 31.7744H75.8101V36.2412H78.5872V37.3505H74.5833V31.7744Z" fill="#101820"/>
<path d="M79.8286 31.7744H81.0555V36.2412H83.8325V37.3505H79.8286V31.7744Z" fill="#101820"/>
<path d="M100.458 3.14455V1.21973H101.31C101.479 1.21973 101.611 1.23442 101.7 1.27115C101.788 1.30054 101.861 1.36666 101.913 1.45482C101.964 1.54298 101.994 1.63849 101.994 1.74869C101.994 1.88827 101.949 1.99847 101.861 2.09398C101.773 2.18948 101.634 2.24826 101.45 2.2703C101.516 2.29968 101.567 2.33642 101.604 2.36581C101.678 2.43193 101.751 2.52009 101.817 2.62294L102.148 3.14455H101.825L101.567 2.74783C101.494 2.63029 101.435 2.54213 101.384 2.48335C101.332 2.42458 101.288 2.3805 101.251 2.35111C101.215 2.32907 101.178 2.31438 101.141 2.29969C101.112 2.29969 101.06 2.29234 100.994 2.29234H100.7V3.14455H100.443H100.458ZM100.715 2.07194H101.266C101.376 2.07194 101.472 2.05725 101.538 2.03521C101.604 2.01317 101.648 1.97643 101.692 1.92501C101.722 1.87358 101.744 1.81481 101.744 1.74869C101.744 1.66053 101.714 1.58706 101.641 1.52094C101.575 1.46217 101.472 1.43278 101.332 1.43278H100.723V2.07194H100.715Z" fill="#101820" stroke="#101820" stroke-width="0.25" stroke-miterlimit="10"/>
<path d="M103 2.18927C103 3.12229 102.243 3.88634 101.303 3.88634C100.363 3.88634 99.606 3.12964 99.606 2.18927C99.606 1.24889 100.363 0.492188 101.303 0.492188C102.243 0.492188 103 1.24889 103 2.18927Z" stroke="#101820" stroke-width="0.26"/>
</svg>
