<svg width="23" height="23" viewBox="0 0 23 23" fill="none" xmlns="http://www.w3.org/2000/svg">
<path fill-rule="evenodd" clip-rule="evenodd" d="M22.7203 14.8V7.82996C22.7203 3.61996 19.3003 0.199951 15.0903 0.199951H8.12024C3.91024 0.199951 0.490234 3.61996 0.490234 7.82996V14.8C0.490234 19.01 3.91024 22.4299 8.12024 22.4299H15.0903C19.3003 22.4299 22.7203 19.01 22.7203 14.8ZM6.74023 8.25006H8.89026V15.16H6.74023V8.25006ZM7.82025 4.81006C8.51025 4.81006 9.07025 5.37006 9.07025 6.06006C9.07025 6.75006 8.51025 7.31006 7.82025 7.31006C7.13025 7.31006 6.57025 6.75006 6.57025 6.06006C6.57025 5.37006 7.13025 4.81006 7.82025 4.81006ZM12.3002 8.25008H10.2402V15.1601H12.3802V11.7401C12.3802 10.8401 12.5702 9.96007 13.6702 9.96007C14.7702 9.96007 14.7902 11.0001 14.7902 11.8001V15.1601H16.9302V11.3701C16.9302 9.52007 16.5302 8.08008 14.3602 8.08008C13.3202 8.08008 12.6203 8.65007 12.3303 9.20007H12.3002V8.25008Z" fill="white"/>
</svg>
