<svg width="168" height="261" viewBox="0 0 168 261" fill="none" xmlns="http://www.w3.org/2000/svg">
<rect width="168" height="261" fill="#1E1E1E"/>
<g clip-path="url(#clip0_51_93)">
<rect width="1366" height="4696" transform="translate(-904 -1519)" fill="#FF5124"/>
<g style="mix-blend-mode:luminosity" opacity="0.5">
<path d="M43.8267 18.5367C49.6443 15.1756 63.8977 7.16626 83.7628 6.82059C101.672 6.50434 115.042 12.5793 123.228 16.2935C128.899 18.8676 134.981 21.6845 141.615 27.3256C152.184 36.3204 157.457 46.7861 160.002 53.0671C160.245 119.752 160.495 186.43 160.737 253.115C109.747 254.094 58.7494 255.079 7.75915 256.057C7.51645 190.358 7.26638 124.651 7.02368 58.9508C10.9952 50.5812 21.5345 31.4148 43.8267 18.5367Z" fill="#63B39F"/>
<mask id="mask0_51_93" style="mask-type:luminance" maskUnits="userSpaceOnUse" x="1" y="73" width="161" height="185">
<path d="M1.91953 73.4543H161.686V257.528H1.91953V73.4543Z" fill="white"/>
</mask>
<g mask="url(#mask0_51_93)">
<g opacity="0.54">
<path d="M78.9901 254.601C75.0186 252.733 70.7749 250.806 66.4503 248.916C62.1257 247.018 57.7276 245.158 53.3736 243.393C51.1966 242.517 49.027 241.657 46.85 240.848C44.673 240.031 42.496 239.252 40.2675 238.538C38.039 237.825 35.7444 237.178 33.332 236.663C30.9197 236.148 28.3676 235.773 25.6684 235.597C26.6834 232.993 28.5809 230.492 31.1109 228.44C33.6409 226.374 36.7814 224.763 40.1719 223.682C43.5698 222.593 47.203 222.034 50.8583 221.902C54.5136 221.77 58.1983 222.071 61.7801 222.682C68.9656 223.903 75.7614 226.352 81.807 229.198C87.8599 232.044 93.1921 235.288 97.6637 238.208C100.539 240.252 103.503 242.562 106.35 245.15C109.189 247.739 111.917 250.608 114.285 253.726C116.654 256.837 118.676 260.22 120.059 263.721C120.75 265.471 121.272 267.259 121.589 269.031C121.905 270.804 122.008 272.561 121.846 274.231C121.846 274.246 119.985 272.436 116.757 270.289C115.146 269.208 113.19 268.046 111.013 266.891C108.836 265.736 106.438 264.596 103.945 263.53C98.9655 261.382 93.626 259.536 89.0955 258.095C84.5576 256.638 80.8361 255.55 78.9901 254.609V254.601Z" fill="#00A07F"/>
<path d="M99.8485 255.565C94.7516 251.968 88.4781 248.011 81.6455 244.238C74.813 240.465 67.4436 236.869 60.0521 233.876C61.5598 233.545 64.1486 233.714 67.3185 234.383C70.4958 235.052 74.2467 236.244 78.1079 237.825C81.9691 239.399 85.9407 241.363 89.6328 243.451C93.3175 245.54 96.7301 247.739 99.5616 249.703C103.357 252.395 107.534 255.712 111.395 259.602C113.33 261.551 115.176 263.64 116.823 265.854C118.471 268.068 119.919 270.406 120.993 272.804C120.993 272.804 120.162 271.745 118.706 270.223C117.257 268.693 115.168 266.736 112.8 264.81C110.439 262.875 107.821 260.978 105.475 259.367C103.129 257.756 101.062 256.425 99.8411 255.55L99.8485 255.565Z" fill="#00716D"/>
<path d="M93.7214 232.199C91.618 227.859 89.4262 223.219 87.2713 218.416C86.1975 216.018 85.1311 213.577 84.1014 211.113L83.7116 210.186L83.616 209.951L83.5939 209.892L83.5792 209.862L83.5498 209.811L83.4469 209.598C83.3733 209.451 83.3218 209.333 83.263 209.193C83.2262 209.09 83.1968 209.024 83.1674 208.936C82.9173 208.281 82.682 207.634 82.4466 206.979C81.9833 205.685 81.542 204.398 81.1228 203.118C79.4459 197.999 78.0706 192.969 76.8497 188.026C76.2319 185.555 75.6582 183.099 74.9889 180.635C74.658 179.399 74.2976 178.164 73.8637 176.913C73.4297 175.663 72.9222 174.398 72.2456 173.118C73.746 172.993 75.3272 173.148 76.8791 173.486C78.4383 173.832 79.9754 174.376 81.4684 175.06C84.4545 176.428 87.2345 178.347 89.7793 180.561C92.3314 182.782 94.6554 185.312 96.7809 188.012C98.9065 190.703 100.841 193.579 102.599 196.447L103.253 197.521L103.415 197.786L103.496 197.918L103.533 197.985C103.533 197.985 103.54 197.999 103.547 198.007L103.569 198.036C103.569 198.036 103.569 198.036 103.577 198.036L103.584 198.051L103.628 198.117L103.716 198.257C104.18 198.992 104.636 199.728 105.077 200.478C105.967 201.971 106.82 203.479 107.637 205.001C109.269 208.038 110.755 211.113 112.101 214.136C114.8 220.181 116.955 226.013 118.772 231.015C120.912 237.715 122.92 245.378 123.795 253.057C124.67 260.735 124.427 268.406 122.272 275.062C122.272 275.069 116.492 265.883 109.843 256.153C106.526 251.284 102.996 246.283 100.024 242.032C97.0531 237.774 94.6554 234.265 93.7287 232.184L93.7214 232.199Z" fill="#00A07F"/>
<path d="M110.49 246.695C108.159 240.532 105.327 233.273 102.282 225.683C100.76 221.888 99.1787 218.004 97.5974 214.114L95.2292 208.289L94.0598 205.391L93.4788 203.95C93.4347 203.839 93.3905 203.722 93.3464 203.604L93.214 203.243L92.9566 202.515C93.1184 202.633 93.2802 202.773 93.4494 202.927C93.5303 203.001 93.6185 203.089 93.7068 203.17L93.9642 203.427C94.0525 203.516 94.1334 203.582 94.229 203.685L94.5158 203.994C94.7144 204.207 94.913 204.428 95.1189 204.67C95.9426 205.634 96.8399 206.833 97.7666 208.215C99.6347 210.973 101.65 214.474 103.599 218.299C105.548 222.123 107.431 226.271 109.115 230.302C110.799 234.332 112.285 238.237 113.513 241.569C115.124 246.092 116.83 251.292 118.294 256.749C119.765 262.206 121 267.914 121.765 273.4C121.765 273.4 119.632 268.134 117.095 262.199C115.83 259.228 114.454 256.095 113.256 253.329C112.057 250.571 111.02 248.188 110.468 246.703L110.49 246.695Z" fill="#00716D"/>
<path d="M108.718 226.197C108.931 221.145 109.556 215.68 110.902 210.098C111.579 207.31 112.439 204.501 113.521 201.728C114.602 198.963 115.911 196.234 117.477 193.645C119.044 191.064 120.861 188.607 122.927 186.438C124.994 184.268 127.303 182.378 129.767 180.922C132.224 179.466 134.827 178.451 137.387 177.95C139.953 177.45 142.483 177.472 144.808 177.965C144.05 180.304 143.322 182.518 142.645 184.665C141.961 186.813 141.329 188.894 140.696 191.012C140.064 193.131 139.439 195.293 138.806 197.565C138.174 199.838 137.541 202.228 136.931 204.714C135.71 209.686 134.585 215.084 133.695 220.409C132.797 225.727 132.128 230.941 131.775 235.494C131.017 241.488 130.326 248.409 128.973 255.3C128.296 258.742 127.443 262.177 126.31 265.472C125.178 268.759 123.751 271.9 121.92 274.702L119.684 268.612C118.331 264.905 116.485 259.867 114.719 254.454C112.954 249.041 111.285 243.231 110.189 238.105C109.078 232.993 108.541 228.573 108.725 226.19L108.718 226.197Z" fill="#00A07F"/>
<path d="M118.308 246.004C118.169 239.752 118.323 232.302 119.382 224.572C119.912 220.711 120.669 216.791 121.728 212.966C122.795 209.142 124.17 205.42 125.876 202.023C126.119 203.486 125.898 205.876 125.553 208.862C125.2 211.856 124.729 215.467 124.324 219.336C123.92 223.212 123.574 227.345 123.346 231.338C123.111 235.325 122.986 239.171 122.949 242.451C122.839 246.872 122.809 251.939 122.706 257.198C122.596 262.449 122.42 267.906 121.868 273.077L121.324 269.708C120.993 267.649 120.537 264.839 120.088 261.839C119.632 258.838 119.191 255.638 118.867 252.807C118.544 249.975 118.338 247.519 118.323 246.011L118.308 246.004Z" fill="#00716D"/>
<path d="M133.945 233.28C136.761 229.919 140.115 226.558 143.954 223.564C145.874 222.071 147.911 220.667 150.044 219.402L150.243 219.284L150.294 219.254L150.331 219.232H150.36C150.404 219.232 150.434 219.232 150.485 219.21C150.485 219.21 150.522 219.196 150.551 219.181L150.632 219.137L150.794 219.041L151.132 218.843L152.567 217.997C153.567 217.423 154.604 216.835 155.685 216.283C157.84 215.173 160.142 214.172 162.554 213.4C164.967 212.635 167.511 212.084 170.122 211.966C171.424 211.907 172.741 211.959 174.035 212.165C175.337 212.37 176.55 212.753 177.632 213.327C178.168 213.613 178.676 213.952 179.139 214.334C179.603 214.717 180.022 215.158 180.397 215.621C181.14 216.555 181.677 217.644 182 218.754C181.265 219.071 180.551 219.497 179.912 220.019C179.272 220.542 178.713 221.159 178.264 221.784C178.043 222.093 177.837 222.417 177.668 222.719C177.58 222.88 177.507 223.027 177.418 223.182C177.33 223.336 177.242 223.498 177.146 223.653C176.771 224.285 176.315 224.954 175.808 225.646C174.785 227.036 173.535 228.551 172.13 230.139C171.424 230.934 170.681 231.75 169.894 232.589C169.107 233.427 168.284 234.28 167.372 235.177C166.916 235.626 166.438 236.089 165.886 236.597L165.585 236.869C165.474 236.972 165.357 237.068 165.246 237.163L164.981 237.384L164.82 237.524L164.165 238.083L161.569 240.304C159.833 241.789 158.112 243.282 156.443 244.775C153.111 247.754 150 250.733 147.499 253.483C143.976 256.94 140.093 261.044 135.813 264.935C131.517 268.825 126.818 272.517 121.331 275.092C121.331 275.092 121.471 272.907 121.905 269.502C122.331 266.097 123.089 261.463 124.28 256.602C124.869 254.175 125.567 251.689 126.347 249.284C127.127 246.879 127.98 244.547 128.87 242.422C130.642 238.178 132.554 234.788 133.952 233.243L133.945 233.28Z" fill="#00A07F"/>
<path d="M131.422 252.682C134.415 248.269 138.372 243.282 143.167 238.708C145.558 236.42 148.154 234.243 150.89 232.287C152.258 231.309 153.662 230.39 155.097 229.536C155.81 229.11 156.531 228.705 157.252 228.315L157.803 228.021L158.347 227.705L159.421 227.095C159.311 227.404 159.156 227.742 158.943 228.102C158.892 228.19 158.833 228.286 158.774 228.382C158.715 228.477 158.656 228.573 158.575 228.676C158.502 228.779 158.428 228.882 158.34 228.985L158.112 229.279C157.502 230.051 156.737 230.912 155.869 231.846C154.126 233.706 151.949 235.883 149.676 238.244C147.404 240.605 145.035 243.157 142.836 245.695C140.637 248.225 138.607 250.733 136.96 252.924C134.68 255.852 132.194 259.286 129.649 262.897C127.105 266.509 124.508 270.289 121.919 273.885C121.919 273.885 123.28 269.583 125.273 264.802C126.266 262.412 127.413 259.904 128.517 257.734C129.62 255.572 130.672 253.748 131.407 252.689L131.422 252.682Z" fill="#00A07F"/>
<path d="M85.3519 278.864C82.0349 278.563 78.5414 278.188 75.0847 277.746C71.6279 277.305 68.2007 276.783 64.994 276.239L60.3385 275.43C59.5883 275.297 58.8528 275.18 58.11 275.069C57.3672 274.966 56.6317 274.871 55.8668 274.834C54.315 274.768 52.5498 275.025 50.8288 275.724C50.4022 275.9 49.9683 276.099 49.5491 276.327C49.1299 276.555 48.718 276.805 48.2841 277.077C47.8575 277.349 47.4309 277.643 47.0117 277.96C46.7984 278.122 46.5851 278.283 46.3792 278.453L46.0629 278.71L45.7614 278.982C45.6658 278.842 45.5628 278.71 45.4672 278.57C45.379 278.43 45.2907 278.291 45.2025 278.144C45.0333 277.857 44.8788 277.555 44.7317 277.246C44.4449 276.629 44.2096 275.974 44.0331 275.29C43.68 273.922 43.5697 272.436 43.7536 270.914C43.9301 269.391 44.4008 267.84 45.1583 266.347C45.5334 265.604 45.982 264.868 46.4969 264.162C47.0043 263.456 47.6001 262.772 48.2179 262.132C49.4608 260.86 50.8288 259.771 52.2409 258.852C53.653 257.933 55.1092 257.183 56.5655 256.557C59.4927 255.307 62.4346 254.564 65.3029 254.108C68.1786 253.66 70.9881 253.513 73.702 253.549C76.4159 253.586 79.0415 253.807 81.5421 254.13C86.5433 254.778 91.0738 255.815 94.9203 256.712C99.951 258.168 105.489 260.169 110.498 263.169C112.998 264.67 115.374 266.413 117.448 268.45C118.485 269.472 119.448 270.561 120.294 271.73C121.14 272.9 121.89 274.157 122.398 275.474C122.398 275.474 121.905 275.444 121.03 275.437C120.154 275.437 118.904 275.459 117.374 275.54C114.329 275.694 110.203 276.077 105.938 276.584C101.672 277.085 97.2591 277.717 93.5671 278.217C89.875 278.71 86.9037 279.07 85.3445 278.857L85.3519 278.864Z" fill="#00A07F"/>
</g>
<g opacity="0.54">
<path d="M9.49563 235.295C8.07617 232.125 6.52433 228.779 4.89893 225.418C3.28089 222.049 1.60403 218.666 -0.102268 215.364C-0.955414 213.716 -1.81592 212.084 -2.70584 210.473C-3.59576 208.862 -4.5004 207.274 -5.47123 205.692C-6.44205 204.119 -7.4864 202.545 -8.67051 200.993C-9.85462 199.441 -11.1932 197.896 -12.723 196.403C-10.7666 195.366 -8.33955 194.837 -5.75069 194.91C-3.16183 194.977 -0.440586 195.624 2.14828 196.72C4.75184 197.816 7.22304 199.353 9.48829 201.155C11.7535 202.964 13.8128 205.038 15.6515 207.252C19.3362 211.687 22.1531 216.658 24.3154 221.483C26.485 226.315 28.0075 231.007 29.1842 235.067C29.8609 237.774 30.4419 240.694 30.817 243.709C31.1847 246.724 31.3392 249.858 31.1553 252.954C30.9714 256.05 30.4345 259.117 29.4564 261.934C28.9636 263.339 28.3605 264.685 27.6324 265.913C26.9043 267.141 26.0585 268.252 25.1023 269.171C25.095 269.171 24.9111 267.134 24.0801 264.177C23.6682 262.699 23.1019 260.993 22.3885 259.176C21.675 257.359 20.8219 255.44 19.8805 253.513C17.9977 249.652 15.7471 245.798 13.7687 242.591C11.7977 239.377 10.1208 236.803 9.50299 235.288L9.49563 235.295Z" fill="#00A07F"/>
<path d="M21.5282 246.622C20.322 241.834 18.601 236.222 16.446 230.434C14.2911 224.646 11.7243 218.688 8.8339 213.077C9.91505 213.658 11.3786 215.085 12.9378 217.129C14.497 219.166 16.1371 221.821 17.6449 224.756C19.1526 227.69 20.5206 230.919 21.6605 234.074C22.8005 237.23 23.7051 240.304 24.3965 242.944C25.2864 246.519 26.0807 250.659 26.3896 254.991C26.5441 257.153 26.5735 259.367 26.419 261.544C26.2646 263.721 25.9263 265.876 25.3305 267.869C25.3305 267.869 25.3747 266.803 25.2938 265.141C25.2129 263.479 24.9702 261.221 24.5436 258.845C24.1244 256.47 23.536 253.976 22.955 251.799C22.3813 249.622 21.8223 247.762 21.5429 246.607L21.5282 246.622Z" fill="#00716D"/>
<path d="M29.9268 229.426C30.905 225.734 31.9861 221.814 33.1702 217.828C33.766 215.835 34.3911 213.82 35.0384 211.804L35.2884 211.047L35.3546 210.856L35.3693 210.812V210.789L35.3914 210.745L35.4429 210.561C35.4723 210.436 35.509 210.333 35.5385 210.223C35.5679 210.142 35.59 210.091 35.612 210.017C35.8032 209.495 35.9945 208.98 36.1857 208.473C36.5755 207.458 36.9726 206.458 37.3845 205.472C39.0173 201.53 40.7971 197.801 42.6211 194.205C43.5257 192.403 44.4524 190.63 45.3203 188.806C45.7542 187.894 46.1807 186.968 46.5705 185.989C46.953 185.011 47.306 183.996 47.5561 182.878C48.5195 183.577 49.3948 184.482 50.1523 185.489C50.9098 186.497 51.5571 187.622 52.0939 188.799C53.1751 191.16 53.8591 193.741 54.2415 196.389C54.624 199.037 54.7122 201.758 54.5945 204.472C54.4769 207.186 54.1533 209.907 53.734 212.54L53.5722 213.518L53.5281 213.761L53.506 213.878V213.937C53.506 213.937 53.4913 213.952 53.4913 213.959V213.989V214.003V214.07L53.4619 214.195C53.3589 214.879 53.2486 215.555 53.131 216.232C52.8956 217.585 52.6235 218.931 52.3293 220.27C51.7409 222.932 51.0422 225.543 50.292 228.058C48.7917 233.082 47.0707 237.7 45.5777 241.635C43.4007 246.761 40.65 252.402 37.2006 257.47C33.7586 262.537 29.6473 267.016 24.9109 269.907C24.9036 269.907 26.1833 261.412 27.2129 252.145C27.7351 247.512 28.1985 242.687 28.6103 238.605C29.0296 234.516 29.4046 231.169 29.9195 229.448L29.9268 229.426Z" fill="#00A07F"/>
<path d="M32.5086 246.784C34.2884 241.878 36.3404 236.061 38.4365 229.927C39.4882 226.86 40.5399 223.712 41.599 220.564L43.1876 215.843L43.9819 213.496L44.3791 212.334C44.4085 212.246 44.4453 212.15 44.4821 212.062L44.5924 211.775L44.813 211.202C44.8498 211.356 44.8719 211.525 44.8939 211.702C44.9086 211.79 44.916 211.886 44.9233 211.981L44.9454 212.268C44.9528 212.364 44.9675 212.445 44.9748 212.562L44.9895 212.893C44.9969 213.121 45.0042 213.364 45.0042 213.614C45.0042 214.622 44.916 215.798 44.7615 217.108C44.4526 219.726 43.8569 222.866 43.0552 226.169C42.2536 229.471 41.2386 232.935 40.1722 236.222C39.0984 239.51 37.9731 242.621 36.9876 245.261C35.6196 248.806 33.9501 252.807 32.0158 256.845C30.0815 260.883 27.8677 264.943 25.4922 268.642C25.4922 268.642 26.9337 264.376 28.4782 259.5C29.2504 257.066 30.0521 254.47 30.7508 252.197C31.4568 249.924 32.0673 247.961 32.5012 246.784H32.5086Z" fill="#00716D"/>
<path d="M42.0401 233.552C44.7835 230.633 47.9828 227.661 51.6748 225.006C53.5209 223.682 55.4919 222.432 57.5733 221.329C59.6547 220.226 61.8464 219.262 64.1264 218.512C66.399 217.762 68.7599 217.232 71.1281 216.99C73.4889 216.747 75.8571 216.806 78.0856 217.203C80.3141 217.593 82.4029 218.321 84.2048 219.343C86.0067 220.365 87.5144 221.682 88.6544 223.175C86.9922 224.19 85.4109 225.146 83.8959 226.087C82.3734 227.029 80.9172 227.948 79.4463 228.897C77.9753 229.846 76.475 230.816 74.9231 231.861C73.3639 232.898 71.7532 234.008 70.0984 235.192C66.7961 237.553 63.3247 240.216 60.0445 242.952C56.7569 245.688 53.6606 248.475 51.0938 251.027C47.5415 254.241 43.5479 258.036 39.1718 261.486C36.9875 263.207 34.7001 264.832 32.3172 266.222C29.9343 267.612 27.4557 268.767 24.9037 269.502L26.7055 264.692C27.8088 261.765 29.3018 257.794 31.0448 253.631C32.7806 249.468 34.781 245.121 36.7668 241.473C38.7452 237.833 40.7016 234.898 42.0475 233.56L42.0401 233.552Z" fill="#00A07F"/>
<path d="M37.5613 250.395C40.7091 246.563 44.6512 242.172 49.2847 238.068C51.5941 236.024 54.08 234.053 56.6982 232.309C59.3092 230.559 62.0599 229.037 64.8473 227.875C64.2368 228.882 62.8689 230.199 61.1184 231.817C59.3607 233.435 57.2057 235.354 54.9625 237.48C52.712 239.598 50.3732 241.907 48.1741 244.187C45.9751 246.467 43.9084 248.71 42.1948 250.652C39.8413 253.256 37.2082 256.278 34.4282 259.382C31.6481 262.479 28.7209 265.67 25.7128 268.487L27.1323 266.185C28.0001 264.773 29.1769 262.854 30.4566 260.816C31.7363 258.779 33.119 256.624 34.3914 254.756C35.6564 252.888 36.8111 251.307 37.576 250.395H37.5613Z" fill="#00716D"/>
<path d="M53.5356 250.799C56.9629 250.233 60.7211 249.939 64.5676 250.115C66.4946 250.203 68.4436 250.409 70.3779 250.755L70.5617 250.784H70.6059L70.6353 250.799L70.6573 250.814C70.6573 250.814 70.7015 250.851 70.7456 250.873C70.7456 250.873 70.775 250.88 70.8044 250.887L70.878 250.902L71.0251 250.931L71.3266 250.99L72.6284 251.226C73.5257 251.395 74.4524 251.579 75.3864 251.807C77.2545 252.255 79.152 252.836 81.0054 253.616C82.8515 254.396 84.6607 255.381 86.2935 256.653C87.1099 257.293 87.8747 257.999 88.544 258.786C89.2207 259.581 89.7502 260.441 90.1032 261.338C90.2797 261.787 90.4048 262.25 90.4857 262.721C90.5666 263.192 90.596 263.67 90.5739 264.141C90.5372 265.082 90.2944 266.016 89.912 266.847C89.3089 266.656 88.6617 266.546 87.9998 266.531C87.3452 266.516 86.6906 266.597 86.0949 266.744C85.8007 266.818 85.5139 266.906 85.2491 267.002C85.1094 267.053 84.9917 267.105 84.8593 267.149C84.7269 267.2 84.5945 267.244 84.4548 267.296C83.9032 267.48 83.2854 267.649 82.6235 267.803C81.2923 268.112 79.7625 268.377 78.093 268.612C77.2545 268.73 76.3867 268.833 75.482 268.928C74.5774 269.024 73.636 269.112 72.6284 269.186C72.1209 269.223 71.5987 269.252 71.003 269.274H70.6794C70.5617 269.282 70.4441 269.282 70.319 269.282H70.0469H69.8777H69.2011H66.4872C64.678 269.282 62.8687 269.289 61.0962 269.326C57.5512 269.399 54.146 269.59 51.2188 269.951C47.3135 270.208 42.8639 270.679 38.2745 270.811C33.6852 270.936 28.9487 270.73 24.3226 269.451C24.3226 269.451 25.5361 268.215 27.5513 266.391C29.5665 264.567 32.4201 262.169 35.6489 259.867C37.2596 258.713 38.9659 257.58 40.6722 256.536C42.3858 255.491 44.1068 254.535 45.7322 253.719C48.9903 252.086 51.8954 251.034 53.5282 250.821L53.5356 250.799Z" fill="#00A07F"/>
<path d="M0.780258 253.153C-1.05842 251.262 -2.96328 249.24 -4.80931 247.188C-6.65535 245.143 -8.44991 243.062 -10.09 241.084L-12.4656 238.2C-12.848 237.737 -13.2305 237.281 -13.6203 236.84C-14.0174 236.399 -14.4072 235.957 -14.8485 235.538C-15.7458 234.7 -16.9373 233.942 -18.3347 233.479C-18.6877 233.361 -19.0481 233.265 -19.4158 233.177C-19.7835 233.096 -20.166 233.037 -20.5631 232.971C-20.9603 232.912 -21.3648 232.868 -21.784 232.846C-21.9973 232.832 -22.2032 232.824 -22.4239 232.817H-22.7475H-23.0711C-23.0564 232.684 -23.049 232.552 -23.0343 232.412C-23.0196 232.28 -22.9975 232.155 -22.9681 232.023C-22.9166 231.765 -22.8578 231.5 -22.7842 231.243C-22.6372 230.721 -22.4386 230.206 -22.1959 229.706C-21.6958 228.706 -20.9971 227.749 -20.0998 226.933C-19.2099 226.109 -18.1214 225.418 -16.9005 224.911C-16.29 224.653 -15.6428 224.447 -14.9662 224.285C-14.2969 224.124 -13.5835 224.013 -12.8774 223.954C-11.4727 223.829 -10.09 223.881 -8.76616 224.057C-7.4423 224.234 -6.1773 224.528 -4.97848 224.911C-2.57348 225.668 -0.425917 226.734 1.53779 227.941C3.49415 229.154 5.25928 230.515 6.86996 231.934C8.48065 233.354 9.94424 234.839 11.2828 236.325C13.9526 239.296 16.1369 242.246 17.983 244.776C20.2556 248.24 22.5429 252.299 23.9991 256.683C24.7272 258.875 25.2494 261.14 25.4406 263.435C25.5362 264.582 25.551 265.729 25.4554 266.877C25.3597 268.017 25.1612 269.157 24.7861 270.208C24.7861 270.208 24.5066 269.936 23.9844 269.487C23.4622 269.031 22.6973 268.406 21.7339 267.671C19.8216 266.193 17.1519 264.302 14.3277 262.405C11.5034 260.507 8.52479 258.61 6.0536 257.014C3.58242 255.411 1.61134 254.087 0.780258 253.16V253.153Z" fill="#00A07F"/>
<path d="M13.8567 256.639C11.5768 253.667 8.85552 250.174 5.95776 246.541C4.50153 244.724 3.00116 242.863 1.47138 241.017C-0.0584049 239.171 -1.6176 237.333 -3.23564 235.545C-2.25746 235.604 -0.815935 236.237 0.809458 237.303C2.43485 238.37 4.24411 239.87 6.02395 241.606C7.81115 243.334 9.56893 245.283 11.1796 247.217C12.7903 249.152 14.2465 251.064 15.4674 252.697C17.0781 254.932 18.8432 257.543 20.4466 260.375C21.2482 261.794 22.0058 263.258 22.6897 264.758C23.3664 266.259 23.9695 267.796 24.374 269.326C24.374 269.326 23.9253 268.664 23.1531 267.656C22.3882 266.649 21.2997 265.31 20.1082 263.913C18.9168 262.508 17.6297 261.052 16.4971 259.765C15.3645 258.477 14.3936 257.374 13.8567 256.646V256.639Z" fill="#00A07F"/>
</g>
</g>
<g style="mix-blend-mode:soft-light">
<path d="M155.935 246.496L35.9205 18.5367H49.7695L155.935 220.188V246.496Z" fill="#A6C5D7"/>
</g>
<g style="mix-blend-mode:soft-light">
<path d="M15.0992 43.8222C19.2252 39.0269 24.8295 34.9965 30.4558 30.9514L156.141 181.613C156.883 201.463 157.634 221.321 158.376 241.171C154.346 241.833 154.971 241.73 150.948 242.4C102.613 184.93 54.2778 127.46 5.93521 69.9829V57.3622C8.76678 52.7802 11.3777 48.1468 15.0992 43.8222Z" fill="#A6C5D7"/>
</g>
<g style="mix-blend-mode:multiply">
<path d="M5.35423 260.198V206.693C5.72932 206.479 5.97938 206.148 5.97938 205.707V71.3437C6.1706 71.1451 6.29564 70.9024 6.29564 70.6009C6.28093 62.8931 6.17796 55.4207 9.33314 47.9557C12.0397 41.5571 16.173 35.5262 21.7111 30.0911C25.4841 26.3917 29.8454 23.5601 34.4495 20.4196C35.5453 19.6768 39.7302 17.1835 39.8552 15.4111C49.6517 12.1603 60.6029 10.3363 72.1719 10.3363H89.3525C130.951 10.3363 164.672 33.864 164.672 62.8784V260.198H5.34689H5.35423ZM74.0841 74.7636H10.9659V257.44H74.0841V74.7636ZM88.1978 20.1843C88.1169 37.3723 88.036 54.5529 87.9477 71.7409H150.772C150.61 66.8205 149.463 50.8093 137.158 37.1884C118.477 16.4996 90.7719 19.8312 88.1978 20.1843ZM25.1237 37.181C12.8266 50.802 11.6719 66.8132 11.5101 71.7335C32.449 71.7335 53.3879 71.7335 74.3341 71.7335C74.2532 54.5455 74.1723 37.3649 74.0841 20.1769C71.5099 19.8239 43.8047 16.4922 25.1237 37.181ZM150.573 74.7636H88.1978V257.44H150.573V74.7636Z" fill="#D7E8E9"/>
</g>
<path d="M145.756 23.2658C159.207 35.7762 165.106 50.7283 167.82 59.7894V260.198H-0.000167847V59.7894C2.70636 50.7283 8.6122 35.7762 22.064 23.2658C54.4468 -6.85911 113.38 -6.85911 145.763 23.2658H145.756ZM158.531 250.174V61.1573C156.42 54.1483 151.551 41.6011 140.144 30.2675C120.308 10.5569 95.3685 9.09327 88.9919 8.90941V249.725C112.174 249.872 135.349 250.019 158.531 250.174ZM80.6149 249.732V8.91676C73.8045 9.09328 51.6888 10.5127 32.0296 27.333C17.607 39.6668 11.5909 54.2145 9.23001 61.1647V250.181C33.0225 250.034 56.8224 249.887 80.6149 249.732Z" fill="#00716D"/>
<path d="M6.2882 112.641H160.002V119.995H6.2882V112.641Z" fill="#00716D"/>
</g>
</g>
<defs>
<clipPath id="clip0_51_93">
<rect width="1366" height="4696" fill="white" transform="translate(-904 -1519)"/>
</clipPath>
</defs>
</svg>
