<svg width="257" height="109" viewBox="0 0 257 109" fill="none" xmlns="http://www.w3.org/2000/svg">
<path fill-rule="evenodd" clip-rule="evenodd" d="M74.0547 10.6764C74.0034 9.92975 74.3261 9.59413 74.2157 8.80342C72.8639 7.8201 73.1275 10.4194 74.0547 10.6764ZM64.4389 12.3377C65.0078 12.2299 65.2729 12.4499 65.6008 12.6298C65.4721 11.7901 65.9233 10.3326 65.3403 9.99526C64.7111 10.4252 64.6644 11.4882 64.4389 12.3349L64.4389 12.3377ZM73.8691 14.5487C74.7794 14.3687 75.8342 14.3449 75.9079 13.2849C74.9229 13.1168 74.4385 12.417 74.0446 11.6015C74.1401 12.7583 73.8562 13.4986 73.869 14.5514L73.8691 14.5487ZM79.2082 18.0607C78.6941 19.5879 79.218 21.1157 78.1546 21.9451C78.9508 22.0705 78.631 23.3774 79.2851 23.6423C79.3852 20.659 80.271 15.3104 83.1327 18.1632C83.2649 17.9422 83.4986 17.8253 83.8689 17.8402C83.7853 14.098 79.9625 15.8279 79.2082 18.058L79.2082 18.0607ZM85.6977 23.422C86.4673 23.0044 87.2379 22.5055 88.0299 22.7719C89.681 23.3325 88.2827 26.6082 89.28 27.8726C89.4384 25.0066 92.2184 24.942 92.8285 22.553C90.8617 21.9211 88.2091 22.4564 87.6126 20.1356C87.0962 21.3726 85.5993 21.5408 85.695 23.422L85.6977 23.422ZM72.4371 25.114L72.4285 25.898C73.6212 25.3684 73.94 26.6307 74.8897 26.8093C74.9906 25.9829 74.6565 25.6347 74.7712 24.7868C74.1743 24.2376 73.3459 25.0778 72.4371 25.114ZM97.8514 29.0188C99.023 28.4374 99.5265 27.1433 99.6291 25.4216C97.9308 23.485 96.2941 28.0332 97.8514 29.0188ZM102.206 29.5791C103.75 29.3599 104.907 28.054 104.706 26.4538C103.277 25.1332 101.32 27.9904 102.206 29.5791ZM195.009 39.5479C196.805 40.9104 199.396 43.3127 201.065 43.6728C206.687 44.8546 233.452 44.3355 240.593 44.2941C239.572 42.704 237.815 41.9631 236.409 40.7784C234.606 39.253 225.726 30.6479 224.745 30.1895C220.41 29.7841 214.333 29.0015 210.682 28.7826C199.389 28.0706 186.348 27.2906 176.54 26.7359C182.205 30.6096 189.026 35.0114 195.009 39.5479ZM93.9152 29.9878C93.5884 29.7102 93.3188 29.3953 92.6143 29.5368C90.9637 30.8997 94.2033 32.5765 93.9152 29.9878ZM82.4024 31.064C82.4603 32.4456 82.3708 33.964 83.5449 34.145C83.9667 33.3926 83.9501 32.1906 84.0033 31.0299C83.598 30.5128 82.8437 30.5154 82.4024 31.064ZM65.5316 32.3422C65.3485 33.7673 64.5052 34.4906 63.4669 35.0002C62.6347 34.7062 62.4262 33.7462 61.8866 33.1516C62.2113 35.1031 60.8762 35.3138 59.2606 35.212C59.4741 35.9605 58.7699 36.5659 59.0744 36.9111C60.265 35.5757 62.793 36.5502 62.8553 38.2736C63.4432 38.1634 63.5953 37.5926 64.3087 37.6275C64.0678 37.1609 63.9581 36.571 64.0317 35.7715C64.9926 34.1758 67.7329 33.0337 69.4342 34.4576C71.6064 33.8437 72.4522 35.375 73.632 36.2723C73.0313 34.581 73.7783 33.0237 74.6917 32.0651C74.4833 31.8376 74.5103 31.3523 74.2773 31.1462C74.1949 32.9984 71.8366 33.0676 71.6528 31.3319C70.8593 31.4562 70.3941 31.2232 69.904 31.0443C69.578 32.9263 66.9934 33.419 65.529 32.3395L65.5316 32.3422ZM104.037 34.2276C104.121 36.2334 107.947 35.6376 107.83 33.7264C107.749 32.5453 106.679 32.4495 105.655 32.6499C104.357 32.9206 104.012 33.3266 104.037 34.2276ZM92.8166 36.5252C92.0697 37.5751 92.4073 38.8431 91.6302 39.9443C93.4414 40.2109 93.8156 38.1259 94.8356 38.0529C94.6636 42.1695 98.5778 41.2328 99.9153 39.077C101.014 39.7482 100.67 41.9665 102.067 42.3236C102.724 40.3285 102.102 37.1583 100.517 36.7476C98.7589 36.2807 98.0541 38.4353 97.0101 38.9666C97.2213 35.9709 94.2521 34.5413 92.8138 36.5251L92.8166 36.5252ZM53.6861 37.8995C53.9052 38.138 54.4364 38.0244 54.8607 38.0399C54.7488 37.6425 54.7188 37.1674 54.4264 36.9634C54.3776 37.4675 53.6604 37.2861 53.6862 37.8968L53.6861 37.8995ZM45.3992 37.6924C45.3452 38.4243 45.8989 38.4873 45.8339 39.2436C45.2154 40.6639 43.7161 39.0686 43.2128 39.1065C43.1051 41.3002 41.8348 42.244 41.1259 43.78C43.3633 43.6389 43.9226 46.1601 42.6844 47.6415C45.4739 47.9459 43.6369 51.773 43.4872 53.8469C44.6296 52.4675 48.4195 50.0454 49.0147 53.4704C49.4163 53.3364 49.6339 52.9671 49.7578 52.5208C48.4101 51.6488 47.5917 49.586 47.7655 48.5244C48.273 45.3773 51.2531 49.0318 52.1231 47.8476C51.4907 46.5818 51.548 44.8026 52.7454 44.5742C54.2434 44.3112 54.0959 45.9265 54.765 47.0435C55.3542 46.3174 55.5064 46.0098 56.2263 45.9389C57.06 45.8531 57.6291 46.7058 57.9564 46.6958C58.308 46.6779 58.826 45.7883 59.424 45.7432C60.2111 45.7084 60.161 46.3346 61.0195 46.2002C62.1492 44.0068 64.9927 43.0801 67.2798 44.5701C67.5288 44.3042 67.406 43.6653 67.4574 43.1667C66.0939 43.4937 66.2816 42.1636 65.5717 41.8031C65.0388 43.0697 63.2123 42.2251 62.9677 41.3596C61.7082 41.818 60.7704 42.2716 59.457 42.9627C58.613 42.7636 58.6739 41.6437 57.8735 41.4098C57.0935 41.7838 56.1881 42.0073 55.3974 42.3731C55.316 43.14 56.32 43.5416 55.8124 44.2306C53.6688 43.4503 53.4866 40.5724 51.4882 39.6282C51.4228 40.9135 50.2142 40.9138 50.1637 41.8249C49.2156 41.7521 48.6311 41.3089 48.4323 40.444C48.577 40.0712 49.0746 40.0603 49.3207 39.8053C48.9833 39.0121 49.0661 38.1177 49.3477 37.3313C48.2524 37.6123 46.295 36.6197 45.402 37.687L45.3992 37.6924ZM78.0377 45.5313C78.2784 45.0347 77.7679 44.2397 77.7623 43.5179C77.5622 43.5157 77.3701 43.5353 77.1863 43.5333C76.7853 44.3592 77.3065 45.4012 78.0351 45.5313L78.0377 45.5313ZM82.952 47.343C83.3468 50.3073 83.0088 54.0314 85.6465 54.6163C85.8399 52.2554 85.7019 49.5462 88.1615 49.6056C88.0233 48.3995 87.6229 47.4266 87.6243 46.0538C87.1891 46.049 86.7537 46.0605 86.3183 46.0666C85.9122 45.6254 85.5993 45.0794 85.3161 44.5228C84.7224 45.6585 83.8105 46.4652 82.952 47.3403L82.952 47.343ZM95.0383 46.7315C95.2137 47.5013 97.1046 47.8963 97.5089 47.0163C97.8149 46.2301 95.0575 44.9737 95.0383 46.7315ZM103.137 50.0485C104.375 49.5493 105.509 47.79 104.911 46.3184C103.068 45.4681 101.824 48.9761 103.137 50.0485ZM73.344 49.7722C73.5318 48.9142 73.1461 47.5995 72.7894 46.8387C69.5165 45.7395 70.9156 51.5607 73.344 49.7722ZM67.2093 50.7932C67.5615 50.7237 67.8575 50.6103 67.9447 50.3019C67.745 50.2672 67.7122 50.0525 67.5263 49.9935C67.4473 50.2965 67.2028 50.3997 67.2093 50.7904L67.2093 50.7932ZM64.1644 64.4772C63.7474 60.8181 66.2058 57.7656 69.0102 59.9179C69.6039 58.7821 70.9115 58.384 71.2247 56.936C69.4184 57.4589 67.4947 56.8464 67.018 55.4358C66.4127 58.8748 60.3415 55.8106 63.6963 53.6198C62.9989 52.6111 63.825 51.4833 64.0195 50.506C63.3031 50.7505 63.06 51.4749 62.1193 51.4647C62.2516 53.2106 61.4321 53.9749 60.0598 54.1227C60.4262 57.2169 57.5874 57.2185 56.9889 55.0903C56.5552 55.4383 55.95 55.6433 55.091 55.577C54.4336 58.0957 52.3397 59.9584 52.265 62.5892C52.8695 59.72 58.4027 57.0755 58.2288 62.3586C60.2641 60.9185 62.0433 62.8805 61.9703 65.1125C63.3097 64.5167 61.7497 60.7936 63.7545 60.9132C64.9358 61.4198 63.4531 64.0001 64.1616 64.4772L64.1644 64.4772ZM220.626 50.1046C220.488 54.3301 221.391 59.2615 222.076 63.1378C222.279 64.331 222.19 66.3133 223.639 66.5408C223.723 62.3256 223.056 57.6111 222.469 53.6653C222.277 52.3799 222.285 50.7304 221.355 49.9525C221.208 49.5385 220.823 50.1095 220.626 50.1073L220.626 50.1046ZM242.117 63.9805C241.111 59.0507 240.338 53.7816 238.652 49.7587C238.18 49.5881 238.317 49.7334 237.776 49.76C237.994 54.7436 239.33 60.1708 240.529 64.7907C240.871 66.1265 241.063 68.3913 242.65 68.6447C243.074 67.1544 242.446 65.5414 242.114 63.9805L242.117 63.9805ZM207.544 62.2086C207.15 59.361 206.724 56.8305 206.194 53.8431C205.87 52.114 205.589 49.0669 204.041 50.4554C204.031 54.3865 205.059 58.7847 205.791 62.5313C206.035 63.7169 205.98 65.5232 207.219 65.9328C208.265 65.2389 207.752 63.638 207.546 62.2087L207.544 62.2086ZM209.566 50.0789C208.85 51.2757 209.607 53.0176 209.954 54.8852C210.505 57.9028 210.896 60.5279 211.465 63.0898C211.719 64.3189 211.898 65.9948 213.025 66.3381C213.521 63.7254 212.461 60.7511 211.937 57.9645C211.685 56.5564 211.54 55.0002 211.26 53.6244C211.028 52.3738 210.908 50.6985 209.852 50.082L209.563 50.0788L209.566 50.0789ZM232.255 49.8165C232.179 50.0056 232.088 50.1755 231.957 50.3015C232.444 54.2462 233.1 58.5021 234.012 61.898C234.285 62.9482 234.46 64.7217 235.721 64.8359C236.091 62.4334 235.29 59.7713 234.799 57.2428C234.273 54.6271 233.969 51.9921 233.128 49.8124C232.828 49.82 232.538 49.8168 232.255 49.8137L232.255 49.8165ZM215.094 50.1718C215.092 50.3725 214.907 50.3922 214.937 50.6448C214.971 53.7354 215.994 59.113 216.549 62.2608C216.766 63.4054 216.769 65.0902 217.841 65.5034C218.296 61.6857 217.265 57.0758 216.644 53.5637C216.437 52.3976 216.418 50.7071 215.375 50.1748L215.091 50.1717L215.094 50.1718ZM92.5964 56.6945C94.1354 55.8892 94.8596 54.1851 95.2735 52.1738C93.2556 50.5348 91.4287 54.9372 92.5964 56.6945ZM246.545 58.505C246.263 57.1481 246.001 55.5988 245.58 53.8579C245.277 52.5794 244.769 49.8852 243.718 50.004C243.523 50.0995 243.369 50.2579 243.299 50.4796C243.861 54.7561 244.977 60.2541 246.053 64.246C246.397 65.6171 246.615 67.4834 248.045 67.7947C248.153 65.0367 247.265 61.8988 246.54 58.505L246.545 58.505ZM226.131 50.8267C226.319 53.3926 226.821 56.2305 227.208 58.8746C227.573 61.3773 227.653 64.6556 229.308 65.8457C229.769 62.0768 228.572 57.4868 227.976 53.9018C227.795 52.6843 227.976 50.9635 226.86 50.3626C226.399 50.2762 226.477 50.7735 226.131 50.8267ZM102.804 54.5567C102.82 53.1407 101.289 52.424 100.202 52.7295C96.3183 53.8022 102.724 58.7041 102.804 54.5567ZM77.809 53.6083C76.9805 55.9488 78.4493 61.5809 74.2316 61.0981C74.9469 62.438 75.0316 64.3299 73.7463 64.6794C72.0407 65.1438 70.6034 62.8274 69.4186 62.3939C69.1787 64.0653 68.7434 65.5446 68.7894 67.5256C69.6604 67.4809 70.6783 66.8653 71.5408 67.3495C71.9302 66.3526 72.4909 65.5176 73.4601 65.1484C75.454 65.5174 75.9266 64.0793 76.9758 63.076C75.5011 60.2166 78.3261 58.0119 81.2288 58.8412C80.8276 57.1981 79.6828 56.312 79.8372 54.0565C79.1906 53.8486 78.4914 53.7623 77.8118 53.6084L77.809 53.6083ZM71.3981 54.9193C71.6272 55.4753 71.8293 56.2833 71.3778 56.783C71.9664 56.5995 72.518 56.5947 73.1082 56.7666C73.3094 55.1735 72.3646 54.7996 71.6877 54.1438C71.8041 54.6253 71.3003 54.4597 71.4007 54.9193L71.3981 54.9193ZM92.8623 59.329C92.7865 61.3196 93.8927 62.0235 95.4393 62.252C95.6658 62.0619 95.8681 61.8633 96.0302 61.6209C95.6405 60.1679 94.3502 57.7581 92.8596 59.3317L92.8623 59.329ZM90.901 65.876C91.2257 64.1133 90.5275 62.1957 89.7963 61.0781C87.9191 61.904 89.8698 65.2326 90.901 65.876ZM75.1433 70.6987C75.5389 70.6189 75.9644 70.5287 75.8764 69.9173C75.3764 69.9009 75.4135 70.4656 75.1433 70.6987ZM236.928 74.4452C236.893 74.67 236.684 74.7111 236.625 74.9031C236.262 79.6904 236.454 85.8865 236.591 90.4297C236.683 92.6744 236.611 102.267 237.775 103.539C237.571 98.2865 237.736 85.1571 237.736 79.7065C237.73 77.9592 237.927 75.9917 237.215 74.6057C237.195 74.4698 237.101 74.4145 236.928 74.4452ZM213.527 75.0308C213.297 75.1232 213.157 75.2628 213.068 75.4843C212.715 77.9087 212.87 81.2854 212.972 84.3333C213.068 87.4001 212.522 90.8126 213.888 92.5422C214.249 88.9134 214.204 83.91 214.339 79.6628C214.381 78.0951 214.541 76.0105 213.665 75.0133C213.609 75.0127 213.549 75.0121 213.525 75.0281L213.527 75.0308ZM244.473 74.9779C244.277 75.0707 244.124 75.2264 244.032 75.4587C243.841 77.1198 243.913 78.7077 243.977 80.5669C244.142 86.1956 243.214 99.645 245.038 103.455C245.182 97.9871 245.312 84.0976 245.312 78.3839C245.324 77.2309 245.664 75.6068 244.633 74.9797L244.473 74.9779ZM221.504 75.3973L221.499 75.8558C221.272 77.3916 221.208 80.0334 221.291 82.0719C221.401 85.6164 221.357 89.6177 222.78 91.5188C222.671 88.6634 222.403 85.4265 222.295 82.2185C222.226 79.8791 222.761 77.1962 221.791 75.3896C221.702 75.3886 221.607 75.3985 221.507 75.3974L221.504 75.3973ZM113.588 78.9157C113.721 78.6377 114.193 78.7216 114.048 78.134C113.902 78.1432 113.761 78.1417 113.596 78.1399C113.527 78.2449 113.261 78.8932 113.588 78.9157ZM205.203 78.2201C205.075 80.3511 205.186 82.7697 205.267 85.0387C205.34 87.4975 204.76 90.1446 205.921 91.7146C206.279 90.3864 205.865 88.2087 206.247 86.8943C206.236 87.8844 206.157 88.9281 206.518 89.5289C206.897 85.5286 206.565 80.9968 206.353 77.1284C206.218 77.1269 206.081 77.1254 205.94 77.1347C206.125 77.9697 205.392 77.8097 205.203 78.2228L205.203 78.2201ZM229.335 77.0076C229.138 77.0271 229.011 76.947 228.902 76.8617C228.867 77.0865 228.575 77.0481 228.455 77.1878C228.404 79.8787 228.512 82.8507 228.666 85.5519C228.809 88.3072 228.659 91.195 229.891 92.9882C229.777 87.5852 229.797 82.0399 229.335 77.0076ZM114.616 79.8494C114.723 81.9288 118.288 81.2243 117.378 78.7211C116.191 77.669 114.536 78.4676 114.616 79.8494ZM124.031 81.911C124.295 82.8119 124.035 84.2579 124.293 85.156C127.012 84.7272 131.578 84.5654 134.738 84.6107L134.765 82.1367C132.234 81.1866 127.23 82.1114 124.031 81.911ZM118.472 85.239C118.701 83.7954 116.988 83.2151 115.866 83.7102C112.839 85.0418 118.016 88.1316 118.472 85.239ZM124.545 88.8756C125.853 88.6349 129.11 88.7139 130.779 88.6887C132.39 88.6764 134.181 89.0324 135.145 88.1801C134.474 87.2504 132.723 87.1851 131.379 87.1379C129.534 87.0581 125.84 87.6201 124.408 87.0184C124.346 87.7557 124.445 88.3238 124.545 88.8784L124.545 88.8756ZM99.3621 103.634C100.927 103.92 101.759 105.738 101.937 107.024C100.744 106.338 99.0754 105.378 99.3621 103.634ZM99.0108 107.83C97.6773 107.389 95.5276 105.928 95.8537 104.29C96.3483 101.832 100.378 105.661 99.0108 107.83ZM144.307 105.351C143.686 104.951 143.237 104.276 143.555 103.392C143.912 103.342 144.157 103.42 144.326 103.569L144.307 105.348L144.307 105.351ZM141.542 102.03C142.439 102.55 142.797 103.66 143.112 104.795C141.897 104.709 140.922 103.076 141.542 102.03ZM128.219 83.9129C127.954 84.4065 127.451 84.4471 127.041 84.0791L127.05 83.3005C127.595 82.894 128.275 82.9612 128.219 83.9129ZM97.682 83.1807C96.6885 83.7912 95.1315 83.5273 95.0796 82.5798C95.0224 81.1304 97.5089 81.7002 97.682 83.1807ZM104.227 83.7107C102.828 83.5787 101.379 82.7843 101.344 81.5684C101.252 78.3199 106.246 81.5026 104.227 83.7107ZM91.5396 87.1263C89.1591 85.5159 87.7661 82.8581 86.5234 80.0474C86.6932 79.8431 87.1387 79.148 87.41 79.5633C89.0109 81.7512 90.8604 84.4601 91.5396 87.1263ZM128.866 77.3868C128.458 78.4052 126.828 78.0591 126.98 76.7965C127.378 75.7753 129.002 76.124 128.866 77.3868ZM194.521 69.3484C195.677 69.2335 195.008 71.0738 195.663 71.4933C195.826 73.3481 196.352 102.275 195.185 102.425C193.368 102.674 192.645 71.0127 194.37 69.3467L194.521 69.3484ZM130.111 70.0751C129.754 70.584 128.439 70.4828 128.064 70.0962C128.099 69.9229 128.046 69.8274 127.927 69.8044C127.7 68.0656 130.564 68.4821 130.111 70.0751ZM103.637 70.847C100.617 72.0837 101.038 65.718 103.536 67.2673C104.39 67.8084 104.117 69.748 103.637 70.847ZM130.623 63.0945C130.403 64.6467 127.297 65.0497 126.982 63.7602C126.519 61.8343 129.771 62.0543 130.623 63.0945ZM109.686 62.866C109.724 63.5827 109.671 64.2088 109.383 64.5882C106.68 65.5083 107.864 60.578 109.686 62.866ZM62.4833 57.9855C62.9002 58.6846 63.3778 60.2498 62.6054 60.9142C60.3096 61.4535 59.7563 56.9139 62.4833 57.9855ZM130.85 56.1109C130.366 57.6385 127.912 57.5059 127.933 56.1387C127.965 54.7011 130.339 54.879 130.85 56.1109ZM150.057 53.8787C150.184 53.8313 150.207 53.9265 150.206 54.0323C149.757 62.522 150.724 74.0143 149.881 83.8156C149.829 84.3658 149.735 86.5352 148.825 86.4656C147.755 86.3915 147.803 81.9589 147.733 80.7264C147.319 73.3721 147.004 66.2713 147.307 62.0395C147.535 58.9844 147.893 58.9286 149.762 54.3368C149.837 54.1856 149.894 53.9339 150.057 53.8787ZM193.72 50.576C194.533 51.1899 195.261 51.8815 196.316 52.2566C196.197 57.0005 196.854 63.1311 195.283 66.6979C193.797 65.8487 194.114 63.017 194.046 60.8051C193.948 58.2131 193.817 55.3548 193.695 52.8981C193.647 52.1189 193.744 51.3522 193.72 50.5733L193.72 50.576ZM128.462 49.0037C128.181 46.7379 131.101 47.4887 130.932 48.6535C130.806 49.5393 129.041 49.7425 128.462 49.0037ZM187.65 46.1472C188.622 46.7519 189.63 47.3028 190.408 48.1361C189.751 61.7594 191.125 71.8942 191.155 84.7327C191.161 85.8533 191.337 92.5213 190.06 92.6348C188.604 92.7492 188.826 86.2836 188.826 85.0817C188.904 72.9416 188.151 58.9719 187.645 46.6056L187.65 46.1445L187.65 46.1472ZM47.9669 42.4602C48.1881 43.2439 48.2756 44.8972 47.6471 45.2566C44.5334 45.9226 45.6408 40.324 47.9669 42.4602ZM178.124 39.8845C179.037 40.4506 179.895 41.0623 180.731 41.7334C180.592 45.7907 180.357 50.4953 180.004 54.6045C179.896 55.8079 180.115 57.5439 178.953 58.0413C178.078 57.7143 178.021 56.4602 177.952 55.5805C177.629 51.2333 178.351 45.0337 178.119 40.3565L178.124 39.8872L178.124 39.8845ZM160.251 40.1045C160.362 40.065 160.385 40.163 160.392 40.2471C160.52 43.3984 160.346 58.4025 158.645 60.3455C157.172 59.8519 156.658 44.4767 157.007 43.2434C157.521 41.4909 159.762 41.3038 160.251 40.1045ZM131.161 40.7393C131.001 42.3111 128.738 42.0721 128.548 41.0906C128.215 39.4456 130.585 39.5664 131.161 40.7393ZM237.547 44.1768C233.906 42.1348 230.906 38.8653 227.894 35.9105C226.95 34.9777 225.631 34.2091 225.31 32.8382C225.291 32.6454 225.335 32.5644 225.465 32.5225C225.582 32.483 225.605 32.3721 225.756 32.3737C225.881 32.3479 225.891 32.4321 225.89 32.5271C229.397 34.687 232.278 38.0257 235.252 40.9449C236.178 41.8421 237.496 42.7057 237.547 44.1768ZM168.76 32.8585C168.882 32.8191 168.894 32.9143 168.909 33.0202C169.021 32.9753 169.03 33.0704 169.043 33.1763C169.132 35.6869 169.754 56.9343 167.633 57.074C165.717 57.2213 165.401 37.1465 165.825 35.6779C166.185 34.3714 168.193 34.0027 168.762 32.8558L168.76 32.8585ZM231.893 42.536C229.34 41.8706 227.117 39.7139 224.965 37.9676C223.883 37.0849 222.866 36.0645 221.805 35.2064C220.808 34.3925 219.339 33.7986 219.069 32.4526C219.058 32.2707 219.105 32.1655 219.222 32.1342C219.333 32.1137 219.359 31.9675 219.507 31.9691C219.624 31.9487 219.634 32.0329 219.643 32.1279C223.078 34.2192 226.232 37.1214 229.306 39.773C230.26 40.5946 231.665 41.1743 231.891 42.536L231.893 42.536ZM128.616 34.873C128.632 34.6941 128.568 34.6039 128.452 34.5727C128.116 32.1897 131.433 32.7414 131.517 33.9116C131.609 35.1173 129.586 35.4343 128.616 34.8703L128.616 34.873ZM225.047 43.3919C222.058 42.7841 219.686 40.3843 217.395 38.5062C215.058 36.5924 212.629 34.6803 210.776 32.3838C210.732 32.1365 210.916 32.1276 210.932 31.9162C211.894 31.4899 214.1 33.2368 215.268 34.1909C217.787 36.2397 219.788 37.9816 222.177 40.0153C223.321 40.9855 224.703 41.9312 225.046 43.3946L225.047 43.3919ZM216.929 42.5626C215.46 42.6144 214.23 41.41 213.168 40.5872C209.935 38.083 206.455 35.3699 203.655 32.3034L203.66 31.8422C203.777 31.7513 203.892 31.6765 204.108 31.6789C207.732 33.8102 211.074 36.7606 214.334 39.4767C215.323 40.3122 216.782 41.1068 216.929 42.5626ZM203.626 41.8775C199.112 39.3268 193.673 35.1246 189.705 32.0128L189.71 31.538C189.811 31.4605 189.942 31.3669 190.136 31.3935C194.314 34.3529 200.199 38.1124 203.626 41.8775ZM208.497 40.7912C207.059 41.1933 205.884 39.9026 204.733 39.1114C202.473 37.5538 200.693 36.224 198.395 34.2265C197.289 33.2757 195.637 32.4628 195.677 30.8462C195.794 30.7688 195.924 30.6861 196.108 30.6881C199.555 32.7307 202.584 35.3493 205.784 37.8749C206.73 38.6259 208.352 39.1997 208.497 40.7885L208.497 40.7912ZM119.31 32.9672C117.459 32.3311 116.728 30.5108 116.174 28.4944C117.981 27.3963 119.138 31.3483 119.31 32.9672ZM113.558 29.1604C113.581 31.2606 113.163 34.3624 111.026 33.6798C108.448 32.8513 111.147 24.9044 113.558 29.1604ZM130.866 26.4734C130.485 27.1502 129.029 27.3378 128.538 26.6596C128.269 24.8362 130.748 25.6202 130.866 26.4734ZM53.8233 25.3341C55.1402 24.5698 55.9726 25.58 55.8549 26.7046C55.5079 29.517 51.6626 26.6182 53.8233 25.3341ZM130.656 20.1117C130.78 21.4669 128.772 21.6023 128.034 21.0761C127.228 19.4259 130.139 18.9611 130.656 20.1117ZM0.614522 108.278L1.91853 105.967C2.44368 106.155 2.89893 106.556 3.07027 107.206C2.68562 107.769 1.51753 108.277 0.614522 108.278ZM41.221 108.143L39.4799 108.146C39.508 108.051 39.5332 107.968 39.5559 107.873C40.2722 107.634 40.8006 107.77 41.221 108.143ZM52.309 108.096L50.419 108.105C50.3385 107.806 50.3095 107.488 50.324 107.147C51.235 106.657 51.8231 107.28 52.309 108.096ZM57.6486 108.089L54.5584 108.088C55.1194 107.221 56.7965 107.391 57.6486 108.089ZM93.3319 107.958L92.1313 107.966C91.4053 107.356 90.9254 106.491 90.607 105.448C91.7772 103.999 93.1224 106.339 93.3291 107.958L93.3319 107.958ZM96.6709 107.943L95.2027 107.957C94.1947 107.178 93.4355 105.883 92.8012 104.799C93.9738 102.148 96.0666 106.083 96.6709 107.943ZM180.442 21.6562L181.123 21.7369L181.225 22.0066C180.934 21.9302 180.67 21.8107 180.442 21.6562ZM169.79 20.4222L171.656 20.646C171.844 21.2585 171.945 21.8972 171.919 22.5779C171.015 22.1312 170.367 21.3374 169.79 20.4222ZM52.8231 14.6716L53.4419 14.209C53.5659 14.4898 53.6924 14.7869 53.7918 15.0973C53.4522 14.9986 53.1266 14.8486 52.8203 14.6716L52.8231 14.6716ZM46.0995 20.1085C46.2274 20.0312 46.3582 19.9377 46.5026 19.8334C46.6404 20.0927 46.7755 20.341 46.9051 20.6056C46.6229 20.456 46.3516 20.2903 46.0967 20.1112L46.0995 20.1085ZM58.954 100.195C47.1601 101.515 31.9983 103.265 31.9766 103.265C36.5456 102.525 41.0903 101.796 45.5863 101.305C48.8128 100.947 52.2895 100.464 55.4847 100.255C56.6399 100.183 57.7998 100.174 58.954 100.198L58.954 100.195ZM22.6712 104.729C22.6712 104.729 73.2345 104.149 101.733 103.163C101.71 103.293 101.692 103.437 101.682 103.6C101.644 104.652 103.648 106.502 104.99 106.2C105.155 105.423 104.242 103.923 103.334 103.11L104.459 103.066C104.645 104.411 107.021 106.621 108.482 106.015C108.151 105.439 107.647 104.017 107.009 102.977L107.529 102.947C108.022 104.295 108.858 105.273 110.238 105.673C110.355 104.864 109.965 103.644 109.352 102.869L110.066 102.839C110.727 104.23 111.596 105.368 113.282 105.65C113.496 105.44 113.428 104.978 113.449 104.553C114.179 104.987 114.36 106.036 115.605 105.919C115.699 104.954 115.308 103.567 114.632 102.596C115.022 102.573 115.385 102.545 115.736 102.524C115.964 103.479 116.551 104.408 117.373 104.68C117.16 103.893 116.894 103.174 116.624 102.466C117.305 102.414 117.912 102.358 118.431 102.306C118.655 103.334 119.793 104.633 120.854 104.786C121.11 103.893 120.791 102.815 120.292 102.042C120.633 101.951 121.002 101.876 121.386 101.807C121.815 103.38 122.802 104.346 124.344 104.756C124.354 103.842 123.97 102.413 123.345 101.459C123.759 101.396 124.195 101.328 124.631 101.267C124.841 102.328 126.249 103.629 127.136 103.158C127.007 102.305 126.695 101.632 126.31 101.044C126.64 101.004 126.981 100.965 127.328 100.928C127.784 102.007 129.024 103.285 129.887 102.971C129.647 102.453 129.338 101.503 128.941 100.745C129.477 100.693 130.018 100.637 130.559 100.589C130.981 101.817 131.772 102.949 133.084 102.632C132.939 102.014 132.681 101.116 132.3 100.428L133.019 100.363C133.491 101.264 134.283 102.23 135.125 102.141C135.181 101.746 134.895 100.891 134.478 100.249C134.819 100.22 135.16 100.199 135.506 100.176C135.962 101.22 136.762 102.01 137.75 101.945C137.735 101.334 137.58 100.635 137.314 100.044L138.055 99.9948C138.09 100.752 139.002 101.606 139.786 101.924C140.038 101.327 139.758 100.483 139.351 99.914C139.724 99.8964 140.087 99.8623 140.433 99.8417C140.557 100.141 140.685 100.314 140.83 100.326C141.766 100.347 142.736 99.8532 143.749 99.6635C143.945 99.6304 144.169 99.6003 144.364 99.5617L144.5 87.0939C144.349 83.1502 144.153 78.761 144.283 76.2718C144.382 74.4199 144.98 72.6249 143.464 72.0875C142.451 71.7481 141.901 72.5506 140.834 72.7424L149.699 47.0352C155.938 41.9023 163.868 34.1996 169.906 30.3641C170.439 30.0308 199.468 49.8465 199.535 49.8907C200.125 50.844 199.984 52.0688 200.071 53.3015C200.422 58.5035 202.317 64.2976 203.244 69.2374C204.643 69.8414 207.485 68.5864 207.752 70.1114C208.042 72.0001 201.706 71.4508 200.018 71.7633C198.974 78.0218 199.315 96.3225 199.099 103.469C193.943 103.435 188.367 103.873 184.264 102.718C183.777 99.8481 183.628 64.9591 182.944 64.2001C182.172 63.3235 178.861 63.7811 176.689 63.809C170.289 63.8775 162.424 63.9381 156.055 64.3597C156.12 67.513 156.103 78.7694 156.116 87.2261L156.149 87.2265L156.116 90.197C156.126 92.2292 156.055 101.027 156.063 102.259L155.984 102.28L155.975 103.175C184.656 103.488 122.016 102.804 252.781 104.231L253.483 74.5906C252.436 74.411 247.919 75.0589 247.745 73.9718C250.632 73.4498 254.243 73.568 255.994 73.4026C256.453 71.7662 248.171 45.5652 245.686 42.8331C245.448 42.5863 226.771 27.5582 226.23 27.3923C216.567 25.6562 181.881 23.818 170.296 23.385L149.471 39.4388C149.09 31.9737 149.691 23.4558 148.998 16.3156C150.288 12.0891 147.679 7.91776 145.197 5.20743C140.484 0.0852561 132.091 -1.05902 126.017 4.01867C124.003 5.70864 120.707 8.97718 121.564 12.4457C121.81 12.4375 121.936 12.5691 121.996 12.757C124.374 12.5958 121.782 11.7888 125.942 7.88127C130.064 3.84036 139.018 2.36993 140.91 11.7615C137.523 11.9606 134.674 12.2062 131.452 12.6486C129.307 12.9263 125.936 12.705 125.895 15.1925C126.851 16.0195 128.185 15.3965 129.376 15.3146C132.931 15.055 136.76 15.2324 140.58 15.0326C140.665 16.3738 140.751 17.7042 140.678 19.2146C138.089 19.3138 135.086 18.9853 133.545 20.2219C134.803 21.9205 138.534 20.9384 140.804 21.5492C140.693 22.9967 140.933 24.8415 140.603 26.0425C138.826 26.3867 135.636 25.3507 135.352 26.8697C135.013 28.9306 139.238 27.7396 140.73 28.5237C140.607 30.1854 140.825 31.4874 140.827 33.0311C139.264 33.8144 135.02 32.4875 134.989 34.3267C134.958 36.2011 139.159 35.2512 140.795 35.9799L140.758 39.3898C138.672 39.7577 134.202 39.0822 134.635 41.3035C134.956 43.0325 138.866 42.0605 140.722 42.6478C140.607 44.3097 140.865 46.3636 140.52 47.7652C138.496 48.1799 134.179 47.1534 134.104 49.0897C134.033 51.1346 138.519 50.2909 140.486 50.8659C140.368 52.0583 140.634 53.6674 140.294 54.6024C137.651 54.5193 132.822 53.8398 133.008 56.3759C133.181 58.787 137.422 57.124 139.535 57.2421C138.829 58.5692 138.541 60.3675 137.608 61.4534C136.13 61.3396 134.05 60.8991 133.811 62.272C133.537 63.8046 135.311 63.8457 136.999 63.4789C136.367 65.1134 135.958 66.9809 135.064 68.3141C134.518 68.3082 133.994 68.3133 133.448 68.3236C132.942 68.6084 133.125 69.3782 133.005 69.735C132.071 69.8415 131.012 69.8028 130.957 70.844C131.251 71.9053 133.279 71.1271 134.145 71.5842C133.782 72.5814 133.65 74.0911 133.82 74.8364C132.249 75.1393 129.541 74.2362 128.87 75.5149C129.832 76.8466 132.618 76.2286 134.668 76.3785C134.603 77.1347 134.816 78.1979 134.502 78.7099C131.875 79.1398 125.982 78.5925 124.044 79.2496L123.799 20.9566C123.652 18.5973 123.625 14.3484 122.133 14.2995C120.209 14.2378 121.176 17.0944 119.909 17.7398C119.965 35.096 119.937 50.8586 119.506 68.7548C118.856 67.1415 116.66 67.4458 116.013 68.9527C114.958 65.5769 110.714 68.4906 112.503 71.7902C111.9 72.7631 111.829 74.306 111.448 75.5228C109.212 71.6159 109.467 76.9391 110.214 79.6006C108.938 78.3956 109.464 76.277 107.787 76.058C103.209 75.4518 106.837 87.2933 108.602 81.1756C109.135 81.9003 109.885 82.2477 110.622 82.0821C111.864 81.8108 110.446 79.1419 111.54 80.0275C110.66 80.8291 110.366 83.3164 111.773 84.2054C110.374 84.0002 111.519 84.8728 111.158 85.7886C110.421 85.3953 109.619 85.7989 109.273 86.2889C108.888 88.6342 111.894 89.4131 110.381 91.0814C109.695 89.5275 109.025 87.0323 107.227 87.2351C104.913 87.5056 106.444 90.8567 106.877 92.0443C106.434 89.8473 103.918 89.714 102.668 91.3282C102.489 90.4038 101.489 90.3468 100.798 89.9486C101.181 89.5349 100.84 88.5952 100.818 88.1039C101.667 87.1663 103.046 86.3403 102.599 84.5068C98.7699 83.0786 95.3228 87.7916 98.0256 91.0768C98.2672 91.4837 99.1406 91.2192 99.4753 91.5186C98.7945 92.458 99.7308 94.1313 98.2704 94.1697C98.5583 91.8179 92.1948 89.7651 91.9128 92.0736C91.5769 94.6066 96.0153 94.4408 97.9884 94.484C97.8709 94.6021 97.7856 94.745 97.711 94.8934C96.4028 95.1043 94.9892 95.3249 93.5186 95.5584C93.2143 95.4439 92.907 95.3618 92.5884 95.3177C90.4665 95.0368 88.7525 95.7642 87.3515 96.3132C87.2266 94.3801 87.0531 92.6988 86.818 91.1986C86.6967 90.4295 86.776 89.3506 86.1117 89.0259C84.823 90.93 84.2598 93.9706 84.6871 96.9352L84.4515 96.9815C83.9858 96.7973 83.3586 96.7905 83.1282 96.3539C83.5993 94.0556 83.0733 91.7167 82.9153 89.8375C82.8216 88.7648 83.0936 87.376 82.2228 86.9025C80.7465 89.1437 80.4545 93.3539 80.5153 96.6998C79.382 89.5629 79.5206 81.0833 79.0189 73.2913C79.4416 72.9595 80.2305 73.0061 80.7762 72.8005C81.6347 71.9254 81.5201 70.044 83.1321 69.9829C84.7292 71.5332 90.5288 73.9704 90.2616 68.9727C93.4744 69.3849 95.9859 67.9066 97.5658 66.0762C98.0011 66.081 98.4364 66.0803 98.8825 66.0743C100.366 65.1572 100.551 62.845 101.115 60.9249C101.882 61.7336 102.422 62.8057 104.294 62.449C104.55 62.0503 105.234 61.7702 105.63 61.1885C105.952 60.6711 105.851 59.7964 106.216 59.0108C106.673 58.0364 107.192 58.0421 107.257 57.2886C107.352 56.2152 106.585 55.4553 106.575 54.3483C107.054 53.3009 107.806 52.5548 108.347 51.5352C110.383 51.9752 112.929 51.8538 113.008 49.7764C113.116 47.5502 110.755 47.3562 109.996 45.6251C110.559 43.8081 112.675 44.1486 113.529 42.9452C115.316 40.4334 111.89 36.7876 108.206 37.7377C109.308 35.7664 109.598 31.8194 108.29 29.9629C108.75 28.6847 107.997 27.8517 107.592 27.0333C108.894 24.2151 106.419 23.8191 104.867 23.8022C105.358 22.7114 106.412 22.2183 106.638 20.8371C105.756 18.8904 103.677 20.6257 102.426 21.038C101.778 20.0515 102.696 19.896 102.734 18.8574C101.728 18.3526 100.343 18.2561 99.2524 17.8182C101.994 15.2897 98.3651 13.9017 96.7979 16.2992C95.7276 15.2783 94.5685 13.475 92.7572 14.9556C90.9639 14.2849 90.6912 12.0273 89.2971 10.9486C87.3713 10.5288 86.3242 11.8494 85.369 11.9258C85.0965 9.64388 85.7382 7.07618 83.683 7.127C81.9844 7.19257 81.312 9.59172 80.7195 11.365C78.7437 11.5659 78.7346 9.68025 76.9664 9.6935C77.0876 3.53886 69.1669 4.7004 69.9631 11.0224C69.5505 10.4292 68.7275 10.2873 68.2246 9.78799C68.2509 8.37205 67.3811 7.30988 66.5138 7.02097C63.9627 6.17378 61.4666 8.7104 61.097 11.1156C59.5552 10.4476 58.1423 10.5949 57.1908 11.3198L57.18 11.3197L57.1799 11.3305C56.6565 11.7264 56.2742 12.3109 56.1283 13.0446C55.7273 14.8634 56.2019 16.9604 57.5318 16.7361C58.7668 16.538 58.3984 14.6239 59.3051 13.7846C60.5678 14.2732 62.8441 14.5314 63.6837 13.4065C63.4889 14.9047 65.52 16.3187 66.1521 14.6354C67.2411 16.1693 69.0166 16.9863 70.3163 18.2919C68.3382 17.7141 65.8761 15.9075 63.6397 17.4404C61.6382 15.286 58.9344 17.7797 58.3696 19.9901C58.0014 19.0474 57.4229 18.2949 56.5063 18.3066C55.9762 18.3226 55.695 19.0629 54.7558 19.4053C54.2699 19.5899 53.8691 19.3957 53.5886 19.5825C52.8755 20.0251 52.7043 20.8507 52.3929 21.1376C50.2975 19.6659 46.5605 20.4743 46.9925 23.9952C46.2011 25.4136 44.3924 25.904 44.0593 27.4441C43.9373 27.9745 44.1339 28.2805 44.3262 28.9934C44.8132 30.9467 45.8185 32.4635 47.6293 32.5212C48.1806 32.5408 48.6052 32.0354 49.0918 32.0407C49.8218 32.0378 50.2564 33.0952 50.9768 32.4872C52.2241 30.6695 50.9326 30.3353 50.1416 29.2441C49.846 28.8312 49.7902 28.2527 49.5683 28.017C48.8341 27.1706 47.4268 27.0467 47.4103 26.3249C49.2895 26.557 49.8007 25.2983 50.0495 23.8061C52.583 26.0178 55.148 24.1086 55.8929 21.2518C56.2815 22.3033 56.2857 23.1525 56.8822 23.7423C59.2286 25.9954 61.243 22.2679 62.15 20.4139C62.4715 23.1549 64.7607 24.4496 67.6458 23.9276C68.6509 23.7378 69.7305 22.6617 70.5577 23.4168C70.053 24.0814 69.2435 24.4334 69.0809 25.4545C68.056 22.2582 64.9065 25.9624 67.1591 27.6501C66.6508 28.141 66.4738 29.0018 66.1286 29.6709C66.1649 27.3326 66.3499 24.7545 64.7263 24.886C63.2083 25.0078 63.506 27.6916 62.6461 28.9492C62.1628 28.6455 61.3833 27.9886 60.6016 28.5145C60.0033 28.5921 60.3427 29.6919 60.0197 30.0519C58.8564 29.871 58.3481 30.3864 57.6877 30.6993C57.2577 28.7249 54.6773 29.5812 54.7617 31.5057C53.1921 32.137 52.4561 33.6754 51.5174 34.9647C51.4673 33.1111 49.01 32.596 47.7563 33.7625C47.2326 33.2033 46.2905 33.0763 45.1513 33.1697C44.8265 32.9518 45.0459 32.1647 44.4312 32.253C43.7863 32.1401 43.919 33.357 43.416 32.8767C41.2304 31.7432 38.5157 32.5194 38.3015 34.8015C38.0755 37.173 40.3962 38.0719 40.1293 39.7402C39.9313 41.0376 37.5491 41.5651 37.3419 43.2097C37.0623 45.293 38.6674 45.8558 39.776 46.5842C39.2955 47.0157 39.3043 47.9491 39.3153 48.9178C39.7191 49.8175 40.7358 50.0538 41.6239 50.427C41.3187 51.8861 40.6472 52.964 40.85 54.9467C41.6899 57.7558 45.5674 56.4633 46.5157 55.0357C46.7676 56.4764 46.9538 57.7563 47.9285 58.1196C50.2547 59.0078 50.8227 55.5195 52.3397 54.497C52.1388 56.5594 49.337 59.1144 49.3391 62.1422C49.3373 63.3007 49.7377 65.4999 50.4712 66.1672C51.7024 67.3066 54.4681 66.3194 55.1328 64.8751C55.553 66.2552 56.9883 67.0278 58.7349 66.526C58.6732 69.2058 59.8597 71.2129 61.8941 70.8499C63.6874 70.5276 63.1486 67.8737 65.1293 67.7109C64.6797 70.0175 64.0364 73.7274 65.9291 74.2066C68.4256 74.847 68.2221 70.7046 70.0437 70.757C71.3385 70.782 71.8183 73.3836 73.5112 72.1053C73.5531 78.9128 74.4296 87.0426 73.1384 93.3771C73.0299 92.1714 72.4775 91.0177 72.1689 89.8097C71.8364 88.5689 71.9995 87.0053 71.0425 86.2487C70.3378 89.3855 70.9804 93.9261 69.7626 96.5092C69.7585 91.9322 68.6087 88.531 67.2618 85.3583C67.1675 86.3258 67.1105 87.3372 67.0504 88.3892C67.048 88.6116 67.0381 88.7635 67.0376 88.815L67.0375 88.8258C66.9104 91.5511 66.8354 94.4614 66.5491 97.1632C66.0651 97.1688 65.5836 97.1852 65.0969 97.1935C65.1083 96.1464 65.3874 95.5932 64.8313 95.0174C63.7365 95.0055 64.2934 96.7506 63.6423 97.2047C63.4071 97.2022 63.1584 97.1994 62.9121 97.2185C62.9015 96.2118 63.1043 94.966 62.3661 94.7328C61.4589 94.8639 61.8399 96.3766 61.47 97.0752C60.8352 97.0276 59.9403 97.2701 59.7238 96.793C59.6328 94.4777 59.4324 92.2834 58.1842 91.2171C57.0926 92.152 57.7077 95.0021 57.7006 96.6407C57.1489 96.6564 56.6187 96.6668 56.0942 96.672C55.9928 94.8178 55.7209 92.9863 55.2813 91.397C54.8929 90.0715 54.5607 88.5621 53.7327 87.6307L53.2648 87.6473C53.1489 90.5951 54.1579 95.2455 53.0173 97.9434C52.2067 94.9285 51.7025 91.5804 50.0577 89.4436C49.2225 91.4042 51.0864 95.2581 49.5447 97.0509C49.3371 97.7431 50.3025 97.9761 49.8135 98.4402C48.6641 98.4765 49.0325 96.9259 48.8286 96.2834C48.2453 94.4918 47.0764 92.5935 46.1192 91.3594C46.12 94.2597 47.1219 96.0993 47.4863 98.6291C46.9333 98.7669 45.8363 98.9611 45.4486 98.8076C44.5762 96.0091 43.5431 92.5685 41.604 91.3942C42.3892 94.0101 43.5878 96.1448 43.9905 99.1336C42.9097 99.0756 42.1329 98.9098 41.0946 99.1616C39.9315 97.9796 39.5348 96.1819 38.0781 95.637C34.5884 94.3455 33.6525 98.592 31.3446 99.7389C27.9702 97.7948 25.0325 100.66 21.7307 101.723C19.7937 102.329 17.9757 102.697 16.0292 103.186C14.0042 103.682 9.83595 103.362 10.9206 106.036C13.3987 107.381 15.7671 105.652 18.3472 105.319C19.7821 105.134 21.236 104.938 22.6605 104.718L22.6712 104.729ZM25.1793 89.1964L25.347 89.1874L25.3704 89.2718C25.3085 89.2467 25.2412 89.2188 25.1793 89.1964Z" fill="#995F16"/>
</svg>
